<svg style="fill-rule:evenodd;clip-rule:evenodd;stroke-linejoin:round;stroke-miterlimit:2;" xml:space="preserve" xmlns:xlink="http://www.w3.org/1999/xlink" xmlns="http://www.w3.org/2000/svg" version="1.1" viewBox="0 0 751 140" height="100%" width="100%">
    <g transform="matrix(1,0,0,1,0.0003,-305.239)" id="Layer-1">
        <g transform="matrix(1,0,0,1,41.4937,444.762)">
            <path style="fill:rgb(85,92,102);" d="M0,-88.175C-21.609,-88.175 -41.494,-69.676 -41.494,-44.086C-41.494,-18.499 -21.609,0 0,0C21.785,0 41.494,-18.499 41.494,-44.086C41.494,-69.676 21.609,-88.175 0,-88.175M0,-14.176C-15.558,-14.176 -26.28,-27.144 -26.28,-44.086C-26.28,-61.029 -15.558,-73.999 0,-73.999C15.559,-73.999 26.28,-61.029 26.28,-44.086C26.28,-27.144 15.733,-14.176 0,-14.176"></path>
        </g>
        <g transform="matrix(1,0,0,1,195.366,443.724)">
            <path style="fill:rgb(85,92,102);" d="M0,-87.137C-13.311,-87.137 -21.785,-79.72 -26.453,-73.334L-29.389,-73.334C-34.404,-80.407 -42.187,-87.137 -53.594,-87.137C-65.008,-87.137 -72.44,-80.407 -75.724,-76.611L-78.146,-76.611L-81.086,-86.275L-91.113,-86.275L-91.113,0L-75.899,0L-75.899,-49.177C-75.899,-65.048 -66.216,-74.024 -54.981,-74.024C-40.111,-74.024 -38.036,-58.322 -38.036,-41.581L-38.036,0L-22.824,0L-22.824,-50.383C-22.302,-65.567 -12.794,-74.024 -1.903,-74.024C12.966,-74.024 15.039,-58.322 15.039,-41.581L15.039,0L30.256,0L30.256,-46.761C30.256,-70.572 19.882,-87.137 0,-87.137"></path>
        </g>
        <g transform="matrix(1,0,0,1,290.958,443.724)">
            <path style="fill:rgb(85,92,102);" d="M0,-87.137C-14.283,-87.137 -22.025,-80.235 -25.297,-76.442L-27.36,-76.442L-30.457,-86.275L-40.439,-86.275L-40.439,0L-25.297,0L-25.297,-49.177C-25.297,-64.361 -14.968,-74.024 -2.063,-74.024C14.968,-74.024 17.551,-56.941 17.551,-41.581L17.551,0L32.693,0L32.693,-46.761C32.693,-70.747 21.856,-87.137 0,-87.137"></path>
        </g>
        <g transform="matrix(1,0,0,1,427.215,407.416)">
            <path style="fill:rgb(85,92,102);" d="M0,-14.521C-8.474,-16.768 -16.598,-19.533 -16.598,-27.488C-16.598,-34.578 -10.374,-39.073 -2.42,-39.073C6.743,-39.073 13.483,-33.197 13.483,-26.798L27.488,-26.798C27.488,-38.729 16.942,-51.348 -2.42,-51.348C-18.329,-51.348 -30.95,-42.705 -30.95,-27.318C-30.95,-10.026 -14.869,-5.358 -3.115,-2.246C6.396,0.346 14.866,3.111 14.866,11.929C14.866,20.404 7.26,24.379 -0.864,24.379C-10.374,24.379 -19.537,18.844 -19.537,8.128L-33.543,8.128C-33.543,23.86 -20.576,36.827 -0.692,36.827C16.25,36.827 29.217,27.319 29.217,11.241C29.217,-6.569 13.139,-11.065 0,-14.521"></path>
        </g>
        <g transform="matrix(1,0,0,1,515.6,444.243)">
            <path style="fill:rgb(85,92,102);" d="M0,-88.175C-21.635,-88.175 -41.015,-71.577 -41.015,-44.779C-41.015,-17.807 -21.635,0 0.169,0C15.917,0 30.8,-9.336 37.374,-25.07L21.454,-25.07C17.302,-18.326 10.036,-14.003 0.169,-14.003C-14.711,-14.003 -24.75,-24.033 -26.132,-40.112L39.275,-40.112C41.009,-72.788 20.761,-88.175 0,-88.175M-25.439,-52.732C-22.67,-66.565 -12.981,-75.381 -0.176,-75.381C12.803,-75.381 21.454,-66.042 23.531,-52.732L-25.439,-52.732Z"></path>
        </g>
        <g transform="matrix(1,0,0,1,616.685,443.205)">
            <path style="fill:rgb(85,92,102);" d="M0,-87.137C-14.283,-87.137 -22.026,-80.235 -25.297,-76.442L-27.36,-76.442L-30.46,-86.275L-40.439,-86.275L-40.439,0L-25.297,0L-25.297,-49.177C-25.297,-64.361 -14.972,-74.024 -2.066,-74.024C14.968,-74.024 17.551,-56.941 17.551,-41.581L17.551,0L32.692,0L32.692,-46.762C32.692,-70.747 21.854,-87.137 0,-87.137"></path>
        </g>
        <g transform="matrix(1,0,0,1,735.368,444.243)">
            <path style="fill:rgb(85,92,102);" d="M0,-123.444L0,-74.238C-5.511,-82.353 -13.946,-88.049 -25.994,-88.049C-47.86,-88.049 -65.763,-69.577 -65.763,-44.023C-65.763,-18.473 -47.86,0 -25.994,0C-14.807,0 -6.715,-4.831 -1.378,-11.911L1.378,-11.911L4.645,-0.863L14.632,-0.863L14.632,-123.444L0,-123.444ZM-24.791,-14.156C-37.702,-14.156 -50.613,-25.379 -50.613,-44.023C-50.613,-62.671 -37.702,-73.894 -24.791,-73.894C-13.429,-73.894 0,-65.259 0,-44.023C0,-22.787 -13.429,-14.156 -24.791,-14.156"></path>
        </g>
        <g transform="matrix(1,0,0,1,342.842,443.724)">
            <path style="fill:rgb(85,92,102);" d="M0,-101.141L0,-87.993C11.935,-84.431 13.919,-72.091 13.919,-56.042L13.919,0L29.045,0L29.045,-61.219C29.045,-84.955 19.405,-99.407 0,-101.141"></path>
        </g>
        <g transform="matrix(-1,0,0,1,360.736,327.542)">
            <path style="fill:rgb(85,92,102);" d="M0,-22.303C6.159,-22.303 11.151,-17.312 11.151,-11.153C11.151,-4.994 6.159,0 0,0C-6.16,0 -11.151,-4.994 -11.151,-11.153C-11.151,-17.312 -6.16,-22.303 0,-22.303"></path>
        </g>
    </g>
</svg>
