<svg style="fill-rule:evenodd;clip-rule:evenodd;stroke-linejoin:round;stroke-miterlimit:2;" xml:space="preserve" xmlns:xlink="http://www.w3.org/1999/xlink" xmlns="http://www.w3.org/2000/svg" version="1.1" viewBox="0 0 227 105" height="100%" width="100%">
    <g transform="matrix(1,0,0,1,0,-17.5008)">
        <path d="M83.813,100.261L85.84,100.261L85.84,95.065L90.325,87.963L88.028,87.963L84.899,93.345L81.684,87.963L79.329,87.963L83.814,95.047L83.814,100.261L83.813,100.261ZM63.973,100.261L65.999,100.261L65.999,89.557L69.795,89.557L69.795,87.963L60.159,87.963L60.159,89.557L63.973,89.557L63.973,100.261ZM49.373,100.261L47.545,100.261L47.545,91.058L41.871,100.261L39.719,100.261L39.719,87.963L41.547,87.963L41.547,97.334L47.303,87.963L49.373,87.963L49.373,100.261ZM19.355,100.261L28.558,100.261L28.558,98.666L21.381,98.666L21.381,94.594L27.821,94.594L27.821,93L21.381,93L21.381,89.558L28.307,89.558L28.307,87.963L19.354,87.963L19.354,100.261L19.355,100.261ZM0,100.261L2.026,100.261L2.026,94.792L7.423,94.792L7.423,93.198L2.026,93.198L2.026,89.557L8.269,89.557L8.269,87.963L0,87.963L0,100.261L0,100.261ZM115.518,87.846L115.518,100.144L119.613,100.144C120.596,100.144 121.741,100.165 122.717,100.059C123.29,99.996 123.851,99.832 124.327,99.498C124.775,99.183 125.11,98.768 125.351,98.277C125.596,97.777 125.729,97.25 125.729,96.693C125.729,96.04 125.557,95.444 125.159,94.924C124.741,94.376 124.157,94.047 123.503,93.854L122.753,93.633L123.465,93.31C123.964,93.083 124.363,92.747 124.66,92.287C124.953,91.832 125.099,91.331 125.099,90.789C125.099,90.307 124.989,89.848 124.744,89.432C124.513,89.042 124.218,88.707 123.842,88.452C123.468,88.199 123.054,88.043 122.61,87.967C121.909,87.848 121.088,87.846 120.377,87.846L115.517,87.846L115.518,87.846ZM117.544,89.404L119.328,89.404C120.019,89.404 120.899,89.371 121.581,89.451C122.021,89.503 122.444,89.658 122.743,89.998C123.03,90.325 123.145,90.728 123.145,91.159C123.145,91.619 123.008,92.037 122.679,92.366C122.349,92.696 121.915,92.854 121.458,92.908C120.867,92.977 120.135,92.955 119.538,92.955L117.544,92.955L117.544,89.404L117.544,89.404ZM117.544,94.513L119.937,94.513C120.571,94.513 121.743,94.508 122.341,94.716C122.728,94.85 123.062,95.076 123.297,95.415C123.536,95.758 123.631,96.153 123.631,96.567C123.631,97.043 123.512,97.496 123.192,97.858C122.898,98.19 122.518,98.383 122.084,98.467C121.561,98.568 120.781,98.55 120.245,98.55L117.544,98.55L117.544,94.514L117.544,94.513ZM136.389,100.144L145.593,100.144L145.593,98.55L138.415,98.55L138.415,94.478L144.855,94.478L144.855,92.883L138.415,92.883L138.415,89.441L145.341,89.441L145.341,87.846L136.389,87.846L136.389,100.145L136.389,100.144ZM167.149,100.144L162.223,87.846L159.864,87.846L155.089,100.144L157.218,100.144L158.288,97.212L163.859,97.212L164.971,100.144L167.149,100.144ZM163.233,95.618L158.867,95.618L161.019,89.72L163.233,95.618ZM177.139,87.846L177.139,94.433C177.139,95.437 177.158,96.656 177.386,97.638C177.5,98.128 177.739,98.561 178.054,98.951C178.425,99.409 178.916,99.738 179.45,99.978C180.21,100.32 181.296,100.378 182.118,100.378C182.888,100.378 183.759,100.304 184.478,100.007C185.01,99.787 185.5,99.478 185.876,99.038C186.244,98.606 186.468,98.096 186.59,97.545C186.798,96.598 186.793,95.298 186.793,94.328L186.793,87.846L184.766,87.846L184.766,94.684C184.766,95.392 184.767,96.224 184.648,96.922C184.559,97.448 184.289,97.875 183.877,98.211C183.371,98.623 182.674,98.729 182.041,98.729C181.378,98.729 180.697,98.602 180.16,98.189C179.684,97.823 179.387,97.334 179.267,96.745C179.14,96.125 179.165,95.172 179.165,94.535L179.165,87.846L177.139,87.846L177.139,87.846ZM200.906,100.144L202.933,100.144L202.933,89.44L206.728,89.44L206.728,87.846L197.093,87.846L197.093,89.44L200.906,89.44L200.906,100.144ZM220.26,100.144L222.286,100.144L222.286,94.948L226.772,87.846L224.475,87.846L221.346,93.228L218.131,87.846L215.776,87.846L220.26,94.93L220.26,100.144L220.26,100.144ZM90.194,17.575L101.915,17.575L101.915,47.944C101.915,51.188 104.2,53.915 105.38,53.915L90.194,53.915C90.194,53.915 93.954,52.736 93.954,48.018L93.954,24.283C93.954,21.113 92.185,18.017 90.194,17.575L90.194,17.575ZM104.716,17.722L115.92,17.722L115.92,28.779C115.92,28.779 115.036,19.196 104.716,17.722ZM106.19,36.371C106.19,36.371 112.087,36.74 113.267,30.99L113.267,41.973C113.267,41.973 112.161,36.592 106.19,36.371L106.19,36.371ZM119.09,17.501C121.596,17.722 135.602,17.206 135.602,26.052C135.602,33.423 126.608,34.234 124.839,34.529C124.839,34.529 137.444,35.782 137.444,44.038C137.444,52.293 128.967,53.989 119.532,53.989C119.532,53.989 127.272,51.851 127.272,44.406C127.272,36.961 122.555,34.529 120.343,34.529C120.343,34.529 126.092,34.086 126.092,26.199C126.092,18.312 119.606,17.796 119.09,17.501L119.09,17.501ZM51.348,117.025L53.608,117.025C53.955,117.025 54.247,116.96 54.486,116.83C54.726,116.7 54.904,116.526 55.02,116.311C55.136,116.097 55.195,115.871 55.195,115.633C55.195,115.399 55.134,115.191 55.009,115.008C54.886,114.822 54.698,114.676 54.446,114.569C54.197,114.46 53.889,114.406 53.53,114.406L51.348,114.406L51.348,117.025ZM51.348,117.808L51.348,120.778L53.657,120.778C54.011,120.778 54.322,120.716 54.592,120.589C54.861,120.465 55.07,120.285 55.217,120.055C55.363,119.825 55.437,119.557 55.437,119.249C55.405,118.288 54.762,117.808 53.504,117.808L51.348,117.808L51.348,117.808ZM50.256,113.575L53.748,113.575C54.307,113.575 54.774,113.667 55.153,113.85C55.53,114.032 55.811,114.269 55.995,114.562C56.179,114.854 56.277,115.168 56.287,115.505C56.287,115.961 56.15,116.357 55.873,116.692C55.595,117.027 55.212,117.247 54.724,117.352C55.927,117.664 56.529,118.362 56.529,119.445C56.529,119.829 56.431,120.186 56.236,120.517C56.04,120.846 55.737,121.114 55.325,121.316C54.912,121.519 54.402,121.62 53.797,121.62L50.256,121.62L50.256,113.575ZM63.176,113.575L64.436,113.575L66.744,117.28L69.08,113.575L70.068,113.575L67.163,118.241L67.163,121.62L66.071,121.62L66.071,118.241L63.176,113.575ZM88.279,114.452L88.279,117.306L90.539,117.306C91.114,117.306 91.544,117.157 91.833,116.859C92.122,116.561 92.265,116.185 92.265,115.727C92.244,115.36 92.102,115.056 91.84,114.814C91.575,114.573 91.18,114.452 90.653,114.452L88.279,114.452ZM87.186,113.575L90.409,113.575C91.315,113.575 92.022,113.763 92.53,114.139C93.038,114.513 93.315,115.059 93.357,115.774C93.357,116.265 93.211,116.707 92.917,117.099C92.623,117.49 92.223,117.757 91.72,117.9L93.457,121.62L92.318,121.62L90.678,118.124L88.279,118.124L88.279,121.62L87.186,121.62L87.186,113.575ZM102.842,121.62L101.75,121.62L101.75,113.575L102.842,113.575L102.842,121.62ZM112.749,116.919L116.786,116.919L116.786,113.575L117.878,113.575L117.878,121.62L116.786,121.62L116.786,117.808L112.749,117.808L112.749,121.62L111.657,121.62L111.657,113.575L112.749,113.575L112.749,116.919ZM125.801,121.62L128.595,113.575L129.867,113.575L132.696,121.62L131.581,121.62L130.703,119.27L127.49,119.27L126.69,121.62L125.801,121.62ZM129.115,114.651L127.782,118.51L130.461,118.51L129.115,114.651ZM140.469,113.575L141.825,113.575L145.98,120.135L145.98,113.575L146.868,113.575L146.868,121.62L145.825,121.62L141.383,114.63L141.383,121.62L140.469,121.62L140.469,113.575L140.469,113.575ZM155.502,113.575L156.859,113.575L161.013,120.135L161.013,113.575L161.902,113.575L161.902,121.62L160.858,121.62L156.417,114.63L156.417,121.62L155.502,121.62L155.502,113.575ZM169.647,121.62L172.441,113.575L173.713,113.575L176.542,121.62L175.427,121.62L174.549,119.27L171.336,119.27L170.536,121.62L169.647,121.62ZM172.961,114.651L171.628,118.51L174.307,118.51L172.961,114.651Z"></path>
    </g>
</svg>
