<svg style="fill-rule:evenodd;clip-rule:evenodd;stroke-linejoin:round;stroke-miterlimit:2;" xml:space="preserve" xmlns:xlink="http://www.w3.org/1999/xlink" xmlns="http://www.w3.org/2000/svg" version="1.1" viewBox="0 0 600 141" height="100%" width="100%">
    <g transform="matrix(1,0,0,1,-20.6,-250.3)">
        <path style="fill-rule:nonzero;" d="M140.1,391.3L148.4,391.3C150.3,391.3 152,389.6 152.1,387.7L152.1,295.3C152.1,286.2 144.9,278.8 136,278.8L125.3,278.8C123.4,278.8 121.7,277.1 121.7,275.2L121.7,266.8C121.7,257.7 114.5,250.3 105.6,250.3L36.7,250.3C27.8,250.3 20.6,257.6 20.6,266.8L20.6,359.7C20.6,368.7 27.8,376.1 36.7,376.2L116.5,376.2C117.2,376.2 117.9,376.4 118.5,376.8L138,390.8C138.6,391.1 139.4,391.3 140.1,391.3ZM120.7,362.9L36.9,362.9C34.9,362.9 33.3,361.3 33.3,359.3L33.3,267C33.3,265 34.9,263.4 36.9,263.4L105.4,263.4C107.3,263.4 109,265.1 109,267L109,275.2C109,277.2 107.4,278.8 105.4,278.8L54.4,278.8C52.5,278.8 50.8,280.5 50.8,282.4L50.8,344C50.8,346 52.4,347.6 54.4,347.6L118.1,347.6C120,347.6 121.7,345.9 121.7,344L121.7,295.5C121.7,293.5 123.3,291.9 125.3,291.9L135.7,291.9C137.6,291.9 139.3,293.6 139.3,295.5L139.3,371C139.3,372.9 137.3,373.9 135.9,372.9L122.9,363.6C122.1,363.1 121.4,362.9 120.7,362.9ZM107.1,334.4L65.3,334.4C64.4,334.4 63.6,333.7 63.6,332.6L63.6,293.5C63.6,292.6 64.3,291.7 65.3,291.7L107.1,291.7C108,291.7 108.8,292.4 108.8,293.5L108.8,332.6C108.8,333.6 108.1,334.4 107.1,334.4ZM475.1,270C480.4,270 484.7,265.6 484.7,260.2C484.7,254.8 480.4,250.4 475.1,250.4C469.8,250.4 465.5,254.8 465.5,260.2C465.5,265.6 469.8,270 475.1,270ZM365.1,284.4L365.1,278.9L349.6,278.9L349.6,347.1L365.1,347.1L365.1,300.5L383.2,292.8L383.2,276.9L383,276.9L365.1,284.4ZM304.9,278.8C294.8,278.8 286.6,282.2 280.3,289C277.4,292.2 275.2,295.8 273.6,300.1C272.1,304.3 271.3,308.8 271.3,313.4C271.3,323 274,330.9 279.4,337C285.4,343.7 293.6,347 304,347C314.2,347 322.3,343.6 328.5,336.8C334.3,330.3 337.2,322.2 337.2,312.4C337.2,302.6 334.3,294.6 328.7,288.4C322.9,282 314.9,278.8 304.9,278.8ZM317.1,327.3C314.2,331 310,332.9 304.9,332.9C299.4,332.9 294.8,331 291.4,327.2C289.8,325.5 288.5,323.3 287.7,320.8C286.8,318.3 286.4,315.8 286.4,313.1C286.4,307.6 287.8,303.1 290.8,299.2C294,295.1 298.4,293 304,293C309.5,293 313.9,294.9 317,298.8C319.9,302.4 321.5,307.2 321.5,313.1C321.4,318.9 320,323.7 317.1,327.3ZM467.3,278.9L482.7,278.9L482.7,347.2L467.3,347.2L467.3,278.9ZM231.5,278.8C222.7,278.8 215.4,281.4 209.8,286.7C204.5,291.7 201.9,298 201.9,305.6C201.9,312.3 204.2,317.9 208.9,322.4C204.9,325.7 202.9,329.6 202.9,334.2C202.9,337 203.3,339.5 203.9,341.6C204.5,343.8 205.8,345.6 207.7,347.2C200.7,351.1 197.3,357.5 197.6,366.2C197.8,373.8 201,379.8 207.2,384.3C213.5,388.9 221.8,391.1 231.9,391.1C242.1,391.1 249.7,389.1 254.8,385.1C260,381.1 262.6,375.3 262.6,367.8C262.6,360.3 260.5,354.5 256.4,350.4C254.2,348.2 251.3,346.5 247.8,344.9C244.2,343.4 239.4,342.2 233.2,341.2C226.9,340.2 222.5,339.1 219.8,337.7C218.5,337.2 217.7,336.5 217.4,335.9C217,335.3 216.9,334.4 216.9,333.2C216.9,332 217.7,330.4 219.2,328.3C222.7,329.5 226.5,330.1 230.6,330.1C239,330.1 245.9,327.5 251.3,322.4C253.7,320 255.6,317.2 256.9,314C258.2,310.8 258.9,307.3 258.9,303.3C258.9,299.4 258,295.6 256.2,292.2C256.2,292.2 256.2,292.1 256.1,292.1L262.6,292.1L262.6,278.7L231.5,278.7L231.5,278.8ZM220.7,352.5L223.9,353C232.9,354.4 239.3,356.2 243,358.6C246.3,360.7 247.9,363.5 247.9,367C247.9,374.3 242.8,377.8 232.6,377.8C226.6,377.8 221.8,376.5 218,374.1C216.3,373 215,371.6 214.1,370.1C213.1,368.6 212.7,366.8 212.7,364.7C212.7,362.6 213.3,360.4 214.6,358.1C216,355.9 218,354.1 220.7,352.5ZM240.2,313.5C237.7,315.8 234.8,317 231.4,317C226.9,317 223.4,315.7 220.6,313.2C219.3,312.1 218.5,310.7 217.7,309.4C217.1,307.9 216.7,306.5 216.7,304.9C216.7,303.4 217,301.8 217.6,300.3C219.6,295.1 223.9,292.6 230.8,292.6C234.9,292.6 238.2,293.7 240.5,295.9C242.8,298.1 244.1,301 244.1,304.6C244.1,307.8 242.8,310.9 240.2,313.5ZM550.9,293.7C552.1,296.8 552.7,300.4 552.7,304.4L552.7,347L537.5,347L537.5,343.8C532.9,345.9 528.7,347 524.9,347C520.1,347 516.1,346.5 512.7,345.6C509.3,344.7 506.4,343.3 504.1,341.6C499.4,338 497,332.8 497,326C497,320 499.9,314.9 505.7,310.9C512,306.5 520.7,304.3 531.6,304.3L534.1,304.4L535.8,304.4C536.1,304.4 536.4,304.5 536.6,304.5C536.9,304.5 537.2,304.5 537.4,304.6C537,297.9 534.2,293.8 528.8,292.8C527.1,292.4 525.1,292.3 523.2,292.3C521.1,292.3 519.2,292.5 517.3,292.8C515.3,293.2 513.5,293.7 511.7,294.3C507.8,295.6 504.8,297.1 503.1,298.8L502.9,298.7L501,284.8C508.2,280.9 516.3,279 524.9,279C538.6,278.8 547.2,283.7 550.9,293.7ZM537.5,330.8L537.5,316.1C536.3,315.9 535.2,315.8 534,315.8L531.5,315.8C522.4,315.8 516.6,317.9 514.1,322C513.4,323.2 513,324.5 513,325.8C513,327.2 513.3,328.4 513.7,329.4C514.2,330.4 515,331.3 516.1,332C518.2,333.3 521.5,333.9 525.7,333.9C529.9,333.9 533.9,332.8 537.5,330.8ZM609.8,309C612.4,310.3 614.5,311.8 616.1,313.6C619,316.9 620.6,321.3 620.6,326.9C620.6,332.8 618.3,337.7 613.6,341.4C608.8,345.3 602,347.2 593.2,347.2C582.7,347.2 574.4,345.4 568.6,341.8L568.6,325C568.6,324.9 569,325.3 569.6,326C570.2,326.7 571.5,327.5 573.2,328.6C574.9,329.7 577,330.6 579.2,331.4C584.1,333.1 589.2,334 594.6,334C601.7,334 605.3,331.5 605.3,326.7C605.3,325.2 604.6,324 603.2,323.2C600.8,321.9 597.2,320.9 592.5,320.3C587.8,319.6 583.9,318.7 580.9,317.4C577.9,316.1 575.4,314.6 573.5,312.8C570,309.4 568.2,305.1 568.2,299.7C568.2,293.1 570.7,287.9 575.6,284.2C580.5,280.5 587.3,278.6 596,278.6C604.6,278.6 611.9,281.1 618,286.1C617.7,287.2 617.5,288.3 617.1,289.3C616.1,292.1 615.4,294.1 615,295.3L613.6,299C613.5,299.4 613.4,299.5 613.4,299.5C613.3,299.5 613,299 612.4,298.1C609.8,295 605.7,293 600.3,292C598.6,291.6 596.9,291.5 595.1,291.5C587.6,291.5 583.8,293.8 583.8,298.4C583.8,299.9 584.5,301.2 586.1,302C589,303.6 593.1,304.8 598.2,305.6C603.3,306.7 607.1,307.7 609.8,309ZM421.8,278.8C413,278.8 405.7,281.4 400.1,286.7C394.8,291.7 392.2,298 392.2,305.6C392.2,312.3 394.5,317.9 399.2,322.4C395.2,325.7 393.2,329.6 393.2,334.2C393.2,337 393.6,339.5 394.2,341.6C394.8,343.8 396.1,345.6 398,347.2C391,351.1 387.6,357.5 387.9,366.2C388.1,373.8 391.3,379.8 397.5,384.3C403.8,388.9 412.1,391.1 422.2,391.1C432.4,391.1 440,389.1 445.1,385.1C450.3,381.1 452.9,375.3 452.9,367.8C452.9,360.3 450.8,354.5 446.7,350.4C444.5,348.2 441.6,346.5 438.1,344.9C434.5,343.4 429.7,342.2 423.5,341.2C417.2,340.2 412.8,339.1 410.1,337.7C408.8,337.2 408,336.5 407.7,335.9C407.3,335.3 407.2,334.4 407.2,333.2C407.2,332 408,330.4 409.5,328.3C413,329.5 416.8,330.1 420.9,330.1C429.3,330.1 436.2,327.5 441.6,322.4C444,320 445.9,317.2 447.2,314C448.5,310.8 449.2,307.3 449.2,303.3C449.2,299.4 448.3,295.6 446.5,292.2C446.5,292.2 446.5,292.1 446.4,292.1L452.9,292.1L452.9,278.7L421.8,278.7L421.8,278.8ZM411,352.5L414.2,353C423.2,354.4 429.6,356.2 433.3,358.6C436.6,360.7 438.2,363.5 438.2,367C438.2,374.3 433.1,377.8 422.9,377.8C416.9,377.8 412.1,376.5 408.3,374.1C406.6,373 405.3,371.6 404.4,370.1C403.4,368.6 403,366.8 403,364.7C403,362.6 403.6,360.4 404.9,358.1C406.3,355.9 408.3,354.1 411,352.5ZM430.5,313.5C428,315.8 425.1,317 421.7,317C417.2,317 413.7,315.7 410.9,313.2C409.7,312.1 408.8,310.7 408,309.4C407.4,307.9 407,306.5 407,304.9C407,303.4 407.3,301.8 407.9,300.3C409.9,295.1 414.2,292.6 421.1,292.6C425.2,292.6 428.5,293.7 430.8,295.9C433.1,298.1 434.4,301 434.4,304.6C434.4,307.8 433.1,310.9 430.5,313.5Z"></path>
    </g>
</svg>
