<svg xmlns="http://www.w3.org/2000/svg" fill="none" viewBox="0 0 83 22" height="22" width="83">
<g clip-path="url(#clip0_1_207)">
<mask height="22" width="83" y="0" x="0" maskUnits="userSpaceOnUse" style="mask-type:luminance" id="mask0_1_207">
<path fill="white" d="M83 0.333008H0V21.7384H83V0.333008Z"></path>
</mask>
<g mask="url(#mask0_1_207)">
<path fill="#E6E7E9" d="M17.8959 5.21717H14.697V2.02759C14.697 1.0914 13.9364 0.333008 12.9975 0.333008H1.69952C0.760602 0.333008 0 1.0914 0 2.02759V18.1769C0 19.1131 0.760602 19.8715 1.69952 19.8715H16.3293L17.9123 21.4499C18.0979 21.635 18.3472 21.7384 18.6092 21.7384C19.1533 21.7384 19.5955 21.2993 19.5955 20.755V6.91175C19.5955 5.97556 18.8349 5.21717 17.8959 5.21717ZM17.9632 18.2422H1.6322V1.96046H13.063V5.21717H6.5979C5.65901 5.21717 4.89841 5.97556 4.89841 6.91175V13.2928C4.89841 14.2289 5.65901 14.9873 6.5979 14.9873H12.9975C13.9364 14.9873 14.697 14.2289 14.697 13.2928V6.84646H17.9632V18.244V18.2422ZM13.0649 6.84462V13.358H6.5324V6.84462H13.0649Z"></path>
<path fill="#E6E7E9" d="M44.3769 5.72518C43.7182 5.3097 42.9412 5.09924 42.0696 5.09924C41.198 5.09924 40.421 5.3097 39.7623 5.72518C39.1036 6.14069 38.5851 6.73035 38.2175 7.47966C37.8517 8.22712 37.6661 9.11069 37.6661 10.1086C37.6661 11.1064 37.8517 11.9773 38.2175 12.7194C38.5851 13.4651 39.1054 14.053 39.7623 14.4684C40.421 14.8839 41.198 15.0943 42.0696 15.0943C42.9412 15.0943 43.7182 14.8839 44.3769 14.4684C45.0356 14.053 45.5542 13.4651 45.9217 12.7194C46.2875 11.9773 46.4731 11.0992 46.4731 10.1086C46.4731 9.11794 46.2875 8.22534 45.9217 7.47966C45.5542 6.73035 45.0338 6.14069 44.3769 5.72518ZM44.5352 11.8467C44.3387 12.3729 44.033 12.8029 43.6272 13.1258C43.2233 13.4452 42.6992 13.6084 42.0696 13.6084C41.44 13.6084 40.916 13.4469 40.512 13.1258C40.1044 12.8029 39.7987 12.3729 39.604 11.8467C39.4057 11.3151 39.3056 10.7309 39.3056 10.1086C39.3056 9.48629 39.4057 8.90026 39.604 8.36501C39.8006 7.83522 40.1062 7.3998 40.5138 7.07325C40.9178 6.75027 41.4419 6.58515 42.0714 6.58515C42.701 6.58515 43.225 6.74848 43.629 7.07325C44.0366 7.3998 44.3423 7.83344 44.5388 8.36501C44.7371 8.90026 44.8372 9.48808 44.8372 10.1086C44.8372 10.7291 44.7371 11.3151 44.5388 11.8467H44.5352Z"></path>
<path fill="#E6E7E9" d="M52.2267 6.58872L52.2158 5.17358C52.2158 5.12096 52.1721 5.07923 52.1211 5.07742C52.0011 5.0756 51.8973 5.07379 51.81 5.07379C51.2241 5.07379 50.6909 5.22619 50.2233 5.52737C49.8102 5.79226 49.5064 6.13338 49.3171 6.54157V5.31872C49.3171 5.26611 49.2735 5.22256 49.2207 5.22256H47.8232C47.7705 5.22256 47.7268 5.26611 47.7268 5.31872V14.8585C47.7268 14.9111 47.7705 14.9546 47.8232 14.9546H49.2698C49.3226 14.9546 49.3663 14.9111 49.3663 14.8585V8.79681C49.3663 8.38672 49.4663 8.01664 49.6665 7.6955C49.8667 7.37436 50.1432 7.11851 50.489 6.93531C50.8365 6.75206 51.2387 6.6577 51.6845 6.6577C51.8337 6.6577 51.9792 6.66679 52.1175 6.68309C52.1758 6.69034 52.2249 6.64682 52.2249 6.58872H52.2267Z"></path>
<path fill="#E6E7E9" d="M63.4938 5.22443H64.9407C64.9932 5.22443 65.0368 5.26797 65.0368 5.32058V14.8984C65.0368 14.951 64.9932 14.9946 64.9407 14.9946H63.4938C63.4413 14.9946 63.3971 14.951 63.3971 14.8984V5.32058C63.3971 5.26797 63.4413 5.22443 63.4938 5.22443Z"></path>
<path fill="#E6E7E9" d="M64.2289 1.66107C63.9214 1.66107 63.6539 1.7663 63.4335 1.97677C63.212 2.18723 63.0991 2.44305 63.0991 2.73878C63.0991 3.03451 63.212 3.29034 63.4335 3.5008C63.6539 3.70944 63.9214 3.81649 64.2289 3.81649C64.5364 3.81649 64.8039 3.71126 65.0242 3.5008C65.2458 3.29034 65.3586 3.03451 65.3586 2.73878C65.3586 2.44305 65.2458 2.18723 65.0242 1.97677C64.8039 1.76812 64.5364 1.66107 64.2289 1.66107Z"></path>
<path fill="#E6E7E9" d="M72.8411 5.66168C72.4589 5.43489 72.0607 5.28249 71.651 5.2081C71.2492 5.13553 70.8885 5.09924 70.5774 5.09924C70.0937 5.09924 69.5933 5.16637 69.0947 5.297C68.5902 5.42945 68.1208 5.6635 67.6987 5.9937C67.2968 6.30759 66.9672 6.74123 66.72 7.28368C66.6961 7.33451 66.7218 7.39617 66.7743 7.41431L68.1465 7.91508C68.1919 7.93143 68.2409 7.91145 68.2647 7.86792C68.4248 7.56308 68.6833 7.27101 69.038 6.99887C69.4166 6.70674 69.9516 6.55976 70.6282 6.55976C71.3053 6.55976 71.7621 6.72125 72.075 7.04055C72.3897 7.3599 72.5479 7.81709 72.5479 8.40134V8.45027C72.5479 8.6535 72.481 8.78961 72.3407 8.8694C72.1843 8.95829 71.9293 9.02179 71.5818 9.05991C71.2217 9.09802 70.7464 9.15605 70.1696 9.23044C69.7277 9.28853 69.2816 9.36654 68.8451 9.46453C68.4033 9.56246 67.9936 9.71307 67.6276 9.90899C67.2568 10.1086 66.9547 10.388 66.7325 10.74C66.5086 11.0919 66.3958 11.5546 66.3958 12.1134C66.3958 12.7466 66.5468 13.2946 66.8454 13.7427C67.1422 14.189 67.5494 14.5355 68.0534 14.7696C68.5561 15.0037 69.1198 15.1216 69.7349 15.1216C70.2991 15.1216 70.7828 15.0363 71.1781 14.8676C71.571 14.6988 71.8911 14.4902 72.1293 14.2489C72.3061 14.0692 72.4464 13.8969 72.5497 13.7318V14.8712C72.5497 14.9202 72.5897 14.9583 72.6375 14.9583H74.1022C74.1512 14.9583 74.1894 14.9184 74.1894 14.8712V8.55373C74.1894 7.78807 74.0604 7.16577 73.8072 6.7049C73.5523 6.24409 73.2268 5.89391 72.8411 5.6635V5.66168ZM72.5497 11.3696C72.5497 11.7487 72.45 12.1134 72.2553 12.4581C72.0589 12.801 71.7657 13.0859 71.3817 13.3036C70.9978 13.5213 70.5195 13.632 69.9588 13.632C69.3981 13.632 68.9287 13.5068 68.5669 13.2601C68.2104 13.0169 68.0372 12.6668 68.0372 12.186C68.0372 11.8395 68.1298 11.5637 68.3137 11.3641C68.503 11.1591 68.758 11.003 69.0709 10.8996C69.3927 10.7926 69.7438 10.7145 70.1188 10.6656C70.2753 10.6456 70.4813 10.6184 70.7356 10.5876C70.9906 10.5567 71.2563 10.5186 71.5274 10.4751C71.8003 10.4315 72.0457 10.3789 72.2571 10.3172C72.3771 10.2828 72.4733 10.2465 72.5497 10.2066V11.3696Z"></path>
<path fill="#E6E7E9" d="M82.3485 10.4715C81.921 10.0396 81.2659 9.71307 80.4037 9.50443L78.9897 9.1579C78.4421 9.0218 78.0361 8.84942 77.7829 8.64803C77.5393 8.4539 77.4193 8.19448 77.4193 7.85704C77.4193 7.47603 77.596 7.1694 77.9614 6.91901C78.3311 6.665 78.804 6.53621 79.3665 6.53621C79.7755 6.53621 80.1159 6.6015 80.3744 6.73035C80.6348 6.85914 80.842 7.02426 80.9912 7.22202C81.1238 7.39617 81.2313 7.57758 81.3095 7.76084C81.3298 7.80621 81.377 7.82981 81.4242 7.81709L82.7235 7.4397C82.776 7.42341 82.8071 7.36531 82.7892 7.31269C82.5521 6.66684 82.1682 6.13706 81.6427 5.73607C81.0892 5.31333 80.3231 5.09924 79.3665 5.09924C78.6875 5.09924 78.0707 5.2208 77.5357 5.46029C76.9971 5.69978 76.566 6.03723 76.2549 6.45998C75.942 6.88637 75.7814 7.38167 75.7814 7.93505C75.7814 8.60998 75.9945 9.18144 76.4167 9.62959C76.8335 10.076 77.4939 10.408 78.38 10.6166L79.9684 10.9885C80.4306 11.0956 80.7745 11.2571 80.993 11.4693C81.2098 11.678 81.3131 11.9302 81.3131 12.2386C81.3131 12.6196 81.1274 12.9389 80.7452 13.2147C80.3595 13.4923 79.8304 13.6338 79.1694 13.6338C78.5908 13.6338 78.1197 13.5104 77.765 13.2655C77.4354 13.0387 77.2025 12.6994 77.0717 12.255C77.0574 12.206 77.0061 12.1751 76.9571 12.1878L75.5795 12.5289C75.5288 12.5416 75.4959 12.5942 75.5067 12.645C75.6924 13.427 76.1038 14.0348 76.7332 14.4485C77.381 14.8766 78.2093 15.0943 79.1951 15.0943C79.9451 15.0943 80.6109 14.9673 81.1787 14.7152C81.7484 14.463 82.1992 14.111 82.5199 13.6719C82.8417 13.2292 83.0053 12.7212 83.0053 12.1606C83.0053 11.4766 82.785 10.9069 82.3539 10.4696L82.3485 10.4715Z"></path>
<path fill="#E6E7E9" d="M30.8662 12.9444C30.0492 12.9444 29.7271 12.7357 29.7271 12.2205C29.7271 11.5945 30.5459 11.2861 30.5459 11.2861C31.0882 11.4911 31.7269 11.5927 32.4165 11.5927C34.7401 11.5927 36.396 10.3698 36.396 8.41761C36.396 7.99669 36.2559 7.28003 35.6827 6.58513H37.4441C37.4969 6.58513 37.5405 6.5416 37.5405 6.48898V5.31875C37.5405 5.26614 37.4969 5.2226 37.4441 5.2226H32.4165C30.1147 5.2226 28.4807 6.44546 28.4807 8.41761C28.4807 9.44632 28.9319 10.2827 29.7071 10.8415C28.8683 11.2063 28.2878 11.785 28.2878 12.5996C28.2878 13.2419 28.6062 13.8134 29.3104 14.1237C29.0047 14.2017 27.6 14.6789 27.6 16.183C27.6 17.9211 29.7071 18.7139 32.2455 18.7139C35.0422 18.7139 37.6661 17.8122 37.6661 15.4753C37.6661 14.0166 36.5907 12.9444 34.5473 12.9444H30.8662ZM32.4238 6.58697C33.8576 6.58697 34.7383 7.23829 34.7383 8.42849C34.7383 9.61869 33.8594 10.2301 32.4238 10.2301C30.9881 10.2301 30.1329 9.57879 30.1329 8.42849C30.1329 7.27825 31.0118 6.58697 32.4238 6.58697ZM32.2473 17.3332C30.4768 17.3332 29.2522 16.8488 29.2522 15.7384C29.2522 14.7895 30.1056 14.4865 31.0882 14.4865H34.1706C35.286 14.4865 36.0066 14.7695 36.0066 15.5769C36.0066 16.8488 34.4326 17.3332 32.2473 17.3332Z"></path>
<path fill="#E6E7E9" d="M55.3146 12.9444C54.4976 12.9444 54.1755 12.7357 54.1755 12.2205C54.1755 11.5945 54.9943 11.2861 54.9943 11.2861C55.5366 11.4911 56.1752 11.5927 56.8649 11.5927C59.1885 11.5927 60.8444 10.3698 60.8444 8.41761C60.8444 7.99669 60.704 7.28003 60.1308 6.58513H61.8923C61.9455 6.58513 61.9891 6.5416 61.9891 6.48898V5.31875C61.9891 5.26614 61.9455 5.2226 61.8923 5.2226H56.8649C54.5631 5.2226 52.929 6.44546 52.929 8.41761C52.929 9.44632 53.3803 10.2827 54.1555 10.8415C53.3166 11.2063 52.7362 11.785 52.7362 12.5996C52.7362 13.2419 53.0546 13.8134 53.7588 14.1237C53.4531 14.2017 52.0483 14.6789 52.0483 16.183C52.0483 17.9211 54.1555 18.7139 56.6938 18.7139C59.4906 18.7139 62.1145 17.8122 62.1145 15.4753C62.1145 14.0166 61.039 12.9444 58.9957 12.9444H55.3146ZM56.8722 6.58697C58.306 6.58697 59.1867 7.23829 59.1867 8.42849C59.1867 9.61869 58.3079 10.2301 56.8722 10.2301C55.4365 10.2301 54.5813 9.57879 54.5813 8.42849C54.5813 7.27825 55.4601 6.58697 56.8722 6.58697ZM56.6957 17.3332C54.9252 17.3332 53.7006 16.8488 53.7006 15.7384C53.7006 14.7895 54.554 14.4865 55.5366 14.4865H58.619C59.7343 14.4865 60.455 14.7695 60.455 15.5769C60.455 16.8488 58.881 17.3332 56.6957 17.3332Z"></path>
</g>
</g>
<defs>
<clipPath id="clip0_1_207">
<rect fill="white" height="22" width="83"></rect>
</clipPath>
</defs>
</svg>
