<svg style="fill:currentColor" height="203.80516" width="1000" id="svg209" role="img" viewBox="0 0 1000 203.80515" version="1.1" class="searchspring-svg-logo" xmlns="http://www.w3.org/2000/svg">
  <metadata id="metadata215">
    
      
        image/svg+xml
        
        Searchspring Logo
      
    
  </metadata>
  <defs id="defs213"></defs>
  
  <title id="title197">Searchspring Logo</title>
  <desc id="desc199">The Searchspring Logo in SVG form</desc>
  <g style="fill:#4c3ce2" transform="matrix(3.8453804,0,0,3.8453804,0.20109179,0)" id="g203" class="logo-mark">
    <path id="path201" d="m 10.2,11 c -0.1,0.1 -0.2,0.1 -0.4,0.2 -6.3,3 -8.3,11.7 -4.6,19.4 l 22.7,-11 C 28,19.5 28.2,19.5 28.3,19.4 34.6,16.4 36.6,7.7 32.9,0 Z M 6.8,33.4 C 6.7,33.5 6.6,33.5 6.4,33.6 0.1,36.6 -1.9,45.3 1.8,53 L 24.5,42 c 0.1,-0.1 0.3,-0.1 0.4,-0.2 6.3,-3 8.3,-11.7 4.6,-19.4 z"></path>
  </g>
  <g style="fill:#515151" transform="matrix(3.8453804,0,0,3.8453804,0.20109179,0)" id="g207" class="logo-text">
    <path id="path205" d="m 54.9,30.3 c 1.8,1.4 4,2.2 6.2,2.3 1.7,0 2.4,-0.5 2.4,-1.3 0,-0.9 -1.2,-1.2 -3,-1.5 -3,-0.5 -7.3,-1.1 -7.3,-5.6 0,-3.1 2.7,-5.8 7.6,-5.8 2.7,0 5.3,0.8 7.4,2.3 L 66,24.4 a 7.6,7.6 0 0 0 -5.2,-1.9 c -1.3,0 -2.2,0.4 -2.2,1.2 0,0.8 1,1.1 2.8,1.4 3,0.5 7.5,1.2 7.5,5.9 0,3.4 -3,5.9 -8.1,5.9 -3,0.1 -5.9,-0.9 -8.3,-2.7 z m 24.4,-12 c 5.2,0 9.1,3.8 9.1,9.9 v 1.2 H 75.7 c 0.3,1.7 1.9,3.2 4.5,3.2 1.6,0 3.1,-0.5 4.3,-1.5 l 2.4,3.5 c -1.8,1.6 -4.7,2.3 -7.4,2.3 -5.5,0 -9.7,-3.6 -9.7,-9.3 a 9.15,9.15 0 0 1 9.5,-9.3 z m -3.7,7.4 h 7.3 c -0.2,-1.8 -1.8,-3.2 -3.7,-3 -1.7,-0.1 -3.3,1.2 -3.6,3 z m 25.2,9 a 7.03,7.03 0 0 1 -5.5,2.2 C 92.1,37 89.4,34.5 89.2,31.3 v -0.2 c 0,-4.3 3.4,-5.6 6.1,-5.6 2.3,0 4.4,0.7 5.5,2.1 v -2.2 c 0,-1.5 -1.3,-2.6 -3.6,-2.6 -1.8,0 -3.6,0.7 -5,1.9 l -2,-3.6 c 2.3,-1.8 5.1,-2.8 8,-2.8 4.3,0 8.2,1.6 8.2,7.1 v 11.1 h -5.6 z m 0,-4.4 c -0.8,-0.9 -2,-1.3 -3.2,-1.2 -1.5,0 -2.8,0.7 -2.8,2.1 0,1.4 1.3,2.1 2.8,2.1 1.2,0.1 2.4,-0.4 3.2,-1.3 z m 9.1,-11.6 h 5.6 V 21 c 1.4,-1.6 3.4,-2.6 5.5,-2.7 v 5.5 c -0.5,-0.1 -0.9,-0.2 -1.4,-0.2 -1.5,0 -3.4,0.6 -4.1,1.7 v 11.2 h -5.6 z m 21.5,-0.4 c 3.8,0 6.2,1.7 7.3,3.3 L 135,25 c -0.7,-1.1 -2,-1.7 -3.3,-1.7 a 4.2,4.2 0 0 0 -4.4,4.2 4.2,4.2 0 0 0 4.2,4.4 c 1.4,0 2.7,-0.6 3.6,-1.7 l 3.7,3.4 c -1.1,1.5 -3.4,3.3 -7.3,3.3 -5.5,0 -9.7,-3.7 -9.7,-9.3 -0.1,-5.6 4.1,-9.3 9.6,-9.3 z m 21.1,7.8 c 0,-2.2 -1.1,-2.9 -2.9,-2.9 -1.3,0 -2.6,0.7 -3.4,1.7 v 11.4 h -5.6 V 11.9 l 5.6,-2.6 v 11.6 c 1.6,-1.7 3.8,-2.7 6.1,-2.6 4,0 5.9,2.3 5.9,5.5 v 12.6 h -5.6 z m 9.9,4.2 c 1.8,1.4 4,2.2 6.2,2.3 1.7,0 2.4,-0.5 2.4,-1.3 0,-0.9 -1.2,-1.2 -3,-1.5 -3,-0.5 -7.3,-1.1 -7.3,-5.6 0,-3.1 2.7,-5.8 7.6,-5.8 2.7,0 5.3,0.8 7.4,2.3 l -2.2,3.7 a 7.6,7.6 0 0 0 -5.2,-1.9 c -1.3,0 -2.2,0.4 -2.2,1.2 0,0.8 1,1.1 2.8,1.4 3,0.5 7.5,1.2 7.5,5.9 0,3.4 -3,5.9 -8.1,5.9 -3,0.1 -5.9,-0.9 -8.3,-2.7 z m 16.2,12.9 V 18.7 h 5.6 v 2.1 c 1.3,-1.6 3.2,-2.5 5.2,-2.5 4.4,0 7.8,3.3 7.8,9.3 0,6 -3.3,9.3 -7.8,9.3 -2,0 -4,-0.9 -5.2,-2.5 v 8.8 z m 9,-19.9 c -1.3,0 -2.5,0.6 -3.4,1.6 v 5.4 c 0.8,1 2.1,1.6 3.4,1.6 2.2,0 3.9,-1.7 3.9,-4.3 0,-2.7 -1.7,-4.3 -3.9,-4.3 z m 11.9,-4.6 h 5.6 V 21 c 1.4,-1.6 3.4,-2.6 5.5,-2.7 v 5.5 c -0.5,-0.1 -0.9,-0.2 -1.4,-0.2 -1.5,0 -3.4,0.6 -4.1,1.7 v 11.2 h -5.6 z m 12.6,-5.4 c 0,-1.8 1.4,-3.2 3.2,-3.2 1.8,0 3.2,1.4 3.2,3.2 0,1.8 -1.4,3.2 -3.2,3.2 -1.8,0 -3.2,-1.4 -3.2,-3.2 z m 0.4,5.4 h 5.6 v 17.7 h -5.6 z m 21,7.5 c 0,-2.2 -1.1,-2.9 -2.9,-2.9 -1.4,0 -2.6,0.6 -3.4,1.7 v 11.4 h -5.6 V 18.7 h 5.6 v 2.2 c 1.6,-1.7 3.8,-2.7 6.1,-2.6 4,0 5.9,2.3 5.9,5.6 v 12.5 h -5.6 z m 11,10.7 c 1.4,1.4 3.4,2.2 5.4,2.1 1.9,0 4.5,-0.8 4.5,-4.1 v -1.4 a 6.79,6.79 0 0 1 -5.2,2.6 c -4.3,0 -7.8,-3 -7.8,-8.9 0,-5.8 3.4,-8.9 7.8,-8.9 2,0 4,0.9 5.2,2.5 v -2.1 h 5.6 v 16.1 c 0,7.2 -5.7,8.8 -10.1,8.8 -2.9,0.1 -5.6,-0.8 -7.8,-2.6 z m 9.9,-12.1 c -0.8,-1 -2.1,-1.6 -3.4,-1.6 -2.2,0 -3.9,1.8 -3.9,4 0,2.1 1.8,3.8 3.9,3.9 1.3,0 2.5,-0.6 3.4,-1.6 z"></path>
  </g>
</svg>
