<svg xmlns="http://www.w3.org/2000/svg" fill="none" viewBox="0 0 74 22" height="22" width="74">
<g clip-path="url(#clip0_1_204)">
<path fill="#E6E7E9" d="M42.0205 4.39578C42.4138 4.39789 42.7924 4.24576 43.0756 3.97177C43.3578 3.69888 43.5214 3.32528 43.5311 2.93201C43.5264 2.53329 43.3658 2.15241 43.0838 1.87166C42.8006 1.58972 42.4192 1.42969 42.0205 1.42552C41.6274 1.43471 41.2533 1.59768 40.978 1.87972C40.704 2.16065 40.5512 2.53874 40.5529 2.93201C40.5563 3.31981 40.712 3.69057 40.9863 3.96358C41.2616 4.23774 41.6328 4.39278 42.0205 4.39578ZM52.2851 5.80327H55.9283V6.09157C55.7264 6.12707 55.5314 6.19432 55.3503 6.29085C55.0173 6.44626 54.3512 7.1995 53.8398 8.46181C52.9738 10.6552 52.0639 13.246 51.1088 16.2153L50.7532 17.3412C50.5974 17.8502 50.4642 18.1824 50.3976 18.3828C50.331 18.5832 50.2417 18.8917 50.087 19.2678C49.9989 19.5507 49.8855 19.825 49.7484 20.0875C49.5699 20.4197 49.2369 21.1009 48.9705 21.3058C48.5482 21.6605 47.9261 22.0591 47.1495 21.9927C45.6389 21.9927 44.5065 20.8667 44.4839 19.5347C44.4839 18.6259 45.0619 18.0281 45.9279 18.0281C46.5499 18.0281 47.1042 18.3659 47.1042 19.0685C47.1042 19.5786 46.594 20.11 46.594 20.3758C46.594 21.0626 46.9937 21.3891 47.7715 21.3891C48.3924 21.3891 48.9005 20.9906 49.2809 20.1933C49.7924 19.2847 49.8364 18.2883 49.4142 17.1802L46.2169 8.74091C45.4831 6.79199 44.9277 6.1513 44.24 6.08262V5.79419H49.2809V6.08236C48.6814 6.14887 48.371 6.50356 48.371 7.14527C48.371 7.61034 48.5482 8.31971 48.8813 9.22836L49.4808 10.8668C50.1694 12.639 50.7226 14.1895 51.0139 15.1647C51.6575 13.1491 52.2558 11.3768 52.835 9.82633C53.2572 8.6744 53.457 7.85477 53.457 7.36719C53.457 6.50356 52.9907 6.105 52.2795 6.105L52.2851 5.80327ZM17.2146 16.5913C16.5712 16.4788 16.0157 15.9045 16.0157 14.6862V0L12.351 0.797244V1.10806C12.9731 1.04155 13.5928 1.59436 13.5928 2.7688V14.6862C13.5928 15.8381 12.9708 16.5024 12.351 16.5913C12.2928 16.6016 12.2338 16.6087 12.1748 16.6127C11.8577 16.6345 11.54 16.5784 11.2491 16.4495C10.7569 16.2355 10.346 15.8538 9.99815 15.2841L8.30481 12.5817C7.94766 12.0117 7.41679 11.5727 6.79119 11.3301C6.16413 11.0865 5.47576 11.0516 4.82745 11.2305L6.73769 9.12616C8.1805 7.5318 9.5139 6.51277 10.7794 6.0917V5.80314H6.57747V6.09144C7.66569 6.51251 7.59907 7.44265 6.35164 8.90642L3.66472 12.0286V0L0 0.797244V1.10806C0.622058 1.10806 1.24182 1.72726 1.24182 2.81267V14.6862C1.24182 15.9935 0.642437 16.5024 0 16.5913V16.8796H4.86808V16.5913C4.06885 16.4788 3.66918 15.8606 3.66918 14.6862V12.4938L4.71231 11.342L7.23901 15.4834C7.83852 16.4809 8.39397 16.8796 9.28248 16.8796H17.7385V16.6544C17.7385 16.6544 17.4969 16.6375 17.2146 16.5913ZM27.3033 15.1906V10.2363C27.2547 6.9969 25.8931 5.52187 22.7749 5.52187C21.7794 5.51412 20.81 5.8415 20.0214 6.45176C19.1995 7.07223 18.7998 7.7816 18.7998 8.60136C18.7998 9.39861 19.2436 9.99644 19.9762 9.99644C20.7541 9.99644 21.3096 9.55388 21.3096 8.93354C21.3096 8.46847 20.9979 7.8256 20.9979 7.38305C20.9979 6.58478 21.5986 5.89792 22.6417 5.89792C23.9751 5.89792 24.9291 6.89559 24.9291 9.1103V10.439L23.8192 10.7047C23.2412 10.8172 22.7535 10.9299 22.3753 11.0425C21.9971 11.155 21.5094 11.3083 20.9313 11.5289C19.7763 11.9726 19.1554 12.3937 18.6215 13.1909C18.3601 13.5762 18.2208 14.0319 18.2218 14.4981C18.2218 16.3358 19.5099 17.178 21.3096 17.178C22.7309 17.178 24.2449 16.4247 24.9291 15.0071C24.9389 15.4542 25.0463 15.8938 25.2441 16.2952C25.9971 17.8153 28.491 16.9167 28.491 16.9167V16.6285C27.3992 16.7985 27.3089 15.5036 27.3033 15.1906ZM24.9324 13.657C24.9324 14.3877 24.6659 14.9857 24.1332 15.4068C23.6228 15.828 23.0899 16.0498 22.5345 16.0498C21.4461 16.0498 20.7349 15.3404 20.7349 14.0331C20.7349 13.4139 21.0736 12.8373 21.357 12.5052C21.5816 12.2758 21.8449 12.0882 22.1348 11.9511C22.5119 11.7518 22.6993 11.6494 22.9567 11.53L23.9728 11.154C24.483 10.9547 24.7936 10.8443 24.9268 10.778L24.9324 13.657ZM74 5.80327H65.3623V0H74L72.1868 2.9017L74 5.80327ZM56.4421 15.4698C55.9107 14.9247 55.4916 14.2795 55.209 13.5714C54.9263 12.8632 54.7856 12.106 54.7949 11.3432C54.7832 10.5839 54.9228 9.82995 55.2055 9.12565C55.4889 8.42016 55.9092 7.77838 56.4421 7.23774C57.5316 6.08479 58.866 5.50716 60.424 5.50716C61.9582 5.50716 63.2939 6.08479 64.3833 7.23774C64.9235 7.77405 65.35 8.41459 65.6372 9.12079C65.9239 9.82574 66.065 10.5818 66.0519 11.3432C66.0631 12.1074 65.9212 12.8661 65.6347 13.5743C65.3477 14.2836 64.9222 14.9281 64.3833 15.4698C63.2939 16.5958 61.9582 17.178 60.424 17.178C58.866 17.178 57.5316 16.6014 56.4421 15.4698ZM62.4257 7.42244C61.9865 6.56559 61.4095 6.06343 60.7322 5.92823C59.3583 5.65247 58.1435 7.06098 57.6908 9.30063C57.4976 10.3052 57.4508 11.3327 57.5519 12.3508C57.6514 13.3698 57.9352 14.3619 58.3896 15.2785C58.8299 16.1365 59.4057 16.6375 60.083 16.7726C61.4571 17.0485 62.7068 15.5802 63.1629 13.3181C63.5412 11.4276 63.3492 9.12501 62.4201 7.42129L62.4257 7.42244Z"></path>
<path fill="#E6E7E9" d="M43.3087 14.6862V5.80328H35.4905V6.07023C36.5348 6.22563 37.0315 7.01162 36.5575 8.28609C34.1143 14.9091 34.2701 14.6119 34.1143 15.1433C33.9586 14.6332 33.6028 13.3801 33.026 11.8081C32.449 10.2363 32.0709 9.19371 31.9151 8.72864C31.3156 6.88985 31.5154 6.20299 32.4931 6.09274V5.80444H27.4285V6.09274C28.1838 6.24814 28.8499 7.11164 29.4053 8.66213L30.1832 10.6777C31.0378 12.8553 32.0416 15.8572 32.3768 16.8808H34.0601C34.602 15.3043 36.7764 9.01349 37.0677 8.37396C37.3815 7.6454 37.7371 7.09361 38.1346 6.71193C38.3268 6.50626 38.5603 6.34397 38.8196 6.23587C39.0795 6.12747 39.3593 6.0756 39.6406 6.08366C39.6406 6.08366 40.8611 6.08366 40.8611 7.2581V14.6862C40.8611 15.9248 40.2615 16.5024 39.6395 16.5913V16.8796H44.4817V16.5913C43.8416 16.5024 43.3087 15.927 43.3087 14.6862Z"></path>
</g>
<defs>
<clipPath id="clip0_1_204">
<rect fill="white" height="22" width="74"></rect>
</clipPath>
</defs>
</svg>
