<svg xmlns="http://www.w3.org/2000/svg" fill="none" viewBox="0 0 737 246" height="246" width="737">
<path fill="black" d="M0.858643 63.8675H95.3492V81.2294H21.7621V126.267H76.6942V142.622H21.7621V205.021H0.858643V63.8675Z"></path>
<path fill="black" d="M104.472 55.7798H125.172V205.01H104.472V55.7798Z"></path>
<path fill="black" d="M140.696 226.833C144.246 228.179 148.614 228.858 153.81 228.858C158.587 228.858 162.352 227.681 165.085 225.328C167.817 222.975 170.281 219.17 172.465 213.923L177.177 202.613L144.891 129.307C157.78 129.307 169.388 136.992 174.251 148.757L188.248 182.623L210.808 127.58C215.628 115.814 227.225 108.108 240.103 108.108L195.832 215.948C191.733 226.049 186.849 233.415 181.179 238.058C175.51 242.701 168.162 245.022 159.146 245.022C151.766 245.022 145.623 244.28 140.696 242.796V226.833Z"></path>
<path fill="black" d="M253.378 63.8675H310.978C326.276 63.8675 338.035 67.5031 346.233 74.7743C354.431 82.0456 358.53 92.6769 358.53 106.679C358.53 117.045 355.733 125.832 350.128 133.029C344.523 140.237 336.604 145.112 326.352 147.667L357.917 205.021H336.185L305.642 149.289H274.281V205.021H253.378V63.8675ZM307.482 131.916C316.637 131.916 323.91 129.796 329.31 125.556C334.711 121.317 337.411 115.021 337.411 106.679C337.411 97.5208 334.775 90.9915 329.525 87.0909C324.265 83.1903 316.917 81.2294 307.492 81.2294H274.292V131.916H307.492H307.482Z"></path>
<path fill="black" d="M376.509 199.063C369.333 193.074 365.75 184.966 365.75 174.726C365.75 163.957 369.204 155.647 376.1 149.786C382.996 143.935 392.807 140.999 405.513 140.999C419.036 140.999 430.515 143.691 439.951 149.076V144.03C439.951 136.356 437.594 130.675 432.882 126.965C428.17 123.266 420.758 121.411 410.645 121.411C404.631 121.411 398.789 121.983 393.119 123.128C387.45 124.273 382.361 125.852 377.853 127.877V111.32C381.952 109.434 387.278 107.918 393.84 106.773C400.403 105.628 406.75 105.056 412.904 105.056C429.16 105.056 441.22 108.586 449.084 115.656C456.938 122.725 460.876 132.519 460.876 145.037V205.009H441.403V194.102C437.164 198.681 432.14 202.147 426.341 204.5C420.532 206.853 413.464 208.03 405.126 208.03C393.238 208.03 383.706 205.03 376.53 199.042L376.509 199.063ZM428.052 188.665C433.377 186.11 437.347 182.538 439.94 177.959V164.837C431.053 159.188 421.156 156.358 410.225 156.358C402.296 156.358 396.39 157.873 392.496 160.905C388.601 163.936 386.654 168.547 386.654 174.737C386.654 186.587 394.507 192.512 410.225 192.512C416.788 192.512 422.726 191.23 428.063 188.675L428.052 188.665Z"></path>
<path fill="black" d="M475.043 108.088H495.129V122.026C499.776 116.239 505.478 111.967 512.245 109.2C519.012 106.445 526.081 105.056 533.461 105.056C546.575 105.056 556.344 108.49 562.767 115.359C569.189 122.227 572.406 131.449 572.406 143.023V205.02H551.707V145.048C551.707 129.297 544.058 121.422 528.749 121.422C522.186 121.422 516.075 122.937 510.406 125.969C504.736 129 499.852 133.611 495.753 139.801V205.03H475.054V108.098L475.043 108.088Z"></path>
<path fill="black" d="M586.597 55.7798H607.296V205.01H586.597V55.7798ZM607.5 155.945L652.804 108.088H678.01L632.513 155.945L682.733 205.02H657.526L607.511 155.945H607.5Z"></path>
<path fill="black" d="M675.049 1.72559H686.007L710.864 64.0001H699.371L693.669 49.6565H667.298L661.685 64.0001H650.104L675.049 1.72559ZM690.551 40.302L680.484 13.842L670.416 40.302H690.551Z"></path>
<path fill="black" d="M719.748 1.72559H731.062V64.0001H719.748V1.72559Z"></path>
</svg>
