<svg xmlns="http://www.w3.org/2000/svg" fill="none" viewBox="0 0 1264 251" height="251" width="1264">
<g clip-path="url(#clip0_20_9)">
<path fill="#3901F1" d="M124.915 251C149.628 251.006 173.788 243.65 194.34 229.862C214.891 216.074 230.911 196.473 240.373 173.539C249.835 150.604 252.313 125.366 247.496 101.016C242.678 76.6666 230.781 54.2989 213.308 36.742C195.835 19.1851 173.572 7.22771 149.334 2.38208C125.096 -2.46355 99.9716 0.0202282 77.1388 9.51929C54.306 19.0184 34.7901 35.106 21.0595 55.7477C7.32878 76.3894 7.90368e-07 100.658 0 125.484C-1.05962e-06 158.767 13.1596 190.688 36.5848 214.226C60.0099 237.764 91.7824 250.991 124.915 251Z"></path>
<path fill="#FFFBF6" d="M136.86 175.195H74.9236C74.7368 175.241 74.5417 175.241 74.3548 175.195C74.1874 175.107 74.0374 174.989 73.9124 174.846C73.7858 174.702 73.6987 174.527 73.6596 174.338C73.6128 174.151 73.6128 173.954 73.6596 173.767L85.7308 111.485C85.785 111.261 85.8935 111.054 86.0468 110.882C86.2089 110.715 86.4189 110.604 86.6472 110.564C86.8687 110.509 87.1016 110.522 87.3157 110.601C87.5299 110.68 87.7153 110.822 87.848 111.009L137.808 173.195C137.932 173.384 137.998 173.604 137.997 173.83C138.061 174.037 138.061 174.258 137.997 174.465C137.907 174.668 137.765 174.843 137.586 174.973C137.379 175.134 137.121 175.213 136.86 175.195Z"></path>
<path fill="#FFFBF6" d="M73.786 81.1695H135.69C135.877 81.1224 136.072 81.1224 136.259 81.1695C136.447 81.2378 136.612 81.359 136.733 81.5187C136.842 81.6743 136.927 81.8455 136.986 82.0266C137.033 82.2141 137.033 82.4104 136.986 82.598L125.01 145.134C124.944 145.351 124.824 145.547 124.662 145.705C124.512 145.871 124.312 145.983 124.093 146.023C123.879 146.103 123.644 146.103 123.43 146.023C123.206 145.957 123.007 145.824 122.861 145.642L72.68 83.1059C72.6289 82.9189 72.6289 82.7215 72.68 82.5345C72.6167 82.306 72.6167 82.0645 72.68 81.8361C72.8038 81.6376 72.9648 81.4651 73.154 81.3282C73.3478 81.2221 73.5653 81.1674 73.786 81.1695Z"></path>
<path fill="#FFFBF6" d="M143.18 81.1695C142.91 81.1666 142.649 81.269 142.453 81.4552C142.226 81.6121 142.067 81.8508 142.01 82.1218C141.375 87.3054 141.834 92.5654 143.359 97.5584C144.884 102.551 147.44 107.165 150.861 111.098C154.281 115.032 158.489 118.196 163.21 120.385C167.93 122.574 173.057 123.738 178.256 123.802H179.551C179.834 123.8 180.11 123.711 180.341 123.548C180.549 123.37 180.684 123.121 180.72 122.849L189.063 82.5345C189.093 82.3559 189.093 82.1734 189.063 81.9948C188.998 81.8291 188.902 81.678 188.778 81.5504C188.661 81.4072 188.509 81.2976 188.336 81.233C188.17 81.19 187.996 81.19 187.83 81.233L143.18 81.1695Z"></path>
<path fill="#3901F1" d="M354.457 72.5669H398.982C401.067 72.5669 402.458 73.7096 401.984 76.0587L399.55 90.5022C408.335 77.8046 421.102 69.9956 434.058 69.9956C440.319 69.9942 446.386 72.1828 451.216 76.1857C453.302 78.2808 453.302 79.3601 451.88 81.5504L438.924 99.9302C437.312 102.374 436.112 102.025 433.584 100.851C430.677 99.51 427.523 98.7962 424.325 98.7557C408.778 98.7557 395.885 109.009 389.786 140.023L380.748 186.75C380.587 187.766 380.086 188.695 379.326 189.385C378.564 190.062 377.594 190.454 376.577 190.496H352.846C352.388 190.498 351.935 190.401 351.518 190.21C351.095 190.018 350.726 189.724 350.444 189.353C350.133 189.005 349.925 188.576 349.844 188.115C349.718 187.669 349.718 187.196 349.844 186.75L367.445 96.8828L352.593 75.9635C351.455 74.1858 352.372 72.5669 354.457 72.5669Z"></path>
<path fill="#3901F1" d="M439.777 130.531C445.781 93.9941 472.452 69.9956 507.212 69.9956C542.446 69.9956 559.13 98.1843 554.043 128.912C552.874 136.848 550.093 143.102 543.615 143.102H468.502C469.197 160.339 481.142 168.497 496.942 168.497C506.792 168.26 516.367 165.186 524.528 159.641C526.393 158.244 528.478 157.546 529.869 159.641L538.432 173.132C539.823 175.227 539.128 176.624 537.042 178.497C525.919 188.75 507.812 193.416 491.38 193.416C454.155 193.416 433.963 165.926 439.777 130.531ZM527.151 122.627C528.32 104.216 515.807 96.5336 503.736 96.5336C487.936 96.5336 475.706 107.231 471.061 122.627H527.151Z"></path>
<path fill="#3901F1" d="M666.223 187.575L693.146 49.8381L679.906 31.9662C679.739 31.6708 679.652 31.3373 679.652 30.998C679.652 30.6588 679.739 30.3252 679.906 30.0298C680.095 29.744 680.357 29.5139 680.664 29.3632C680.964 29.2031 681.305 29.1368 681.644 29.1728H722.913C725.188 29.1728 726.389 30.5695 725.915 32.6646L713.844 93.4862C723.261 79.3601 737.165 69.8368 753.376 69.8368C779.351 69.8368 794.171 92.0577 788.641 119.643L775.18 186.464C775.024 187.482 774.521 188.413 773.758 189.099C773.049 189.874 772.082 190.36 771.04 190.464H746.676C746.207 190.523 745.73 190.469 745.286 190.305C744.835 190.114 744.435 189.821 744.117 189.448C743.82 189.07 743.624 188.622 743.548 188.147C743.423 187.679 743.423 187.186 743.548 186.718L755.588 126.405C758.748 110.12 754.45 100.121 744.464 100.121C725.947 100.121 711.316 121.072 705.091 150.625L697.191 187.671C697.093 188.416 696.734 189.102 696.18 189.607C695.637 190.119 694.932 190.423 694.189 190.464H668.372C668.045 190.425 667.726 190.339 667.424 190.21C667.136 190.044 666.88 189.829 666.665 189.575C666.447 189.316 666.285 189.013 666.191 188.686C666.12 188.318 666.131 187.939 666.223 187.575Z"></path>
<path fill="#3901F1" d="M796.952 131.928C802.988 93.0417 830.353 69.9956 862.332 69.9956C879.238 69.9956 892.447 77.6776 897.566 90.5022L900.347 76.2492C900.473 75.188 900.992 74.2134 901.801 73.5192C902.625 72.8356 903.672 72.4847 904.74 72.5351H927.207C927.673 72.4068 928.164 72.4068 928.629 72.5351C929.089 72.6931 929.495 72.9794 929.798 73.3605C930.104 73.7367 930.311 74.1843 930.399 74.662C930.474 75.1437 930.42 75.637 930.241 76.0904L908.69 186.782C908.526 187.81 907.985 188.738 907.173 189.385C906.356 190.049 905.313 190.368 904.266 190.274H881.64C879.523 190.274 878.48 189.099 878.828 186.782L880.913 175.386C876.245 181.071 870.388 185.654 863.758 188.808C857.127 191.963 849.887 193.612 842.551 193.639C809.94 193.639 791.643 166.402 796.952 131.928ZM851.904 165.482C870.675 165.482 884.579 149.61 887.36 131.039C890.14 112.469 880.186 98.4065 862.68 98.4065C844.099 98.4065 830.669 113.517 827.636 131.198C824.602 148.879 833.829 165.482 851.904 165.482Z"></path>
<path fill="#3901F1" d="M923.289 186.655L945.156 75.5508C945.63 73.6779 946.578 72.5351 947.968 72.5351H972.427C974.544 72.5351 975.934 73.6779 975.587 76.0269L973.122 90.4705C981.938 77.7729 994.705 69.9638 1007.69 69.9638C1013.91 70.0002 1019.91 72.199 1024.69 76.1857C1026.81 78.2808 1026.81 79.3601 1025.42 81.5187L1012.43 99.9302C1010.79 102.374 1009.65 102.025 1007.09 100.851C1004.18 99.5065 1001.01 98.7927 997.802 98.7557C982.286 98.7557 969.362 109.009 963.294 140.023L954.32 186.591C954.159 187.616 953.657 188.555 952.898 189.258C952.123 189.938 951.145 190.34 950.117 190.401H926.386C925.918 190.401 925.455 190.304 925.027 190.115C924.617 189.902 924.252 189.611 923.952 189.258C923.672 188.89 923.468 188.469 923.352 188.02C923.233 187.575 923.211 187.109 923.289 186.655Z"></path>
<path fill="#3901F1" d="M1004.18 224.145C1003.55 223.557 1003.16 222.754 1003.08 221.891C1002.98 221.035 1003.21 220.174 1003.71 219.478L1014.61 202.273C1015.78 200.4 1017.61 199.797 1019.01 201.098C1028.96 208.028 1040.74 211.829 1052.85 212.018C1075.13 212.018 1093.64 202.971 1100.25 172.91C1088.02 184.56 1076.64 190.147 1059.48 190.147C1025.74 190.147 1008.04 161.895 1013.66 130.15C1019.98 94.2798 1046.62 70.0591 1080.21 70.0591C1098.73 70.0591 1111.5 80.5346 1115.45 89.1055L1118.23 76.2491C1118.31 75.2467 1118.76 74.3101 1119.49 73.6229C1120.22 72.9358 1121.18 72.5478 1122.18 72.5351H1144.87C1145.34 72.4631 1145.83 72.5159 1146.28 72.6884C1146.73 72.8608 1147.12 73.147 1147.43 73.5192C1147.73 73.8954 1147.94 74.343 1148.03 74.8207C1148.14 75.2906 1148.14 75.7792 1148.03 76.2491L1129.07 173.608C1120.54 215.859 1091.34 238.08 1051.71 238.08C1034.99 238.08 1016.19 233.922 1004.18 224.145ZM1068.08 162.91C1087.04 162.91 1100.79 147.768 1103.54 129.865C1106.28 111.961 1096.52 98.4065 1079.05 98.4065C1060.53 98.4065 1047.07 113.136 1044.03 130.15C1041 147.165 1050.1 162.91 1068.08 162.91Z"></path>
<path fill="#3901F1" d="M1148.82 130.531C1154.85 93.9941 1181.49 69.9956 1216.28 69.9956C1251.08 69.9956 1268.2 98.1843 1263.08 128.912C1261.95 136.848 1259.17 143.102 1252.66 143.102H1177.57C1178.24 160.339 1190.21 168.497 1206.01 168.497C1215.86 168.27 1225.42 165.195 1233.57 159.641C1235.43 158.244 1237.52 157.546 1238.91 159.641L1247.47 173.132C1248.9 175.227 1248.2 176.624 1246.11 178.497C1234.96 188.75 1216.92 193.416 1200.45 193.416C1163.1 193.416 1143.04 165.926 1148.82 130.531ZM1236.19 122.627C1237.36 104.216 1224.85 96.5336 1212.81 96.5336C1197.01 96.5336 1184.75 107.231 1180.1 122.627H1236.19Z"></path>
<path fill="#3901F1" d="M614.399 193.639C622.647 193.82 630.849 192.35 638.525 189.314C646.202 186.278 653.201 181.738 659.113 175.957C659.568 175.648 659.955 175.248 660.25 174.783C660.561 174.314 660.766 173.783 660.851 173.227C660.977 172.695 660.977 172.14 660.851 171.608C660.717 171.07 660.481 170.564 660.156 170.116L647.516 155.927C647.237 155.602 646.892 155.342 646.504 155.165C646.108 154.972 645.679 154.853 645.24 154.816C644.812 154.817 644.386 154.881 643.976 155.006C643.58 155.159 643.216 155.385 642.902 155.673C635.957 161.023 627.508 164.033 618.76 164.275C600.463 164.275 590.32 149.864 592.595 131.706C594.87 113.548 609.058 99.3271 626.881 99.3271C636.677 99.3271 642.87 102.819 649.822 109.803C651.687 111.675 652.982 111.675 654.91 110.057L671.374 95.9304C671.777 95.6921 672.122 95.3668 672.385 94.9781C672.654 94.5877 672.837 94.1439 672.922 93.6766C673.033 93.2177 673.033 92.7388 672.922 92.2799C672.828 91.8196 672.634 91.3859 672.353 91.0101C662.399 76.7888 646.852 70.0591 629.693 70.0591C613.08 70.0627 597.044 76.178 584.614 87.2496C572.183 98.3212 564.22 113.582 562.227 130.151C557.14 167.259 581.693 193.639 614.399 193.639Z"></path>
</g>
<defs>
<clipPath id="clip0_20_9">
<rect fill="white" height="251" width="1264"></rect>
</clipPath>
</defs>
</svg>
