<svg style="fill-rule:evenodd;clip-rule:evenodd;stroke-linejoin:round;stroke-miterlimit:2;" xml:space="preserve" xmlns:xlink="http://www.w3.org/1999/xlink" xmlns="http://www.w3.org/2000/svg" version="1.1" viewBox="0 0 496 232" height="100%" width="100%">
    <path style="fill-rule:nonzero;" d="M491.6,59.4C488.8,59.1 481.2,57.9 470,60.3C463.2,61.7 455.1,64.4 446,69.4C432,77 418.3,90.8 405.6,102.6C395.2,112.2 385.5,120.5 376.7,122.9C373.8,123.7 371.1,123.7 369,123.1C367.4,122.7 364.4,120.4 363.5,115.5C361.6,105.6 367.9,95.2 366.6,88.3C365.7,83.7 362.1,81.1 353.5,86.6C341.9,94 330.8,111.6 325.1,122.4C327.3,107 340.2,65.9 345.4,55.3C366.7,26.4 376.7,3.3 372.1,0.1C370,-1.3 362.4,8 355.1,23.3C350.2,33.5 345,45.2 340.4,57.4C331.5,69 321,82.1 308.3,95.8C295.4,109.8 282.9,123.5 280.9,125.7C280.2,126.5 279.4,127.3 278.7,128.1C277.2,121.3 275,115 274,113.9C273.3,113.1 270.8,112.1 270.8,112.1C268.2,116.5 257,131.9 244.7,144.8C233.1,156.9 222.1,166.9 214.3,169C204.5,171.6 208.6,143.8 217.2,132.9C217.2,132.9 215.3,130.5 213.6,130.9C212.9,131.1 210.8,134.6 208.7,139.5C203.1,149.1 183.5,176.9 174,179.4C167.8,181.1 166.8,174.3 166.7,172.1C166.2,165.6 169.8,150.9 175.5,133.7C194.3,102.1 209.4,70.1 212.5,54C213.5,48.5 211.5,49.3 208.4,53.9C193.7,75.4 178.5,109.2 170.5,136.2C155.1,162.1 136.2,183.6 124.2,186.8C110,190.6 112.8,168.2 118.6,157C118.6,157 117.2,154.9 116.3,155.2C116.1,155.3 115.4,155.8 114.4,157C102.6,171.8 62.5,203.9 41.5,209.4C27.7,213.1 31.1,193.2 31.7,191.6C39.5,187.3 52.3,176.8 58.7,165C61.7,159.3 60.5,154.3 55.3,155.7C52.6,156.4 48.8,158.8 44.1,163.9C43,165.1 35.2,173.5 30.9,184.8C30.2,186.7 29.5,188.6 28.8,190.6C23.6,193.5 17.9,195.9 11.8,197.6C10.3,198 5.7,199.3 2.4,199.3C1.5,199.3 0.6,199.4 0.2,199.9C-0.1,200.3 0.5,200.7 1.2,200.7C4.9,201 11.7,199.5 15.4,198.4C20,197.1 24.2,195.4 27.9,193.5C25.9,201.2 25.8,216.5 41.9,212.3C58.4,207.9 91.8,186.1 111.7,165.2C106.4,182 114.9,191.7 125,189C138.6,185.4 154.3,167 167.7,146.5C164.5,156.6 156.6,186.1 174.6,181.4C183.4,179.1 194.5,166 205.6,149.5C204.7,153.5 200.7,175.1 215.2,171.3C230.1,167.3 260.1,135.1 272.1,116.4C273.5,119.5 275.7,127.2 276.1,131.5C274.1,133.8 263.9,145.3 264.3,150.5C264.5,153.1 265.8,155.1 269.9,154.1C276,152.5 282.1,144.5 279.5,131.2C281,129.5 282.3,128.1 283,127.4C284.7,125.6 297.6,112 310.7,97.5C321.2,85.8 329.7,75.9 337.3,66.3C331.5,82.5 322,113.1 319.7,133.6C319.5,135.9 322.2,135.4 323.7,135C333.4,113.1 345.8,96.1 355.2,89.6C358.1,87.6 361.1,86.6 362.9,87.5C365.5,88.7 363.3,95 362.6,97.1C361.4,100.8 358.2,109.5 359.6,116.6C361.5,126.8 370.2,127.7 377.6,125.7C383,124.2 390.3,120.7 396.2,115.7C401.7,111 419,94.4 423.8,90.2C433.3,81.7 441.3,76 447.9,72C458.3,65.7 465.5,63.8 471.1,62.6C482.5,60.1 490,60.4 496.3,61.2C495.8,60.8 496.5,59.9 491.6,59.4ZM366.2,8.8C367,7.3 370.4,1.4 371.3,1.7C373,2.2 364.8,22.1 349.9,44C355.6,29 362.3,16 366.2,8.8ZM208.3,60.5C206.4,66.1 203.1,74.8 198.8,84C191.9,99 183.3,115 180.6,118.9C184.1,108.2 188.8,97.1 193.4,87C198.1,76.8 203.2,67.7 207.7,60.3C208.3,59.4 208.7,59.3 208.3,60.5ZM54.9,165.6C51.8,170.9 45.4,179 36.2,185.8C35.2,186.5 34.2,187.2 33.1,188C39.4,172.9 50.3,164.1 51.5,163.1C56.1,159.1 57.4,161.4 54.9,165.6ZM276.2,138.3C276.2,139.9 275.7,142.2 274.8,144.3C274.2,145.8 273.4,147.2 272.3,148.5C270.6,150.7 267.7,152.3 267.3,150.5C266.7,147.1 272.4,139.2 276.1,134.7C276.2,135.9 276.3,137.1 276.2,138.3Z"></path>
    <path style="fill-rule:nonzero;" d="M124.1,132.2C128.9,130.3 131.5,126.3 131.2,124.8C131,124 129.5,122.9 128.6,123.2C127.1,126.8 121.3,131.2 117.1,130.9C117.2,131 117.3,131.2 117.5,131.3C118.6,132.3 121.1,133.4 124.1,132.2Z"></path>
    <path style="fill-rule:nonzero;" d="M225.8,108.2C229.8,105.2 231.1,101.3 230.4,99.9C230,99.1 228.3,98.8 227.5,99C226.4,104.1 223.1,107.7 217.9,109.4C219.2,110.7 223,110.2 225.8,108.2Z"></path>
    <path style="fill-rule:nonzero;" d="M127.9,230.8L128.1,229.6L131.1,229L135.9,202.1L132.1,201.5L132.3,200.3L144.9,200.3C146.8,200.3 148.3,200.5 149.6,200.8C150.9,201.1 151.9,201.6 152.7,202.1C153.5,202.7 154.1,203.3 154.4,204.1C154.8,204.9 154.9,205.8 154.9,206.7C154.9,207.8 154.7,208.9 154.3,209.8C153.9,210.7 153.4,211.5 152.7,212.1C152,212.8 151.2,213.3 150.3,213.7C149.4,214.1 148.3,214.4 147.2,214.5C148.2,214.6 149.2,214.8 150.1,215.1C151,215.4 151.8,215.9 152.5,216.4C153.2,217 153.7,217.6 154.1,218.5C154.5,219.3 154.7,220.3 154.7,221.4C154.7,224.7 153.6,227.1 151.4,228.6C149.2,230.1 145.9,230.9 141.5,230.9L139.1,230.9C138.3,230.9 137.6,230.9 136.9,230.8C136.2,230.8 135.5,230.8 134.8,230.7L127.9,230.7L127.9,230.8ZM141.5,228.9C143.2,228.9 144.5,228.7 145.6,228.4C146.7,228.1 147.6,227.6 148.2,226.9C148.8,226.3 149.3,225.5 149.5,224.6C149.8,223.7 149.9,222.7 149.9,221.6C149.9,219.5 149.2,218 147.9,217.1C146.6,216.2 144.6,215.7 142.1,215.7L137.9,215.7L135.6,228.8C136.4,228.8 137.1,228.9 137.8,228.9C138.4,228.9 139.1,229 139.7,229C140.4,228.9 141,228.9 141.5,228.9ZM142,213.6C143.6,213.6 144.9,213.5 145.9,213.2C146.9,212.9 147.8,212.5 148.4,212C149,211.5 149.5,210.8 149.8,209.9C150.1,209.1 150.2,208 150.2,206.9C150.2,205.3 149.7,204.1 148.7,203.4C147.7,202.6 146.1,202.3 143.8,202.3L140.2,202.3L138.2,213.6L142,213.6Z"></path>
    <path style="fill-rule:nonzero;" d="M162.6,229.2L166.2,229.8L166,230.8L158.6,230.8L162,211L159.1,210.4L159.3,209.4L166.1,209.4L162.6,229.2ZM167.5,202.4C167.5,202.7 167.4,203.1 167.3,203.3C167.2,203.6 167,203.9 166.8,204.1C166.6,204.3 166.3,204.5 166,204.6C165.7,204.7 165.4,204.8 165,204.8C164.7,204.8 164.3,204.7 164.1,204.6C163.8,204.5 163.5,204.3 163.3,204.1C163.1,203.9 162.9,203.6 162.8,203.3C162.7,203 162.6,202.7 162.6,202.4C162.6,202.1 162.7,201.8 162.8,201.4C162.9,201 163.1,200.8 163.3,200.6C163.5,200.4 163.8,200.2 164.1,200.1C164.4,200 164.7,199.9 165,199.9C165.3,199.9 165.6,200 166,200.1C166.3,200.2 166.6,200.4 166.8,200.6C167,200.8 167.2,201.1 167.3,201.4C167.4,201.7 167.5,202.1 167.5,202.4Z"></path>
    <path style="fill-rule:nonzero;" d="M175.5,229.2L179.1,229.8L178.9,230.8L171.5,230.8L176.9,200L174,199.5L174.2,198.5L181,198.5L175.5,229.2Z"></path>
    <path style="fill-rule:nonzero;" d="M188.4,229.2L192,229.8L191.8,230.8L184.4,230.8L189.8,200L186.9,199.5L187.1,198.5L193.9,198.5L188.4,229.2Z"></path>
    <path style="fill-rule:nonzero;" d="M201.5,229.2L205.1,229.8L204.9,230.8L197.5,230.8L201,211L198.1,210.4L198.3,209.4L205.1,209.4L201.5,229.2ZM206.4,202.4C206.4,202.7 206.3,203.1 206.2,203.3C206.1,203.6 205.9,203.9 205.7,204.1C205.5,204.3 205.2,204.5 204.9,204.6C204.6,204.7 204.3,204.8 203.9,204.8C203.6,204.8 203.3,204.7 203,204.6C202.7,204.5 202.4,204.3 202.2,204.1C202,203.9 201.8,203.6 201.7,203.3C201.6,203 201.5,202.7 201.5,202.4C201.5,202.1 201.6,201.8 201.7,201.4C201.8,201.1 202,200.8 202.2,200.6C202.4,200.4 202.7,200.2 203,200.1C203.3,200 203.6,199.9 203.9,199.9C204.2,199.9 204.5,200 204.9,200.1C205.2,200.2 205.5,200.4 205.7,200.6C205.9,200.8 206.1,201.1 206.2,201.4C206.3,201.8 206.4,202.1 206.4,202.4Z"></path>
    <path style="fill-rule:nonzero;" d="M227.4,213.5C227.4,214.5 227.1,215.4 226.5,216.3C225.9,217.2 225,218 223.8,218.7C222.6,219.4 221.1,220 219.4,220.5C217.6,221 215.6,221.3 213.4,221.4C213.4,221.5 213.4,221.8 213.3,222L213.3,223C213.3,223.7 213.4,224.5 213.5,225.2C213.7,225.9 213.9,226.5 214.3,227.1C214.7,227.7 215.2,228.1 215.8,228.4C216.4,228.7 217.2,228.9 218.2,228.9C219.6,228.9 220.8,228.7 222,228.2C223.2,227.7 224.2,227.2 225.2,226.6L225.9,227.6C225.4,228 224.8,228.4 224.2,228.9C223.6,229.3 222.8,229.7 222.1,230.1C221.3,230.5 220.5,230.7 219.7,231C218.9,231.2 218,231.3 217.1,231.3C215.8,231.3 214.7,231.1 213.7,230.7C212.7,230.3 211.9,229.8 211.3,229.1C210.7,228.4 210.2,227.6 209.9,226.6C209.6,225.6 209.4,224.5 209.4,223.3C209.4,222 209.6,220.7 209.9,219.4C210.2,218.2 210.6,217 211.2,215.9C211.8,214.8 212.4,213.9 213.2,213C214,212.1 214.8,211.4 215.7,210.8C216.6,210.2 217.5,209.7 218.5,209.4C219.5,209.1 220.5,208.9 221.5,208.9C222.5,208.9 223.3,209 224.1,209.2C224.9,209.4 225.5,209.8 226.1,210.2C226.6,210.6 227,211.1 227.3,211.7C227.3,212.2 227.4,212.9 227.4,213.5ZM213.5,220C215.2,219.9 216.6,219.6 217.9,219.2C219.2,218.8 220.2,218.3 221,217.7C221.8,217.1 222.4,216.5 222.9,215.7C223.4,214.9 223.5,214.2 223.5,213.5C223.5,212.7 223.3,212 222.8,211.4C222.3,210.8 221.7,210.6 220.8,210.6C219.9,210.6 219.1,210.9 218.3,211.4C217.5,212 216.8,212.7 216.2,213.6C215.6,214.5 215,215.5 214.6,216.6C214,217.8 213.7,218.9 213.5,220Z"></path>
    <path style="fill-rule:nonzero;" d="M239.8,229.6L243.8,229L248.6,202.1L244.8,201.5L245,200.3L267.9,200.3L266.6,207.6L265.1,207.6L265.2,202.7C264.7,202.6 264.2,202.6 263.5,202.5C262.8,202.4 262.1,202.4 261.4,202.4L252.9,202.4L250.8,214.3L259,214.3L260.4,210.7L261.9,210.7L260.2,220.1L258.7,220.1L258.7,216.4L250.5,216.4L248.3,228.9L257,228.9C257.8,228.9 258.6,228.8 259.3,228.8C260,228.8 260.6,228.7 261,228.7C261.5,228.7 261.9,228.6 262.1,228.6L264.4,223L265.9,223L264,231.1L239.6,231.1L239.8,229.6Z"></path>
    <path style="fill-rule:nonzero;" d="M275.3,229.2L278.9,229.8L278.7,230.8L271.3,230.8L274.8,211L271.9,210.4L272.1,209.4L278.9,209.4L275.3,229.2ZM280.2,202.4C280.2,202.7 280.1,203.1 280,203.3C279.9,203.6 279.7,203.9 279.5,204.1C279.3,204.3 279,204.5 278.7,204.6C278.4,204.7 278.1,204.8 277.7,204.8C277.4,204.8 277.1,204.7 276.7,204.6C276.4,204.5 276.1,204.3 275.9,204.1C275.7,203.9 275.5,203.6 275.4,203.3C275.3,203 275.2,202.7 275.2,202.4C275.2,202.1 275.3,201.8 275.4,201.4C275.5,201.1 275.7,200.8 275.9,200.6C276.1,200.4 276.4,200.2 276.7,200.1C277,200 277.3,199.9 277.7,199.9C278,199.9 278.3,200 278.7,200.1C279.1,200.2 279.3,200.4 279.5,200.6C279.7,200.8 279.9,201.1 280,201.4C280.1,201.8 280.2,202.1 280.2,202.4Z"></path>
    <path style="fill-rule:nonzero;" d="M288.1,229.2L291.7,229.8L291.5,230.8L284,230.8L289.4,200L286.5,199.5L286.7,198.5L293.5,198.5L288.1,229.2Z"></path>
    <path style="fill-rule:nonzero;" d="M301.2,229.2L304.8,229.8L304.6,230.8L297.2,230.8L300.7,211L297.8,210.4L298,209.4L304.8,209.4L301.2,229.2ZM306.1,202.4C306.1,202.7 306,203.1 305.9,203.3C305.8,203.6 305.6,203.9 305.4,204.1C305.2,204.3 304.9,204.5 304.6,204.6C304.3,204.7 304,204.8 303.6,204.8C303.3,204.8 303,204.7 302.6,204.6C302.3,204.5 302,204.3 301.8,204.1C301.6,203.9 301.4,203.6 301.3,203.3C301.2,203 301.1,202.7 301.1,202.4C301.1,202.1 301.2,201.8 301.3,201.4C301.4,201.1 301.6,200.8 301.8,200.6C302,200.4 302.3,200.2 302.6,200.1C302.9,200 303.2,199.9 303.6,199.9C303.9,199.9 304.2,200 304.6,200.1C305,200.2 305.2,200.4 305.4,200.6C305.6,200.8 305.8,201.1 305.9,201.4C306,201.8 306.1,202.1 306.1,202.4Z"></path>
    <path style="fill-rule:nonzero;" d="M323.2,224.5C323.2,226.8 322.5,228.5 321,229.6C319.5,230.7 317.3,231.2 314.4,231.2C313,231.2 311.8,231 310.7,230.7C309.6,230.4 308.7,230.1 308,229.8L308.9,224.7L309.9,224.7L310.3,227.8C310.7,228.2 311.2,228.6 312,228.9C312.7,229.2 313.5,229.4 314.5,229.4C315.2,229.4 315.8,229.3 316.4,229.2C317,229.1 317.5,228.8 318,228.5C318.5,228.2 318.8,227.8 319.1,227.3C319.4,226.8 319.5,226.1 319.5,225.4C319.5,224.6 319.3,224 318.8,223.4C318.3,222.9 317.8,222.4 317.1,222C316.4,221.6 315.7,221.2 314.9,220.8C314.1,220.4 313.4,220 312.7,219.5C312,219 311.5,218.4 311,217.7C310.6,217 310.3,216.2 310.3,215.1C310.3,214 310.5,213 310.9,212.2C311.3,211.4 311.9,210.7 312.6,210.2C313.3,209.7 314.1,209.3 315,209.1C315.9,208.9 316.9,208.8 317.9,208.8C319,208.8 320,208.9 321.1,209C322.1,209.2 323.1,209.4 324,209.6L323.2,214.4L322.1,214.4L322,212C321.6,211.6 321,211.3 320.4,211.1C319.7,210.9 319,210.7 318.2,210.7C317,210.7 316,211 315.2,211.6C314.5,212.2 314.1,213 314.1,214.2C314.1,214.9 314.3,215.6 314.8,216.1C315.3,216.6 315.8,217.1 316.5,217.5C317.2,217.9 317.9,218.3 318.7,218.7C319.5,219.1 320.2,219.6 320.9,220.1C321.6,220.6 322.1,221.2 322.6,222C323,222.6 323.2,223.5 323.2,224.5Z"></path>
    <path style="fill-rule:nonzero;" d="M332.7,200L330,199.5L330.2,198.5L336.8,198.5L334.8,209.7C334.7,210 334.7,210.4 334.6,210.8C334.5,211.2 334.5,211.6 334.4,212C334.3,212.4 334.3,212.8 334.2,213.1C334.1,213.4 334.1,213.6 334,213.8C334.5,213.1 335.1,212.5 335.7,211.9C336.3,211.3 336.9,210.8 337.6,210.3C338.3,209.9 339,209.5 339.7,209.3C340.4,209 341.2,208.9 341.9,208.9C342.6,208.9 343.2,209 343.8,209.2C344.4,209.4 344.8,209.7 345.3,210.1C345.7,210.5 346,211 346.2,211.6C346.4,212.2 346.5,212.9 346.5,213.8C346.5,214 346.5,214.2 346.4,214.5C346.4,214.8 346.3,215.1 346.3,215.5C346.2,215.9 346.2,216.2 346.1,216.6C346,217 346,217.4 345.9,217.7L343.9,229.3L346.9,229.8L346.7,230.8L340,230.8L342.3,217.6C342.4,217.3 342.4,216.9 342.5,216.5C342.6,216.1 342.6,215.8 342.7,215.4C342.8,215 342.8,214.7 342.8,214.4L342.8,213.7C342.8,213 342.6,212.5 342.3,212C342,211.5 341.4,211.4 340.6,211.4C340,211.4 339.3,211.5 338.6,211.8C337.9,212.1 337.3,212.5 336.7,212.9C336.1,213.4 335.5,213.9 335,214.5C334.5,215.1 334,215.7 333.7,216.3L331.2,230.7L327.4,230.7L332.7,200Z"></path>
    <path style="fill-rule:nonzero;" d="M354.5,190.7C355,189.6 355.7,188.6 356.5,187.8C357.4,187 358.3,186.3 359.5,185.9C360.6,185.4 361.8,185.2 363.1,185.2C364.4,185.2 365.6,185.4 366.7,185.9C367.8,186.4 368.8,187 369.7,187.8C370.5,188.6 371.2,189.6 371.7,190.7C372.2,191.8 372.4,193.1 372.4,194.4C372.4,195.7 372.1,197 371.7,198.1C371.2,199.2 370.5,200.2 369.7,201.1C368.8,201.9 367.9,202.6 366.7,203.1C365.6,203.6 364.4,203.8 363.1,203.8C361.8,203.8 360.6,203.6 359.5,203.1C358.4,202.6 357.4,202 356.5,201.1C355.6,200.3 355,199.3 354.5,198.1C354,197 353.8,195.7 353.8,194.4C353.8,193.1 354,191.8 354.5,190.7ZM356,197.6C356.4,198.6 356.9,199.4 357.6,200.1C358.3,200.8 359.1,201.4 360,201.8C360.9,202.2 362,202.4 363.1,202.4C364.2,202.4 365.2,202.2 366.1,201.8C367,201.4 367.8,200.9 368.5,200.1C369.2,199.4 369.7,198.5 370.1,197.6C370.5,196.6 370.7,195.6 370.7,194.4C370.7,193.3 370.5,192.3 370.1,191.3C369.7,190.4 369.2,189.5 368.5,188.8C367.8,188.1 367,187.5 366.1,187.1C365.2,186.7 364.2,186.5 363.1,186.5C362,186.5 361,186.7 360,187.1C359.1,187.5 358.3,188.1 357.6,188.8C356.9,189.5 356.4,190.4 356,191.3C355.6,192.3 355.4,193.3 355.4,194.4C355.5,195.5 355.6,196.6 356,197.6ZM363.7,189C365,189 365.9,189.2 366.6,189.8C367.2,190.3 367.5,191.1 367.5,192.2C367.5,193.2 367.2,193.9 366.7,194.3C366.2,194.8 365.5,195 364.7,195.1L367.8,199.9L366,199.9L363.1,195.2L361.3,195.2L361.3,199.9L359.6,199.9L359.6,189L363.7,189ZM363,193.8L364.1,193.8C364.4,193.8 364.7,193.7 365,193.6C365.3,193.5 365.5,193.3 365.6,193.1C365.8,192.9 365.8,192.5 365.8,192.1C365.8,191.7 365.7,191.4 365.6,191.2C365.5,191 365.3,190.8 365,190.7C364.8,190.6 364.5,190.5 364.2,190.5C363.9,190.5 363.6,190.4 363.3,190.4L361.1,190.4L361.1,193.9L363,193.8Z"></path>
</svg>
