<svg xml:space="preserve" viewBox="0 0 2500 538" height="538" width="2500" version="1.1" xmlns:xlink="http://www.w3.org/1999/xlink" xmlns="http://www.w3.org/2000/svg">
<desc>Created with Fabric.js 5.2.4</desc>
<defs>
</defs>
<rect fill="transparent" height="100%" width="100%" y="0" x="0"></rect>
<g id="08436fc0-7181-41d9-8371-ae9ce76c1b8f" transform="matrix(0 0 0 0 0 0)">
</g>
<g id="46a62096-e2d5-4778-b0e7-e16360a7632a" transform="matrix(1 0 0 1 1250 269)">
<rect height="538" width="2500" ry="0" rx="0" y="-269" x="-1250" style="stroke: none; stroke-width: 1; stroke-dasharray: none; stroke-linecap: butt; stroke-dashoffset: 0; stroke-linejoin: miter; stroke-miterlimit: 4; fill: rgb(255,255,255); fill-rule: nonzero; opacity: 1; visibility: hidden;"></rect>
</g>
<g transform="matrix(1.46 0 0 1.46 1250 269)">
<g style="">
		<g transform="matrix(1 0 0 1 78.57 0)">
<rect height="313.98" width="1279.05" ry="0" rx="0" y="-156.99" x="-639.525" style="stroke: none; stroke-width: 1; stroke-dasharray: none; stroke-linecap: butt; stroke-dashoffset: 0; stroke-linejoin: miter; stroke-miterlimit: 4; fill: rgb(255,255,255); fill-rule: nonzero; opacity: 1;"></rect>
</g>
		<g transform="matrix(1 0 0 1 0 0)">
<path stroke-linecap="round" d="M 0 0 L 0 348.13 L 1469.89 348.13 L 1469.89 0 L 0 0 z M 1453.05 331.05 L 33.84 331.05 L 33.84 17.08 L 1453.05 17.08 L 1453.05 331.05 z" transform="translate(-734.95, -174.06)" style="stroke: none; stroke-width: 1; stroke-dasharray: none; stroke-linecap: butt; stroke-dashoffset: 0; stroke-linejoin: miter; stroke-miterlimit: 4; fill: rgb(0,169,162); fill-rule: nonzero; opacity: 1;"></path>
</g>
		<g transform="matrix(1 0 0 1 -647.95 -0.06)">
<polygon points="-87,-174 -87,174 87,174 87,8.44 48,8.44 48,73 28,73 28,-73 48,-73 48,-11.42 87,-11.42 87,-174" style="stroke: none; stroke-width: 1; stroke-dasharray: none; stroke-linecap: butt; stroke-dashoffset: 0; stroke-linejoin: miter; stroke-miterlimit: 4; fill: rgb(0,169,162); fill-rule: nonzero; opacity: 1;"></polygon>
</g>
		<g transform="matrix(1 0 0 1 -531.45 -0.06)">
<polygon points="9.5,-73 9.5,-11.42 -29.5,-11.42 -29.5,8.44 9.5,8.44 9.5,73 29.5,73 29.5,-73" style="stroke: none; stroke-width: 1; stroke-dasharray: none; stroke-linecap: butt; stroke-dashoffset: 0; stroke-linejoin: miter; stroke-miterlimit: 4; fill: rgb(51,51,51); fill-rule: nonzero; opacity: 1;"></polygon>
</g>
		<g transform="matrix(1 0 0 1 -590.45 -0.03)">
<polygon points="-9.5,-73 -9.5,-11.42 29.5,-11.42 29.5,8.45 -9.5,8.45 -9.5,73 -29.5,73 -29.5,-73" style="stroke: none; stroke-width: 1; stroke-dasharray: none; stroke-linecap: butt; stroke-dashoffset: 0; stroke-linejoin: miter; stroke-miterlimit: 4; fill: rgb(255,255,255); fill-rule: nonzero; opacity: 1;"></polygon>
</g>
		<g transform="matrix(1 0 0 1 -403.41 0.55)">
<path stroke-linecap="round" d="M 293.91 189.51 C 293.91 194.75 294.88000000000005 199.64999999999998 296.83000000000004 204.25 C 298.78000000000003 208.85000000000002 301.50000000000006 212.92 304.91 216.35 C 308.32 219.78 312.35 222.51999999999998 316.93 224.48 C 321.5 226.44 326.42 227.42 331.58 227.42 C 336.74 227.42 341.65 226.44 346.22999999999996 224.48 C 350.79999999999995 222.51999999999998 354.84 219.78 358.24999999999994 216.35 C 361.6599999999999 212.92 364.37999999999994 208.85999999999999 366.3299999999999 204.25 C 368.2799999999999 199.65 369.24999999999994 194.7 369.24999999999994 189.51 L 369.24999999999994 101.82999999999998 L 388.99999999999994 101.82999999999998 L 388.99999999999994 189.51 C 388.99999999999994 194.85 388.31999999999994 199.98999999999998 386.9599999999999 204.94 C 385.5999999999999 209.84 383.6499999999999 214.44 381.1699999999999 218.75 C 378.6899999999999 223.01 375.6699999999999 226.93 372.1699999999999 230.46 C 368.6699999999999 233.99 364.7699999999999 236.97 360.4899999999999 239.52 C 356.2099999999999 242.07000000000002 351.6799999999999 243.98000000000002 346.76999999999987 245.35000000000002 C 341.89999999999986 246.72000000000003 336.79999999999984 247.41000000000003 331.4899999999999 247.41000000000003 C 326.2399999999999 247.41000000000003 321.1699999999999 246.72000000000003 316.3099999999999 245.35000000000002 C 311.4399999999999 243.98000000000002 306.8699999999999 242.02 302.58999999999986 239.52 C 298.35999999999984 237.02 294.45999999999987 233.98000000000002 290.90999999999985 230.46 C 287.40999999999985 226.93 284.3899999999999 223.06 281.90999999999985 218.75 C 279.42999999999984 214.49 277.47999999999985 209.84 276.11999999999983 204.89 C 274.7599999999998 199.94 274.0799999999998 194.79999999999998 274.0799999999998 189.51 L 274.0799999999998 101.82999999999998 L 293.92999999999984 101.82999999999998 L 293.92999999999984 189.51 z" transform="translate(-331.54, -174.62)" style="stroke: none; stroke-width: 1; stroke-dasharray: none; stroke-linecap: butt; stroke-dashoffset: 0; stroke-linejoin: miter; stroke-miterlimit: 4; fill: rgb(51,51,51); fill-rule: nonzero; opacity: 1;"></path>
</g>
		<g transform="matrix(1 0 0 1 -261.96 -0.27)">
<path stroke-linecap="round" d="M 432.24 245.74 L 432.24 101.83 L 452 101.83 L 452 225.86 L 513.74 225.86 L 513.74 245.75 L 432.24 245.74 L 432.24 245.74 z" transform="translate(-472.99, -173.79)" style="stroke: none; stroke-width: 1; stroke-dasharray: none; stroke-linecap: butt; stroke-dashoffset: 0; stroke-linejoin: miter; stroke-miterlimit: 4; fill: rgb(51,51,51); fill-rule: nonzero; opacity: 1;"></path>
</g>
		<g transform="matrix(1 0 0 1 -131.44 -0.27)">
<path stroke-linecap="round" d="M 567.89 245.74 L 548.14 245.74 L 548.14 101.83 L 567.89 101.83 L 567.89 245.74 z M 584.44 165.51 L 624.44 110.88999999999999 C 626.3900000000001 107.89999999999999 628.82 105.59999999999998 631.7900000000001 104.12999999999998 C 634.7600000000001 102.60999999999999 638.1600000000001 101.87999999999998 642.0100000000001 101.87999999999998 L 655.5900000000001 101.87999999999998 L 606.5000000000001 168.94 C 605.7700000000001 169.87 605.0900000000001 170.56 604.5100000000001 171 C 603.9300000000001 171.44 603.5400000000001 171.69 603.3900000000001 171.73 C 603.5400000000001 171.88 603.8800000000001 172.11999999999998 604.5100000000001 172.51 C 605.0900000000001 172.89999999999998 605.7800000000001 173.59 606.5000000000001 174.51999999999998 L 658.8500000000001 245.73999999999998 L 645.2800000000001 245.73999999999998 C 641.44 245.73999999999998 638.0300000000001 245.01 635.0600000000001 243.48999999999998 C 632.09 241.96999999999997 629.6600000000001 239.71999999999997 627.71 236.73 L 584.39 178 C 583.51 176.87 582.6899999999999 175.89 581.86 175.16 C 581.03 174.38 580.25 173.79 579.57 173.29999999999998 C 578.8900000000001 172.80999999999997 578.3000000000001 172.46999999999997 577.82 172.21999999999997 C 577.33 171.97999999999996 577.09 171.82999999999998 577.0400000000001 171.77999999999997 C 577.09 171.77999999999997 577.3800000000001 171.67999999999998 577.82 171.48999999999998 C 578.3100000000001 171.29 578.8900000000001 170.95 579.57 170.51 C 580.25 170.01999999999998 581.0300000000001 169.38 581.86 168.6 C 582.73 167.71 583.56 166.68 584.44 165.51 z" transform="translate(-603.5, -173.79)" style="stroke: none; stroke-width: 1; stroke-dasharray: none; stroke-linecap: butt; stroke-dashoffset: 0; stroke-linejoin: miter; stroke-miterlimit: 4; fill: rgb(51,51,51); fill-rule: nonzero; opacity: 1;"></path>
</g>
		<g transform="matrix(1 0 0 1 -36.9 -0.62)">
<polygon points="-29.49,71.62 -12.4,71.62 29.49,-71.62 11.93,-71.62" style="stroke: none; stroke-width: 1; stroke-dasharray: none; stroke-linecap: butt; stroke-dashoffset: 0; stroke-linejoin: miter; stroke-miterlimit: 4; fill: rgb(51,51,51); fill-rule: nonzero; opacity: 1;"></polygon>
</g>
		<g transform="matrix(1 0 0 1 580.47 5.98)">
<path stroke-linecap="round" d="M 1277.85 252.53 L 1280.77 248.44 L 1282.96 245.43 L 1289.92 235.87 L 1296.88 226.26 L 1303.98 216.45999999999998 L 1310.45 207.54 L 1318.48 196.51 L 1323.25 189.91 L 1326.02 186.12 L 1326.7 185.18 C 1326.7 185.18 1327.48 184.15 1327.6200000000001 184.05 C 1327.6200000000001 184.05 1328.45 183.06 1329.0300000000002 182.72 C 1329.0300000000002 182.72 1329.7600000000002 182.18 1329.9500000000003 182.08 C 1329.9500000000003 182.08 1329.1700000000003 181.44000000000003 1328.9300000000003 181.34 C 1328.9300000000003 181.34 1328.0100000000002 180.70000000000002 1327.2300000000002 179.71 C 1327.2300000000002 179.71 1326.4500000000003 178.72 1326.1600000000003 178.28 L 1274.5400000000004 107.54 L 1274.8300000000004 107.54 L 1275.4600000000005 107.54 L 1284.4100000000005 107.54 L 1288.5500000000006 107.54 C 1288.5500000000006 107.54 1291.2300000000007 107.59 1293.0300000000007 107.98 C 1293.0300000000007 107.98 1294.7300000000007 108.28 1296.2400000000007 108.87 C 1296.2400000000007 108.87 1297.4600000000007 109.31 1297.9400000000007 109.61 C 1297.9400000000007 109.61 1299.3500000000008 110.35 1299.5900000000008 110.5 C 1299.5900000000008 110.5 1300.9000000000008 111.34 1301.3900000000008 111.78 C 1301.3900000000008 111.78 1302.9000000000008 113.06 1303.1400000000008 113.41 C 1303.1400000000008 113.41 1305.0400000000009 115.42999999999999 1305.9100000000008 117.06 C 1305.9100000000008 117.06 1309.5100000000007 121.99000000000001 1310.0500000000009 122.73 L 1315.0600000000009 129.63 L 1320.0700000000008 136.48 L 1324.6000000000008 142.64 L 1329.1700000000008 148.89999999999998 L 1333.1600000000008 154.31999999999996 L 1338.3200000000008 161.40999999999997 L 1344.3500000000008 169.68999999999997 L 1348.9200000000008 175.99999999999997 C 1348.9200000000008 175.99999999999997 1351.1600000000008 179.04999999999998 1353.6400000000008 180.62999999999997 C 1353.6400000000008 180.62999999999997 1354.8600000000008 181.46999999999997 1356.270000000001 182.15999999999997 C 1356.270000000001 182.15999999999997 1354.3700000000008 182.74999999999997 1352.670000000001 184.27999999999997 C 1352.670000000001 184.27999999999997 1350.720000000001 185.85999999999999 1349.460000000001 187.67999999999998 L 1346.390000000001 191.92 L 1343.5200000000011 195.85999999999999 L 1340.800000000001 199.54999999999998 L 1337.540000000001 204.02999999999997 L 1334.6700000000012 207.96999999999997 L 1331.3600000000013 212.49999999999997 L 1327.8100000000013 217.37999999999997 L 1324.2600000000014 222.25999999999996 L 1320.7600000000014 227.08999999999997 L 1316.9200000000014 232.35999999999999 L 1313.3200000000015 237.33999999999997 L 1309.5700000000015 242.50999999999996 L 1307.9600000000016 244.77999999999997 C 1307.9600000000016 244.77999999999997 1306.4500000000016 246.79999999999998 1305.4300000000017 247.58999999999997 C 1305.4300000000017 247.58999999999997 1303.6300000000017 249.21999999999997 1301.8800000000017 250.09999999999997 C 1301.8800000000017 250.09999999999997 1299.6400000000017 251.32999999999996 1296.9700000000016 251.91999999999996 C 1296.9700000000016 251.91999999999996 1295.1700000000017 252.30999999999995 1294.0500000000015 252.40999999999997 C 1294.0500000000015 252.40999999999997 1291.4700000000016 252.60999999999996 1289.5700000000015 252.55999999999997 L 1277.85 252.53 z" transform="translate(-1315.41, -180.05)" style="stroke: none; stroke-width: 1; stroke-dasharray: none; stroke-linecap: butt; stroke-dashoffset: 0; stroke-linejoin: miter; stroke-miterlimit: 4; fill: rgb(51,51,51); fill-rule: nonzero; opacity: 1;"></path>
</g>
		<g transform="matrix(1 0 0 1 62.99 14.95)">
<path stroke-linecap="round" d="M 841.58 221.15 C 843.7700000000001 221.15 845.38 221.64000000000001 846.3000000000001 222.63 C 847.22 223.62 847.71 225.34 847.71 227.85 C 847.71 230.35999999999999 847.22 232.09 846.3000000000001 233.07 C 845.3800000000001 234.06 843.7700000000001 234.54999999999998 841.58 234.54999999999998 L 835.35 234.54999999999998 C 833.36 234.54999999999998 831.41 234.29999999999998 829.61 233.80999999999997 C 827.8100000000001 233.31999999999996 826.16 232.52999999999997 824.7 231.48999999999998 C 823.24 230.45999999999998 821.98 229.12999999999997 820.9000000000001 227.54999999999998 C 819.83 225.96999999999997 819.0500000000001 224.1 818.6100000000001 221.92999999999998 C 813.5000000000001 226.45999999999998 807.8100000000002 230.05999999999997 801.6800000000002 232.71999999999997 C 795.5000000000002 235.37999999999997 788.8300000000002 236.70999999999998 781.6300000000002 236.70999999999998 C 776.7600000000002 236.70999999999998 772.2900000000002 236.07 768.2000000000003 234.79 C 764.1100000000004 233.51 760.5600000000003 231.64 757.5900000000003 229.17 C 754.6200000000002 226.70999999999998 752.2900000000003 223.7 750.6300000000002 220.14999999999998 C 748.9700000000001 216.59999999999997 748.1500000000002 212.51 748.1500000000002 207.92999999999998 C 748.1500000000002 202.40999999999997 749.2200000000003 197.67999999999998 751.3100000000002 193.83999999999997 C 753.4000000000002 189.95 756.2700000000002 186.83999999999997 759.8700000000001 184.42999999999998 C 763.4700000000001 182.01999999999998 767.6500000000001 180.29 772.4200000000001 179.15999999999997 C 777.19 178.02999999999997 782.2500000000001 177.48999999999998 787.5500000000001 177.48999999999998 C 792.8000000000001 177.48999999999998 797.9100000000001 177.92999999999998 802.83 178.76999999999998 C 807.74 179.60999999999999 812.5600000000001 180.89 817.13 182.51 L 817.13 174.14 C 817.13 167.79 815.62 163.05999999999997 812.6 160.1 C 809.58 157.09 804.38 155.62 797.08 155.62 C 791.83 155.62 786.5200000000001 156.31 781.2700000000001 157.74 C 775.9700000000001 159.17000000000002 771.3000000000001 161.34 767.2100000000002 164.29000000000002 C 765.7000000000002 165.42000000000002 764.1900000000002 165.82000000000002 762.6400000000001 165.47000000000003 C 761.0800000000002 165.13000000000002 759.57 163.94000000000003 758.1600000000001 161.92000000000002 C 756.7500000000001 159.9 756.1700000000001 158.08 756.46 156.45000000000002 C 756.75 154.82000000000002 757.63 153.49 759.14 152.36 C 761.67 150.44000000000003 764.4399999999999 148.81 767.51 147.38000000000002 C 770.58 145.95000000000002 773.74 144.82000000000002 777 143.93000000000004 C 780.26 143.04000000000005 783.62 142.40000000000003 787.02 141.96000000000004 C 790.43 141.52000000000004 793.78 141.32000000000005 797.09 141.32000000000005 C 808.72 141.32000000000005 817.38 144.08000000000004 823.1700000000001 149.60000000000005 C 828.9100000000001 155.12000000000006 831.7800000000001 163.29000000000005 831.7800000000001 174.13000000000005 L 831.7800000000001 213.39000000000004 C 831.7800000000001 218.56000000000003 833.9200000000001 221.17000000000004 838.2 221.17000000000004 L 841.5600000000001 221.17000000000004 L 841.5600000000001 221.15 z M 817.16 195.83 C 812.68 194.3 807.92 193.22 802.86 192.48000000000002 C 797.8000000000001 191.74 792.74 191.4 787.6800000000001 191.4 C 784.1800000000001 191.4 780.97 191.70000000000002 778.0000000000001 192.29 C 775.0300000000001 192.88 772.5000000000001 193.82 770.3600000000001 195.1 C 768.2200000000001 196.38 766.5600000000002 198.06 765.3500000000001 200.12 C 764.1400000000001 202.18 763.5500000000002 204.70000000000002 763.5500000000002 207.66 C 763.5500000000002 212.44 765.2000000000002 216.18 768.4600000000002 218.84 C 771.7200000000001 221.5 776.3400000000001 222.83 782.2300000000001 222.83 C 789.1900000000002 222.83 795.5600000000002 221.35000000000002 801.3000000000002 218.45000000000002 C 807.0900000000001 215.54000000000002 812.3900000000002 211.55 817.1600000000002 206.58 L 817.1600000000002 195.83 z" transform="translate(-797.93, -189.02)" style="stroke: none; stroke-width: 1; stroke-dasharray: none; stroke-linecap: butt; stroke-dashoffset: 0; stroke-linejoin: miter; stroke-miterlimit: 4; fill: rgb(51,51,51); fill-rule: nonzero; opacity: 1;"></path>
</g>
		<g transform="matrix(1 0 0 1 185.47 33.24)">
<path stroke-linecap="round" d="M 885.23 156.86 L 877.25 156.86 C 875.06 156.86 873.45 156.37 872.53 155.38000000000002 C 871.61 154.39000000000001 871.12 152.67000000000002 871.12 150.16000000000003 C 871.12 147.65000000000003 871.61 145.92000000000002 872.53 144.94000000000003 C 873.4499999999999 143.95000000000002 875.06 143.46000000000004 877.25 143.46000000000004 L 892.72 143.46000000000004 C 894.9100000000001 143.46000000000004 896.52 143.95000000000005 897.44 144.94000000000003 C 898.36 145.93000000000004 898.85 147.65000000000003 898.85 150.16000000000003 L 898.85 158.04000000000002 C 902.89 152.72000000000003 907.5600000000001 148.58 912.91 145.68 C 918.26 142.77 924.1999999999999 141.3 930.67 141.3 C 936.6999999999999 141.3 942.3 142.33 947.41 144.4 C 952.52 146.47 957 149.42000000000002 960.6899999999999 153.32 C 964.4399999999999 157.20999999999998 967.3599999999999 161.94 969.4999999999999 167.51 C 971.6399999999999 173.07999999999998 972.7099999999999 179.42999999999998 972.7099999999999 186.53 C 972.7099999999999 193.62 971.6399999999999 199.98 969.4999999999999 205.55 C 967.3599999999999 211.12 964.4399999999999 215.9 960.6899999999999 219.74 C 956.9399999999999 223.63 952.52 226.59 947.41 228.66 C 942.3 230.73 936.7099999999999 231.76 930.67 231.76 C 924.1999999999999 231.76 918.36 230.42999999999998 913.3 227.76999999999998 C 908.1899999999999 225.10999999999999 903.7099999999999 221.32 899.8199999999999 216.39 L 899.8199999999999 259.89 L 921.42 259.89 C 923.61 259.89 925.2199999999999 260.38 926.14 261.37 C 927.0600000000001 262.36 927.55 264.08 927.55 266.59000000000003 C 927.55 269.1000000000001 927.06 270.83000000000004 926.14 271.81000000000006 C 925.22 272.80000000000007 923.61 273.2900000000001 921.42 273.2900000000001 L 874.27 273.2900000000001 C 872.0799999999999 273.2900000000001 870.47 272.80000000000007 869.55 271.81000000000006 C 868.63 270.82000000000005 868.14 269.1000000000001 868.14 266.59000000000003 C 868.14 264.08 868.63 262.35 869.55 261.37 C 870.4699999999999 260.39 872.0799999999999 259.89 874.27 259.89 L 885.17 259.89 L 885.17 156.86 L 885.23 156.86 z M 899.82 186.57 C 899.82 191.45 900.5500000000001 195.78 902.0600000000001 199.57999999999998 C 903.57 203.36999999999998 905.61 206.57999999999998 908.2900000000001 209.19 C 910.97 211.8 914.1300000000001 213.77 917.7800000000001 215.15 C 921.4300000000001 216.53 925.4200000000001 217.22 929.7 217.22 C 934.13 217.22 938.0200000000001 216.48 941.47 214.95 C 944.9200000000001 213.42 947.8000000000001 211.29999999999998 950.13 208.6 C 952.47 205.89 954.27 202.64 955.48 198.9 C 956.7 195.16 957.33 191.07 957.33 186.58 C 957.33 182.09000000000003 956.7 178.01000000000002 955.48 174.26000000000002 C 954.26 170.52 952.46 167.26000000000002 950.13 164.56000000000003 C 947.79 161.85000000000002 944.92 159.73000000000002 941.47 158.21000000000004 C 938.02 156.68000000000004 934.12 155.94000000000003 929.7 155.94000000000003 C 925.4200000000001 155.94000000000003 921.4300000000001 156.63000000000002 917.7800000000001 158.01000000000002 C 914.1300000000001 159.39000000000001 910.9700000000001 161.36 908.2900000000001 163.97000000000003 C 905.6100000000001 166.58000000000004 903.57 169.78000000000003 902.0600000000001 173.58000000000004 C 900.55 177.36 899.82 181.69 899.82 186.57 z" transform="translate(-920.42, -207.3)" style="stroke: none; stroke-width: 1; stroke-dasharray: none; stroke-linecap: butt; stroke-dashoffset: 0; stroke-linejoin: miter; stroke-miterlimit: 4; fill: rgb(51,51,51); fill-rule: nonzero; opacity: 1;"></path>
</g>
		<g transform="matrix(1 0 0 1 316.02 33.24)">
<path stroke-linecap="round" d="M 1015.77 156.86 L 1007.79 156.86 C 1005.5999999999999 156.86 1003.99 156.37 1003.0699999999999 155.38000000000002 C 1002.15 154.39000000000001 1001.66 152.67000000000002 1001.66 150.16000000000003 C 1001.66 147.65000000000003 1002.15 145.92000000000002 1003.0699999999999 144.94000000000003 C 1003.9899999999999 143.95000000000002 1005.5999999999999 143.46000000000004 1007.79 143.46000000000004 L 1023.26 143.46000000000004 C 1025.45 143.46000000000004 1027.06 143.95000000000005 1027.98 144.94000000000003 C 1028.9 145.93000000000004 1029.39 147.65000000000003 1029.39 150.16000000000003 L 1029.39 158.04000000000002 C 1033.43 152.72000000000003 1038.1000000000001 148.58 1043.45 145.68 C 1048.8 142.77 1054.74 141.3 1061.21 141.3 C 1067.24 141.3 1072.8400000000001 142.33 1077.95 144.4 C 1083.06 146.47 1087.54 149.42000000000002 1091.23 153.32 C 1094.98 157.20999999999998 1097.9 161.94 1100.04 167.51 C 1102.1799999999998 173.07999999999998 1103.25 179.42999999999998 1103.25 186.53 C 1103.25 193.62 1102.18 199.98 1100.04 205.55 C 1097.8999999999999 211.12 1094.98 215.9 1091.23 219.74 C 1087.48 223.63 1083.06 226.59 1077.95 228.66 C 1072.8400000000001 230.73 1067.25 231.76 1061.21 231.76 C 1054.74 231.76 1048.9 230.42999999999998 1043.8400000000001 227.76999999999998 C 1038.7300000000002 225.10999999999999 1034.2500000000002 221.32 1030.3600000000001 216.39 L 1030.3600000000001 259.89 L 1051.96 259.89 C 1054.15 259.89 1055.76 260.38 1056.68 261.37 C 1057.6000000000001 262.36 1058.0900000000001 264.08 1058.0900000000001 266.59000000000003 C 1058.0900000000001 269.1000000000001 1057.6000000000001 270.83000000000004 1056.68 271.81000000000006 C 1055.76 272.80000000000007 1054.15 273.2900000000001 1051.96 273.2900000000001 L 1004.8100000000001 273.2900000000001 C 1002.62 273.2900000000001 1001.0100000000001 272.80000000000007 1000.09 271.81000000000006 C 999.1700000000001 270.82000000000005 998.6800000000001 269.1000000000001 998.6800000000001 266.59000000000003 C 998.6800000000001 264.08 999.1700000000001 262.35 1000.09 261.37 C 1001.01 260.38 1002.62 259.89 1004.8100000000001 259.89 L 1015.71 259.89 L 1015.71 156.86 L 1015.77 156.86 z M 1030.42 186.57 C 1030.42 191.45 1031.15 195.78 1032.66 199.57999999999998 C 1034.17 203.36999999999998 1036.21 206.57999999999998 1038.89 209.19 C 1041.5700000000002 211.8 1044.73 213.77 1048.38 215.15 C 1052.0300000000002 216.53 1056.0200000000002 217.22 1060.3000000000002 217.22 C 1064.7300000000002 217.22 1068.6200000000001 216.48 1072.0700000000002 214.95 C 1075.5200000000002 213.42 1078.4 211.29999999999998 1080.7300000000002 208.6 C 1083.0700000000002 205.89 1084.8700000000003 202.64 1086.0800000000002 198.9 C 1087.3000000000002 195.16 1087.93 191.07 1087.93 186.58 C 1087.93 182.09000000000003 1087.3 178.01000000000002 1086.0800000000002 174.26000000000002 C 1084.8600000000001 170.52 1083.0600000000002 167.26000000000002 1080.7300000000002 164.56000000000003 C 1078.3900000000003 161.85000000000002 1075.5200000000002 159.73000000000002 1072.0700000000002 158.21000000000004 C 1068.6200000000001 156.68000000000004 1064.7200000000003 155.94000000000003 1060.3000000000002 155.94000000000003 C 1056.0200000000002 155.94000000000003 1052.0300000000002 156.63000000000002 1048.38 158.01000000000002 C 1044.73 159.39000000000001 1041.5700000000002 161.36 1038.89 163.97000000000003 C 1036.21 166.58000000000004 1034.17 169.78000000000003 1032.66 173.58000000000004 C 1031.15 177.36 1030.42 181.69 1030.42 186.57 z" transform="translate(-1050.97, -207.3)" style="stroke: none; stroke-width: 1; stroke-dasharray: none; stroke-linecap: butt; stroke-dashoffset: 0; stroke-linejoin: miter; stroke-miterlimit: 4; fill: rgb(51,51,51); fill-rule: nonzero; opacity: 1;"></path>
</g>
		<g transform="matrix(1 0 0 1 451.63 15.03)">
<path stroke-linecap="round" d="M 1158.77 230.36 C 1158.77 232.68 1158.23 234.3 1157.16 235.29000000000002 C 1156.0900000000001 236.28000000000003 1154.19 236.77 1151.47 236.77 C 1148.75 236.77 1146.8500000000001 236.28 1145.78 235.29000000000002 C 1144.71 234.3 1144.17 232.68 1144.17 230.36 L 1144.17 206.71 C 1144.17 204.39000000000001 1144.71 202.77 1145.78 201.78 C 1146.85 200.79 1148.75 200.3 1151.47 200.3 C 1152.88 200.3 1154 200.64000000000001 1154.78 201.29000000000002 C 1155.56 201.94000000000003 1156.19 202.96 1156.73 204.34000000000003 C 1159.1100000000001 210.69000000000003 1163.06 215.33000000000004 1168.5 218.18000000000004 C 1173.95 221.04000000000005 1181.2 222.47000000000003 1190.2 222.47000000000003 C 1197.98 222.47000000000003 1203.82 221.09000000000003 1207.72 218.28000000000003 C 1211.6100000000001 215.47000000000003 1213.56 211.83000000000004 1213.56 207.29000000000002 C 1213.56 204.93 1212.83 203.05 1211.32 201.62000000000003 C 1209.81 200.19000000000003 1207.82 199.06000000000003 1205.29 198.22000000000003 C 1202.42 197.23000000000002 1199.11 196.50000000000003 1195.36 196.05000000000004 C 1191.61 195.60000000000005 1187.62 195.11000000000004 1183.49 194.67000000000004 C 1179.3600000000001 194.23000000000005 1175.17 193.64000000000004 1171.08 192.90000000000003 C 1166.9399999999998 192.16000000000003 1163.1499999999999 191.13000000000002 1159.6499999999999 189.75000000000003 C 1157.4599999999998 188.91000000000003 1155.4199999999998 187.83000000000004 1153.62 186.60000000000002 C 1151.82 185.37000000000003 1150.2099999999998 183.89000000000001 1148.8999999999999 182.17000000000002 C 1147.59 180.45000000000002 1146.5199999999998 178.48000000000002 1145.79 176.26000000000002 C 1145.06 174.04000000000002 1144.67 171.48000000000002 1144.67 168.58 C 1144.67 164.20000000000002 1145.5500000000002 160.3 1147.3000000000002 156.9 C 1149.0500000000002 153.5 1151.4800000000002 150.69 1154.5500000000002 148.38 C 1157.6200000000001 146.06 1161.2600000000002 144.34 1165.4500000000003 143.16 C 1169.6300000000003 141.98 1174.2100000000003 141.39 1179.1200000000003 141.39 C 1185.5900000000004 141.39 1191.4300000000003 142.38 1196.5900000000004 144.29999999999998 C 1201.7500000000005 146.21999999999997 1206.1800000000003 148.88 1209.8700000000003 152.23 L 1209.8700000000003 147.79999999999998 C 1209.8700000000003 145.48 1210.4100000000003 143.85999999999999 1211.4800000000002 142.86999999999998 C 1212.5500000000002 141.87999999999997 1214.4500000000003 141.39 1217.1700000000003 141.39 C 1219.8900000000003 141.39 1221.7900000000002 141.88 1222.8600000000004 142.86999999999998 C 1223.9300000000003 143.85999999999999 1224.4700000000003 145.48 1224.4700000000003 147.79999999999998 L 1224.4700000000003 166.51999999999998 C 1224.4700000000003 168.83999999999997 1223.9300000000003 170.45999999999998 1222.8600000000004 171.45 C 1221.7900000000004 172.44 1219.8900000000003 172.92999999999998 1217.1700000000003 172.92999999999998 C 1214.9800000000002 172.92999999999998 1213.4200000000003 172.08999999999997 1212.5000000000002 170.36999999999998 C 1210.9900000000002 167.55999999999997 1209.1900000000003 165.2 1207.1000000000001 163.27999999999997 C 1205.0100000000002 161.35999999999999 1202.5700000000002 159.87999999999997 1199.8000000000002 158.74999999999997 C 1197.0300000000002 157.61999999999998 1194.0100000000002 156.82999999999998 1190.7000000000003 156.38999999999996 C 1187.3900000000003 155.94999999999996 1183.8400000000004 155.69999999999996 1180.0900000000004 155.69999999999996 C 1173.8100000000004 155.69999999999996 1168.8500000000004 156.82999999999996 1165.3500000000004 159.04999999999995 C 1161.8000000000004 161.26999999999995 1160.0500000000004 164.46999999999994 1160.0500000000004 168.60999999999996 C 1160.0500000000004 170.77999999999994 1160.7300000000005 172.49999999999994 1162.1400000000003 173.82999999999996 C 1163.5500000000004 175.15999999999997 1165.4500000000003 176.18999999999997 1167.9300000000003 176.97999999999996 C 1170.6500000000003 177.91999999999996 1173.8200000000004 178.55999999999997 1177.4700000000003 178.99999999999997 C 1181.1200000000001 179.43999999999997 1184.9100000000003 179.83999999999997 1188.9500000000003 180.27999999999997 C 1192.9900000000002 180.71999999999997 1197.0300000000002 181.21999999999997 1201.1100000000004 181.85999999999999 C 1205.1900000000005 182.5 1208.9900000000005 183.44 1212.5000000000005 184.76999999999998 C 1214.8800000000006 185.70999999999998 1217.1200000000003 186.79 1219.1200000000003 188.07 C 1221.1100000000004 189.35 1222.8700000000003 190.88 1224.3300000000004 192.7 C 1225.7900000000004 194.51999999999998 1226.9100000000003 196.58999999999997 1227.7400000000005 199.01 C 1228.5700000000004 201.42 1228.9600000000005 204.17999999999998 1228.9600000000005 207.34 C 1228.9600000000005 211.72 1228.1300000000006 215.76 1226.4800000000005 219.36 C 1224.8300000000004 222.96 1222.3900000000006 226.06 1219.1800000000005 228.67000000000002 C 1215.9700000000005 231.28000000000003 1212.0300000000004 233.25000000000003 1207.3100000000006 234.68 C 1202.5900000000006 236.11 1197.2400000000007 236.8 1191.2000000000007 236.8 C 1184.1400000000008 236.8 1177.9200000000008 235.81 1172.6600000000008 233.84 C 1167.3600000000008 231.87 1162.7300000000007 228.86 1158.7900000000009 224.87 L 1158.7900000000009 230.36 z" transform="translate(-1186.57, -189.09)" style="stroke: none; stroke-width: 1; stroke-dasharray: none; stroke-linecap: butt; stroke-dashoffset: 0; stroke-linejoin: miter; stroke-miterlimit: 4; fill: rgb(51,51,51); fill-rule: nonzero; opacity: 1;"></path>
</g>
</g>
</g>
</svg>