<svg xmlns="http://www.w3.org/2000/svg" fill="none" viewBox="0 0 79 22" height="22" width="79">
<path fill="white" d="M0.661865 2.17491H10.8476V4.05572H2.91518V8.93458H8.83667V10.7063H2.91518V17.466H0.661865V2.17491Z"></path>
<path fill="white" d="M11.8311 1.29895H14.0623V17.465H11.8311V1.29895Z"></path>
<path fill="white" d="M15.7356 19.8294C16.1183 19.9752 16.5892 20.0487 17.1493 20.0487C17.6642 20.0487 18.0701 19.9212 18.3647 19.6663C18.6593 19.4114 18.9248 18.9992 19.1603 18.4308L19.6682 17.2056L16.1879 9.26443C17.5773 9.26443 18.8286 10.0969 19.3528 11.3714L20.8616 15.0401L23.2935 9.07726C23.813 7.80272 25.0632 6.96795 26.4514 6.96795L21.6792 18.6501C21.2373 19.7444 20.7108 20.5424 20.0996 21.0453C19.4885 21.5483 18.6964 21.7997 17.7245 21.7997C16.929 21.7997 16.2668 21.7194 15.7356 21.5586V19.8294Z"></path>
<path fill="white" d="M27.8825 2.17491H34.0916C35.7407 2.17491 37.0083 2.56875 37.892 3.35644C38.7757 4.14413 39.2175 5.29582 39.2175 6.81264C39.2175 7.93562 38.916 8.8875 38.3118 9.66716C37.7076 10.448 36.854 10.9761 35.7488 11.2529L39.1514 17.466H36.8088L33.5164 11.4286H30.1358V17.466H27.8825V2.17491ZM33.7147 9.54659C34.7016 9.54659 35.4856 9.31695 36.0678 8.85765C36.6499 8.39836 36.941 7.7163 36.941 6.81264C36.941 5.82056 36.6569 5.11325 36.091 4.69069C35.5239 4.26814 34.7318 4.05572 33.7159 4.05572H30.137V9.54659H33.7159H33.7147Z"></path>
<path fill="white" d="M41.1554 16.821C40.3819 16.1722 39.9957 15.2938 39.9957 14.1846C39.9957 13.018 40.368 12.1178 41.1114 11.4828C41.8547 10.849 42.9124 10.5309 44.282 10.5309C45.7398 10.5309 46.9772 10.8226 47.9943 11.4059V10.8593C47.9943 10.028 47.7403 9.41254 47.2323 9.01065C46.7244 8.60992 45.9253 8.40898 44.8352 8.40898C44.1869 8.40898 43.5572 8.47098 42.946 8.59499C42.3349 8.719 41.7863 8.89009 41.3004 9.1094V7.31585C41.7422 7.11147 42.3163 6.94727 43.0237 6.82326C43.7312 6.69925 44.4154 6.63725 45.0787 6.63725C46.8311 6.63725 48.1311 7.01961 48.9789 7.78548C49.8254 8.55136 50.2499 9.61233 50.2499 10.9684V17.4651H48.1508V16.2836C47.6939 16.7796 47.1523 17.1551 46.5272 17.41C45.901 17.6649 45.139 17.7924 44.2403 17.7924C42.9588 17.7924 41.9313 17.4674 41.1578 16.8187L41.1554 16.821ZM46.7116 15.6945C47.2857 15.4178 47.7136 15.0309 47.9931 14.5348V13.1133C47.0352 12.5013 45.9682 12.1947 44.79 12.1947C43.9353 12.1947 43.2986 12.3589 42.8788 12.6873C42.459 13.0157 42.249 13.5152 42.249 14.1858C42.249 15.4695 43.0956 16.1114 44.79 16.1114C45.4974 16.1114 46.1376 15.9724 46.7128 15.6957L46.7116 15.6945Z"></path>
<path fill="white" d="M51.7771 6.96564H53.9422V8.47558C54.4432 7.84864 55.0579 7.3859 55.7873 7.08621C56.5168 6.78766 57.2787 6.63725 58.0743 6.63725C59.488 6.63725 60.541 7.00927 61.2333 7.75333C61.9257 8.49739 62.2724 9.49636 62.2724 10.7502V17.4663H60.0412V10.9695C60.0412 9.26327 59.2166 8.41012 57.5663 8.41012C56.8589 8.41012 56.2002 8.57432 55.589 8.90272C54.9779 9.23112 54.4514 9.7306 54.0095 10.4012V17.4674H51.7782V6.96679L51.7771 6.96564Z"></path>
<path fill="white" d="M63.8023 1.29895H66.0336V17.465H63.8023V1.29895ZM66.0556 12.1498L70.9392 6.9655H73.6564L68.752 12.1498L74.1655 17.4661H71.4483L66.0568 12.1498H66.0556Z"></path>
<path fill="white" d="M73.3413 0.399902H74.2987L76.4704 5.84077H75.4663L74.9681 4.58758H72.6641L72.1737 5.84077H71.1618L73.3413 0.399902ZM74.6957 3.77028L73.8161 1.4585L72.9366 3.77028H74.6957Z"></path>
<path fill="white" d="M77.2466 0.399902H78.2351V5.84077H77.2466V0.399902Z"></path>
</svg>
