<svg xmlns="http://www.w3.org/2000/svg" fill="none" viewBox="0 0 114 34" height="34" width="115">
<path fill="currentColor" d="M7.48613 0.691589L15.3423 29.2469H15.9914L23.8416 0.691589H31.3277L23.6596 26.9416C22.0883 32.2559 19.0368 33.7361 15.6638 33.7361C12.2908 33.7361 9.33036 32.6259 7.75912 27.3116L0 0.691589H7.48613Z"></path>
<path fill="currentColor" d="M40.1119 0.691589H47.5071V33.0385H40.1119V0.691589Z"></path>
<path fill="currentColor" d="M59.519 0.691589H66.9141V33.0385H59.519V0.691589Z"></path>
<path fill="currentColor" d="M83.4574 6.42448C85.0286 1.11018 87.9891 0 91.3621 0C94.7351 0 97.7866 1.48024 99.3578 6.79454L107.026 33.0445H99.5398L97.186 24.4057H85.5382L83.1844 33.0445H75.6982L83.4634 6.43055L83.4574 6.42448ZM95.3781 17.9267L91.6836 4.47712H91.0345L87.34 17.9267H95.3781Z"></path>
<path fill="currentColor" d="M113.117 3.67633C113.117 5.4053 111.764 6.75814 109.999 6.75814C108.233 6.75814 106.862 5.4053 106.862 3.67633C106.862 1.94736 108.258 0.63092 109.999 0.63092C111.74 0.63092 113.117 1.98376 113.117 3.67633ZM107.639 3.67633C107.639 5.02917 108.64 6.10902 110.017 6.10902C111.394 6.10902 112.334 5.03524 112.334 3.69453C112.334 2.35382 111.352 1.24364 109.993 1.24364C108.634 1.24364 107.633 2.34169 107.633 3.67633H107.639ZM109.556 5.07164H108.895V2.22036C109.155 2.16576 109.519 2.13543 109.993 2.13543C110.533 2.13543 110.775 2.22036 110.982 2.34169C111.139 2.46302 111.261 2.68748 111.261 2.96654C111.261 3.282 111.018 3.52467 110.666 3.6278V3.6642C110.945 3.76733 111.103 3.97966 111.188 4.36185C111.273 4.79864 111.327 4.96851 111.394 5.0777H110.684C110.599 4.97457 110.545 4.71371 110.46 4.38005C110.405 4.06459 110.235 3.92506 109.871 3.92506H109.556V5.07164ZM109.574 3.45793H109.89C110.254 3.45793 110.551 3.3366 110.551 3.03934C110.551 2.77848 110.357 2.60255 109.944 2.60255C109.768 2.60255 109.647 2.62075 109.58 2.63895V3.45793H109.574Z"></path>
</svg>