<svg style="fill-rule:evenodd;clip-rule:evenodd;stroke-linejoin:round;stroke-miterlimit:2;" xml:space="preserve" xmlns:xlink="http://www.w3.org/1999/xlink" xmlns="http://www.w3.org/2000/svg" version="1.1" viewBox="0 0 600 120" height="100%" width="100%">
    <g transform="matrix(1,0,0,1,-20,-261)">
        <path style="fill:rgb(249,163,26);fill-rule:nonzero;" d="M123.7,313.3C123.7,337.7 107.2,358.1 84.8,363.9L71.8,381L58.8,363.9C36.5,358.1 20,337.7 20,313.3C20,284.4 43.1,261 71.9,261C100.4,261 123.7,284.3 123.7,313.3ZM47.7,299.2L69.9,310C72.2,311.2 76,311.2 78.4,310L100.6,299.2C102.9,298.2 102.9,296.3 100.6,295.1L78.4,284.3C76.1,283.1 72.3,283.1 69.9,284.3L47.7,295.1C45.3,296.1 45.3,297.9 47.7,299.2ZM75.4,320.2L75.4,341.5C75.4,344.2 77.3,345.4 79.6,344.2L102.7,333.4C105,332.2 106.9,329.1 106.9,326.7L106.9,305.2C106.9,302.5 105,301.3 102.7,302.5L79.6,313.5C77.3,314.7 75.4,317.8 75.4,320.2ZM43.9,333.1L66.8,344.3C69.1,345.3 71,344.1 71,341.6L71,320.1C71,317.4 69.1,314.6 66.8,313.4L43.9,302.4C41.6,301.4 39.7,302.6 39.7,305.1L39.7,326.4C39.6,329 41.5,331.9 43.9,333.1Z"></path>
        <path style="fill-rule:nonzero;" d="M195.5,351.2L195.3,351.2C190.9,357 182.9,360.7 174.1,360.7C152.9,360.7 140.6,343.5 140.6,326.9C140.6,311.2 153.8,293.3 174.8,293.3C184.4,293.3 191.8,297.4 195.3,302.8L195.5,302.8L195.5,295L209.3,295L209.3,358.8L195.5,358.8L195.5,351.2ZM175.8,347.6C186.7,347.6 196.1,338.3 196.1,326.9C196.1,315.5 186.7,306.2 175.8,306.2C164.5,306.2 155.3,315.5 155.3,326.9C155.3,338.3 164.4,347.6 175.8,347.6ZM225,307.8L215.8,307.8L215.8,295L224.8,295L224.8,284.2C224.8,272.4 232.1,261 248.9,261C252.3,261 256.7,261.6 259.6,262.7L253.9,275.1C252,274.2 249.9,273.8 247.8,273.9C242.1,273.9 238.8,278.5 238.8,283.2L238.8,294.8L252.6,294.8L252.6,307.6L238.8,307.6L238.8,358.6L225,358.6L225,307.8ZM268,307.8L260,307.8L260,295L268,295L268,275.9L281.8,275.9L281.8,295L291.6,295L291.6,307.9L281.8,307.9L281.8,358.9L268,358.9L268,307.8ZM358.5,344.9C350.7,354.6 340.1,360.4 328.5,360.4C305.9,360.4 292.9,343.6 292.9,326.6C292.9,309.6 305.9,293 328.5,293C341.9,293 362,304 362,328.9L362,331.4L308.4,331.4C309.2,341.1 318.5,348.2 328.1,348.2C335.6,348.2 341.9,344.7 346.7,338.3L358.5,344.9ZM345.5,320.3C342.6,310.6 335.2,305.4 326.4,305.4C317.6,305.4 310.5,310.8 308.2,320.3L345.5,320.3ZM367.4,295L380.5,295L380.5,302L380.7,302C383,296.8 387.8,293.3 393.5,293.3C396.6,293.3 399.2,294.1 401,295.4L396,309.1C394.7,308.1 392.2,307.2 390.8,307.2C385.8,307.2 381.2,310.9 381.2,316.9L381.2,359.2L367.4,359.2L367.4,295ZM408.8,339.8C413.8,345 421.8,349.1 429.1,349.1C437.1,349.1 441.9,344.5 441.9,341C441.9,336.9 438.5,334.6 433.5,333.5L425.5,332C407.3,328.7 402.2,322.9 402.2,313.8C402.2,303 411.4,292.9 427.6,292.9C436.6,292.9 444.4,295.6 453.2,301.8L445.2,311.5C438.5,305.9 432.4,304.5 427.8,304.5C421.7,304.5 415.9,307.4 415.9,312.6C415.9,316.3 419,318.4 424.3,319.2L438.3,321.9C449.8,324 455.5,329.4 455.5,338.9C455.5,348.2 447.7,360.5 428,360.5C417.1,360.5 407.7,356.8 398.9,349.3L408.8,339.8ZM527.6,295L541.4,295L541.4,358.8L527.6,358.8L527.6,295ZM460.3,275.9L474.1,275.9L474.1,303L474.3,303C478.1,297 485.2,293.3 494,293.3C507.6,293.3 519.1,304.5 519.1,320.4L519.1,359L505.3,359L505.3,323.4C505.3,311.8 499.2,307 490,307C481,307 474.1,312.6 474.1,323.2L474.1,359L460.3,359L460.3,275.9ZM565.1,302.7L565.3,302.7C570.3,296.7 577.7,293.2 586.5,293.2C607.7,293.2 620,310.4 620,327C620,342.8 606.8,360.6 585.8,360.6C576.2,360.6 568.8,356.5 565.3,351.1L565.1,351.1L565.1,381L551.3,381L551.3,295L565.1,295L565.1,302.7ZM584.8,306.2C573.9,306.2 564.5,315.5 564.5,326.9C564.5,338.3 573.9,347.6 584.8,347.6C596.1,347.6 605.3,338.3 605.3,326.9C605.3,315.5 596.1,306.2 584.8,306.2ZM534.7,275.1C538.9,275.1 542.5,278.6 542.5,282.8C542.5,287 538.9,290.5 534.7,290.5C530.5,290.5 526.9,287 526.9,282.8C527,278.4 530.3,275.1 534.7,275.1Z"></path>
    </g>
</svg>
