<svg style="fill-rule:evenodd;clip-rule:evenodd;stroke-linejoin:round;stroke-miterlimit:2;" xml:space="preserve" xmlns:xlink="http://www.w3.org/1999/xlink" xmlns="http://www.w3.org/2000/svg" version="1.1" viewBox="0 0 1115 248" height="100%" width="100%">
    <g transform="matrix(1,0,0,1,-42.5,-84.4856)">
        <path style="fill-rule:nonzero;" d="M248.3,308L248.6,308.3L248.3,308M244.2,308.8C244,308.9 223.6,319 213.5,319C202.3,319 193.7,315.6 188.5,309.1C182.7,301.8 181.1,290.9 184.1,277.6C189,255.5 205.9,233.1 232.6,233.1C242.9,233.1 255.3,244.9 255.4,245C256.3,245.9 257.9,246.9 259.3,246.9C260.9,246.9 262.3,245.5 263,244.1L268.8,232L268.9,229.2L266.6,227.1C265.8,226.8 246,220.3 234.5,220.3C200.7,220.3 161.2,235.7 151.6,278.8C148.7,292 151,303.8 158.4,313C168,325 185.2,331.6 206.8,331.6C218.4,331.6 239.9,325.9 240.8,325.6C242.4,325.2 244.1,323.9 244.8,322.5L249.7,312.9L250,309.8L248.6,308.3C247.4,307.7 245.5,308.1 244.2,308.8M1046.5,149.6L1079.4,148.6L1104.4,149.1C1123.9,150.6 1137.3,161.3 1137.5,161.4C1146.6,166.3 1150.8,161.8 1151.9,160.4C1154.4,157 1154.1,151.9 1151.3,149.1C1151,148.8 1141.2,137.3 1111.9,135.2C1110.2,135.1 1105,134.9 1092.8,135.7C1082.8,135.9 1064.1,138.2 1063.3,138.3L1019.4,142.9C1017.2,143.6 1016.6,144.6 1016.6,145.4L1016.6,145.8C1017.5,150.2 1043.6,149.7 1046.5,149.6M158.1,325.3L157.6,324.8L157.4,323.1L155.7,323C108.7,323.6 81.4,314.3 76.7,296.1C70.4,271.9 104.6,236.6 131.9,221.9L135.8,219.6L140.7,217.1C155.2,209.5 155.1,209.3 154.3,207.5C154.1,207.1 153.4,205.9 151.3,206.6C90.6,227.3 53.9,272.4 53.3,281.4L53.3,282C53.3,285.8 55.6,288.6 57.5,290.9C58.7,292.4 59.8,293.7 59.8,294.8C59.8,296.8 56,300.5 52.7,303.8C47.7,308.7 42.5,313.7 42.5,318.9L42.5,319.5C43.1,328.1 49.7,330.3 53.1,330.3L159.6,330.2L159.6,328.4C159.7,326.7 158.7,325.8 158.1,325.3M374.4,138.7C545.1,80.6 707.8,96.1 786.7,135.2C813.1,147.2 819.4,144.9 821.7,142.2C824.8,138.6 821.3,132.8 820.9,132.2L820.6,131.8L820.1,131.6C717.8,78.7 564.5,69.5 429.6,108.3C398.9,116.4 324.5,145.5 323.1,151.1L322.8,152.2L323.7,153.1C325.1,154.1 326.5,155.4 374.4,138.7M336.4,220.4C295.6,220.4 262.1,243.2 254.8,275.9C251.4,291.3 253.6,304.6 261.4,314.2C270.6,325.7 286.8,331.7 308.3,331.7C348.6,331.7 382.9,308.3 389.9,276.1C391.8,267.3 393.4,250.7 382.7,237.4C373.6,226.1 358,220.4 336.4,220.4M358.4,272.4C353.6,293.9 338.4,319 311.2,319C301.8,319 294.8,316.2 290.3,310.6C284.9,303.9 283.4,293.1 286.1,281.1C293.1,249.8 309.5,233.2 333.5,233.2C342.6,233.2 349.5,236 354,241.7C359.5,248.5 361.2,260 358.4,272.4M211.2,196.8C289.2,163 340.4,171 411.3,182.1C438,186.3 468.3,191 503.2,193.7C559.3,198.1 620.7,187.1 680.2,176.5C737.1,166.3 790.8,156.7 835.5,161.3C835.8,161.3 867,160.1 867,160.1C884.7,159.6 885.4,159.6 885.7,157.3C885.9,155.4 883.8,154.9 882.7,154.6C822.1,143.7 755.8,151.6 685.6,159.9C633.4,166.1 579.3,172.5 527.2,170.6C495.1,169.5 467,167.4 439.9,165.3C354.3,158.9 292.4,154.3 210,188.9C201.3,191.9 198.9,193.7 198.9,195.5C198.9,195.8 198.9,196.1 199,196.3C200.4,200.4 211.1,196.8 211.2,196.8M664.1,249.8C666.5,239 662.9,231.4 653,226.3C646.2,222.8 627.8,223.1 627,223.1L590.4,223.1C588.4,223.1 586.5,224.5 586.1,226.3L564,325.7C563.9,325.9 563.9,326.2 563.9,326.4C563.9,327.1 564.2,327.9 564.6,328.4C565.3,329.2 566.4,329.6 567.6,329.5L578.4,328.9L588.9,329.5C591,329.7 592.9,328.4 593.3,326.5C593.3,326.5 602.1,287.2 602.8,283.8C603.9,286.3 608,295.5 608,295.5L609.5,298.9L621.5,327C622.2,328.7 624.2,329.8 626.1,329.7L639.5,329.1L652.8,329.7C654.1,329.8 655.1,329.3 655.7,328.4C656.3,327.6 656.3,326.5 655.8,325.5L652.8,319.5L651.1,316.2L631.8,277.4C633.2,276.8 660.6,265.2 664.1,249.8M634,244.3C634,246.9 633.8,249.1 633.2,251.4C630.3,264.3 609.5,269.9 605.7,270.8C606.2,268.8 613.6,235.2 613.6,235.2C613.7,235.1 614,234.8 614.4,234.8C614.5,234.8 626.7,234.3 631.8,239.2C633.3,240.5 634,242.2 634,244.3ZM941.4,223.3L936.7,223.5L932.2,223.3C930.1,223.1 928.2,224.4 927.8,226.3C927.8,226.3 914.2,287.5 913.4,291.1C911.1,288.3 858.4,225.2 858.4,225.2C857.3,224 855.4,223.1 853.7,223.1L840.8,223.1C838.8,223.1 836.9,224.5 836.5,226.3L814.4,325.4C814.3,325.6 814.3,325.9 814.3,326.1C814.3,326.8 814.6,327.6 815.1,328.1C815.8,328.9 816.9,329.3 818.1,329.2L822.8,329L827.3,329.2C829.4,329.4 831.3,328.1 831.7,326.2C831.7,326.2 845.9,262.4 846.7,258.9C848.6,261.1 858,271.8 858,271.8L860.4,274.7L903.5,327.4C904.5,328.6 906.5,329.6 908.2,329.6L918.6,329.7C920.6,329.7 922.5,328.3 922.9,326.5L945,227.1C945.2,226.1 945,225.1 944.3,224.4C943.7,223.5 942.6,223.1 941.4,223.3M1070.8,228.9C1069.9,228.6 1047.6,220.3 1032.7,220.3C988.7,220.3 955.2,243 947.3,278.2C944.2,292 946.4,303.5 953.7,312.6C963.5,324.9 982.2,331.6 1006.4,331.6C1021.6,331.6 1050.9,325.5 1052.2,325.2C1054,324.8 1055.7,323.3 1056,321.6L1064.5,283.6C1064.7,282.6 1064.5,281.6 1063.8,280.8C1063.1,280 1062,279.6 1060.8,279.7L1050,280.3L1039.5,279.7C1037.4,279.5 1035.5,280.9 1035.1,282.7L1028.1,314.3C1028,314.6 1027.5,315.3 1027,315.5C1026.9,315.5 1017.9,318.9 1009.7,318.9C997.8,318.9 988.7,315.5 983.6,309C978.2,302.2 976.8,292 979.6,279.4C984.7,256.3 1002.7,233 1031.3,233C1044,233 1058.9,246.4 1059.1,246.5C1060,247.4 1061.7,248.3 1063,248.3C1064.6,248.3 1066.1,246.9 1066.7,245.5L1073.1,233.7C1073.6,232.9 1073.7,231.9 1073.4,231C1072.7,230.1 1071.9,229.3 1070.8,228.9M1153.8,201.9C1132.3,168.2 1017.1,155.4 925,154.6L924.8,158.3L937.2,160.4L945.8,162L963.8,164.5L965.3,164.7C1041.2,167.2 1094.8,180.4 1112.6,200.8C1116.5,205.2 1118.4,209.9 1118.4,214.7C1118.4,215.3 1118.4,215.9 1118.3,216.6C1116.2,236.3 1093.7,260.7 1082.8,272.4L1082.1,273.2C1076.7,279.1 1073.9,284.4 1073.9,289.1C1073.9,290.4 1074.1,291.6 1074.5,292.7C1078.1,303.5 1096.8,307.1 1109.2,309.5C1111.6,310 1114.2,310.5 1115.9,310.9C1115,311.5 1113.8,311.8 1111.9,312L1104.7,312.9L1107.3,315.5C1112.2,320.7 1123.7,320 1129.7,317.5C1133.6,315.9 1135.7,313.6 1135.6,310.9C1135.5,306.2 1128.7,303.8 1119.3,300.5C1110.3,297.4 1099.2,293.4 1095.7,287.2C1093.6,283.5 1104.4,275.1 1114.8,266.9C1129.4,255.4 1147.5,241.2 1155.1,224.2C1158.7,216.3 1158.2,208.8 1153.8,201.9M725.3,268.4C725.3,268.3 725.3,268 725.4,267.9L742.2,254.6L745.3,252.2L776.1,228.8C776.9,228.2 778.2,227 778.5,225.9L778.7,225L778,224.1C777.3,223.4 776.2,223.1 774.5,223.3L767.5,223.8L760.7,223.3C759,223.1 757,223.7 755.7,224.8C755.7,224.8 711.1,262.8 706.2,266.9C707.6,260.8 715.1,227.1 715.1,227.1C715.2,226.9 715.2,226.6 715.2,226.4C715.2,225.7 714.9,225 714.4,224.4C713.7,223.6 712.6,223.2 711.4,223.3L700.6,223.9L690.1,223.3C688,223.1 686.1,224.5 685.7,226.3L663.6,325.7C663.4,326.7 663.6,327.7 664.3,328.4C665,329.2 666.1,329.6 667.3,329.5L678.1,328.9L688.6,329.5C690.7,329.7 692.6,328.4 693,326.5C693,326.5 701.1,290 702.2,285.1C704.8,289.5 727.3,327.2 727.3,327.2C728.2,328.7 730.2,329.7 732.1,329.5L742.9,328.9L753.4,329.5C755.6,329.7 757.3,328.7 757.7,327.2C758,326 757.4,324.3 756.8,323.2L725.3,268.4ZM564.1,266.1C563.5,265.2 562.4,264.8 561.1,264.9L543.8,266L539.8,266.1L526.3,266.1C526.5,265.2 532.6,237.9 532.6,237.9C532.6,237.8 532.9,237.6 533.2,237.6L568.3,239.4C568.2,239.4 571.2,238.5 571.2,238.5L572.4,236L572.9,231.7L574.4,227.3C574.8,226.3 574.7,225.3 574.2,224.4C573.6,223.5 572.6,223 571.3,223L509.9,223C507.9,223 506,224.4 505.6,226.2L483.6,324.8C483.4,325.8 483.6,326.8 484.2,327.5C484.9,328.3 485.9,328.8 487.1,328.8L548.5,328.8C550.6,328.8 552.4,327.2 552.5,325.2L553,320.9L554.5,316.5C554.9,315.5 554.8,314.4 554.2,313.6C553.6,312.7 552.5,312.3 551.3,312.4C551.3,312.4 516.4,314.2 515.7,314.2C515.9,313.1 523.3,280.2 523.3,280.2C523.3,280.1 523.6,279.9 524,279.9L537.7,279.9L541.8,280L558.5,281.1C558.4,281.1 561.4,280.2 561.4,280.2L562.6,277.7L563.1,273.4L564.6,269C564.8,268 564.7,267 564.1,266.1M819.3,224.3C818.6,223.5 817.5,223.1 816.3,223.2L805.5,223.8L795,223.2C792.9,223 791,224.4 790.6,226.2L768.5,325.6C768.3,326.6 768.5,327.6 769.2,328.4C769.9,329.2 771,329.6 772.2,329.5L783,328.9L793.5,329.5C795.6,329.7 797.5,328.4 797.9,326.5L820,227.1C820.2,226.1 820,225.1 819.3,224.3M500.7,224.5C500.4,224.1 499.7,223 497.8,223.2L492,223.5L486.4,223.2C484.6,223 482.5,224 481.6,225.5C481.6,225.5 439.1,290.3 436.4,294.4C435.5,289.6 423.7,226.3 423.7,226.3C423.3,224.4 421.4,223 419.3,223.2L406.2,223.8L393.4,223.2C392.2,223.1 391.1,223.5 390.4,224.3C389.8,225.1 389.5,226.1 389.8,227.1L412.1,326.4C412.5,328.3 414.5,329.6 416.6,329.3L421.8,328.9L426.5,329.3C428.3,329.6 430.5,328.7 431.4,327.3L500.1,227.5C501,226.5 501.2,225.4 500.7,224.5"></path>
    </g>
</svg>
