<svg style="fill-rule:evenodd;clip-rule:evenodd;stroke-linejoin:round;stroke-miterlimit:2;" xml:space="preserve" xmlns:xlink="http://www.w3.org/1999/xlink" xmlns="http://www.w3.org/2000/svg" version="1.1" viewBox="0 0 600 106" height="100%" width="100%">
    <g transform="matrix(1,0,0,1,-20.2,-268.3)">
        <path style="fill:rgb(0,235,182);fill-rule:nonzero;" d="M113.6,365.9L71.2,365.9C69.6,365.9 68.1,366.9 67.6,368.4C66.8,371 68.7,373.3 71.1,373.3L113.5,373.3C115.1,373.3 116.6,372.3 117.1,370.8C118,368.3 116.1,365.9 113.6,365.9M127.3,302.6L139.6,302.6C143,302.6 145.8,299.8 145.8,296.4C145.8,293 143,290.2 139.6,290.2L127.3,290.2C123.9,290.2 121.1,293 121.1,296.4C121.1,299.8 123.8,302.6 127.3,302.6M139.6,339L88.6,339C85.2,339 82.4,341.8 82.4,345.2C82.4,348.6 85.2,351.4 88.6,351.4L139.6,351.4C143,351.4 145.8,348.6 145.8,345.2C145.8,341.8 143,339 139.6,339M49.1,314C45.3,314 42.3,317.1 42.3,320.8C42.3,324.6 45.4,327.6 49.1,327.6L68,327.6C71.8,327.6 74.8,324.5 74.8,320.8C74.8,317 71.7,314 68,314L49.1,314ZM148.3,314L127.9,314C124.1,314 121.1,317.1 121.1,320.8C121.1,324.6 124.2,327.6 127.9,327.6L148.3,327.6C152.1,327.6 155.1,324.5 155.1,320.8C155.1,317.1 152.1,314 148.3,314M26.4,302.6L107.4,302.6C110.8,302.6 113.6,299.8 113.6,296.4C113.6,293 110.8,290.2 107.4,290.2L26.4,290.2C23,290.2 20.2,293 20.2,296.4C20.2,299.8 23,302.6 26.4,302.6ZM74.9,345.3C74.9,341.9 72.1,339.1 68.7,339.1L26.4,339.1C23,339.1 20.2,341.9 20.2,345.3C20.2,348.7 23,351.5 26.4,351.5L68.6,351.5C72.1,351.5 74.8,348.7 74.9,345.3M129.3,366C126.7,365.5 124.4,367.8 124.9,370.4C125.2,371.9 126.4,373.1 127.8,373.3C130.4,373.8 132.7,371.5 132.2,368.9C131.9,367.5 130.7,366.3 129.3,366M74.8,275.7L117.2,275.7C118.8,275.7 120.3,274.7 120.8,273.2C121.6,270.6 119.7,268.3 117.3,268.3L74.9,268.3C73.3,268.3 71.8,269.3 71.3,270.8C70.5,273.4 72.4,275.7 74.8,275.7M59.2,275.7C61.8,276.2 64.1,273.9 63.6,271.3C63.3,269.8 62.1,268.6 60.7,268.4C58.1,267.9 55.8,270.2 56.3,272.8C56.6,274.2 57.7,275.4 59.2,275.7"></path>
        <path style="fill:rgb(39,45,69);fill-rule:nonzero;" d="M252.4,321C252.4,325.4 251.5,329.3 249.8,332.8C248.1,336.3 245.5,339 242.3,341C239,343 235.1,344 230.6,344C226.1,344 222.1,343 218.9,341C215.7,339 213.1,336.2 211.4,332.8C209.7,329.3 208.8,325.4 208.8,321C208.8,316.6 209.7,312.7 211.4,309.2C213.1,305.8 215.6,303 218.9,301C222.1,299 226.1,298 230.6,298C235.1,298 239,299 242.3,301C245.6,303 248.1,305.8 249.8,309.2C251.6,312.6 252.4,316.6 252.4,321M246.7,293.5C242.1,290.8 236.7,289.5 230.6,289.5C224.5,289.5 219.1,290.9 214.5,293.5C209.9,296.2 206.3,299.9 203.8,304.7C201.3,309.4 200,314.9 199.9,321C200,327.1 201.3,332.6 203.8,337.3C206.3,342 209.9,345.8 214.5,348.5C219.1,351.2 224.5,352.5 230.6,352.5C236.7,352.5 242.1,351.1 246.7,348.4C251.3,345.7 254.9,342 257.4,337.2C259.9,332.5 261.3,327 261.4,320.9C261.3,314.9 259.9,309.4 257.4,304.7C254.9,300 251.3,296.2 246.7,293.5M306.1,316.4L325.6,296.9C326.3,296.2 326.7,295.1 326.7,293.8C326.7,292.7 326.3,291.7 325.4,290.9C324.6,290.1 323.6,289.8 322.5,289.8C321.2,289.8 320.1,290.3 319.2,291.3L290.8,320.3L290.8,294.3C290.8,293.1 290.3,292 289.5,291.1C288.6,290.2 287.5,289.8 286.3,289.8C285.1,289.8 284,290.2 283.1,291.1C282.3,292 281.8,293.1 281.8,294.3L281.8,347.5C281.8,348.7 282.2,349.8 283.1,350.7C284,351.6 285,352 286.3,352C287.5,352 288.6,351.6 289.5,350.7C290.4,349.9 290.8,348.8 290.8,347.5L290.8,331.6L300,322.3L321.8,350.1C322.7,351.3 323.8,351.9 325.4,351.9C326.6,351.9 327.7,351.5 328.6,350.6C329.5,349.7 329.9,348.7 329.8,347.5C329.8,346.5 329.4,345.6 328.7,344.7L306.1,316.4ZM387,298.8C388.2,298.8 389.2,298.4 390,297.6C390.8,296.8 391.2,295.8 391.2,294.6C391.2,293.4 390.8,292.4 390,291.6C389.2,290.8 388.2,290.4 387,290.4L352.5,290.4C351.3,290.4 350.2,290.8 349.3,291.7C348.5,292.6 348,293.7 348,294.9L348,347.2C348,348.4 348.4,349.5 349.3,350.4C350.2,351.3 351.2,351.7 352.5,351.7L387,351.7C388.2,351.7 389.2,351.3 390,350.5C390.8,349.7 391.2,348.7 391.2,347.5C391.2,346.3 390.8,345.3 390,344.5C389.2,343.7 388.2,343.3 387,343.3L357,343.3L357,325.3L383.9,325.3C385.1,325.3 386.1,324.9 386.9,324.1C387.7,323.3 388.2,322.3 388.2,321.1C388.2,319.9 387.8,318.9 387,318.1C386.2,317.3 385.2,316.9 384,316.9L357,316.9L357,299L387,298.8ZM460.5,289.9C459.3,289.9 458.2,290.4 457.3,291.2C456.5,292.1 456,293.2 456,294.4L456,339.1L424,292.7C422.6,290.8 420.8,289.9 418.8,289.9L417.7,289.9C416,289.9 414.5,290.5 413.3,291.8C412.1,293 411.5,294.5 411.5,296.2L411.5,347.6C411.5,348.8 411.9,349.9 412.8,350.8C413.7,351.7 414.7,352.1 416,352.1C417.2,352.1 418.3,351.7 419.2,350.8C420.1,350 420.5,348.9 420.5,347.6L420.5,302.8L452.8,349.5C453.4,350.2 454.1,350.9 455,351.3C455.9,351.8 456.8,352 457.9,352L458.9,352C460.6,352 462.1,351.4 463.3,350.2C464.5,349 465.1,347.5 465.1,345.8L465.1,294.4C465.1,293.2 464.7,292.1 463.8,291.2C462.9,290.3 461.8,289.9 460.5,289.9M533,321C533,325.4 532,329.2 530.1,332.6C528.2,335.9 525.5,338.5 522.1,340.4C518.6,342.3 514.6,343.2 510,343.2L498.2,343.2L498.2,298.8L510,298.8C514.6,298.8 518.7,299.8 522.1,301.6C525.5,303.5 528.3,306.1 530.1,309.4C532,312.7 533,316.6 533,321M527.9,294.8C523.3,291.8 517.6,290.4 511,290.4L493.7,290.4C492.5,290.4 491.4,290.8 490.5,291.7C489.7,292.6 489.2,293.7 489.2,294.9L489.2,347.2C489.2,348.4 489.6,349.5 490.5,350.4C491.4,351.3 492.4,351.7 493.7,351.7L511,351.7C517.6,351.7 523.3,350.2 527.9,347.3C532.5,344.4 536,340.5 538.4,335.8C540.7,331.1 541.9,326.2 541.9,321.1C541.9,316 540.7,311 538.4,306.4C536,301.6 532.5,297.7 527.9,294.8M589.5,344C585,344 581.1,343 577.8,341C574.6,339 572,336.2 570.3,332.8C568.6,329.3 567.7,325.4 567.7,321C567.7,316.6 568.6,312.7 570.3,309.2C572,305.7 574.5,303 577.8,301C581,299 585,298 589.5,298C594,298 597.9,299 601.2,301C604.5,303 607,305.8 608.7,309.2C610.4,312.7 611.3,316.6 611.3,321C611.3,325.4 610.4,329.3 608.7,332.8C607,336.3 604.4,339 601.2,341C597.8,343 593.9,344 589.5,344M616.2,304.7C613.7,299.9 610.1,296.2 605.5,293.5C600.9,290.8 595.5,289.4 589.4,289.4C583.3,289.4 577.9,290.8 573.3,293.5C568.7,296.2 565.1,299.9 562.6,304.7C560.1,309.4 558.8,314.9 558.7,321C558.8,327.1 560.1,332.6 562.6,337.3C565.1,342 568.7,345.8 573.3,348.5C577.9,351.2 583.3,352.5 589.4,352.5C595.5,352.5 600.9,351.1 605.5,348.4C610.1,345.7 613.7,342 616.2,337.2C618.7,332.5 620.1,327 620.2,320.9C620.1,314.9 618.8,309.5 616.2,304.7"></path>
    </g>
</svg>
