<svg width="724" height="220" viewBox="0 0 724 220" fill="none" xmlns="http://www.w3.org/2000/svg">
<path d="M73.9933 51.5798C62.6697 51.5798 51.8546 55.7857 41.5941 64.1975C41.2244 57.7731 39.9302 53.5672 37.6193 51.5798L0.644531 57.542V61.1933C10.9513 59.3446 16.1277 64.5672 16.1277 76.9076V193.609C16.1277 208.584 11.1361 216.164 1.15293 216.349V220H56.384V216.349C46.5395 216.21 41.6403 208.63 41.6403 193.609V153.353C50.7454 160.193 61.1445 163.752 72.8378 164.029C86.3798 163.937 97.5647 158.668 106.392 148.13C115.497 137.454 120.073 123.542 120.073 106.441C120.073 89.2017 115.867 75.7521 107.455 66.1386C99.0437 56.4328 87.905 51.5798 73.9933 51.5798ZM86.9344 143.37C81.6655 152.059 74.4555 156.403 65.3504 156.403C60.7748 156.403 56.2454 155.109 51.7622 152.567C47.4176 150.025 44.0437 147.206 41.5941 144.109V86.8446C41.7328 78.7101 44.1361 72.1009 48.758 66.9706C53.7496 62.0714 58.926 59.437 64.3798 59.0672C72.9765 58.6513 80.1865 63.2269 85.9639 72.8403C91.6025 82.2227 94.4218 94.2395 94.4218 108.845C94.3756 123.218 91.8798 134.681 86.9344 143.37Z" fill="#0A0B23"/>
<path d="M214.867 74.8739H214.96C219.859 74.8739 224.342 71.5462 225.636 66.9706C226.838 62.7185 224.989 58.1891 220.922 55.4622C219.951 54.8151 218.934 54.3067 217.825 53.937C212.233 52.042 204.93 52.7353 198.321 55.7857C195.132 57.2647 191.989 59.2983 188.985 61.8403C186.258 64.1513 183.439 66.6933 181.451 69.7899C179.325 73.1639 177.384 76.8613 175.628 80.7899V66.9244C175.628 59.1597 174.657 54.0756 172.762 51.6261L135.556 57.5882V61.2395C145.17 59.7605 149.976 65.1219 149.976 77.3698V135.097C149.976 149.979 145.17 157.651 135.556 158.067V161.672H190.279V158.067C180.527 157.836 175.628 150.21 175.628 135.097V91.6975C177.199 88.3698 179.187 85.3193 181.497 82.5924L182.006 81.9916C184.964 78.2941 188.061 74.458 192.313 72.2857C195.871 70.4832 200.077 69.9286 203.913 70.7605C205.531 71.1302 207.01 71.916 208.489 72.7017C210.384 73.7185 212.418 74.8277 214.867 74.8739Z" fill="#0A0B23"/>
<path d="M449.472 126.084C446.653 132.74 442.955 138.332 438.472 142.908C432.279 149.147 424.653 152.382 415.502 152.613C404.964 152.891 396.182 148.176 389.157 138.424C382.086 128.58 379.035 116.84 379.96 103.16H457.237C456.544 87.3529 451.691 74.6891 442.678 65.2143C433.85 55.7395 421.649 50.979 406.027 50.979C390.359 50.979 377.556 56.5714 367.573 67.8025C357.775 78.6639 352.829 92.2521 352.829 108.521C352.829 124.189 357.775 137.269 367.573 147.853C377.649 158.529 389.758 163.891 403.993 163.891C416.934 163.891 428.027 159.87 437.363 151.828C444.897 145.311 450.397 136.761 453.771 126.176H449.472V126.084ZM382.04 85.042C382.964 80.5588 384.35 76.1218 386.199 71.6849C388.048 67.1092 390.59 63.3655 393.871 60.4538C397.292 57.4496 401.128 55.8781 405.426 55.7395C411.018 55.5084 415.871 58.0966 419.846 63.4118C423.913 68.7269 426.548 74.4118 427.842 80.6513C429.275 86.7983 429.645 95.4412 429.645 95.4412L380.145 95.4874C380.237 94.9328 381.115 89.3866 382.04 85.042Z" fill="#0A0B23"/>
<path d="M524.577 158.021C514.594 157.79 509.603 150.21 509.603 135.281V0L468.376 6.19329V10.0294C478.867 8.08824 483.997 13.3109 483.766 25.6513V135.281C483.766 150.256 478.636 157.836 468.376 158.021V161.672H524.577V158.021Z" fill="#0A0B23"/>
<path d="M596.262 158.021C586.279 157.79 581.287 150.21 581.287 135.281V0L540.06 6.19329V10.0294C550.552 8.08824 555.682 13.3109 555.451 25.6513V135.281C555.451 150.256 550.321 157.836 540.06 158.021V161.672H596.262V158.021Z" fill="#0A0B23"/>
<path d="M297.691 155.849C300.002 153.676 302.035 151.319 303.745 148.731C303.745 155.803 309.569 161.534 316.779 161.534H342.661V157.651C333.279 155.479 326.67 147.252 326.67 137.824V88.1387C326.67 76.7227 322.88 67.4328 315.392 60.5C307.905 53.6135 297.552 50.1009 284.611 50.1009C278.14 50.1009 272.409 50.8865 267.418 52.5042C262.472 54.1218 258.174 56.2479 254.661 58.8361C251.103 61.4706 248.376 64.4748 246.573 67.7563C245.094 70.4832 244.17 73.3487 243.892 76.2605C243.661 78.8487 243.476 82.1765 244.447 84.8571C245.603 88.0924 248.838 90.8193 252.766 91.7899C256.649 92.7605 261.178 91.7437 264.275 89.2017C266.724 87.2143 267.926 84.5336 267.741 81.6218C267.695 80.8361 267.51 80.0504 267.325 79.3109C267.14 78.6639 267.002 77.9706 266.909 77.2773C266.771 76.0756 266.724 74.7815 266.724 73.2101C266.724 67.8025 268.434 63.458 271.808 60.2227C275.182 56.9874 279.481 55.3697 284.518 55.3697C289.556 55.3697 294.039 57.7731 297.829 62.4874C301.712 67.2941 303.653 75.8907 303.653 88.0924V94.1008C291.913 94.147 281.653 95.3025 273.103 97.4748C264.367 99.7395 257.065 102.744 251.426 106.395C245.741 110.092 241.443 114.345 238.67 119.059C235.85 123.773 234.418 128.58 234.418 133.34C234.418 142.954 237.792 150.765 244.401 156.496C251.01 162.227 260.901 165.139 273.842 165.139C279.25 165.139 284.01 164.168 287.939 162.181C291.913 160.378 295.149 158.206 297.691 155.849ZM265.754 152.752C262.01 148.777 260.115 143.092 260.115 135.882C260.115 128.164 262.888 120.538 267.926 114.529C272.825 108.66 279.897 105.055 288.077 104.084C293.254 103.437 295.888 103.437 303.745 103.252V136.945C301.85 141.105 299.586 144.756 296.997 147.807C294.733 150.534 291.96 153.076 288.771 155.34C285.628 157.559 282.023 158.668 277.955 158.668C273.565 158.714 269.497 156.727 265.754 152.752Z" fill="#0A0B23"/>
<path d="M723.455 157.651C714.073 155.479 707.464 147.252 707.464 137.824V88.1387C707.464 76.7227 703.674 67.4328 696.187 60.5C688.699 53.6135 678.346 50.1009 665.405 50.1009C658.934 50.1009 653.203 50.8865 648.212 52.5042C643.266 54.1218 638.968 56.2479 635.455 58.8361C631.897 61.4706 629.17 64.4748 627.367 67.7563C625.888 70.4832 624.964 73.3487 624.687 76.2605C624.455 78.8487 624.271 82.1765 625.241 84.8571C626.397 88.0924 629.632 90.8193 633.56 91.7899C637.443 92.7605 641.972 91.7437 645.069 89.2017C647.518 87.2143 648.72 84.5336 648.535 81.6218C648.489 80.8361 648.304 80.0504 648.119 79.3109C647.934 78.6639 647.796 77.9706 647.703 77.2773C647.565 76.0756 647.518 74.7815 647.518 73.2101C647.518 67.8025 649.229 63.458 652.602 60.2227C655.976 56.9874 660.275 55.3697 665.313 55.3697C670.35 55.3697 674.834 57.7731 678.624 62.4874C682.506 67.2941 684.447 75.8907 684.447 88.0924V94.1008C672.708 94.147 662.447 95.3025 653.897 97.4748C645.161 99.7395 637.859 102.744 632.22 106.395C626.535 110.092 622.237 114.345 619.464 119.059C616.645 123.773 615.212 128.58 615.212 133.34C615.212 142.954 618.586 150.765 625.195 156.496C631.804 162.227 641.695 165.139 654.636 165.139C660.044 165.139 664.804 164.168 668.733 162.181C672.615 160.24 675.85 158.067 678.392 155.71C680.703 153.538 682.737 151.181 684.447 148.592C684.447 155.664 690.271 161.395 697.481 161.395H723.363V157.651H723.455ZM684.54 136.992C682.645 141.151 680.38 144.803 677.792 147.853C675.527 150.58 672.754 153.122 669.565 155.387C666.422 157.605 662.817 158.714 658.75 158.714C654.405 158.714 650.292 156.727 646.594 152.752C642.85 148.777 640.955 143.092 640.955 135.882C640.955 128.164 643.729 120.538 648.766 114.529C653.666 108.66 660.737 105.055 668.918 104.084C674.094 103.437 676.729 103.437 684.586 103.252L684.54 136.992Z" fill="#0A0B23"/>
</svg>
