<svg xml:space="preserve" style="enable-background:new 0 0 553 108.7;" viewBox="0 0 553 108.7" y="0px" x="0px" xmlns:xlink="http://www.w3.org/1999/xlink" xmlns="http://www.w3.org/2000/svg" id="Layer_1" version="1.1">
<style type="text/css">
	.st0{fill:#383636;}
	.st1{fill:#383536;}
	.st2{fill:#393637;}
	.st3{fill:#373435;}
	.st4{fill:#3A3738;}
	.st5{fill:#403E3F;}
	.st6{fill:#E1E1E1;}
	.st7{fill:#FFFFFF;stroke:#373435;stroke-miterlimit:10;}
</style>
<g>
	<path d="M391.8,39.6c-0.3-0.7-0.1-1.5-0.2-2.2c-0.2-1.3,0.1-2.7-0.8-4c-0.2-0.2-0.3-0.7,0.1-1c0.1-0.1,0.3,0,0.1-0.3
		c-0.7-1-0.6-2.1-0.3-3.3c0.6-2.8,2.7-4.5,4.5-6.4c3.5-3.7,7-7.3,11.2-10.3c4.4-3.2,9.1-5.9,13.7-8.8c0.5-0.3,1-0.2,1.4,0
		c5.6,3.2,11.1,6.6,16.1,10.7c0.5,0.4,0.7,1.1,1.5,1.3c0.4,0.1,0.4,0.6,0.1,1c-0.2,0.3-0.3,0.7,0,1c0.4,0.3,0.6-0.1,0.7-0.3
		c0.4-0.5,0.8-0.2,1.1,0.1c3,2.9,6,5.8,8.6,9c1.2,1.5,1.7,3.3,1.6,5.3c0,0.9-0.6,1.7-0.6,2.6c0,0.4-0.4,0.4-0.7,0.5
		c-0.3-0.4-0.6-0.5-1-0.3c0.2,0.5,0.6,0.3,0.9,0.5c0.3,0.3,0.5,2.9,0.3,3.2c-0.1,0.1-0.2,0.1-0.3,0.1c-0.3,0-0.6-0.2-0.7,0.2
		s0.3,0.4,0.5,0.5c0.3,0,0.5,0.2,0.4,0.5c0,0.1-0.1,0.3-0.2,0.4c-0.2,0.2-0.4,0.1-0.6-0.1c-0.2-0.2-0.4-0.5-0.6-0.6
		c-0.7-0.3-1.3-0.3-1.4,0.7c0.4,0.3,0.9-0.3,1.3,0.3c-0.1,0.4-0.8,0.3-1,0.8c1.4,0,1,1.4,1.8,2c0.2,0.1,0,0.4-0.1,0.5
		c-0.5,0.2-0.4,0.4,0,0.6c0.2,0.2,0.4,0.4,0,0.6c-0.2,0.1-0.6,0-0.4,0.4c0.2,0.3,0.5,0.2,0.7,0s0.4-0.4,0.6-0.6
		c0.4,1.3-0.1,2.2-1.2,2.9c-0.4-0.3,0-0.5,0.1-0.7c0-0.3,0-0.6-0.4-0.7c-0.5-0.1-0.3,0.3-0.3,0.5c-0.1,0.7-0.7,0.8-1.2,0.5
		c-0.4-0.2-0.7-0.6-0.6-1c0.4-1.5-0.3-3.1,0-4.6c0.2-0.7-0.3-1.5,0.3-2.1c0.2-0.2-0.1-0.6-0.3-0.7c-0.4-0.2-0.8-0.1-1.3,0.1
		c-2.2,0.9-4.5,1.6-6.9,2c-0.5,0.1-1.2,0.5-1.8,0.7c-3.6,1-7.1,2.2-10.7,3.1c-1.3,0.3-1.4,1-1.3,2.1c0.3,2.1,0.6,4.1,0.8,6.2
		c0.4,3.3,0.7,6.7,1.1,10c0.1,0.7-0.1,1.2-0.6,1.7c-1.4,1.1-2.7,2.2-4,3.4c-0.7,0.6-1.2,0.5-1.8-0.1c-0.9-0.8-1.8-1.8-2.8-2.4
		c-1.8-1.1-2-2.6-1.7-4.4c0.8-5,1.1-10,1.8-15c0.1-0.8-0.1-1.1-0.9-1.4c-5.4-1.5-10.8-3.1-16.2-4.6c-0.9-0.2-1.6-0.4-1.7-1.5
		c0-0.3-0.1-0.7-0.6-0.6c-0.3,0.1-0.3,0.4-0.2,0.7c0.3,0.8-0.2,0.6-0.6,0.5c-0.3,0-0.6-0.2-0.9-0.2c-0.7,0-1.3-0.1-0.9,1
		c0.5,1.1,0.1,1.4-1,1.4c-0.3,0-0.6,0-0.8,0c-0.1,0.4,0.2,0.5,0.4,0.6c0.4,0.3,1.2-0.3,1.3,0.3c0.2,0.9,0.4,1.9-0.1,2.8
		c-0.2,0.4-0.4,0.7-0.2,1.2c-0.7-0.5-1.4-0.6-2.2-0.2c-0.1-0.6,0.2-0.9,0.5-1.2c-0.5-0.4-1,0.1-1.5,0.1c-0.2-1.3-0.5-2.6,1.5-2.7
		c-0.4-0.5-0.7-0.1-1-0.2l-0.1-0.1c-0.3-0.5-0.8-1-0.2-1.7c0.8-0.3,1.6-0.1,2.5-0.4C393.4,38.8,392.6,39.6,391.8,39.6z M397.1,27.2
		c-0.3,1,0.2,1.8,1.4,2.2c0.4-0.3-0.3-0.6,0.1-0.8c1.1,0.8,1.4,0.7,1.7-0.8c0-0.2-0.1-0.4,0.2-0.5c0.3,0,0.5,0.1,0.5,0.4
		c0.2,2,2.1,2.7,3.1,4.1c0.1,0.2,0.3,0.3,0.5,0.1c0.2-0.2,0-0.3-0.1-0.5c-0.2-0.3-0.5-0.6-0.7-1c-0.2-0.3-0.4-0.7-0.2-1.1
		c0.3-0.5,0.7-0.2,1-0.1s0.6,0.1,0.7-0.3c0.1-0.3,0-0.5-0.2-0.6c-0.4-0.3-0.6-0.6-0.7-1.1c0-0.3-0.1-0.7-0.5-0.7
		c-0.5,0.1-0.2,0.5-0.2,0.7c0.1,0.7-0.4,1.2-0.9,0.9c-0.6-0.3-1.2-0.9-1.4-1.5c-0.5-1.4-1.5-2.5-2.7-2.4c-0.6,0-1,0.4-1.4,0.6
		c-1.4,0.8-1.4,0.9-0.2,1.8C397.1,26.9,397.1,27.1,397.1,27.2z M405.6,32.8c-0.3,0.4,0.5,0.9-0.3,1.2c-0.3,0.1-0.7-0.1-0.6,0.5
		c0.1,0.5,0.4,0.7,0.8,0.7c0.7,0,1.2,0.2,1.1,1.1c0,0.2,0,0.4,0.4,0.4c0.9-0.1,1,0.2,0.5,1c-0.1,0.2-0.1,0.3-0.1,0.5
		c0.7,1.9,0.7,1.9,2.5,2.4c0.3,0.1,0.6,0.1,0.8-0.2c0.2-0.3-0.1-0.5-0.3-0.7c-0.8-1-1.9-1.8-1.4-3.3c0.1-0.3,0-0.8-0.1-1.2
		c0-0.3-0.3-0.7-0.5-0.6c-0.8,0.9-1.1,0-1.7-0.2c-0.7-0.2-0.7-0.2-0.5-0.8C406.5,33.2,406.1,32.9,405.6,32.8z M425,26.3
		c-1,1.2-1,1.9-0.1,2.3s1.3-0.4,1.7-0.9c0.3-0.3,0.6-0.7,0.2-1.1c-0.4-0.3-0.8-0.1-1.1,0.1C425.2,27.1,425.3,27.1,425,26.3z
		 M445.3,28.7c0.2,0.4-0.3,1.3,0.6,1.3c0.7,0,1-0.7,1-1.4c0-0.6-0.2-1.5-0.9-1.5C445.1,27.2,445.4,28.1,445.3,28.7z M431.4,16.8
		c0.2,0.5,0.4,0.9,0.4,1.3c0.1,0.7,0.5,0.6,1,0.5c0.4-0.1,0.9-0.3,0.7-0.9C433.2,16.7,432.4,16.6,431.4,16.8z M447.2,34.9
		c0.5,0.4,1,0.6,1.6,0.6c0.2,0,0.4,0.2,0.4,0.4c0,0.3-0.2,0.2-0.4,0.3c-0.2,0-0.5-0.1-0.5,0.3c0.4,0.2,0.9,0.3,1.3-0.1
		c0.3-0.3,0.2-0.7,0.1-1C449.5,34.9,447.7,34.6,447.2,34.9z M412.1,40.6c1.1,1.1,1.6,1.2,2.2,0.5C413.5,41.2,413.1,40.3,412.1,40.6z
		 M444.9,32.5c0.7-0.2,1.5,0.5,2.5,0.1C446.4,32.1,445.6,31.7,444.9,32.5z M448.2,43.4c0.1-0.7,0.1-1.4-1-1.7
		C447.7,42.3,446.4,43.4,448.2,43.4z M394.6,32.4c0.1,0.5-0.7,0.9-0.3,1.2c0.3,0.3,1,0,1.1-0.4C395.6,32.8,394.7,33,394.6,32.4z
		 M445.6,34.3c-0.1-0.4-0.4-0.4-0.7-0.5c-0.4-0.1-0.5,0.1-0.5,0.5c0,0.3,0.2,0.6,0.5,0.5C445.2,34.9,445.5,34.7,445.6,34.3z
		 M392.5,38.4c0.7,0.6,1.2-0.3,1.8,0.1c0,0,0.2-0.2,0.1-0.4c-0.2-0.3-0.5-0.5-0.8-0.4C393.2,37.8,392.9,38.1,392.5,38.4z M438.9,30
		c-0.3,0.5-0.8,0.8-0.4,1.4c0.1,0.2,0.6,0.1,0.7-0.1C439.7,30.8,439.4,30.5,438.9,30z M417.1,31c0-0.3-0.1-0.5-0.5-0.6
		c-0.3,0-0.5,0.1-0.5,0.5s0.2,0.6,0.5,0.7C416.9,31.6,417,31.3,417.1,31z M405.3,25.2c0.2-0.1,0.8,0,0.6-0.4
		c-0.1-0.2,0.1-0.8-0.4-0.8c-0.4,0.1-0.6,0.5-0.7,0.9C404.7,25.2,405,25.2,405.3,25.2z M396,33.1c0-0.1-0.1-0.1-0.1-0.2v-0.1
		c0,0,0.1,0,0.1,0.1C396.1,33,396,33,396,33.1z" class="st0"></path>
	<path d="M51,51.6c0.8,0.2,1.4,0.4,2.1,0.6c3.8,1.3,6.1,3.9,6.4,8c0.2,2.9,0.2,5.8,0,8.7c-0.2,3.1-1.9,5.3-4.6,6.7
		c-2.3,1.1-4.7,1.6-7.2,1.7c-8.7,0-17.4,0-26.1,0c-5.1,0-10.2,0-15.2,0c-0.9,0-1.1-0.2-1.1-1.1c0-15.9,0-31.8,0-47.6
		c0-0.9,0.3-1.1,1.2-1.1c14,0,27.9,0,41.9,0c1.6,0,3.3,0.1,4.9,0.6c3.4,0.9,5.3,3.1,5.8,6.5c0.5,3.3,0.3,6.6,0.1,9.8
		c-0.4,3.5-2.8,5.9-6.7,6.9C52.1,51.4,51.6,51.5,51,51.6z M16.7,52c0,5.1,0,10.2,0,15.2c0,0.9,0.2,1.1,1.1,1.1c8.5,0,16.9,0,25.4,0
		c1,0,1.9-0.1,2.9-0.3c1.5-0.4,2.4-1.2,2.6-2.8c0.3-2.2,0.2-4.4,0-6.6c-0.2-1.5-1-2.4-2.5-2.7c-1.1-0.2-2.1-0.3-3.2-0.3
		c-5.4,0-10.8,0-16.2,0c-1,0-1.3-0.3-1.2-1.3c0.1-2,0.1-3.9,0-5.9c0-0.9,0.3-1.1,1.1-1.1c5.5,0,11,0,16.5,0c1,0,2-0.1,3-0.3
		c1.4-0.4,2.2-1.2,2.2-2.6c0.1-2,0.1-4,0-6c-0.1-1.4-0.8-2.2-2.2-2.6c-1.1-0.3-2.2-0.3-3.3-0.3c-8.4,0-16.7,0-25.1,0
		c-0.9,0-1.1,0.2-1.1,1.1C16.7,41.8,16.7,46.9,16.7,52z" class="st1"></path>
	<path d="M371.4,51.7c5.9,1.1,8.7,4.4,8.6,10.1c0,2.6,0.2,5.2-0.2,7.8c-0.4,2.8-2,4.8-4.6,6c-2.3,1.1-4.7,1.6-7.2,1.6
		c-8.1,0.1-16.2,0.1-24.3,0.1c-5.6,0-11.3,0-16.9,0c-0.8,0-1.1-0.2-1.1-1c0-15.9,0-31.8,0-47.7c0-0.8,0.1-1.1,1-1.1
		c14.1,0,28.1,0,42.2,0c1.5,0,3,0.1,4.4,0.5c3.8,0.9,5.8,3.4,6.2,7.3c0.2,2.6,0.1,5.1,0.1,7.7c0,4.5-2.2,7.2-6.6,8.3
		C372.6,51.4,372.1,51.5,371.4,51.7z M337.2,52c0,5.1,0,10.2,0,15.2c0,0.9,0.2,1.2,1.2,1.2c8.4,0,16.9,0,25.3,0c0.8,0,1.7,0,2.5-0.2
		c2-0.4,2.9-1.3,3.1-3.4c0.1-1.8,0.1-3.7,0-5.5c-0.1-2.1-1.1-3.1-3.2-3.4c-0.9-0.1-1.9-0.2-2.9-0.2c-5.4,0-10.7,0-16.1,0
		c-0.8,0-1.1-0.2-1.1-1.1c0.1-2,0.1-4.1,0-6.1c0-0.9,0.3-1.1,1.1-1c5.5,0,11,0,16.6,0c0.9,0,1.8,0,2.7-0.2c1.6-0.4,2.5-1.2,2.6-2.9
		c0.1-1.9,0.1-3.8,0-5.6c-0.1-1.6-0.8-2.4-2.4-2.9c-1-0.3-2.1-0.3-3.1-0.3c-8.4,0-16.8,0-25.2,0c-0.9,0-1.1,0.3-1.1,1.2
		C337.2,41.8,337.2,46.9,337.2,52z" class="st1"></path>
	<path d="M100.9,37.2c-1.5,2.7-2.8,5.2-4.2,7.6c-1.4,2.5-2.7,5.1-4.1,7.6c-0.5,0.9-0.3,1,0.6,1c3.4,0,6.8,0,10.2,0
		c0.4,0,0.8,0,1.2,0c0.1,0.1,0.2,0.2,0.2,0.3c-0.4,0.3-0.8,0.6-1.2,0.9c-2.4,2.3-4.7,4.5-7.1,6.8c-0.6,0.6-1.2,0.9-2.1,0.9
		c-2.1-0.1-4.2,0-6.2,0c-0.9,0-1.3,0.3-1.6,1c-2.3,4.4-4.7,8.7-7,13.1c-0.4,0.7-0.8,1-1.6,1c-3.1-0.1-6.2,0-9.2,0
		c-1.3,0-1.3,0-0.7-1.1C75,64.2,81.8,52.1,88.7,39.9c2.1-3.8,4.3-7.6,6.4-11.4c0.4-0.7,0.8-1,1.7-1c3,0.1,6.1,0,9.1,0
		c0.7,0,1.1,0.2,1.5,0.8c9.1,16,18.3,31.9,27.4,47.9c0.6,1.1,0.6,1.1-0.7,1.1c-3.5,0-7,0-10.6,0c-0.9,0-1.3-0.3-1.8-1
		c-6.9-12.5-13.5-25.2-20.2-37.8C101.5,38.2,101.2,37.8,100.9,37.2z" class="st1"></path>
	<path d="M497.4,50.6c-2.4,2.4-4.6,5-6.9,7.5c-5.5,6.2-11,12.3-16.5,18.5c-0.3,0.4-0.6,0.7-1.3,0.7c-4.2,0-8.5,0-12.8,0
		c0.1-0.6,0.5-0.8,0.8-1.2c7.2-7.9,14.5-15.7,21.7-23.5c0.7-0.7,0.7-1.1,0-1.8c-7.4-7.4-14.7-14.8-22.1-22.2c-0.3-0.3-0.6-0.6-1-0.9
		c0.4-0.4,0.8-0.3,1.1-0.3c4.3,0,8.6,0,12.8,0c0.9,0,1.5,0.2,2.2,0.9c4.7,5.1,9.5,10.1,14.3,15.2c0.6,0.7,0.9,0.7,1.5,0
		c4.5-5.1,9.1-10.2,13.6-15.3c0.5-0.6,1-0.8,1.8-0.8c3.6,0,7.3,0,10.9,0c0.3,0,0.7,0,1.1,0c-0.2,0.6-0.5,0.8-0.8,1.1
		c-6.6,7-13.2,13.9-19.8,20.9C497.9,49.9,497.4,50.1,497.4,50.6L497.4,50.6z" class="st1"></path>
	<path d="M182.8,27.6c-3.1,3-5.9,5.7-8.8,8.5c-0.4,0.4-0.8,0.4-1.3,0.4c-3.8,0-7.6,0-11.4,0c-1.1,0-1.5,0.2-1.5,1.4
		c0.1,12.7,0,25.4,0.1,38.1c0,1.2-0.3,1.5-1.4,1.4c-3-0.1-6-0.1-9,0c-1,0-1.2-0.3-1.2-1.3c0-12.8,0-25.5,0-38.3
		c0-1.1-0.2-1.5-1.4-1.4c-6.8,0.1-13.6,0-20.4,0.1c-0.9,0-1.1-0.2-1.1-1.1c0.1-2.2,0.1-4.5,0-6.7c0-0.9,0.2-1.1,1.1-1.1
		c12,0,23.9,0,35.9,0c6.5,0,13,0,19.4,0C182,27.5,182.3,27.5,182.8,27.6z" class="st2"></path>
	<path d="M252.6,27.5c-2.7,2.7-5.3,5-7.8,7.5c-1,1-2,1.4-3.4,1.4c-3.6-0.1-7.1,0-10.7-0.1c-0.9,0-1.1,0.3-1.1,1.1
		c0,12.8,0,25.6,0,38.4c0,1.2-0.3,1.5-1.4,1.4c-3-0.1-5.9-0.1-8.9,0c-1,0-1.3-0.2-1.3-1.3c0-12.8,0-25.6,0.1-38.4
		c0-1.1-0.3-1.3-1.3-1.3c-6.8,0.1-13.7,0-20.5,0c-0.8,0-1.1-0.2-1.1-1c0.1-2.4,0-4.7,0-7.1c0-0.6,0.1-0.8,0.8-0.8
		C214.7,27.5,233.5,27.5,252.6,27.5z" class="st3"></path>
	<path d="M393.9,70.4c-0.1-0.5-0.4-0.5-0.6-0.7c-0.6-0.4-1.9,0.1-1.7-1.3c0.1-0.8-0.4-1.6,0-2.3c0.2-0.4,0-0.7-0.1-1
		c-0.4-1.3,0.2-2.7,0-4c-0.1-0.5,0.5-0.3,0.8-0.3s0.2,0.4,0.7,0.3c1.6-0.4,0.5-1.1,0.2-1.8c-0.1,0.3-0.1,0.6-0.2,1
		c-0.4-0.1-0.4-0.7-1.1-0.6c-0.7,0.2-0.5-0.7-0.5-1.2c0-1.3,0.3-2.6,0.1-3.9c0-0.2,0-0.5,0.3-0.6c0.2-0.1,0.4,0.1,0.4,0.3
		c0.1,0.4,0.2,0.7,0.9,0.8c-0.7-1-1-1.8,0.5-2.2c0.5-0.1,0.1-0.8,0-1.2c-0.7-1.7-1.4-3.4-1.9-5.3c0.7,0.2,1.2,0.3,1.8-0.2
		c0.4-0.3,1.1,0,1.3,0.4c0.4,0.9,1.2,0.9,1.8,1.2c2.3,0.9,4.7,1.6,7,2.5c0.8,0.3,1.6,0.5,2.2,1.2c0.3,0.3,0.7,0.8-0.1,1.1
		c-0.5,0.2-0.3,0.5-0.1,0.8c0.3,0.3,0.6,0.6,0.9,0.8s0.8,0.7,1.1,0.2c0.3-0.4-0.2-0.7-0.5-0.9c-0.6-0.4-0.4-0.9-0.2-1.4
		c0.3-0.6,0.7-0.1,1,0c2.7,0.8,2.7,0.9,2.8,3.7c0.4,6.3,1,12.7,1.3,19c0.3,4.7,1,9.5,0.6,14.2c-0.5,4.8-1.9,9.4-4.3,13.7
		c-0.2,0.3-0.4,0.6-0.6,0.9c-0.4,0.4-0.6,0.6-1.1,0c-3.8-5.5-7.9-10.7-11.2-16.6c-0.9-1.7-1.6-3.5-2.4-5.2c-0.6-1.1-0.4-2.5-1.2-3.5
		c-0.1-0.1-0.2-0.4-0.1-0.5c0.3-0.3,0.6,0.2,0.9,0c0-0.1,0-0.3-0.1-0.3c-1.6-0.4-1.7-1.7-1.5-3s0.1-2.5,0.4-3.8
		c0.1-0.8,0.4-0.8,1-0.6C392.9,70.2,393.3,70.5,393.9,70.4z M394.5,64.6c-0.8,1.2-0.8,1.2,0.5,1.4C394.9,65.5,394.5,65.1,394.5,64.6
		z M401.9,88.7c-0.1-0.5-0.4-0.5-0.8-0.5c-0.3,0-0.4,0.2-0.3,0.5s0.3,0.6,0.7,0.6C401.8,89.2,401.9,89,401.9,88.7z M401.2,80.5
		c-0.2,0.7,0,1.2,0.7,1.6C401.9,81.4,402.1,80.8,401.2,80.5z M392.7,57.7c-0.1,0.7,0.1,1,0.5,1.4C393.3,58.6,393.2,58.2,392.7,57.7z" class="st2"></path>
	<path d="M313.6,77.2c-0.4,0.3-0.8,0.2-1.2,0.2c-15.4,0-30.8,0-46.2,0c-1.1,0-1.3-0.3-1.3-1.3c0-15.8,0-31.5,0-47.3
		c0-1.1,0.3-1.3,1.3-1.3c3,0.1,6.1,0.1,9.1,0c1,0,1.3,0.2,1.3,1.2c0,12.6,0,25.3,0,37.9c0,1,0.2,1.3,1.3,1.3c6.8-0.1,13.6,0,20.4,0
		c0.8,0,1.5,0.2,2.1,0.6c4.1,2.7,8.2,5.3,12.4,8C313,76.7,313.2,76.9,313.6,77.2z" class="st2"></path>
	<path d="M448.9,51.1c0.1,0.5,1.3,1.1-0.2,1.3c0.7,1.1-1.1,1.8-0.2,3.1c0.2-1.2,1.1-1.9,1.2-3.3
		c0.5,0.9,0.4,1.6,0.5,2.2c0,0.1,0,0.2,0,0.2c-2.1,0.3-0.2,0.9-0.1,1.4c0.1,0.4,0.1,0.7,0.1,1c0,1.3,0,2.6,0,3.9
		c0,0.8,0.3,1.8-1,1.9c-0.1,0-0.3,0.3-0.1,0.5l0,0c-0.3-0.1-0.3,0.1-0.3,0.3l0,0c-0.5,0.4-0.5,1-0.5,1.6c0.6,0.1,1.2-0.9,1.7,0
		c0.3,0.5,0.1,2.7-0.3,2.9c-0.6,0.3-0.6,0.6,0,0.9c0.4,0.2,0.4,0.6,0.4,0.9c0,1.3,0,2.5,0.1,3.8c0.4,2.9-0.8,4.2-3.8,4.7
		c-0.2,0-0.5-0.1-0.6,0.2c0.5,0.2,0.5,0.2,2.7-0.4c0.4,1.3-0.9,1-1.3,1.6c0,0.1,0,0.2,0.1,0.2c1.6,0.8,1.6,0.8,1,2.6
		c-1,2.5-2.2,5-3.8,7.2c-2.2,2.9-3.8,6.2-6.1,9c-1.2,1.5-2.2,3.1-3.3,4.7c-0.5,0.8-1,0.8-1.4,0c-0.3-0.6-0.9-1.1-0.4-1.9
		c0.1-0.2,0.1-0.6-0.3-0.7c-1.2-0.3-1.6-1.3-1.1-2.5c0.1-0.4,0-0.5-0.3-0.7c-0.7-0.3-0.8-0.9-1.1-1.5c-1.9-5.5-1.8-11.2-1.3-16.9
		c0.5-4.5,0.7-9,1-13.5c0.3-3.7,0.5-7.4,0.7-11.1c0.1-1.1,0.5-1.7,1.6-2.1c3.4-1.1,6.7-2.5,10.1-3.6c1.1-0.4,2.2-0.9,3.3-1.2
		c0.7-0.2,0.9-0.1,1.2,0.5c0.2,0.5,0.2,1.1,1.1,0.5c0.8-0.6,1.4,0.3,1.8,0.9c0.4,0.8,0,1.3-0.9,1.4c-0.2-0.5,0.4-0.5,0.4-0.9
		s-0.1-0.6-0.4-0.7c-0.5-0.1-0.5,0.2-0.5,0.6C448.8,50.2,448.5,50.7,448.9,51.1z M434.9,99.3c0.1,0.4,0.5,0.2,0.8,0.4
		c0.9,0.6,1.3,0.5,1.8-0.5c0.2-0.4,0.4-0.8-0.1-1c-0.4-0.2-0.9-0.1-0.9,0.5c-0.1,0.6-0.4,0.7-0.9,0.4C435.3,99,435,98.9,434.9,99.3z
		 M441.1,90c0-0.3-0.1-0.4-0.3-0.5c-0.3-0.1-0.5,0-0.6,0.3c-0.4,0.7-0.5,1.4-1.1,1.9c-0.2,0.1-0.4,0.3-0.1,0.6
		c0.2,0.2,0.5,0.1,0.7,0C440.4,91.6,440.7,90.7,441.1,90z M445.3,54.6c1.2-0.9,1.4-2.3,1.9-3.6c0.1-0.2,0-0.4-0.2-0.5
		c-0.2,0-0.3,0.2-0.4,0.4C446.2,52.2,445.8,53.4,445.3,54.6z M447.6,59c-0.3,0.6-0.5,1.2-0.7,1.7c-0.1,0.2-0.3,0.5,0,0.8
		c0.2,0.2,0.5,0,0.8-0.1c0.4-0.1,0.4-0.7,0.4-0.7C447.5,60.3,448,59.6,447.6,59z M449.4,58.1c0-0.2,0-0.3,0-0.4
		c-0.1-0.4-0.4-0.4-0.7-0.6c-0.1,0-0.3,0-0.3,0.1c-0.3,0.4,0.2,0.4,0.3,0.6c0.3,0.4-0.1,0.6-0.2,0.9c-0.1,0.2-0.3,0.6,0,0.7
		c0.2,0.1,0.6,0,0.7-0.2C449.5,58.9,449,58.5,449.4,58.1z M445.6,61.7c0.1,0.1,0.2,0.1,0.3,0.2c0.7-0.8,0.7-1.9,1.1-2.8
		c0-0.1-0.1-0.3-0.1-0.3c-0.2-0.1-0.4,0.1-0.5,0.3C446.1,59.9,445.8,60.8,445.6,61.7z M449.2,67.2c0.2-0.5,0.5-0.9,0.7-1.5
		c0.1-0.2-0.1-0.3-0.3-0.3c-0.5,0.3-0.9,0.8-1,1.4C448.4,67.2,448.8,67.1,449.2,67.2z M441.4,87.8c0.8-0.3,0.8-1,0.8-1.6
		c0-0.2-0.1-0.4-0.3-0.3c-0.7,0.2-0.3,0.9-0.5,1.3C441.2,87.4,441.2,87.6,441.4,87.8z M448,74.6c0.6,0.3,1.2,0.5,1.3,0.2
		c0.1-0.5,0.7-0.9,0.2-1.8C449.3,73.9,448.9,74.4,448,74.6z M437.7,75c0.6-0.5,1-1,0.8-1.9C437.7,73.5,437.5,74.1,437.7,75z
		 M447.3,68c-0.6,0.6-0.7,1.3-0.7,2C447.6,69.6,447.7,69,447.3,68z M434,98.6c0.3-0.1,0.4-0.4,0.4-0.6c0.1-0.3,0.3-0.7,0-1
		c-0.1-0.1-0.3-0.1-0.4-0.1c-0.4,0.2-0.2,0.6-0.2,1C433.8,98.1,433.7,98.4,434,98.6z M448.4,71.1c0.3,0.4,0.7,0.8,1.3,0.8
		c0.3,0,0.1-0.4,0.1-0.6C449.4,70.5,448.9,71.1,448.4,71.1z M437.7,83.2c0.5-0.7,0.8-1.2,0.6-1.9C437.6,81.7,437.5,82.3,437.7,83.2z
		 M448.2,68.4c0,0.6,0.1,1-0.1,1.4c-0.1,0.1,0,0.3,0.2,0.4c0.1,0,0.3,0.1,0.3-0.1C448.5,69.6,449.2,69,448.2,68.4z M444.6,56.5
		c-0.4,0.5-0.7,0.9-0.3,1.3c0.2,0.2,0.7,0.2,1.1-0.2C444.9,57.3,444.8,57,444.6,56.5z M433.8,99.3c0-0.3-0.1-0.5-0.4-0.4
		c-0.4,0.1-0.5,0.5-0.5,0.8s0.1,0.5,0.4,0.4C433.7,100,433.7,99.6,433.8,99.3z" class="st4"></path>
	<path d="M442.1,95.5c0.5-1.1,1.2-1.8,1.4-2.8c0.1-0.3,0.4-0.4,0.7-0.4c0.3,0,0.6,0,1,0c27.2,0,54.4,0,81.6,0
		c1.1,0,1.4-0.2,1.4-1.4c0-25.7,0-51.4,0-77.2c0-1.1-0.3-1.4-1.4-1.4c-29.4,0-58.7,0-88.1,0c-1,0-1.8-0.2-2.6-0.9
		c-0.9-0.8-1.8-1.4-2.8-2.1c0.3-0.4,0.7-0.2,1-0.2c32,0,63.9,0,95.9,0c1,0,1.2,0.3,1.2,1.2c0,28,0,56,0,84c0,0.9-0.2,1.1-1.1,1.1
		c-29.1,0-58.2,0-87.2,0C442.8,95.5,442.5,95.5,442.1,95.5z" class="st2"></path>
	<path d="M399.7,95.5c-0.7,0-1.1,0-1.5,0c-26.9,0-53.8,0-80.6,0c-1.2,0-1.5-0.3-1.5-1.5c0-27.8,0-55.6,0-83.4
		c0-1.1,0.2-1.5,1.4-1.5c29.9,0,59.7,0,89.6,0c0.4,0,0.8,0,1.5,0c-1.5,1.1-2.8,2.1-4.1,3.1c-0.4,0.3-0.9,0.1-1.4,0.1
		c-27.4,0-54.9,0-82.3,0c-1.2,0-1.5,0.3-1.5,1.5c0,25.7,0,51.4,0,77c0,1.1,0.2,1.4,1.4,1.4c25.1,0,50.2,0,75.3-0.1
		c1.1,0,1.9,0.2,2.3,1.3C398.6,94.2,399.1,94.7,399.7,95.5z" class="st4"></path>
	<path d="M497.4,50.6c0.2,0.2,0.4,0.3,0.5,0.5c8.5,8.5,17,17,25.5,25.5c0.2,0.2,0.3,0.3,0.5,0.5
		c-0.2,0.4-0.6,0.2-0.9,0.2c-4.6,0-9.1,0-13.7,0c-0.7,0-1.2-0.2-1.7-0.7c-3.3-3.5-6.7-7.1-10.1-10.6c-0.4-0.4-0.7-0.7-0.7-1.3
		C497.2,60,497.3,55.3,497.4,50.6L497.4,50.6z" class="st1"></path>
	<path d="M420.8,95.5c-2.5,0-5,0-7.5,0c-0.7,0-0.9-0.2-0.7-0.9c0.6-2.3,0.6-2.3,3-2.3c3.9,0,7.8,0,11.7,0
		c0.9,0,1.3,0.2,1.5,1.2c0.3,2.1,0.4,2.1-1.7,2.1C425,95.5,422.9,95.5,420.8,95.5z" class="st1"></path>
	<path d="M449.1,63.3c0.5,0,1,0,1.1,0.7c0,0.3-0.3,0.2-0.5,0.3c-0.8,0.3-0.6-0.5-0.8-0.8l0,0
		C449.2,63.7,449.2,63.5,449.1,63.3L449.1,63.3z" class="st5"></path>
	<path d="M392.1,41.8c-0.1,0-0.2,0-0.2,0l0.1-0.1C392.1,41.7,392.1,41.8,392.1,41.8z" class="st0"></path>
	<path d="M396,33.1c0-0.1,0-0.2,0-0.2s-0.1,0-0.1-0.1v0.1C395.9,33,396,33.1,396,33.1z" class="st6"></path>
	<path d="M397.3,27.1c-0.1,0-0.2,0.1-0.2,0.1c0-0.1,0-0.2,0-0.4C397.2,26.8,397.3,26.9,397.3,27.1z" class="st5"></path>
	<path d="M398.5,28.5c-0.6,0.1-0.7-0.3-0.7-0.7C398.3,27.7,398.4,28.1,398.5,28.5z" class="st5"></path>
	<path d="M397.8,27.8c-0.3-0.1-0.5-0.2-0.3-0.5C397.8,27.4,398,27.5,397.8,27.8z" class="st5"></path>
	<path d="M397.6,27.3c-0.2,0.1-0.4,0-0.3-0.3C397.5,27.1,397.6,27.2,397.6,27.3z" class="st5"></path>
	<circle r="4.9" cy="90.3" cx="542.6" class="st7"></circle>
	<g>
		<path d="M543.7,92.3l-0.9-1.9l0,0h-1l0,0v1.8c0,0,0,0.1-0.1,0.1h-0.3c0,0-0.1,0-0.1-0.1v-4.1c0,0,0-0.1,0.1-0.1h1.6
			c0.3,0,0.6,0.1,0.8,0.3s0.3,0.5,0.3,0.8s-0.1,0.5-0.2,0.7c-0.2,0.2-0.4,0.3-0.6,0.4l0,0l0.9,1.8l0,0l0,0L543.7,92.3
			C543.7,92.4,543.7,92.4,543.7,92.3z M541.8,88.6v1.5l0,0h1.1c0.2,0,0.4-0.1,0.6-0.2c0.1-0.1,0.2-0.3,0.2-0.6s-0.1-0.4-0.2-0.6
			c-0.1-0.1-0.3-0.2-0.6-0.2L541.8,88.6C541.8,88.5,541.8,88.6,541.8,88.6z" class="st3"></path>
	</g>
</g>
</svg>
