<svg xmlns="http://www.w3.org/2000/svg" fill="none" viewBox="0 0 110 22" height="22" width="110">
<g clip-path="url(#clip0_1_194)">
<path fill="#E6E7E9" d="M21.9608 10.9919C21.9608 17.0562 17.0447 21.9723 10.9804 21.9723C4.9161 21.9723 0 17.0562 0 10.9919C0 4.92758 4.9161 0.0114746 10.9804 0.0114746C17.0447 0.0114746 21.9608 4.92758 21.9608 10.9919ZM6.58626 15.3361H12.0284C12.112 15.3361 12.1538 15.2319 12.112 15.159L7.71437 9.71096C7.65167 9.63807 7.54725 9.66931 7.52635 9.75262L6.47135 15.2007C6.4609 15.2737 6.51314 15.3361 6.58626 15.3361ZM6.48396 7.11242H11.9261C11.9992 7.11242 12.0515 7.17492 12.041 7.24784L10.986 12.6959C10.9651 12.7793 10.8607 12.8105 10.798 12.7376L6.40039 7.27909C6.34816 7.21659 6.38994 7.11242 6.48396 7.11242ZM12.4794 7.19575C12.4898 7.15409 12.5316 7.11242 12.5839 7.11242H16.501C16.5637 7.11242 16.6264 7.17492 16.6159 7.23742L15.8847 10.7792C15.8742 10.8313 15.8324 10.8625 15.7802 10.8625H15.6654C13.7329 10.8625 12.1974 9.08118 12.4794 7.19575Z" clip-rule="evenodd" fill-rule="evenodd"></path>
<path fill="#E6E7E9" d="M30.0647 6.34786H33.976C34.1594 6.34786 34.2816 6.44972 34.2409 6.65344L34.0168 7.91642C34.7909 6.79604 35.9114 6.12378 37.0521 6.12378C37.6225 6.12378 38.2337 6.34786 38.5597 6.65344C38.743 6.83678 38.743 6.93864 38.6207 7.12198L37.48 8.7313C37.3373 8.93502 37.2355 8.91463 37.0114 8.81277C36.7873 8.71091 36.5021 8.62944 36.1966 8.62944C34.8317 8.62944 33.6908 9.52579 33.1612 12.2352L32.3667 16.3299C32.3056 16.5947 32.1019 16.6558 32 16.6558H29.9221C29.7591 16.6558 29.6166 16.5132 29.6573 16.3299L31.2055 8.46649L29.9018 6.63306C29.7999 6.49047 29.8814 6.34786 30.0647 6.34786Z"></path>
<path fill="#E6E7E9" d="M37.5605 11.4204C38.0902 8.222 40.4329 6.12378 43.4886 6.12378C46.5851 6.12378 48.0518 8.58874 47.6037 11.2777C47.5018 11.9704 47.2573 12.5204 46.6869 12.5204H40.0866C40.1477 14.0279 41.1866 14.7409 42.5719 14.7409C43.4886 14.7409 44.3442 14.3946 44.9961 13.9668C45.1591 13.8445 45.3424 13.7835 45.4647 13.9668L46.2184 15.1483C46.3407 15.3317 46.2795 15.4539 46.0962 15.6169C45.1183 16.5132 43.5293 16.9207 42.083 16.9207C38.8235 16.9207 37.0512 14.5168 37.5605 11.4204ZM45.2406 10.7277C45.3424 9.11835 44.2424 8.44611 43.1831 8.44611C41.7978 8.44611 40.7181 9.38323 40.3107 10.7277H45.2406Z"></path>
<path fill="#E6E7E9" d="M57.4637 16.4114L59.8268 4.35147L58.6656 2.80324C58.6045 2.70138 58.686 2.55878 58.8286 2.55878H62.4547C62.6584 2.55878 62.7603 2.68101 62.7196 2.86435L61.6602 8.18127C62.4751 6.95902 63.6974 6.12379 65.1233 6.12379C67.405 6.12379 68.7088 8.07941 68.2198 10.4833L67.0383 16.3299C66.9975 16.554 66.8142 16.6558 66.6716 16.6558H64.5326C64.3288 16.6558 64.227 16.5336 64.2678 16.3299L65.3271 11.0537C65.6123 9.6277 65.2252 8.75166 64.3492 8.75166C62.7195 8.75166 61.4361 10.5851 60.8861 13.1723L60.1934 16.4114C60.1731 16.5336 60.0713 16.6558 59.9286 16.6558H57.6674C57.5451 16.6558 57.4433 16.5336 57.4637 16.4114Z"></path>
<path fill="#E6E7E9" d="M68.954 11.5426C69.4836 8.14053 71.8875 6.12378 74.6988 6.12378C76.186 6.12378 77.3469 6.79604 77.7949 7.91642L78.0399 6.67381C78.0802 6.44972 78.2437 6.34786 78.4271 6.34786H80.4027C80.6271 6.34786 80.7085 6.49047 80.6674 6.67381L78.7732 16.3503C78.7321 16.5336 78.6104 16.6558 78.386 16.6558H76.3899C76.2065 16.6558 76.1046 16.554 76.1449 16.3503L76.3283 15.3521C75.3911 16.4114 74.2302 16.941 72.9672 16.941C70.0948 16.941 68.4854 14.5576 68.954 11.5426ZM73.7821 14.4761C75.4321 14.4761 76.6546 13.0908 76.8988 11.4611C77.143 9.83137 76.2674 8.60905 74.7391 8.60905C73.1097 8.60905 71.9282 9.93323 71.6634 11.4814C71.3986 13.05 72.1931 14.4761 73.7821 14.4761Z"></path>
<path fill="#E6E7E9" d="M80.0565 16.3299L81.9719 6.61269C82.0123 6.44972 82.0937 6.34786 82.2161 6.34786H84.3751C84.5591 6.34786 84.6809 6.44972 84.6405 6.65344L84.4161 7.91642C85.1905 6.79604 86.3111 6.12378 87.4514 6.12378C88.0219 6.12378 88.6328 6.34786 88.9591 6.65344C89.1425 6.83678 89.1425 6.93864 89.02 7.12198L87.8797 8.7313C87.7367 8.93502 87.6347 8.91463 87.4111 8.81277C87.1867 8.71091 86.9014 8.62944 86.5956 8.62944C85.2309 8.62944 84.0905 9.52579 83.5603 12.2352L82.7661 16.3299C82.7053 16.5947 82.5014 16.6558 82.3995 16.6558H80.3212C80.1584 16.6558 80.0161 16.5132 80.0565 16.3299Z"></path>
<path fill="#E6E7E9" d="M87.167 19.6097C87.0445 19.5079 87.0445 19.3448 87.1259 19.2023L88.0836 17.6948C88.1856 17.5318 88.3484 17.491 88.4708 17.5929C89.408 18.1837 90.3247 18.5503 91.4452 18.5503C93.4003 18.5503 95.0305 17.7558 95.601 15.1279C94.5208 16.1465 93.5228 16.6355 92.015 16.6355C89.0612 16.6355 87.5131 14.1501 88.0022 11.3796C88.5522 8.24239 90.8952 6.12378 93.8491 6.12378C95.4786 6.12378 96.5991 7.0405 96.9452 7.79425L97.1895 6.67381C97.2305 6.44972 97.3728 6.34786 97.5363 6.34786H99.5324C99.7363 6.34786 99.8382 6.4701 99.7972 6.67381L98.1266 15.1891C97.3933 18.8967 94.8266 20.832 91.3433 20.832C89.8766 20.832 88.2259 20.4653 87.167 19.6097ZM92.7894 14.252C94.4394 14.252 95.6619 12.9279 95.9061 11.3592C96.151 9.7906 95.2747 8.60905 93.7472 8.60905C92.117 8.60905 90.9356 9.89246 90.6708 11.3796C90.4061 12.8871 91.2003 14.252 92.7894 14.252Z"></path>
<path fill="#E6E7E9" d="M99.8778 11.4204C100.408 8.222 102.75 6.12378 105.806 6.12378C108.903 6.12378 110.37 8.58874 109.922 11.2777C109.82 11.9704 109.575 12.5204 109.005 12.5204H102.404C102.465 14.0279 103.504 14.7409 104.889 14.7409C105.806 14.7409 106.662 14.3946 107.314 13.9668C107.477 13.8445 107.66 13.7835 107.782 13.9668L108.536 15.1483C108.658 15.3317 108.597 15.4539 108.414 15.6169C107.436 16.5132 105.847 16.9207 104.4 16.9207C101.141 16.9207 99.3689 14.5168 99.8778 11.4204ZM107.558 10.7277C107.66 9.11835 106.56 8.44611 105.5 8.44611C104.116 8.44611 103.036 9.38323 102.629 10.7277H107.558Z"></path>
<path fill="#E6E7E9" d="M52.9077 16.941C54.2725 16.941 55.617 16.554 56.8394 15.3928C57.0227 15.2298 57.0431 15.0057 56.9208 14.8835L55.8004 13.6408C55.6985 13.5186 55.5356 13.5186 55.3929 13.6204C54.9244 13.9668 54.1707 14.3742 53.2743 14.3742C51.665 14.3742 50.7686 13.1112 50.9723 11.5222C51.176 9.95362 52.4188 8.6906 53.9874 8.6906C54.8429 8.6906 55.3929 8.99611 56.0041 9.60727C56.167 9.77029 56.2689 9.77029 56.4523 9.62765L57.8987 8.38502C58.0412 8.26277 58.082 8.12014 57.9801 7.95719C57.1042 6.71455 55.7393 6.12378 54.2318 6.12378C51.1964 6.12378 48.7315 8.38502 48.324 11.3796C47.8759 14.639 50.0353 16.941 52.9077 16.941Z"></path>
</g>
<defs>
<clipPath id="clip0_1_194">
<rect fill="white" height="22" width="110"></rect>
</clipPath>
</defs>
</svg>
