<svg style="fill-rule:evenodd;clip-rule:evenodd;stroke-linejoin:round;stroke-miterlimit:2;" xml:space="preserve" xmlns:xlink="http://www.w3.org/1999/xlink" xmlns="http://www.w3.org/2000/svg" version="1.1" viewBox="0 0 600 150" height="100%" width="100%">
    <g transform="matrix(1,0,0,1,-23.1,-245.8)">
        <g transform="matrix(1,0,0,1,153,46)">
            <path style="fill:url(#_Linear1);fill-rule:nonzero;" d="M-119.7,300.7C-106.1,314.3 -84.1,314.3 -70.6,300.7L-69.3,299.4C-62.5,292.6 -76.1,257 -69.3,250.3L-119.7,300.7Z"></path>
        </g>
        <g transform="matrix(1,0,0,1,153,46)">
            <path style="fill:url(#_Linear2);fill-rule:nonzero;" d="M-68,248.9L-69.3,250.2C-76.1,257 -62.5,292.6 -69.3,299.3L-18.9,248.9C-25.7,242.1 -34.6,238.7 -43.5,238.7C-52.3,238.7 -61.2,242.1 -68,248.9"></path>
        </g>
        <g transform="matrix(1,0,0,1,153,46)" id="SVGID_3_">
            <path style="fill:url(#_Linear3);fill-rule:nonzero;" d="M-119.7,251.5C-133.3,265.1 -133.3,287.1 -119.7,300.6L-68,248.9C-54.4,235.3 -54.4,213.3 -68,199.8L-119.7,251.5Z"></path>
        </g>
        <g transform="matrix(1,0,0,1,153,46)">
            <path style="fill:url(#_Linear4);fill-rule:nonzero;" d="M-70.6,300.7C-84.2,314.3 -84.2,336.3 -70.6,349.8L-18.9,298.1C-5.3,284.5 -5.3,262.5 -18.9,249L-70.6,300.7Z"></path>
        </g>
        <g transform="matrix(1,0,0,1,153,46)">
            <path style="fill:rgb(56,39,87);fill-rule:nonzero;" d="M182.5,275.1C181.5,271.5 179.9,268.1 177.9,265C174.4,259.6 169.6,255.1 163.9,252C154.9,247.1 144.2,246 134.4,248.8C124.4,251.7 116.2,258.3 111.3,267.4C106.4,276.5 105.2,286.9 108.1,296.8L108.1,296.9C108.8,299.1 109.8,301.9 109.8,302C113.1,309.7 118.6,315.6 126.7,320C132.4,323.1 138.8,324.8 145.2,324.8C148.9,324.8 152.6,324.3 156.2,323.2C163.8,321 170.4,316.6 175.4,310.5L175.7,310.1C177,308.5 178.1,306.8 179.1,305C180.9,301.8 179.7,297.8 176.6,296C175.6,295.5 174.5,295.2 173.4,295.2C171,295.2 168.8,296.5 167.6,298.6C166,301.5 163.8,304.1 161.2,306.1C161,306.3 160.8,306.5 160.6,306.6C158.2,308.4 155.4,309.8 152.5,310.6C146,312.5 139,311.7 133,308.5C129.1,306.4 125.8,303.2 123.4,299.3L178,283.3C181.5,282.2 183.5,278.5 182.5,275.1ZM145.3,260.3C149.5,260.3 153.8,261.4 157.5,263.4C161.2,265.4 164.4,268.4 166.8,272C166.9,272.2 167.1,272.4 167.2,272.6L119.6,286.6C119.5,282.1 120.6,277.6 122.7,273.7C126,267.7 131.4,263.3 138,261.4C140.4,260.7 142.8,260.3 145.3,260.3ZM252.6,312.2L216.5,312.2L256.9,252.8C257.7,251.7 257.7,250.2 257.1,249C256.5,247.8 255.2,247.1 253.9,247.1L202.5,247.1C199.1,247.1 196.3,249.9 196.3,253.3C196.3,256.7 199.1,259.5 202.5,259.5L236.9,259.5L196.5,318.9C195.7,320 195.7,321.5 196.3,322.7C196.9,323.9 198.2,324.6 199.5,324.6L252.6,324.6C256,324.6 258.8,321.8 258.8,318.4C258.8,315 256,312.2 252.6,312.2ZM332.6,312.2L296.5,312.2L336.9,252.8C337.7,251.7 337.7,250.2 337.1,249C336.5,247.8 335.2,247.1 333.9,247.1L282.5,247.1C279.1,247.1 276.3,249.9 276.3,253.3C276.3,256.7 279.1,259.5 282.5,259.5L317,259.5L276.6,318.9C275.8,320 275.8,321.5 276.4,322.7C277,323.9 278.3,324.6 279.6,324.6L332.7,324.6C336.1,324.6 338.9,321.8 338.9,318.4C338.8,315 336.1,312.2 332.6,312.2ZM368.3,213.7C364.9,213.7 362.1,216.5 362.1,219.9L362.1,318.7C362.1,322.1 364.9,324.9 368.3,324.9C371.7,324.9 374.5,322.1 374.5,318.7L374.5,219.9C374.5,216.4 371.7,213.7 368.3,213.7ZM469.8,275.1C468.8,271.5 467.2,268.1 465.2,265C461.7,259.6 456.9,255.1 451.2,252C442.2,247.1 431.5,246 421.7,248.8C411.7,251.7 403.5,258.3 398.6,267.4C393.6,276.5 392.5,286.9 395.4,296.8L395.4,296.9C396.1,299.1 397.1,301.9 397.1,302C400.4,309.7 405.9,315.6 414,320C419.7,323.1 426.1,324.8 432.5,324.8C436.2,324.8 439.9,324.3 443.5,323.2C451.1,321 457.7,316.6 462.7,310.5L463,310.1C464.3,308.5 465.4,306.8 466.4,305C468.2,301.8 467,297.8 463.9,296C462.9,295.5 461.8,295.2 460.7,295.2C458.3,295.2 456.1,296.5 454.9,298.6C453.3,301.5 451.1,304.1 448.5,306.1C448.3,306.3 448.1,306.5 447.9,306.6C445.5,308.4 442.7,309.8 439.8,310.6C433.3,312.5 426.3,311.7 420.3,308.5C416.4,306.4 413.1,303.2 410.7,299.3L465.3,283.3C468.8,282.2 470.8,278.5 469.8,275.1ZM432.6,260.3C436.8,260.3 441.1,261.4 444.8,263.4C448.5,265.4 451.7,268.4 454.1,272C454.2,272.2 454.4,272.4 454.5,272.6L406.9,286.6C406.8,282.1 407.9,277.6 410,273.7C413.3,267.7 418.7,263.3 425.3,261.4C427.7,260.7 430.2,260.3 432.6,260.3ZM87.2,290.2C85.4,287.5 82.7,285.3 79.3,283.5C73.8,280.7 66.6,279.4 59.7,278.3L58.6,278.1C53.8,277.3 48.8,276.6 45.6,274.9C43.2,273.7 42.3,272.3 42.3,269.6C42.3,264.4 48,260.4 55.5,260.4C64.5,260.4 69.5,263 75.2,266.5C76.2,267.1 77.4,267.5 78.7,267.5C81,267.5 83.2,266.3 84.4,264.3C85.3,262.8 85.6,261 85.2,259.3C84.8,257.6 83.7,256.1 82.2,255.2C79.1,253.3 75.7,251.3 71.4,249.8C66.6,248.1 61.4,247.2 55.6,247.2C48.7,247.2 42.2,249.3 37.3,253.1C32,257.3 29,263.2 29,269.7C29,277.4 32.7,283.4 39.6,286.9C44.7,289.5 50.8,290.4 56.6,291.3L57.7,291.5C72.7,293.9 77.1,296 77.1,300.9C77.1,307.1 70.9,311.1 61.4,311.2L61,311.2C50.8,311.2 45,307.3 41.9,305.2C41.4,304.9 41,304.5 40.5,304.3C39.4,303.6 38.2,303.3 37,303.3C34.7,303.3 32.6,304.5 31.3,306.4C29.4,309.5 30.3,313.6 33.4,315.6C33.6,315.7 33.8,315.9 34.1,316.1L34.3,316.2C38,318.7 46.5,324.6 60.9,324.6L61.4,324.6C69.7,324.5 76.8,322.3 82,318.2C87.4,313.9 90.3,307.8 90.3,301.1C90.4,296.9 89.3,293.3 87.2,290.2Z"></path>
        </g>
    </g>
    <defs>
        <linearGradient gradientTransform="matrix(-24.3827,-29.0582,29.0582,-24.3827,-72.1399,302.115)" gradientUnits="userSpaceOnUse" y2="0" x2="1" y1="0" x1="0" id="_Linear1"><stop style="stop-color:rgb(206,93,203);stop-opacity:1" offset="0"></stop><stop style="stop-color:rgb(197,88,204);stop-opacity:1" offset="0.21"></stop><stop style="stop-color:rgb(172,74,207);stop-opacity:1" offset="0.55"></stop><stop style="stop-color:rgb(133,52,212);stop-opacity:1" offset="0.98"></stop><stop style="stop-color:rgb(131,51,212);stop-opacity:1" offset="1"></stop></linearGradient>
        <linearGradient gradientTransform="matrix(52.391,0,0,52.391,-71.2579,269.044)" gradientUnits="userSpaceOnUse" y2="0" x2="1" y1="0" x1="0" id="_Linear2"><stop style="stop-color:rgb(255,86,103);stop-opacity:1" offset="0"></stop><stop style="stop-color:rgb(255,86,103);stop-opacity:1" offset="0.02"></stop><stop style="stop-color:rgb(252,139,130);stop-opacity:1" offset="0.66"></stop><stop style="stop-color:rgb(251,162,142);stop-opacity:1" offset="1"></stop></linearGradient>
        <linearGradient gradientTransform="matrix(72.1022,0,0,72.1022,-129.918,250.214)" gradientUnits="userSpaceOnUse" y2="0" x2="1" y1="0" x1="0" id="_Linear3"><stop style="stop-color:rgb(0,184,116);stop-opacity:1" offset="0"></stop><stop style="stop-color:rgb(41,211,162);stop-opacity:1" offset="0.51"></stop><stop style="stop-color:rgb(83,223,182);stop-opacity:1" offset="0.68"></stop><stop style="stop-color:rgb(159,244,217);stop-opacity:1" offset="1"></stop></linearGradient>
        <linearGradient gradientTransform="matrix(72.1022,0,0,72.1022,-80.785,299.346)" gradientUnits="userSpaceOnUse" y2="0" x2="1" y1="0" x1="0" id="_Linear4"><stop style="stop-color:rgb(252,215,126);stop-opacity:1" offset="0"></stop><stop style="stop-color:rgb(254,165,0);stop-opacity:1" offset="0.52"></stop><stop style="stop-color:rgb(255,91,0);stop-opacity:1" offset="1"></stop></linearGradient>
    </defs>
</svg>
