<svg width="154" height="54" viewBox="0 0 154 54" fill="none" xmlns="http://www.w3.org/2000/svg">
<g opacity="0.77">
<path d="M32.0087 44.6053C44.2927 44.6053 54.2508 34.6472 54.2508 22.3632C54.2508 10.0792 44.2927 0.121094 32.0087 0.121094C19.7247 0.121094 9.7666 10.0792 9.7666 22.3632C9.7666 34.6472 19.7247 44.6053 32.0087 44.6053Z" fill="url(#paint0_radial_8375_34053)"/>
</g>
<path d="M32.007 35.5453C39.2866 35.5453 45.1879 29.6441 45.1879 22.3645C45.1879 15.0849 39.2866 9.18359 32.007 9.18359C24.7274 9.18359 18.8262 15.0849 18.8262 22.3645C18.8262 29.6441 24.7274 35.5453 32.007 35.5453Z" fill="url(#paint1_radial_8375_34053)"/>
<path d="M33.4505 40.409C33.4505 40.409 40.163 33.9555 41.2941 33.957C43.1516 33.9593 48.2821 40.9838 48.2821 40.9838C48.2821 40.9838 48.5516 41.4684 49.4826 40.5792C51.6544 38.5044 53.217 36.426 54.8057 37.0665C56.3937 37.7078 63.1137 47.5157 63.1137 47.5157C63.1137 47.5157 40.7312 45.8859 32.0007 45.8859C23.2702 45.8859 0.887695 47.5157 0.887695 47.5157C0.887695 47.5157 7.60766 37.7071 9.19564 37.0665C10.7836 36.4252 12.347 38.5037 14.5188 40.5792C15.4497 41.4691 15.7193 40.9838 15.7193 40.9838C15.7193 40.9838 20.8498 33.9593 22.7072 33.957C23.8383 33.9555 30.5508 40.409 30.5508 40.409" fill="url(#paint2_radial_8375_34053)"/>
<path d="M25.1699 17.9886C25.1699 17.9886 24.4442 18.5821 24.5137 20.6516C24.5137 20.6516 24.2777 21.2422 23.6021 22.0567C23.3139 22.4046 24.2091 22.7002 24.2091 22.7002C24.2091 22.7002 24.2374 23.573 24.3561 23.9022C24.3703 23.9425 24.3561 24.121 24.3688 24.6279C24.3688 24.8048 24.4726 25.034 24.8952 25.1005C25.47 25.1916 26.3316 25.1595 27.4186 24.7966C27.4328 24.9161 27.5045 25.8217 27.2394 28.2279C26.9669 30.7006 31.2732 28.6146 31.2732 28.6146C31.2732 28.6146 30.6827 25.8769 31.1067 24.0053C31.4815 22.3471 32.0735 21.8656 32.0735 19.5206C32.0735 17.1755 28.1376 15.0814 25.1699 17.9886Z" fill="white"/>
<path d="M31.8173 42.6367C32.1129 42.2575 31.9106 39.1726 31.9031 38.8411C31.709 29.0176 31.5709 27.9381 31.5709 27.9381C31.5709 27.9381 31.5709 26.8906 29.4738 26.8906C27.3766 26.8906 26.5248 28.4151 26.5248 28.4151C26.3837 28.6428 26.1836 29.0803 26.0567 29.2894C22.494 35.1172 23.1181 35.0231 23.8983 37.0404C24.1716 37.7481 24.2193 38.8083 24.2156 39.8154C24.2156 40.68 24.4105 41.4818 24.3926 42.2575C24.3799 42.8107 24.5456 42.8428 24.503 43.3684C24.503 43.3684 31.5276 43.0085 31.818 42.6367H31.8173Z" fill="white"/>
<path d="M24.4491 42.2975C24.3401 43.6951 24.1347 45.0845 23.8354 46.4537C17.1079 46.3955 12.7703 46.5978 11.1032 47.9521C7.78688 50.6465 10.1386 52.4391 10.9837 52.9482C11.142 53.0438 11.3182 53.1058 11.5019 53.1282C12.6986 53.2737 18.0135 53.8785 22.9671 53.7971C27.2495 53.7262 31.4863 53.6426 32.1075 51.3035C32.3008 50.4532 32.2419 48.5591 32.1075 46.6971C32.0672 46.1432 32.1403 45.9744 32.1112 45.3689C32.0948 45.0322 32.0881 42.4035 31.997 41.5039C31.997 41.5039 28.9688 41.9817 28.22 42.0452C27.4705 42.1086 24.4491 42.2983 24.4491 42.2983V42.2975Z" fill="white"/>
<path d="M26.8803 40.398C21.9186 45.2433 21.3698 45.81 20.515 46.1586C20.0895 46.3318 19.0726 46.0197 18.8359 45.9428C18.8016 45.9316 18.7665 45.9249 18.7307 45.9219C18.4365 45.901 17.0554 45.8137 16.7134 46.0205C16.3297 46.2527 15.6772 46.228 15.8213 46.6267C15.925 46.8992 17.0225 46.4699 17.7728 46.6088C18.7949 46.7977 17.1405 47.1941 16.417 47.3852C15.8481 47.5353 15.0508 47.3292 14.7365 47.2344C14.6297 47.2023 14.5147 47.2098 14.4139 47.2591C14.2213 47.3531 14.0212 47.5472 14.5857 47.8638C15.4271 48.3356 18.4201 48.1744 19.2787 47.9676C20.138 47.76 20.7532 47.6503 21.2287 47.4659C22.8122 46.8499 25.9464 45.1985 29.4994 41.2752C29.6681 41.0886 29.6524 40.7974 29.459 40.6362C28.9178 40.1822 27.8106 39.4887 26.8796 40.398H26.8803Z" fill="white"/>
<path d="M29.5407 29.3849C29.5407 29.3849 27.2069 28.6667 27.0763 39.4697L26.3715 39.6138C26.3715 39.6138 25.8668 40.6948 26.4432 40.9823C27.0195 41.2705 29.5751 42.1656 29.5751 42.1656C29.5751 42.1656 31.2705 40.6515 30.0454 40.1483C30.0454 40.1461 32.7824 29.4573 29.5407 29.3849Z" fill="white"/>
<path d="M24.9189 20.6016C24.9189 20.6016 25.7984 21.0749 26.5062 20.6628L24.9189 20.6016Z" fill="white"/>
<path d="M24.2812 23.5194C24.2812 23.5194 25.4146 23.6575 25.8491 23.1289L24.2812 23.5194Z" fill="white"/>
<path d="M24.8867 19.9728C24.8867 19.9728 26.1178 19.9131 26.7883 20.2498L24.8867 19.9728Z" fill="white"/>
<path d="M28.652 23.6423C28.652 23.6423 28.7662 23.5273 28.3004 24.0992C27.8166 24.6949 27.4209 24.7957 27.4209 24.7957" fill="white"/>
<path d="M28.7559 21.7169C28.7559 21.7169 28.7395 20.9427 29.2427 20.9263C29.7466 20.9099 30.32 21.2765 29.831 22.5576C29.4301 23.608 29.0329 23.4139 29.0329 23.4139C28.9657 23.3781 28.9097 23.3243 28.8716 23.2586C28.8328 23.1929 28.8134 23.1183 28.8149 23.0421" fill="white"/>
<path d="M28.9072 22.0701C28.9072 22.0701 29.2604 22.188 29.2432 22.356C29.2253 22.524 28.9408 22.5636 29.0244 22.642C29.1081 22.7203 29.4455 22.7763 29.5635 22.2888C29.6814 21.8006 29.5456 21.5325 29.5456 21.5325C29.5456 21.5325 28.9401 20.9442 28.9072 22.0701Z" fill="white"/>
<path d="M27.4844 39.6406C27.4844 39.6406 28.9693 40.2528 30.0459 40.1483L27.4844 39.6406Z" fill="white"/>
<path d="M27.8389 40.6133C27.8389 40.6133 29.1932 40.9373 29.7516 41.1956L27.8389 40.6133Z" fill="white"/>
<path d="M23.8301 46.4531C23.8301 46.4531 26.8134 46.7204 27.9355 48.171L23.8301 46.4531Z" fill="white"/>
<path d="M25.8838 29.1577C25.8838 29.1577 27.4382 28.0378 29.0963 28.1461C30.7545 28.2551 31.2644 28.5433 31.6257 28.1827C31.6257 28.1827 31.6974 27.2793 31.3368 27.0628C31.3368 27.0628 28.5909 25.9429 26.4228 27.5324C26.325 27.6489 26.269 27.7952 26.2631 27.9468C26.2444 28.2252 25.9696 28.9987 25.8838 29.1577Z" fill="white"/>
<path d="M24.035 33.9443C24.035 33.9443 24.4695 34.0757 24.571 34.1765C24.6725 34.2773 24.9174 33.9898 24.8816 33.8659C24.8465 33.7412 24.291 33.5859 24.291 33.5859C24.291 33.5859 23.9894 33.6688 24.035 33.9443Z" fill="white"/>
<path d="M32.6565 43.7776C32.7341 42.645 32.2772 38.7404 32.1816 38.0857C31.0065 29.939 32.4833 27.199 32.4833 27.199C32.4833 27.199 32.7207 26.1523 34.8148 26.1523C36.909 26.1523 37.7638 26.9594 37.7638 26.9594C37.9049 27.1871 38.4626 28.1704 38.6052 28.3689C41.9417 32.9522 40.6195 34.0975 40.6777 37.0965V37.2779C40.6777 37.2779 40.8188 40.7764 40.5045 43.9949C40.5045 43.9949 36.6081 45.264 32.6595 43.7784" fill="white"/>
<path d="M38.7213 16.1625C38.7213 16.1625 39.5731 16.9449 39.4768 18.8039C39.4768 18.8039 40.3055 19.9543 40.4862 20.471C40.6333 20.898 39.7224 20.9697 39.7224 20.9697L39.7463 22.5158C39.7463 22.5158 40.0636 23.6447 39.0057 23.7052C38.6952 23.7231 38.9796 23.7828 37.7186 23.6828C37.6477 23.9739 37.6268 24.2755 37.6574 24.5742C37.6708 24.7257 37.8306 25.1222 37.7612 25.2998C37.5447 25.9031 37.4917 26.1286 37.7612 26.9647C38.2472 28.4683 32.7957 26.8998 32.7957 26.8998C32.7957 26.8998 33.2974 24.5085 32.9345 22.8317C32.5717 21.1548 32.2477 20.8226 32.0394 18.491C31.8311 16.1595 35.2258 13.5793 38.722 16.1639L38.7213 16.1625Z" fill="white"/>
<path d="M32.1775 43.293C32.1528 45.5887 32.0811 48.1719 32.2185 50.1988C32.288 51.2239 32.4291 51.4897 32.6866 51.9466C33.5034 53.3957 38.0642 53.7832 39.5723 53.8011C46.0026 53.8787 53.4109 53.1008 53.4109 53.1008C55.9919 52.4124 55.7634 50.9589 55.3528 49.6232C54.9422 48.2876 53.9089 47.8068 53.9089 47.8068C51.446 46.9549 46.461 45.8508 40.5601 45.5738C40.5601 45.5738 40.6153 44.7451 40.6795 43.5013C40.6795 43.5013 38.9736 43.9731 36.5479 43.9156C34.0021 43.8522 32.1767 43.293 32.1767 43.293H32.1775Z" fill="white"/>
<path d="M40.8608 45.9375C40.8608 45.9375 38.7405 46.0973 37.7998 47.4575L40.8608 45.9375Z" fill="white"/>
<path d="M38.7483 39.7668C38.7483 39.7668 43.1009 44.3821 44.2499 45.2385C45.1958 45.944 46.9376 45.0944 46.9376 45.0944C46.9376 45.0944 48.7547 44.7763 49.1893 45.0294C49.6238 45.2825 50.392 45.237 50.1994 45.7028C50.0665 46.0269 48.8876 45.6147 48.0851 45.8522C46.9928 46.1754 48.7951 46.7062 49.6103 46.6958C51.04 46.6771 51.6358 46.2128 51.6358 46.2128C51.6358 46.2128 52.5138 46.1814 51.6246 47.1281C50.8735 47.9262 47.4953 47.8418 46.5471 47.6693C45.599 47.4961 44.1566 47.0676 44.1566 47.0676C44.1566 47.0676 40.5409 46.5368 35.1416 40.426C35.1453 40.426 37.3022 38.2602 38.7476 39.7683L38.7483 39.7668Z" fill="white"/>
<path d="M31.9692 28.9728C31.9812 28.9205 32.0043 28.872 32.0379 28.8294C32.2335 28.5711 32.986 27.6595 33.8961 27.5991C34.9555 27.5289 36.9258 28.1515 37.9993 29.6021C38.628 30.4428 39.1058 31.3857 39.4119 32.3899C39.4119 32.3899 40.1435 32.0158 40.4407 31.4574C40.5362 31.2805 41.0708 31.8523 41.0073 34.8969C40.9931 35.5755 40.6967 36.6924 40.6967 37.7705C40.6967 37.7705 40.8251 39.3868 40.6967 40.5687C40.5414 41.9969 40.7251 42.6225 40.7445 43.446C40.7632 44.1963 36.2158 44.9742 32.6523 43.7857C32.6523 43.7857 31.9199 43.7319 32.0603 42.1066C31.9169 39.9251 31.9169 39.0255 31.8811 38.2154C31.8542 37.5592 31.4347 31.1804 31.9692 28.972V28.9728Z" fill="white"/>
<path d="M34.3665 28.6927C34.3665 28.6927 39.2319 28.4149 38.4495 36.0793C38.4495 36.0793 37.6514 38.4565 33.1219 37.2418C33.1219 37.2418 30.5641 28.8763 34.3665 28.6927Z" fill="white"/>
<path d="M34.3657 28.691C34.7831 28.6313 35.2086 28.688 35.5946 28.8568C35.9813 29.0247 36.3128 29.2972 36.5532 29.6437C37.4461 30.8621 37.9366 33.5647 38.0143 38.9572L39.2342 40.1159C39.2342 40.1159 43.2963 44.523 44.467 45.0732C45.1434 45.3928 43.4307 47.4839 43.4307 47.4839C43.4307 47.4839 33.7938 42.6879 33.9297 40.2093C33.9297 40.2093 31.7609 33.8096 32.4209 30.5552C32.6456 29.4637 33.3899 28.7089 34.3657 28.691Z" fill="white"/>
<path d="M38.9534 18.9414C38.7198 19.0825 38.4585 19.1728 38.1867 19.2057C37.9157 19.2385 37.6402 19.2147 37.3789 19.134" fill="white"/>
<path d="M39.7074 21.9473C39.7074 21.9473 38.6711 22.0511 38.209 21.6367L39.7074 21.9473Z" fill="white"/>
<path d="M39.102 18.2648C39.102 18.2648 37.8335 18.1611 37.2012 18.7509L39.102 18.2648Z" fill="white"/>
<path d="M35.2129 21.6523C35.2129 21.6523 35.2129 21.954 35.2271 22.2952C35.2345 22.4616 35.2861 22.9171 35.5377 23.0507C36.4783 23.5479 37.7139 23.6845 37.7139 23.6845" fill="white"/>
<path d="M34.9642 20.0405C34.9642 20.0405 34.9127 19.2693 34.4095 19.2976C33.9071 19.326 33.3255 19.7643 33.9683 20.9722C34.4245 21.8271 34.7485 21.7793 34.7485 21.7793C34.7485 21.7793 35.0665 21.7255 35.1203 21.3201" fill="white"/>
<path d="M34.8467 20.4015C34.8467 20.4015 34.5055 20.5494 34.5362 20.7121C34.566 20.8749 34.8184 20.9951 34.7437 21.0862C34.669 21.1772 34.407 21.4341 34.1479 20.5307C34.0098 20.0499 34.1614 19.8409 34.1614 19.8409C34.1614 19.8409 34.6048 19.2555 34.8475 20.4015H34.8467Z" fill="white"/>
<path d="M42.0567 17.1215C42.0567 17.1215 41.9529 17.3036 41.1458 17.3484C40.4844 17.385 33.7047 17.6202 30.8094 16.6302C30.8094 16.6302 29.3775 16.0292 29.3454 15.7858C29.2894 15.3603 29.753 15.4491 30.5227 15.3588C31.2925 15.2685 31.7867 15.3342 32.1413 15.1393C32.4959 14.9444 32.755 15.1266 32.7528 14.3644C32.7528 14.0247 32.761 13.8201 32.7722 13.6984C32.7782 13.6432 32.7961 13.5894 32.8244 13.5424C32.8536 13.4953 32.8931 13.455 32.9394 13.4252C33.0857 13.3206 33.253 13.2482 33.4292 13.2124C33.6987 13.1833 36.5588 13.6043 38.7732 13.5842C38.8852 13.5969 38.9927 13.6372 39.0853 13.7014C39.1778 13.7656 39.2532 13.8522 39.3048 13.953C39.4787 14.3001 39.0972 14.5405 39.2644 15.0564C39.4309 15.5723 39.8378 15.8851 39.9812 16.0643C40.1253 16.2435 42.8122 16.6526 42.0559 17.1215H42.0567Z" fill="white"/>
<path d="M32.7296 25.4609C32.369 25.9634 32.1689 26.5629 32.1562 27.1811C32.1562 27.1811 32.7498 27.1624 33.1843 27.4327C33.6188 27.7029 35.3083 27.7238 36.0661 27.9956L38.2312 28.1367C38.4044 28.2405 37.9355 27.2042 38.2036 26.6861C38.2864 26.5263 37.077 26.3479 35.5778 26.1127C34.6513 25.9649 33.3418 25.8477 32.7304 25.4609H32.7296Z" fill="white"/>
<path d="M39.2995 32.5457L38.7657 32.8697C38.7336 32.8943 38.6955 32.9107 38.6552 32.9175C38.6149 32.9234 38.5739 32.9197 38.5358 32.9055C38.4977 32.8913 38.4634 32.8682 38.4372 32.8376C38.4104 32.807 38.3924 32.7696 38.3842 32.7301L38.3148 32.3456C38.3066 32.2978 38.314 32.2478 38.335 32.2037C38.3559 32.1597 38.3894 32.1231 38.432 32.0985L38.9285 31.805C38.9591 31.7856 38.9934 31.7737 39.0293 31.7707C39.0651 31.767 39.1009 31.7722 39.1345 31.7856C39.1681 31.7991 39.198 31.82 39.2219 31.8469C39.2458 31.8737 39.2629 31.9058 39.2719 31.9409L39.3757 32.2941C39.3899 32.3389 39.3906 32.3866 39.3772 32.4314C39.3637 32.4762 39.3369 32.5158 39.3003 32.5449L39.2995 32.5457Z" fill="white"/>
<path d="M43.6363 44.2891C43.6363 44.2891 42.438 46.5355 41.7848 46.6998C41.1308 46.8633 43.4594 47.6128 43.4594 47.6128C43.4594 47.6128 44.9436 46.7423 44.8293 45.279L43.6363 44.2891Z" fill="white"/>
<path d="M40.9934 33.8757C40.9934 33.8757 40.323 34.4342 39.6526 34.4715C39.4652 35.6287 39.4391 36.8061 39.5742 37.9707L40.75 39.2242C40.75 39.2242 41.2547 35.1293 40.9934 33.875V33.8757Z" fill="white"/>
<path d="M29.171 22.3466C29.1658 22.3988 29.1038 22.4384 29.0493 22.4735C28.9941 22.5093 28.9426 22.5422 28.9374 22.6026C28.9351 22.6258 28.9403 22.6609 28.9754 22.6945C29.0187 22.7355 29.0971 22.7661 29.1852 22.7661C29.2196 22.7661 29.2562 22.7617 29.292 22.7505C29.4077 22.7161 29.5615 22.6101 29.6354 22.3047C29.7586 21.7963 29.6182 21.5096 29.6115 21.4977L29.5973 21.4783C29.5869 21.4686 29.3428 21.2341 29.1195 21.3245C28.9403 21.3969 28.847 21.6395 28.8343 22.0666L28.8328 22.1211L28.8844 22.1383C29.009 22.1801 29.1778 22.2764 29.1703 22.3473L29.171 22.3466ZM29.1748 21.4604C29.2793 21.4171 29.4256 21.5201 29.4854 21.5738C29.5063 21.6261 29.5899 21.8695 29.4928 22.2697C29.4473 22.4578 29.3637 22.5758 29.2502 22.6094C29.1979 22.625 29.1479 22.6191 29.1143 22.6071C29.1195 22.6034 29.1248 22.6004 29.1292 22.5974C29.1994 22.5526 29.3047 22.4847 29.3174 22.3622C29.336 22.1816 29.1009 22.0643 28.9836 22.0181C29.0038 21.594 29.1113 21.4865 29.1748 21.4611V21.4604ZM55.5089 49.5721C55.0826 48.1835 54.024 47.6773 53.9635 47.6504C53.4013 47.4555 52.7092 47.2487 51.9089 47.0419C52.159 46.7321 52.2374 46.4932 52.1508 46.3028C52.0955 46.1811 51.9716 46.1102 51.8514 46.0774C51.7133 46.0393 51.5565 46.0609 51.4303 46.1281C51.1914 46.255 50.6524 46.4895 49.7684 46.5253C49.7042 46.5275 48.9957 46.5529 48.2178 46.2521C48.2081 46.2483 48.1969 46.2476 48.1879 46.2431C48.1178 46.2147 48.0565 46.1856 48.0095 46.1587C47.9625 46.1319 47.9669 46.0624 48.0177 46.0423C48.0476 46.0303 48.0849 46.0169 48.1304 46.0034C48.4925 45.8959 48.9465 45.9325 49.3474 45.9646C49.8446 46.0049 50.2358 46.0363 50.3485 45.7608C50.4038 45.6279 50.4053 45.507 50.3545 45.4017C50.2567 45.2001 50.0014 45.1285 49.7311 45.053C49.5669 45.0068 49.3974 44.959 49.2697 44.8851C48.8083 44.6163 47.2219 44.8761 46.909 44.9306L46.8657 44.9448C46.8531 44.9515 45.8399 45.4338 44.9903 45.3382C44.9896 45.3136 44.9911 45.2905 44.9896 45.2658C44.9896 45.2658 44.9918 45.227 44.9754 45.2046C44.9493 45.1673 44.8433 45.0822 44.8433 45.0822L43.7421 44.1684C43.7421 44.1684 43.6726 44.1049 43.6218 44.1012C43.5554 44.0959 43.5181 44.1661 43.5181 44.1661C42.7073 43.4613 41.668 42.4214 40.8281 41.5546C40.8408 41.232 40.8498 40.917 40.8565 40.6131V40.6004C40.9065 40.1585 40.92 39.659 40.9177 39.2043C40.9693 38.7795 41.3873 35.2281 41.1701 33.9297C41.1245 32.0976 40.8207 31.3414 40.5422 31.2682C40.531 31.2652 40.5191 31.2659 40.5079 31.2645C40.1585 30.435 39.6038 29.4682 38.7377 28.2789C38.6728 28.1893 38.5063 27.9093 38.3428 27.6301C38.2845 27.3434 38.2315 26.9761 38.3443 26.7573C38.3741 26.7006 38.3741 26.6357 38.345 26.5782C38.2943 26.4774 38.1464 26.405 37.7575 26.3169C37.7022 25.9667 37.7672 25.4926 37.9098 25.0955C37.9762 24.926 37.9135 24.6878 37.8583 24.4773C37.8396 24.4056 37.8202 24.3317 37.8164 24.2944C37.7926 24.0592 37.8023 24.0861 37.8448 23.8546C38.6728 23.9189 38.943 23.8703 39.0132 23.8666C39.3581 23.8464 39.6142 23.7225 39.7747 23.4978C40.0405 23.126 39.9337 22.6079 39.9061 22.4936L39.8852 21.1125C40.0987 21.0796 40.4549 20.993 40.5982 20.7735C40.6676 20.6675 40.6818 20.5451 40.6378 20.4174C40.4705 19.9381 39.7994 18.9787 39.6396 18.7548C39.659 18.2881 39.6209 17.888 39.5522 17.549C40.5056 17.5356 41.132 17.5072 41.1529 17.5065C41.8293 17.4691 42.0757 17.337 42.1645 17.2392C42.3385 17.122 42.3601 16.9951 42.3474 16.9077C42.2989 16.58 41.674 16.3896 40.7259 16.1372C40.469 16.0686 40.1495 15.9835 40.1062 15.9603C40.0704 15.9155 40.0189 15.8625 39.9591 15.8013C39.7792 15.6169 39.5328 15.3638 39.4164 15.0039C39.3454 14.7852 39.394 14.6314 39.4455 14.4679C39.4992 14.2969 39.5605 14.1028 39.447 13.8759C39.3835 13.7519 39.2902 13.6444 39.1752 13.5653C39.061 13.4861 38.9274 13.4361 38.7698 13.4189C37.2737 13.4324 35.4796 13.2428 34.4046 13.13C33.7871 13.0651 33.5102 13.0367 33.3952 13.0501C33.1944 13.0905 33.0085 13.1711 32.8494 13.2853C32.7822 13.3286 32.7255 13.3868 32.6837 13.454C32.6419 13.522 32.6158 13.5996 32.6076 13.6803C32.5941 13.8251 32.5874 14.0543 32.5874 14.3619C32.5889 14.8098 32.5209 14.83 32.3403 14.8845C32.2626 14.9084 32.1648 14.9375 32.0603 14.995C31.8602 15.1047 31.5885 15.1197 31.2129 15.1398C31.0054 15.151 30.7702 15.1637 30.5007 15.1958C30.3327 15.2152 30.1797 15.2264 30.0438 15.2361C29.6727 15.263 29.404 15.2824 29.2629 15.4549C29.1905 15.5437 29.1636 15.6609 29.1822 15.8043C29.1994 15.9319 29.3846 16.0947 29.7257 16.2895C29.1972 16.0969 28.8552 16.0723 28.8381 16.0715C26.6073 15.9192 25.3851 17.3027 25.2881 17.4169C25.0566 17.6536 24.9954 17.82 24.9962 17.932C24.8035 18.1485 24.3018 18.8817 24.3534 20.616C24.2966 20.7429 24.0458 21.267 23.4799 21.9494C23.3701 22.0815 23.3753 22.2084 23.4 22.2913C23.4754 22.5526 23.8539 22.7318 24.0547 22.8109C24.0667 23.061 24.1047 23.6695 24.2018 23.9353C24.2048 23.9599 24.204 24.0084 24.204 24.0913C24.204 24.2055 24.204 24.3758 24.2093 24.6229C24.2093 24.7468 24.257 25.1589 24.8722 25.2552C25.2731 25.3187 26.1026 25.3657 27.2732 25.0089C27.2844 25.2829 27.2867 25.8667 27.2053 26.9037C26.9089 27.0306 26.6147 27.1948 26.3296 27.4039L26.3012 27.4308C26.181 27.5741 26.1108 27.7555 26.1041 27.9384C26.0877 28.1878 25.8204 28.9411 25.7442 29.0837L25.7345 29.1009C25.6823 29.1972 25.7965 29.298 25.8861 29.2338L25.7756 29.4391C24.0174 32.3291 23.3201 33.7371 23.1648 34.6935C22.9483 35.1653 22.8109 35.7484 22.9513 36.2367C23.1073 36.7832 23.4776 37.0549 23.7762 37.1893C24.0249 37.9098 24.0562 38.9632 24.0532 39.815C24.0532 40.2488 24.101 40.6639 24.1473 41.0663C24.1951 41.4799 24.2399 41.8704 24.2309 42.2541C24.2272 42.437 24.2414 42.5662 24.2615 42.6759L24.2369 42.7543C21.594 45.327 21.1095 45.7421 20.4555 46.0087C20.1449 46.1363 19.355 45.9094 18.8406 45.7735C18.8309 45.7713 18.7615 45.7623 18.7615 45.7623C18.471 45.7384 17.0399 45.6361 16.6322 45.8825C16.5202 45.9504 16.3724 45.9952 16.2298 46.0393C15.9932 46.1117 15.7699 46.1804 15.6788 46.3626C15.6572 46.4051 15.6467 46.4506 15.6438 46.4992C13.4003 46.7142 11.8728 47.1166 11.0008 47.8251C9.75547 48.8367 9.15895 49.8386 9.22689 50.8025C9.31126 52.0045 10.4252 52.7988 10.9 53.084C11.0792 53.1923 11.2748 53.261 11.4823 53.2871C12.4566 53.4058 17.2974 53.9642 22.036 53.9642C22.348 53.9642 22.6601 53.962 22.9699 53.9568C27.1866 53.8873 31.5444 53.8142 32.2492 51.3878C32.3246 51.6155 32.4224 51.7977 32.5493 52.0231C33.5714 53.8366 39.5142 53.9597 39.5739 53.9605C39.877 53.9642 40.1816 53.9657 40.4885 53.9657C46.6291 53.9657 53.3602 53.2662 53.4312 53.2587L53.4558 53.2542C54.5204 52.9705 55.1998 52.5405 55.5328 51.9395C55.9315 51.2205 55.7575 50.3777 55.5104 49.5728L55.5089 49.5721ZM46.9553 45.2606C46.977 45.2509 46.9979 45.2442 47.0218 45.2404C47.7086 45.124 48.836 45.0068 49.1077 45.165C49.2705 45.2598 49.4691 45.3158 49.6445 45.3644C49.8073 45.4099 50.0297 45.4726 50.0641 45.5428C50.076 45.5667 50.0783 45.6063 50.0536 45.6316C49.9909 45.6914 49.6191 45.6608 49.3743 45.6414C48.9674 45.6092 48.4597 45.5682 48.0401 45.6921C47.7094 45.7899 47.5571 45.9355 47.5854 46.1251C47.6579 46.6044 49.1025 46.8523 49.596 46.8523H49.6132C50.7621 46.8374 51.3975 46.541 51.6312 46.4036C51.67 46.3805 51.7305 46.3655 51.7745 46.376C51.8186 46.3864 51.8469 46.4118 51.8574 46.435C51.8678 46.4581 51.9156 46.5776 51.508 47.0113C50.8278 47.7333 47.5563 47.6833 46.5768 47.5041C45.8691 47.3749 44.8709 47.0979 44.4192 46.9695C44.6895 46.6336 44.9269 46.1946 44.9814 45.6637C45.8161 45.7474 46.7269 45.3644 46.9561 45.2591L46.9553 45.2606ZM43.7562 44.5999L44.6417 45.3345C44.6603 45.3502 44.6723 45.3733 44.6723 45.398C44.6954 46.5029 43.7241 47.2405 43.4486 47.4272C43.4404 47.4331 43.4307 47.4339 43.421 47.4309C42.8252 47.2346 42.175 46.9792 41.9211 46.8224C42.5027 46.5544 43.3068 45.2106 43.6383 44.6215C43.6622 44.579 43.7189 44.5685 43.757 44.5999H43.7562ZM43.3605 44.455C42.9357 45.2128 42.2817 46.2155 41.8734 46.4805C38.7504 44.7783 34.0059 41.8353 34.0947 40.2145L34.0962 40.1831L34.0865 40.154C34.0649 40.0905 31.9394 33.758 32.5829 30.5851C32.7972 29.5466 33.4997 28.8657 34.3725 28.85L34.3926 28.8485C34.4927 28.8343 34.5935 28.8269 34.6935 28.8269C34.9817 28.8269 35.2676 28.8859 35.5341 29.0023C35.8933 29.1591 36.2016 29.4114 36.4271 29.737C37.3424 30.9852 37.7828 33.829 37.8568 38.9572V39.0252L39.1192 40.2227C39.2514 40.366 41.7405 43.0612 43.3613 44.4558L43.3605 44.455ZM36.9228 29.9229C36.94 29.94 36.9571 29.955 36.9743 29.9721C37.5424 30.5664 37.9374 31.36 38.1606 32.3455C38.1614 32.353 38.1599 32.3612 38.1606 32.3686L38.2308 32.7576C38.2353 32.7793 38.2442 32.8002 38.2524 32.8211C38.4018 33.7453 38.4159 34.8189 38.2928 36.0381C38.2748 36.0844 38.2188 36.2135 38.1001 36.3748C37.9411 33.1429 37.5626 31.0853 36.9228 29.9229ZM40.6318 38.8579L39.7307 37.8971C39.609 36.8056 39.6306 35.7036 39.7949 34.6173C40.2264 34.5561 40.634 34.3239 40.8759 34.1612C41.0028 35.3371 40.7363 37.9232 40.6318 38.8572V38.8579ZM40.8423 33.7886C40.6826 33.9103 40.1562 34.2799 39.6456 34.3083L39.5157 34.3157L39.4948 34.4441C39.3051 35.6163 39.2782 36.8086 39.4149 37.9882L39.4208 38.0412L40.5922 39.2902C40.5922 39.7075 40.5795 40.1525 40.537 40.5459C40.5108 40.7848 40.4952 41.0014 40.4855 41.2014C39.8315 40.5191 39.3641 40.0136 39.3477 39.9965L38.177 38.8848C38.1658 38.1576 38.1464 37.4805 38.1203 36.8414C38.4734 36.4905 38.5921 36.1635 38.6041 36.1269L38.6115 36.0918C38.7265 34.9682 38.7258 33.9626 38.613 33.0757C38.616 33.0757 38.619 33.0772 38.622 33.0772C38.6429 33.0772 38.6631 33.0757 38.6832 33.0727C38.7497 33.0622 38.8139 33.0346 38.8527 33.0032L39.3865 32.6785L39.4037 32.6665C39.4552 32.6255 39.491 32.5717 39.5157 32.512C39.6485 32.4403 40.1928 32.126 40.5041 31.6609C40.6213 31.8781 40.7975 32.4918 40.8408 33.7886H40.8423ZM38.4787 32.3134C38.4757 32.2985 38.4787 32.282 38.4846 32.2686C38.4913 32.2544 38.5033 32.2417 38.5182 32.2335L39.0184 31.9379C39.0274 31.9319 39.0378 31.9289 39.0483 31.9274C39.0505 31.9274 39.052 31.9274 39.0543 31.9274C39.0625 31.9274 39.0714 31.9289 39.0789 31.9319C39.0886 31.9356 39.0976 31.9416 39.1043 31.9498C39.111 31.958 39.1162 31.967 39.12 31.9819L39.2252 32.3388C39.2297 32.3522 39.2297 32.3664 39.2252 32.3806C39.2223 32.391 39.2163 32.4008 39.2081 32.409L38.6705 32.7367C38.6601 32.7449 38.6481 32.7502 38.6339 32.7524C38.622 32.7539 38.6086 32.7524 38.5959 32.7487C38.5832 32.7449 38.5727 32.7367 38.5638 32.7263C38.5548 32.7166 38.5496 32.7046 38.5473 32.6957L38.4779 32.3127L38.4787 32.3134ZM38.2502 28.3035C38.2853 28.3035 38.3189 28.2923 38.3488 28.2722C38.4018 28.3588 38.4466 28.4289 38.4757 28.47C39.3574 29.6817 39.9091 30.6448 40.2458 31.4653C40.0465 31.7736 39.7098 32.017 39.5074 32.1439C39.5037 32.1327 39.5 32.1223 39.4963 32.1118L39.4328 31.8976C39.4223 31.8565 39.4029 31.8184 39.3798 31.7833C39.0737 30.9673 38.6549 30.2021 38.1315 29.5018C37.7194 28.9456 37.1833 28.5118 36.6182 28.1878L38.192 28.2946C38.2114 28.3005 38.2308 28.3043 38.2502 28.3043V28.3035ZM38.0113 26.72C37.8889 27.0814 37.9934 27.5532 38.0651 27.8757C38.071 27.9034 38.0777 27.934 38.0845 27.9631L36.0986 27.8339C35.7223 27.704 35.1586 27.6323 34.6129 27.5629C34.0499 27.4912 33.4676 27.4173 33.2698 27.2941C32.9622 27.1023 32.5896 27.0433 32.3612 27.0254C32.341 27.0239 32.3268 27.006 32.3283 26.9866C32.3686 26.5282 32.5165 26.0892 32.7621 25.7002C32.7718 25.6853 32.7905 25.68 32.8061 25.6875C33.3541 25.9555 34.2217 26.0795 34.9966 26.19C35.19 26.2176 35.3774 26.2444 35.5513 26.2721L35.8164 26.3139C36.7145 26.4542 37.7209 26.6118 38.0113 26.7223V26.72ZM32.1604 27.3404C32.1604 27.3404 32.1947 27.3404 32.2462 27.3419C32.1439 27.5958 31.9804 28.0825 31.8386 28.862C31.8296 28.8844 31.8199 28.9068 31.8147 28.9299C31.8087 28.9538 31.8035 28.9822 31.7983 29.0075C31.7833 28.6783 31.7706 28.4446 31.7602 28.2834C31.7602 28.2834 31.7774 28.2669 31.7811 28.2587C31.7871 28.2453 31.79 28.1983 31.79 28.1983C31.7983 28.096 31.8565 27.1874 31.4227 26.9268L31.4003 26.9156C31.3832 26.9089 31.3055 26.8775 31.1801 26.8365C31.1039 26.0205 31.0756 25.0492 31.2279 24.225C31.2824 24.0726 31.36 23.8942 31.4474 23.6934C31.7161 23.0775 32.0708 22.2585 32.226 21.202C32.232 21.2177 32.2372 21.2349 32.2432 21.2491C32.2962 21.3812 32.3873 21.5246 32.4664 21.65C32.5135 21.8165 32.5613 21.9882 32.6105 22.1748C32.618 22.3981 32.6374 22.6459 32.6874 22.7579C32.718 22.8274 32.7613 22.9222 32.8017 23.0118C32.9346 23.7397 32.9159 24.5863 32.8532 25.303L32.8144 25.3217L32.7979 25.3112C32.7352 25.2717 32.6516 25.2873 32.6083 25.3478L32.5926 25.3695C32.2141 25.8965 32.0051 26.5259 31.9931 27.1747C31.9916 27.2673 32.067 27.3419 32.1596 27.3397L32.1604 27.3404ZM28.9598 42.1167C29.2726 42.228 29.4951 42.3064 29.5249 42.3168C29.5249 42.3168 29.5757 42.3355 29.6145 42.3273C29.6466 42.3206 29.6862 42.2847 29.6862 42.2847C29.722 42.2526 29.8497 42.1354 30.0005 41.9689C30.7545 41.8584 31.516 41.7397 31.8498 41.6875C31.864 41.8756 31.8759 42.1115 31.8856 42.3706C31.8841 42.4109 31.8856 42.449 31.8856 42.4878C30.7008 42.7543 29.3293 42.8984 28.0825 42.9753C28.3625 42.7043 28.6469 42.4199 28.9351 42.1197C28.9433 42.119 28.9508 42.1175 28.9598 42.1167ZM30.8456 26.7372C30.5783 26.6663 30.2297 26.5916 29.828 26.5498C29.8616 26.4699 29.8825 26.3923 29.9004 26.3228C29.9348 26.19 29.9557 26.1183 30.0251 26.0772C30.2685 25.9309 30.3454 25.6323 30.3962 25.4344C30.4074 25.3919 30.4208 25.3381 30.4328 25.3053C30.5462 25.2717 30.6784 25.2089 30.809 25.0716C30.7784 25.6375 30.8008 26.2146 30.8449 26.7379L30.8456 26.7372ZM31.2667 27.2105C31.4347 27.327 31.4869 27.7742 31.4727 28.1004C31.4727 28.1064 31.4698 28.1116 31.4645 28.1154C31.2995 28.2378 31.0681 28.2139 30.4776 28.1333C30.1282 28.0855 29.6929 28.0265 29.1106 27.9885C29.0016 27.981 28.8933 27.9802 28.7858 27.9825C28.8112 27.9116 28.8284 27.8481 28.8403 27.7996C29.1658 27.642 29.3584 27.1687 29.4234 26.9851C29.4928 26.947 29.5481 26.9059 29.5981 26.8641C30.494 26.9268 31.1667 27.1732 31.2674 27.2113L31.2667 27.2105ZM31.0002 16.8569C31.2682 16.9376 31.5601 17.0093 31.8737 17.0727C31.8259 17.2317 31.7983 17.3691 31.7983 17.4811C31.7983 17.5408 31.79 17.6229 31.7796 17.7178C31.5444 17.3116 31.2622 17.0376 31.0002 16.8562V16.8569ZM33.2026 27.6204C32.8427 27.7914 32.5329 28.0504 32.3007 28.2826C32.4149 27.8123 32.5232 27.5204 32.5822 27.3807C32.7487 27.4121 32.9368 27.4666 33.0981 27.5674C33.1287 27.5861 33.1638 27.604 33.2026 27.6204ZM40.3332 20.5242C40.3473 20.5645 40.3391 20.5824 40.3294 20.5966C40.2533 20.713 39.9143 20.7922 39.7098 20.8079L39.5582 20.8198L39.5731 21.806C39.4888 21.8187 39.4052 21.8337 39.3201 21.8396C39.1931 21.8501 39.0655 21.8523 38.9386 21.8456C38.8109 21.8411 38.684 21.8232 38.56 21.7926C38.4346 21.762 38.3159 21.709 38.2091 21.6358C38.3032 21.7314 38.413 21.8083 38.5347 21.865C38.6563 21.9225 38.784 21.9673 38.9147 21.9986C39.0461 22.0322 39.179 22.0561 39.3133 22.0726C39.4007 22.083 39.4888 22.0853 39.5769 22.0897L39.5836 22.5175L39.5896 22.5586C39.5911 22.5631 39.715 23.0267 39.5119 23.3104C39.4111 23.4507 39.2372 23.5291 38.996 23.5433C38.9072 23.5485 38.6519 23.5948 37.7306 23.5209H37.7164C37.4148 23.494 37.1147 23.45 36.8183 23.3888C36.5144 23.3276 36.2158 23.2447 35.9239 23.1402C35.8514 23.1111 35.779 23.0864 35.7081 23.0543C35.6394 23.0282 35.5737 22.9953 35.511 22.9565C35.405 22.8557 35.3326 22.7243 35.3035 22.5802C35.2646 22.4302 35.243 22.2764 35.24 22.1211L35.2086 21.65L35.1982 22.1196C35.1877 22.2786 35.1959 22.4391 35.2228 22.5967C35.2437 22.7646 35.3161 22.9214 35.4304 23.0461C35.4968 23.1006 35.5692 23.1476 35.6461 23.1857C35.7156 23.2208 35.788 23.2529 35.8604 23.2895C36.1508 23.4224 36.4509 23.5344 36.7578 23.624C37.0109 23.6994 37.2677 23.7583 37.5268 23.8084C37.4805 24.0659 37.4678 24.0652 37.4947 24.3242C37.4999 24.3862 37.5208 24.4661 37.5454 24.5587C37.5768 24.6796 37.6365 24.9051 37.6066 24.9805C37.4641 25.3769 37.3872 25.8898 37.4237 26.2474C37.0594 26.1788 36.5585 26.0981 35.8649 25.9899L35.6006 25.9488C35.4251 25.9204 35.2363 25.8936 35.0407 25.8659C34.3867 25.7726 33.6677 25.6681 33.163 25.4822C33.2295 24.8036 33.2608 23.9846 33.163 23.235C33.2466 23.1738 33.2989 23.0692 33.3183 22.9252C33.3676 22.5601 33.4221 22.0942 33.4221 22.0084C33.4221 21.9456 33.5639 21.3446 33.5609 21.1102C33.5609 21.0938 33.5557 21.0385 33.5557 21.0385C33.5482 20.9706 33.5385 20.7996 33.5385 20.3718C33.5385 20.1606 33.5953 19.9612 33.6893 19.7895C33.6408 19.9702 33.6289 20.1583 33.6595 20.3435C33.6871 20.5563 33.7498 20.7631 33.8439 20.9557C33.9297 21.152 34.0402 21.3372 34.1716 21.5067C34.2418 21.594 34.3224 21.6724 34.412 21.7396C34.4598 21.7747 34.5121 21.8045 34.5666 21.8284C34.5957 21.8411 34.6263 21.8501 34.6577 21.8561C34.6972 21.8658 34.7383 21.8658 34.7779 21.8561C34.8936 21.8172 34.9914 21.7388 35.0533 21.6343C35.1086 21.538 35.1355 21.4275 35.1302 21.3163C35.1302 21.3163 35.1302 21.2976 35.1198 21.2976C35.1138 21.2976 35.1078 21.3163 35.1078 21.3163C35.0795 21.4103 35.0302 21.4977 34.9638 21.5701C34.9025 21.6328 34.7719 21.709 34.7039 21.6791C34.6853 21.6724 34.6681 21.6634 34.6509 21.653C34.6136 21.6298 34.5793 21.6037 34.5472 21.5746C34.477 21.5096 34.4135 21.4387 34.3575 21.3618C34.1156 21.0438 33.92 20.6921 33.7782 20.3181C33.7043 20.1314 33.7043 19.9232 33.7782 19.7365C33.8185 19.6484 33.8835 19.5738 33.9656 19.5222C34.0447 19.4715 34.1328 19.4364 34.2246 19.4185C34.2926 19.4028 34.3613 19.3968 34.4307 19.3968C34.4516 19.4065 34.4665 19.4155 34.4777 19.4237C34.5069 19.4439 34.5285 19.4565 34.5935 19.4565H34.5942C34.6084 19.458 34.6218 19.461 34.636 19.4633C34.6569 19.4789 34.6786 19.4924 34.6957 19.5125C34.7801 19.6215 34.8465 19.7417 34.8966 19.8694C34.9025 20.1703 34.9466 20.566 35.1265 20.6974L35.1474 20.7123L35.1661 20.6936C35.1825 20.6765 35.3311 20.5249 35.3311 20.4107C35.3311 20.4069 35.3311 20.404 35.3311 20.4017C35.3378 20.4017 35.3497 20.404 35.3587 20.4054C35.4117 20.4144 35.4998 20.4286 35.5849 20.3263C35.6976 20.1912 35.6678 19.9717 35.6379 19.7597C35.6305 19.7059 35.623 19.6521 35.6178 19.5991C35.6088 19.5058 35.5804 19.3923 35.5506 19.2721C35.4983 19.0586 35.4386 18.8175 35.4856 18.6734C35.5625 18.4382 35.5849 18.4016 35.7521 18.3531C35.947 18.2971 36.3255 18.0336 36.3255 17.7506C36.3255 17.6715 36.3024 17.5893 36.271 17.5117C37.0788 17.5416 37.8612 17.5528 38.5533 17.5528C38.7855 17.5528 39.0065 17.5513 39.2163 17.5498C39.2924 17.8902 39.3372 18.3008 39.3118 18.7921L39.3089 18.8488L39.3417 18.8951C39.3499 18.9063 40.1592 20.0322 40.3294 20.5204L40.3332 20.5242ZM32.9129 14.3619C32.9129 14.0647 32.9196 13.846 32.9316 13.7116C32.9346 13.681 32.945 13.6511 32.9614 13.6243C32.9779 13.5974 32.9995 13.5757 33.0331 13.5533C33.1615 13.4615 33.3056 13.3995 33.4467 13.3704C33.4519 13.3704 33.4594 13.3697 33.4684 13.3697C33.5803 13.3697 33.9663 13.4107 34.3732 13.4533C35.455 13.5668 37.2692 13.7646 38.7556 13.743C38.8407 13.7527 38.9236 13.784 38.9938 13.8326C39.0647 13.8811 39.1222 13.9483 39.161 14.0237C39.2133 14.1275 39.1894 14.2148 39.1401 14.3723C39.0819 14.5575 39.0095 14.7874 39.1118 15.1047C39.1147 15.1137 39.1185 15.1212 39.1215 15.1301C36.5891 15.2764 33.446 14.6142 32.9099 14.4955C32.9122 14.4522 32.9151 14.4119 32.9151 14.3626L32.9129 14.3619ZM29.504 15.7625C29.5003 15.7333 29.4965 15.6818 29.5145 15.6594C29.5675 15.5945 29.8221 15.5766 30.0677 15.5586C30.208 15.5489 30.3663 15.537 30.5395 15.5168C30.7993 15.4862 31.0293 15.4735 31.2324 15.4631C31.5653 15.4452 31.8378 15.4258 32.073 15.3392C33.0659 16.0708 39.2663 16.2672 39.9733 16.2873L40.0838 16.2903C40.2018 16.3306 40.3742 16.3791 40.643 16.4508C41.0208 16.5516 41.8868 16.7823 42.0189 16.9465C42.01 16.9555 41.995 16.9674 41.9704 16.9824L41.9353 17.004L41.9241 17.0242C41.8943 17.0466 41.7225 17.1533 41.1357 17.1854C39.7352 17.2631 33.5034 17.3796 30.8703 16.4799C30.267 16.2268 29.5712 15.8692 29.504 15.7632V15.7625ZM24.923 24.9364C24.7453 24.9088 24.5333 24.8319 24.5333 24.6199C24.5273 24.3735 24.5273 24.2048 24.5281 24.0928C24.5281 23.9375 24.5281 23.8905 24.5116 23.8434C24.5027 23.8196 24.4952 23.7882 24.487 23.7568C24.5602 23.7486 24.6333 23.7382 24.7057 23.7255C24.8528 23.7031 24.9977 23.668 25.1388 23.6217C25.2806 23.5762 25.4157 23.5127 25.5419 23.4328C25.6666 23.3559 25.7726 23.2529 25.8525 23.1305C25.7472 23.2178 25.6233 23.2813 25.4911 23.3156C25.362 23.3492 25.2291 23.3664 25.0955 23.3664C24.9626 23.3686 24.8289 23.3597 24.6975 23.3403C24.602 23.3276 24.5079 23.3052 24.4146 23.2828C24.3907 23.0483 24.378 22.8117 24.3743 22.69L24.3705 22.5772L24.263 22.5414C24.0256 22.463 23.7412 22.304 23.7113 22.201C23.7091 22.195 23.7061 22.1831 23.73 22.1547C24.4138 21.3297 24.6572 20.7317 24.6669 20.7063L24.6796 20.675L24.6781 20.6414C24.6199 18.8988 25.141 18.2501 25.2537 18.1306L25.6867 17.767C25.9675 18.0194 26.0653 18.0657 26.2034 18.1187C26.2937 18.1538 26.396 18.1933 26.6573 18.3792C26.7797 18.4651 26.9477 18.5151 27.1097 18.5636C27.2038 18.5913 27.3009 18.6204 27.3561 18.6487C27.383 18.7271 27.3785 18.9728 27.3755 19.1392C27.371 19.3737 27.3666 19.6171 27.4076 19.7918C27.5189 20.2554 27.8242 20.7407 27.8951 20.8467C27.9362 21.0221 28.1915 22.1136 28.196 22.1286C28.2386 22.2502 28.3244 22.5056 28.5245 22.4705C28.6238 22.4541 28.7701 22.4294 28.788 21.6149C28.8269 21.4648 28.8814 21.32 28.9642 21.1886C29.0105 21.1222 29.077 21.0736 29.1539 21.0497C29.2382 21.0333 29.3248 21.0303 29.4107 21.0393C29.4532 21.043 29.4958 21.0512 29.5369 21.0617C29.6197 21.1072 29.6847 21.1677 29.7302 21.2461C29.9706 21.6649 29.6578 22.4884 29.5167 22.7706L29.4107 23.1223C29.3935 23.1461 29.3771 23.17 29.3577 23.1902C29.3062 23.2566 29.239 23.3096 29.1621 23.3447C29.1292 23.3574 29.0934 23.3626 29.0583 23.3589C29.0195 23.3455 28.9844 23.3238 28.9545 23.2955C28.8851 23.2298 28.8373 23.1446 28.8179 23.0506H28.7963C28.7813 23.1611 28.8075 23.2738 28.8687 23.3664C28.9015 23.4194 28.9478 23.4627 29.0023 23.4926C29.065 23.5187 29.1345 23.5247 29.2009 23.5105C29.2375 23.5023 29.2711 23.4843 29.3054 23.4702L29.0941 24.1719C28.7582 24.3354 28.6641 24.7759 28.6387 24.9693C28.3155 25.1903 28.1833 25.7868 28.1452 26.0018C27.9325 26.1698 27.813 26.4602 27.7473 26.7111C27.6779 26.7312 27.6084 26.7529 27.5383 26.7768C27.6174 25.7002 27.604 25.1283 27.5905 24.8976C27.592 24.8976 27.5935 24.8969 27.5943 24.8961C27.6308 24.8767 27.6644 24.8543 27.698 24.8327C27.763 24.7886 27.825 24.7401 27.8847 24.6886C27.9974 24.5878 28.1012 24.478 28.1953 24.3601C28.2878 24.2444 28.3729 24.1234 28.4498 23.9972L28.5671 23.8121L28.6253 23.718L28.6522 23.6702L28.6656 23.6471L28.6492 23.665L28.6119 23.7053L28.535 23.7837L28.3804 23.9383C28.2766 24.0405 28.1729 24.1443 28.0698 24.2384C27.9653 24.331 27.8526 24.4153 27.7339 24.4892C27.6764 24.5236 27.5562 24.5758 27.5562 24.5758L27.3688 24.6386C26.1578 25.0425 25.3157 24.9984 24.9223 24.9357L24.923 24.9364ZM26.4274 27.9556C26.4318 27.8459 26.4707 27.7398 26.5378 27.6532C26.9022 27.389 27.2844 27.2046 27.6674 27.0791L27.6756 27.0948C27.4255 27.3091 27.3359 27.7615 27.3076 27.9683C27.1478 28.0564 27.0366 28.2378 26.9641 28.3961C26.676 28.5163 26.4266 28.644 26.234 28.7537C26.228 28.7567 26.222 28.7515 26.2243 28.7455C26.3213 28.461 26.4169 28.1326 26.4281 27.9556H26.4274ZM24.0353 33.6513C24.0301 33.6617 24.0196 33.6796 24.0002 33.7058C23.9502 33.776 23.9151 33.8066 23.8964 33.8193L23.88 33.814L23.8248 33.8364C23.7964 33.8476 23.7651 33.8678 23.7337 33.8909C24.0868 32.9607 24.8282 31.6094 26.1952 29.3734C26.2459 29.2898 26.3057 29.1755 26.3699 29.0508C26.4677 28.9949 26.5819 28.9344 26.7096 28.8709C26.6678 29.0008 26.6513 29.1434 26.6454 29.2487C26.4766 29.3637 26.4206 29.6257 26.4027 29.7668C26.284 29.8758 26.2534 30.0378 26.2295 30.1603C26.2228 30.1931 26.2146 30.2387 26.2056 30.2655C26.0578 30.3253 25.9481 30.5522 25.8786 30.9434C25.7166 31.0912 25.6337 31.4033 25.6001 31.5661C25.4852 31.6713 25.4105 31.8453 25.3717 31.9565C25.2455 32.014 25.1627 32.1544 25.1179 32.2977C24.932 32.3657 24.8543 32.5359 24.805 32.6449C24.7961 32.665 24.7841 32.6912 24.7737 32.7098C24.6191 32.733 24.5602 32.8838 24.5243 32.9771C24.5101 33.0129 24.487 33.0727 24.4788 33.0824C24.263 33.1175 24.2429 33.3034 24.2346 33.3728C24.2324 33.3922 24.2287 33.4243 24.2145 33.4385C24.1242 33.4833 24.0234 33.5341 24.0346 33.652L24.0353 33.6513ZM24.1018 33.8827C24.1025 33.7386 24.2376 33.6759 24.2899 33.6565C24.5437 33.7297 24.7834 33.8334 24.808 33.8797C24.814 33.8999 24.7901 33.9738 24.7229 34.0477C24.6692 34.1067 24.6274 34.1216 24.6199 34.1186C24.5258 34.0253 24.2302 33.9238 24.101 33.8827H24.1018ZM24.1533 37.308C24.1839 37.3132 24.2033 37.3155 24.2078 37.3162L24.4915 37.3468L24.372 37.0878C24.2197 36.7578 24.3967 35.938 24.6251 35.3169C24.7505 34.9832 24.7923 34.6241 24.7468 34.2724C24.8722 34.1925 24.9573 34.0589 24.9984 33.9828C25.0566 33.9499 25.1096 33.9074 25.1544 33.8573C25.1955 33.811 25.2283 33.7603 25.2537 33.705C25.3194 33.6722 25.3792 33.6274 25.4284 33.5721C25.4762 33.5184 25.5143 33.4564 25.5397 33.39C25.6166 33.3519 25.6875 33.3011 25.7472 33.2407C25.8174 33.1705 25.8749 33.0861 25.9152 32.9943C26.0429 32.8756 26.1511 32.7382 26.2385 32.5867C26.4781 32.447 26.5804 32.073 26.6133 31.9192C26.7409 31.7781 26.7977 31.6325 26.8395 31.5243C26.8581 31.4772 26.8828 31.413 26.8955 31.4018C27.0896 31.3242 27.1545 31.0278 27.1754 30.8441C27.2464 30.7747 27.3397 30.6306 27.4405 30.3223C27.6099 30.1647 27.6607 29.8609 27.6756 29.728C27.7914 29.5675 27.8578 29.3771 27.8675 29.18C28.0825 29.0434 28.2535 28.7246 28.3229 28.579C28.4461 28.517 28.5409 28.4215 28.6156 28.317C28.7716 28.3058 28.9299 28.302 29.0889 28.3125C29.6601 28.3498 30.0893 28.408 30.4335 28.4551C30.8889 28.517 31.201 28.5566 31.4481 28.4797C31.4742 28.9486 31.5138 29.8206 31.5631 31.4041C31.5108 32.9891 31.5564 35.1407 31.7034 37.85C31.7131 38.0255 31.7199 38.1524 31.7229 38.2196C31.7296 38.3659 31.7348 38.5197 31.74 38.6795C31.7408 38.7362 31.7423 38.79 31.743 38.8467C31.7438 38.8826 31.7467 38.9512 31.7512 39.0453C31.7624 39.4096 31.7774 39.8471 31.8042 40.4138C31.8139 40.7953 31.8169 41.1089 31.8139 41.3679C31.5407 41.4105 30.9419 41.5038 30.2991 41.5994C30.5194 41.2888 30.7 40.9192 30.6433 40.5877C30.6052 40.363 30.4679 40.1853 30.2364 40.0592C30.5507 38.7833 32.1753 31.808 30.6396 29.7907C30.3641 29.4294 30.0027 29.2382 29.5637 29.2241C29.4801 29.2076 29.2255 29.1822 28.906 29.4152C28.0519 30.0386 27.0164 32.2679 26.9186 39.338L26.2616 39.4724L26.2273 39.5463C26.2079 39.5888 25.8226 40.4332 26.1287 40.9088L25.9346 41.0984C25.5621 41.4627 25.2194 41.7972 24.9021 42.107C24.7535 42.1167 24.6333 42.1242 24.5519 42.1294C24.5497 41.7688 24.5109 41.4105 24.4676 41.0327C24.4228 40.64 24.3758 40.2339 24.3758 39.8195C24.3787 39.0259 24.3534 38.0576 24.1518 37.311L24.1533 37.308ZM16.3239 46.3484C16.4777 46.3013 16.6524 46.2476 16.7987 46.1587C17.0369 46.0139 18.0701 46.0341 18.71 46.0818C18.7398 46.0841 18.7674 46.0893 18.7951 46.099C19.0765 46.1908 20.1001 46.5022 20.5772 46.308C21.4111 45.9684 21.9516 45.4398 26.1616 41.3269L26.3699 41.123C26.3699 41.123 26.3721 41.1245 26.3736 41.1253C26.7312 41.3045 27.8108 41.7031 28.6081 41.9906C25.2142 45.4876 22.3279 46.865 21.1722 47.3152C20.8422 47.4436 20.4338 47.5362 19.9172 47.6534C19.7104 47.7004 19.4864 47.7512 19.2423 47.8102C18.3762 48.0185 15.4459 48.1588 14.6657 47.7228C14.5956 47.6833 14.5418 47.6482 14.5022 47.6183C14.4171 47.5548 14.4373 47.4219 14.5358 47.3824C14.5366 47.3824 14.5381 47.3816 14.5388 47.3809C14.5746 47.3667 14.6135 47.366 14.6501 47.3772C14.9464 47.4697 15.8207 47.7094 16.459 47.5414L16.618 47.4996C17.8379 47.1823 18.2687 47.0225 18.259 46.7552C18.2508 46.5328 17.9477 46.4768 17.8021 46.4499C17.4139 46.3775 16.9473 46.4462 16.5725 46.5014C16.353 46.5335 15.9902 46.594 15.9655 46.5447C15.9573 46.5268 15.9603 46.5171 15.9655 46.5066C15.9946 46.4484 16.1843 46.3902 16.3224 46.3484H16.3239ZM31.9491 51.2594C31.3555 53.4939 27.0888 53.5648 22.9625 53.6328C17.9649 53.7171 12.5537 53.0915 11.5204 52.9653C11.3584 52.9451 11.2061 52.8921 11.0657 52.807C10.6342 52.5472 9.62258 51.8298 9.54867 50.7793C9.48819 49.926 10.0459 49.0166 11.2038 48.0752C12.0296 47.404 13.5608 47.0218 15.7796 46.8157C15.9416 46.9202 16.2395 46.8777 16.6218 46.8217C16.9913 46.7672 17.4102 46.706 17.7454 46.7679C17.7812 46.7747 17.8111 46.7814 17.8365 46.7874C17.552 46.9232 16.8629 47.1024 16.5382 47.1868L16.3784 47.2286C15.7639 47.3891 14.9308 47.0949 14.6336 47.0696C14.4179 47.0516 14.1573 47.1927 14.1207 47.4511C14.0797 47.7422 14.388 47.9363 14.5097 48.0043C14.942 48.2462 15.8767 48.3328 16.8278 48.3328C17.832 48.3328 18.854 48.2365 19.3199 48.1237C19.5618 48.0655 19.785 48.0147 19.9903 47.9677C20.5204 47.8475 20.9385 47.7519 21.2909 47.6153C21.8172 47.4107 22.5205 47.0912 23.3589 46.6082C23.5157 46.6089 23.6695 46.6097 23.8293 46.6112C24.1981 46.638 24.5654 46.6866 24.9297 46.7552C25.2993 46.8232 25.6636 46.9135 26.022 47.027C26.3811 47.1382 26.7282 47.2853 27.0582 47.466C27.3927 47.6444 27.6913 47.8818 27.9399 48.1678C27.7085 47.8624 27.424 47.6011 27.1008 47.3966C26.7775 47.1905 26.4348 47.0166 26.0772 46.8784C25.7203 46.7358 25.3545 46.6149 24.9827 46.5178C24.6856 46.4402 24.4609 46.3499 24.0614 46.32C23.9905 46.3148 23.9987 46.2334 24.0532 46.1879C24.531 45.7944 25.0589 45.5226 25.6091 45.1053C25.6875 45.1053 25.7659 45.1083 25.845 45.1083C27.8727 45.1083 29.8982 44.897 31.8841 44.4782L31.9341 44.4677C31.9349 44.5237 31.9356 44.5775 31.9364 44.6297C31.9409 44.9545 31.9446 45.2083 31.9483 45.3293L31.9431 45.4614L31.9528 45.4681C31.9603 45.6981 31.9528 45.8638 31.9446 46.0214C31.9341 46.22 31.9244 46.4081 31.9461 46.7045C31.958 46.868 31.9685 47.0263 31.9789 47.1823C31.9789 48.2477 31.9983 49.2772 32.0603 50.197C32.0439 50.6524 32.008 51.01 31.9513 51.2579L31.9491 51.2594ZM32.2238 42.1153L32.2253 42.1026V42.0906C32.1208 40.5131 32.0917 39.5918 32.0708 38.9199C32.0625 38.6578 32.0551 38.4271 32.0454 38.2039C32.0424 38.1367 32.0357 38.0083 32.026 37.8306C31.7796 33.2743 31.8147 30.3051 32.129 29.0053V29.0031C32.1357 28.9747 32.1492 28.9471 32.1686 28.9217C32.356 28.6753 33.004 27.8974 33.7819 27.7712C34.0163 27.8123 34.2836 27.8466 34.5711 27.8832C34.8749 27.922 35.1833 27.9616 35.4565 28.0101C36.3143 28.3013 37.2453 28.847 37.8717 29.6937C38.3174 30.2887 38.6825 30.9337 38.9654 31.6161C38.9244 31.6258 38.8848 31.64 38.8505 31.6609L38.3898 31.9334C38.1427 31.045 37.7485 30.3148 37.2072 29.7489C36.813 29.336 36.3882 29.0635 35.9903 28.8814C35.8858 28.8149 35.7768 28.7552 35.6626 28.7052C35.2519 28.526 34.801 28.4655 34.356 28.5267C34.1253 28.532 33.9059 28.5775 33.7005 28.6552C33.3317 28.7873 33.0249 29.0195 32.7822 29.351C32.7748 29.3607 32.7673 29.3696 32.7599 29.3793C32.7591 29.3808 32.7576 29.3816 32.7569 29.3831C32.7554 29.3853 32.7539 29.3876 32.7524 29.3898C32.5247 29.6996 32.3552 30.0819 32.2649 30.5201C32.2305 30.6903 32.2044 30.871 32.1842 31.0562C31.9774 32.6247 32.3089 34.5785 32.6038 35.8783C33.0518 38.0561 33.6737 39.9449 33.7692 40.2294C33.7438 41.3089 35.3729 42.7558 37.2953 44.084C35.8671 44.0952 34.1141 43.9615 32.4328 43.4457C32.2932 43.262 32.1566 42.8865 32.2231 42.1153H32.2238ZM55.2483 51.7827C54.9617 52.3008 54.351 52.6786 53.3834 52.9384C53.0347 52.975 45.8041 53.7164 39.5761 53.6365C37.688 53.6133 33.5542 53.1505 32.8293 51.8641C32.5844 51.4296 32.45 51.1907 32.3813 50.1843C32.2903 48.8434 32.2917 47.2629 32.3097 45.672C32.839 45.9176 34.1156 46.3603 36.4539 46.3603C37.3177 46.3603 38.3293 46.2983 39.4985 46.1445C39.3746 46.1953 39.2521 46.2491 39.1327 46.308C38.8669 46.4432 38.616 46.6059 38.3846 46.7941C38.1584 46.9852 37.9605 47.2069 37.7978 47.4541C37.9799 47.2256 38.1935 47.0255 38.4331 46.8583C38.6735 46.697 38.9303 46.5626 39.1991 46.4559C39.4686 46.3521 39.7456 46.27 40.0278 46.2102C40.2077 46.1707 40.3899 46.1446 40.5721 46.1236C40.9162 46.32 41.241 46.5007 41.5419 46.6657C41.515 46.706 41.506 46.7463 41.5053 46.7762C41.5016 46.8881 41.4926 47.1494 43.4076 47.7654C43.4076 47.7654 43.4591 47.7825 43.477 47.7803C43.4949 47.7781 43.539 47.7504 43.539 47.7504C43.5666 47.734 43.8623 47.5563 44.1803 47.2368C44.4827 47.3249 45.6914 47.6713 46.5171 47.8221C46.8187 47.8774 47.5302 47.9341 48.3417 47.9341C49.5893 47.9341 51.0705 47.7975 51.658 47.3085C52.5159 47.5257 53.252 47.7437 53.8418 47.9475C53.8515 47.952 54.8138 48.4127 55.1991 49.6647C55.4604 50.515 55.5686 51.2004 55.2476 51.7797L55.2483 51.7827ZM34.4762 19.6253C34.2694 19.5797 34.1074 19.7888 34.1 19.7985C34.0932 19.8082 33.9297 20.0426 34.0753 20.5518C34.2015 20.993 34.3471 21.2252 34.5195 21.2603C34.5337 21.2633 34.5494 21.2648 34.5658 21.2648C34.6308 21.2648 34.7144 21.2371 34.7988 21.1334C34.8794 21.0348 34.7868 20.9363 34.7196 20.8638C34.6718 20.8123 34.6173 20.7541 34.6069 20.6996C34.5942 20.6324 34.7577 20.5212 34.8749 20.4697L34.9302 20.4458L34.9175 20.3868C34.8182 19.9187 34.6741 19.6693 34.4762 19.6253ZM34.4621 20.7265C34.48 20.8235 34.5531 20.9019 34.6114 20.9646C34.6375 20.993 34.6778 21.0363 34.6838 21.0408C34.6509 21.0811 34.6017 21.1259 34.5487 21.1169C34.4979 21.1065 34.3635 21.0266 34.2164 20.5122C34.0925 20.0792 34.2179 19.8873 34.2179 19.8873C34.2194 19.8858 34.3284 19.744 34.4449 19.7701C34.5173 19.7865 34.6524 19.8866 34.7614 20.3621C34.6472 20.4204 34.4307 20.5548 34.4628 20.728L34.4621 20.7265ZM26.5005 20.6414C26.5005 20.6414 26.3206 20.8683 26.1832 20.9236C25.9757 21.0102 25.8562 20.9684 25.7009 20.946C25.5583 20.9206 25.4269 20.8683 25.2948 20.8101C25.1641 20.7548 24.9962 20.6018 24.9962 20.6018C25.1268 20.6414 25.2052 20.6488 25.3403 20.666C25.471 20.6847 25.5494 20.6862 25.689 20.6869C25.7644 20.6847 25.8435 20.6862 25.9159 20.675C25.9159 20.675 26.225 20.6264 26.4998 20.6414H26.5005ZM26.3527 20.0127C26.5095 20.0687 26.6588 20.1434 26.7984 20.2345C26.7984 20.2345 26.4744 20.1867 26.3154 20.1703C26.2362 20.1598 26.1578 20.1538 26.078 20.1494C25.9981 20.1449 25.9204 20.1397 25.842 20.1382C25.6838 20.1501 25.5255 20.1501 25.3672 20.1382C25.2015 20.1143 25.0402 20.0643 24.8894 19.9911C24.8894 19.9911 25.0462 19.8769 25.132 19.8545C25.2127 19.8321 25.2963 19.8179 25.3799 19.8119C25.5464 19.8089 25.7129 19.8328 25.8719 19.8813C26.0354 19.9127 26.1959 19.9568 26.3527 20.0127ZM38.946 18.9287C38.946 18.9287 38.7795 19.2079 38.6444 19.2863C38.5145 19.3662 38.3682 19.4177 38.2166 19.4356C38.0643 19.4573 37.909 19.4431 37.7627 19.3953C37.6119 19.352 37.4767 19.2647 37.3752 19.1445C37.3752 19.1445 37.647 19.1788 37.7814 19.1908C37.9157 19.202 38.0501 19.1975 38.1838 19.1781C38.3174 19.1624 38.4495 19.1333 38.5772 19.0907C38.7049 19.0482 38.8288 18.9937 38.946 18.928V18.9287ZM39.0886 18.2463C39.114 18.2486 39.1088 18.2695 39.1043 18.2725C39.0408 18.3105 38.7653 18.4502 38.6175 18.4979C38.469 18.5465 38.3181 18.586 38.1643 18.6174C38.0165 18.6495 37.8702 18.6726 37.7186 18.6943C37.5671 18.7159 37.4282 18.7361 37.2281 18.7607C37.2281 18.7607 37.211 18.763 37.2042 18.751C37.196 18.7361 37.2042 18.7279 37.2042 18.7279C37.3282 18.6107 37.4596 18.5256 37.6156 18.4569C37.7716 18.3897 37.9329 18.3382 38.0986 18.3016C38.2644 18.2695 38.4324 18.2493 38.6011 18.2404C38.7638 18.2292 38.9266 18.2329 39.0886 18.2471V18.2463ZM29.9139 40.0159C29.5249 40.0532 29.133 40.036 28.7485 39.9658C28.317 39.8949 27.8907 39.7911 27.4748 39.6553C27.875 39.8427 28.2893 39.9994 28.7134 40.1249C29.1472 40.2593 29.5981 40.3279 30.052 40.3264C30.2133 40.4063 30.3029 40.5094 30.3253 40.6408C30.3947 41.0476 29.8661 41.6621 29.5652 41.9555C29.5496 41.9712 29.5272 41.9756 29.5063 41.9682C28.9866 41.7845 27.0074 41.0812 26.5192 40.8371C26.1668 40.6609 26.4012 39.98 26.4916 39.7538L27.2404 39.6008L27.2419 39.4701C27.3307 32.1297 28.4274 30.1939 29.0725 29.6937C29.3151 29.5048 29.4831 29.5354 29.4995 29.5391L29.5406 29.5451C29.8885 29.5525 30.164 29.6966 30.3835 29.9848C31.846 31.9058 30.1416 39.0931 29.9146 40.0151L29.9139 40.0159ZM27.8339 40.6139C28.0071 40.5512 28.1908 40.5221 28.3752 40.5288C28.5454 40.5333 28.7149 40.5594 28.8791 40.6072C29.0441 40.6542 29.2024 40.7244 29.3487 40.8147C29.51 40.9095 29.6474 41.0394 29.7496 41.1962L29.7362 41.2261C29.5839 41.1626 29.4256 41.1111 29.2666 41.0596C29.1083 41.0081 28.9493 40.9625 28.7888 40.9177C28.6283 40.8729 28.47 40.8237 28.3087 40.7789C28.1482 40.7341 27.9862 40.6908 27.8272 40.646L27.8347 40.6139H27.8339Z" fill="#382200"/>
<path d="M71.4944 8.91437C71.603 9.32661 71.603 9.78247 71.5808 10.4111C71.5594 10.7361 71.5594 10.932 71.5594 11.0406C71.5594 11.1706 71.473 11.2356 71.3208 11.2578C71.2772 11.3014 71.2122 11.3228 71.1258 11.3228C70.8435 11.3228 70.2577 11.3442 69.4332 11.3664C67.7628 11.4537 67.1983 11.4537 66.4389 11.4537V12.2345C66.4389 12.7554 66.3952 13.384 66.3739 13.9049C66.3516 14.1649 66.3516 14.3385 66.3516 14.4258C66.308 14.708 66.308 15.1202 66.2866 15.6625C66.7425 15.6625 67.4361 15.6411 68.3042 15.6189C69.1723 15.5975 69.8018 15.5752 70.2132 15.5752C70.3218 15.488 70.6904 15.4666 70.6477 15.7489C70.6263 15.9439 70.6263 16.5947 70.6263 17.7015C70.6263 17.8101 70.5613 17.8965 70.409 17.9187C70.3654 17.9837 70.279 18.0051 70.214 18.0051H66.1789C66.1139 20.5221 66.1352 22.5184 66.2875 23.9937C66.3089 24.1451 66.2439 24.2109 66.0489 24.2323C66.0275 24.3187 65.9402 24.3623 65.8102 24.3623C64.6163 24.3623 63.9013 24.3623 63.6618 24.3409C63.6404 24.3623 63.5968 24.3623 63.5532 24.3623C63.3796 24.3623 63.2932 24.2973 63.2932 24.1451C63.2932 23.5156 63.2718 22.3225 63.1845 20.5871C63.1195 18.8732 63.1195 17.5492 63.1409 16.6161L63.1845 15.748C63.2495 14.8149 63.2932 13.6432 63.2932 12.6673C63.3368 11.7342 63.3582 10.9747 63.3368 10.3889C63.2932 9.69438 63.2495 9.26075 63.1632 9.10851C63.1418 9.08713 63.1418 9.04351 63.1418 9.02213C63.0332 8.86989 63.2504 8.58765 63.5326 8.76213C63.554 8.78351 63.7063 8.80575 63.8799 8.82713L64.7258 8.89213C65.8975 8.91351 67.5028 8.89213 69.4118 8.80489L71.1258 8.76127C71.1548 8.74701 71.1765 8.73989 71.1908 8.73989C71.3644 8.71851 71.473 8.76127 71.4944 8.91351V8.91437Z" fill="#382200"/>
<path d="M80.4814 8.9202C80.8962 8.9202 80.9158 9.28883 80.9158 9.28883C80.9595 9.31021 81.0245 9.54883 81.0458 9.57106C81.0895 9.59245 83.0857 17.295 83.0857 17.3173C83.0857 17.3609 83.2807 18.2068 83.3893 18.7926L84.6046 23.5223C84.7569 24.0432 84.7877 24.1518 84.7227 24.2382C84.7227 24.2382 84.656 24.3724 84.6354 24.3844C84.6286 24.3887 84.5747 24.3895 84.5747 24.3895H83.6724L81.7189 24.369C81.6685 24.369 81.6249 24.334 81.612 24.2843L81.0253 21.8947L80.9167 21.4825L80.8953 21.3738H80.6567L77.8796 21.3302C77.8796 21.3516 77.8582 21.4602 77.8146 21.5902L77.3245 24.1706C77.3186 24.1997 77.3211 24.2305 77.3297 24.2587C77.3408 24.2946 77.3425 24.3476 77.3049 24.3724C77.2715 24.3947 73.7914 24.4178 73.7589 24.3878C73.723 24.3553 73.7606 24.3511 73.7546 24.2689C73.7529 24.2459 73.7392 24.2253 73.7469 24.2031C73.8701 23.8541 74.9315 20.9924 74.9717 20.788C74.9931 20.7444 75.0153 20.6366 75.0589 20.528C75.1889 19.9857 75.2539 19.8121 75.3625 19.3563L75.6662 18.3145L76.4693 15.8411L77.7924 11.3064C77.966 10.4605 78.2269 9.46245 78.2696 9.35383C78.2696 9.35383 78.2251 9.23323 78.2508 9.10836C78.2816 8.95869 78.4296 8.89454 78.4911 8.9031C78.4911 8.9031 78.4911 8.91764 80.4831 8.92106L80.4814 8.9202ZM79.3319 14.6266C79.3319 14.6702 79.3105 14.7352 79.2883 14.7788C79.2883 14.8224 79.2446 14.9952 79.2019 15.1697L78.5724 17.7731C78.551 17.8381 78.5288 17.9904 78.5074 18.099C78.486 18.2076 78.4424 18.424 78.3988 18.5762C78.3774 18.7499 78.3552 18.9021 78.3338 18.9449V19.0099H78.7024C78.7024 19.0099 78.9196 19.0099 79.1583 18.9885C79.4183 18.9885 79.6355 18.9885 79.6577 18.9671C79.6791 18.9671 79.8314 18.9671 80.005 18.9457C80.1786 18.9457 80.2872 18.9457 80.3308 18.9243C80.3958 18.8807 80.3522 18.7943 80.3095 18.5335C80.2445 18.1426 79.615 15.0183 79.5286 14.7583L79.4636 14.4983C79.42 14.3461 79.3986 14.3033 79.3986 14.3897L79.3336 14.6283L79.3319 14.6266Z" fill="#382200"/>
<path d="M95.8604 9.57537C96.7935 10.1826 97.3793 11.8316 97.4657 13.5028C97.5529 15.2604 97.0748 16.8221 95.839 17.3216C95.709 17.3866 95.579 17.4302 95.4481 17.473C95.4917 17.5816 95.5781 17.7116 95.6431 17.8416C95.6867 17.9066 95.8167 18.1238 96.0117 18.4711C96.229 18.8183 96.3804 19.0783 96.4676 19.2519C97.4435 21.1609 98.0516 22.7013 98.2902 23.8952C98.3338 24.0466 98.2466 24.1339 98.0952 24.1552C98.0516 24.1775 98.0302 24.1775 98.008 24.1989C97.4435 24.3075 96.7062 24.3725 95.8381 24.3725C95.6431 24.3725 95.5781 24.3075 95.5781 24.1552C95.5131 24.1339 95.4695 24.1116 95.4481 24.0466C95.1659 23.6121 94.5586 22.354 93.5819 20.2714L92.5624 17.9716L92.4974 17.8202C92.2152 17.8202 91.8893 17.8202 91.4993 17.7988C91.4993 18.4711 91.4129 20.0987 91.3907 20.6195C91.3685 20.8795 91.3907 21.4226 91.4121 22.2471C91.4335 22.9416 91.4121 23.5052 91.3685 23.9175V23.9389C91.3685 24.0902 91.2821 24.1552 91.0862 24.1552H90.414C90.089 24.1775 89.8717 24.1775 89.7631 24.1775C89.3722 24.1775 89.025 24.1775 88.7436 24.1552C88.7222 24.1775 88.6786 24.1775 88.6572 24.1989C88.5486 24.2202 88.4836 24.1989 88.3972 24.1339C88.2022 24.1125 88.1372 24.0475 88.1586 23.8952C88.1586 23.8302 88.18 23.7866 88.245 23.7652C88.2014 23.5266 88.18 23.2444 88.18 22.9194C88.18 22.8757 88.18 22.7244 88.2014 22.4635V21.8563C88.115 19.3178 88.115 16.3885 88.245 13.0256C88.2664 12.7869 88.245 12.1147 88.1586 11.008C88.115 10.1621 88.1372 9.46761 88.2022 8.96813C88.0072 8.85951 88.1372 8.49089 88.4845 8.59951C88.7881 8.68674 89.0917 8.70812 89.6126 8.64312C89.8512 8.62174 90.0684 8.59951 90.2198 8.59951C90.8929 8.57812 91.5438 8.57812 92.151 8.57812C93.41 8.57812 94.8186 8.90313 95.8604 9.57537ZM91.7166 11.203C91.4993 11.2243 91.3693 11.2243 91.3257 11.2243C91.3043 11.463 91.3043 11.7452 91.3257 12.0924L91.4343 12.8955C91.4993 13.2864 91.5207 13.5678 91.5207 13.7636C91.5421 14.3059 91.5421 14.9131 91.5421 15.5426C92.4102 15.5212 93.0824 15.434 93.4947 15.2826C94.2755 15.0226 94.6442 14.4581 94.4278 13.265C94.4064 13.2 94.4064 13.0478 94.3842 12.8314C94.3628 12.4628 94.3192 11.9855 94.0155 11.7247C93.5597 11.3997 92.9524 11.2252 92.1493 11.2038L91.7166 11.203Z" fill="#382200"/>
<path d="M105.388 10.4404C105.583 10.7654 105.713 11.0263 105.778 11.2213C106.668 13.1089 107.405 14.8879 108.013 16.5154C109.38 13.2825 110.183 11.4813 110.357 11.1127C110.443 10.9604 110.552 10.6132 110.704 10.0932C110.834 9.61595 111.008 9.24732 111.138 9.0087C111.16 8.9437 111.203 8.90008 111.29 8.8787C111.311 8.8787 111.333 8.8787 111.377 8.85732H111.507C111.637 8.83594 111.898 8.83594 112.288 8.83594C112.744 8.85732 113.199 8.85732 113.59 8.85732C113.739 8.76238 114.088 9.02666 114.067 9.29179C114.038 9.64417 114.023 10.3549 114.088 11.2008C114.197 12.6975 114.172 13.522 114.172 13.6742C114.172 14.8237 114.197 16.5163 114.088 18.7947C113.98 21.0732 113.937 22.7649 113.937 23.9153V23.9367C113.958 23.958 113.958 24.0017 113.958 24.023C113.958 24.1753 113.893 24.2403 113.698 24.2403H112.939C112.158 24.2617 111.637 24.2617 111.138 24.1967C110.791 24.1317 110.9 23.8494 111.073 23.7844C111.073 23.2422 111.073 22.5041 111.117 21.5282V18.8811C111.117 18.0789 111.117 17.3408 111.073 16.6249V16.4513C110.9 16.7549 110.726 17.0158 110.596 17.2544C110.358 17.7103 110.075 18.3611 109.707 19.207C109.207 20.3137 108.715 21.346 108.6 21.5504C108.476 21.7711 108.144 21.8541 108.058 21.8327C108.058 21.8327 107.622 21.8224 107.407 21.4418C107.147 21.0296 106.257 19.6628 105.714 17.8616C105.367 16.7122 105.042 15.9304 104.76 15.4746C104.716 15.7132 104.716 16.0168 104.695 16.3427C104.673 17.818 104.695 21.3546 104.89 23.373C104.911 23.3944 104.933 23.438 104.933 23.4817C104.956 23.7203 104.956 23.9161 104.956 24.1111C104.956 24.2634 104.891 24.3284 104.696 24.3284H104.674C104.631 24.3498 104.566 24.372 104.522 24.372C104.218 24.372 103.806 24.372 103.22 24.3934C102.634 24.4148 102.447 24.437 102.144 24.437C101.798 24.437 101.745 24.0247 101.897 24.0034C101.897 23.3089 101.897 22.3108 101.919 21.0304C101.94 19.7501 101.94 18.5784 101.94 17.5153C101.94 16.4522 101.919 15.4754 101.896 14.5423C101.874 14.2601 101.853 13.8042 101.766 13.1534C101.68 12.5239 101.658 12.0689 101.636 11.808C101.528 10.5927 101.571 9.6818 101.788 9.05232L101.853 9.0087C101.874 8.90008 101.983 8.83508 102.135 8.85646C102.374 8.87785 102.721 8.90008 103.177 8.92146C103.784 8.94285 104.11 8.94285 104.218 8.96508C104.197 8.92147 104.808 8.84449 104.863 9.12245C104.967 9.63818 105.021 9.78957 105.39 10.4404H105.388Z" fill="#382200"/>
<path d="M121.793 8.98433L123.875 8.89794C124.787 8.87571 125.394 8.85432 125.677 8.85432H125.72C125.915 8.85432 126.003 8.91932 126.003 9.07156C126.003 9.09294 126.003 9.13656 125.959 9.15795C126.024 9.37519 126.045 9.93881 126.045 10.8505C126.045 10.8942 126.045 10.9369 126.024 10.9592C126.045 11.0028 126.068 11.0455 126.068 11.1114C126.046 11.2628 125.959 11.3278 125.785 11.3064C125.178 11.2628 124.115 11.2628 122.552 11.3278C121.793 11.3492 121.228 11.3714 120.882 11.3714C120.838 12.4781 120.838 13.8662 120.861 15.5374C121.598 15.6024 122.336 15.5597 123.66 15.4938C124.332 15.4724 124.788 15.4502 125.049 15.4502C125.114 15.4502 125.2 15.4716 125.244 15.5366H125.309C125.483 15.5588 125.548 15.6452 125.525 15.7966C125.46 15.9702 125.439 16.1438 125.439 16.3388C125.439 16.5338 125.439 16.7947 125.46 17.0769V17.6842C125.46 17.8364 125.395 17.9014 125.2 17.9014C125.179 17.9014 125.114 17.9014 125.092 17.88H125.07C124.94 17.88 123.964 17.9237 122.141 18.0314C121.62 18.0528 121.208 18.075 120.883 18.075C120.904 19.6154 120.883 20.8743 120.861 21.8938C121.187 21.8725 121.447 21.8502 121.621 21.8502H125.873C126.047 21.8502 126.133 21.9152 126.133 22.0675C126.133 22.1538 126.068 22.2197 126.003 22.2625C126.112 22.4788 126.156 22.7611 126.156 23.1083C126.156 23.2169 126.156 23.3906 126.134 23.6069C126.112 23.8242 126.112 23.9756 126.112 24.0628C126.112 24.1278 126.068 24.1928 126.003 24.2364V24.3014C126.003 24.4537 125.917 24.5187 125.721 24.5187C124.853 24.5187 123.595 24.5187 121.859 24.5401C120.145 24.5614 118.843 24.5837 117.996 24.5837C117.823 24.5837 117.736 24.5187 117.736 24.3664C117.736 24.3014 117.758 24.2364 117.845 24.1928C117.845 23.7806 117.866 22.023 117.931 18.8764C117.975 15.7307 117.975 13.9731 117.888 13.5609C117.866 13.1273 117.888 12.3678 117.931 11.3047C117.953 10.3716 117.931 9.63434 117.888 9.09124V9.06986C117.866 9.00485 117.866 8.96123 117.888 8.89623C117.974 8.76623 118.083 8.72261 118.235 8.78761C118.734 8.96123 120.123 9.00485 121.794 8.98262L121.793 8.98433Z" fill="#382200"/>
<path d="M137.477 9.57098C138.41 10.1782 138.996 11.8272 139.083 13.4984C139.17 15.256 138.692 16.8177 137.456 17.3172C137.413 17.3386 137.37 17.3574 137.329 17.3745C137.188 17.4318 137.128 17.5969 137.203 17.7286C137.221 17.7611 137.239 17.7944 137.256 17.8269C137.259 17.8338 137.263 17.8398 137.267 17.8466C137.316 17.921 137.442 18.134 137.63 18.4667C137.847 18.8139 137.998 19.0739 138.085 19.2476C139.061 21.1565 139.669 22.6969 139.908 23.8908C139.952 24.0422 139.864 24.1295 139.713 24.1508C139.669 24.1731 139.648 24.1731 139.626 24.1945C139.061 24.3031 138.324 24.3681 137.456 24.3681C137.261 24.3681 137.196 24.3031 137.196 24.1508C137.131 24.1295 137.087 24.1072 137.066 24.0422C136.784 23.6077 136.176 22.3496 135.2 20.267L134.18 17.9672C134.141 17.8757 134.051 17.8158 133.951 17.815C133.777 17.815 133.586 17.8124 133.375 17.8056C133.235 17.8004 133.116 17.9099 133.114 18.0502C133.098 18.8139 133.027 20.1516 133.009 20.6143C132.986 20.8743 133.009 21.4174 133.03 22.2419C133.051 22.9364 133.03 23.5 132.986 23.9122V23.9336C132.986 24.085 132.9 24.15 132.704 24.15H132.04C132.034 24.15 132.028 24.15 132.023 24.15C131.703 24.1714 131.488 24.1714 131.381 24.1714C130.99 24.1714 130.643 24.1714 130.361 24.1491C130.34 24.1714 130.296 24.1714 130.275 24.1928C130.166 24.2141 130.101 24.1928 130.015 24.1278C129.82 24.1064 129.755 24.0414 129.776 23.8891C129.776 23.8549 129.782 23.8267 129.797 23.8045C129.831 23.754 129.852 23.6958 129.843 23.6351C129.813 23.4239 129.798 23.1827 129.798 22.9115C129.798 22.8688 129.798 22.72 129.818 22.466C129.818 22.4591 129.818 22.4523 129.818 22.4463V21.8484C129.732 19.31 129.732 16.3807 129.862 13.0177C129.883 12.7791 129.862 12.1069 129.776 11.0001C129.735 10.2193 129.751 9.56756 129.805 9.0792C129.811 9.02532 129.766 8.97657 129.775 8.92354C129.801 8.75762 129.96 8.57031 130.101 8.59169C130.413 8.63959 130.708 8.70032 131.229 8.63531C131.467 8.61393 131.685 8.59169 131.836 8.59169C132.509 8.57031 133.16 8.57031 133.767 8.57031C135.026 8.57031 136.436 8.89617 137.477 9.56842V9.57098ZM133.334 11.1986C133.116 11.22 132.986 11.22 132.943 11.22C132.921 11.4586 132.921 11.7408 132.943 12.0881L133.051 12.8912C133.116 13.282 133.138 13.5634 133.138 13.7593C133.159 14.3015 133.159 14.9088 133.159 15.5382C134.027 15.5169 134.699 15.4296 135.112 15.2782C135.893 15.0182 136.261 14.4537 136.045 13.2606C136.023 13.1956 136.023 13.0434 136.001 12.827C135.98 12.4584 135.936 11.9811 135.633 11.7203C135.177 11.3953 134.569 11.2208 133.766 11.1994H133.333L133.334 11.1986Z" fill="#382200"/>
<path d="M152.754 12.1793C152.798 12.2443 152.798 12.7215 152.798 12.7215C152.819 12.8738 152.859 12.9969 152.842 13.3947C152.863 13.416 152.863 13.4596 152.863 13.481C152.863 13.6333 152.798 13.6983 152.603 13.6983H151.996C151.714 13.7197 151.496 13.7197 151.301 13.7197C150.954 13.7197 150.412 13.6983 150.021 13.6333H149.935C149.805 13.6333 149.631 13.5247 149.675 13.351C149.696 13.3288 149.696 13.3074 149.696 13.286C149.782 12.0929 149.001 11.3984 148.177 11.3984C147.353 11.3984 146.68 12.1143 146.919 13.6547C147.028 14.3705 147.548 14.7614 148.503 15.0864C148.633 15.13 148.894 15.2164 149.327 15.325C150.174 15.5636 150.716 15.7586 151.15 16.0409C152.929 17.2562 153.515 20.1419 152.843 22.0509C152.43 23.1576 151.346 23.9821 150.065 24.3721C148.785 24.763 147.288 24.7193 146.052 24.1985C144.685 23.5904 143.361 21.5728 143.361 20.2933C143.166 20.2283 143.057 19.9247 143.405 19.8588C144.576 19.6852 145.509 19.6416 146.182 19.7502C146.203 19.6416 146.703 19.6416 146.703 19.7938C146.703 21.1605 147.18 21.855 148.634 21.7028C149.675 21.5942 149.827 21.2255 149.74 20.1838C149.719 19.8152 149.697 18.5348 148.742 17.949C148.504 17.7976 147.918 17.5154 147.028 17.1459C146.204 16.8209 145.77 16.6036 145.141 16.1478C144.511 15.7133 144.078 15.106 143.904 14.3466C143.579 13.0226 143.795 11.8081 144.511 10.6578C145.271 9.50828 146.486 8.72656 148.156 8.72656C150.283 8.72656 152.323 9.48605 152.756 12.1759L152.754 12.1793Z" fill="#382200"/>
<path d="M102.059 29.6148H102.08C102.254 29.5926 102.34 29.6585 102.363 29.8098C102.471 30.6779 102.536 31.3938 102.558 32.4133C102.558 32.9119 102.558 33.3242 102.579 33.6064C102.579 34.1923 102.535 35.8626 102.535 36.1885C102.492 36.5135 102.384 38.6619 102.384 38.7705C102.384 39.1178 102.363 40.3545 102.34 40.8754C102.319 41.4176 102.188 42.3071 101.884 42.9366C101.494 43.9133 100.214 45.0414 98.8688 45.215C98.1743 45.3237 97.5448 45.28 96.9376 45.1064C95.6795 44.8242 94.5077 44.1083 94.0082 43.2411C93.921 43.1324 93.8782 42.8724 93.8132 42.438C93.7696 42.0693 93.7046 41.5699 93.661 40.8976C93.4446 38.4455 93.2274 34.6276 93.2051 32.1105C93.1838 30.8952 93.2051 30.1143 93.2265 29.7671V29.6585C93.2701 29.5712 93.3565 29.4412 93.5738 29.4635L93.6824 29.5071C94.1169 29.5721 94.8764 29.5935 95.9822 29.5935C96.1558 29.5935 96.2208 29.6585 96.2422 29.7885C96.3936 29.8098 96.4586 29.8971 96.4586 30.0057C96.4586 35.2998 96.5236 39.1186 96.6108 41.4621C96.6545 42.048 97.0231 42.4816 97.544 42.5902C98.1084 42.7424 98.5857 42.5466 98.9765 42.0257C99.0415 41.9607 99.0852 41.7657 99.1279 41.4835C99.1929 41.2012 99.2365 40.8326 99.2579 40.3554C99.4093 38.62 99.4743 33.8681 99.2579 31.7847L99.1929 31.1774C99.0843 30.6352 99.0629 30.4616 99.0843 29.8757C99.0629 29.8543 99.0407 29.8107 99.0407 29.7457C99.0407 29.5935 99.1057 29.5285 99.3007 29.5285C99.5829 29.5285 99.9729 29.5071 100.537 29.4848C101.102 29.4626 101.492 29.4635 101.774 29.4635C101.904 29.4635 102.013 29.5071 102.056 29.6157L102.059 29.6148Z" fill="#382200"/>
<path d="M106.655 29.5085C106.72 29.4871 106.763 29.4871 106.828 29.5085C107.218 29.5949 107.565 29.6171 108.281 29.5949C108.629 29.5735 108.867 29.5735 108.997 29.5735C109.041 29.5735 109.106 29.5735 109.127 29.5949C109.149 29.5735 109.214 29.5513 109.257 29.5513C109.452 29.5299 109.517 29.5949 109.539 29.7463C109.626 30.4621 109.604 31.7425 109.517 33.5865C109.452 35.539 109.387 39.2928 109.387 44.847C109.387 44.9992 109.301 45.0642 109.127 45.0642C109.041 45.0642 108.997 45.0429 108.932 44.9992C108.325 44.9992 107.695 45.0429 107.088 45.1506C106.893 45.1729 106.806 45.1292 106.763 44.977V44.912C106.698 44.8684 106.633 44.8034 106.633 44.717C106.633 43.8925 106.655 42.7422 106.698 41.2454C106.72 39.7487 106.72 38.4034 106.72 37.1666C106.72 35.9299 106.698 34.8018 106.633 33.6951C106.612 33.1956 106.612 32.762 106.633 32.3497C106.698 31.5466 106.612 30.5271 106.286 29.7677C106.242 29.6163 106.286 29.529 106.481 29.4854C106.525 29.464 106.59 29.4854 106.655 29.5068V29.5085Z" fill="#382200"/>
<path d="M121.755 30.6351C122.276 31.351 122.601 32.8263 122.601 33.8467C122.601 33.998 122.514 34.0639 122.319 34.0639H122.254C122.189 34.1075 122.145 34.1289 122.059 34.1289C121.907 34.1289 121.581 34.1503 121.083 34.1939C120.627 34.2375 120.28 34.2375 119.998 34.2153C119.803 34.1939 119.738 34.1289 119.76 33.9767C119.76 33.9553 119.76 33.9117 119.781 33.8903C119.76 33.7817 119.737 33.4994 119.737 33.0872C119.716 32.5013 119.39 32.0677 118.588 31.9591C117.807 31.8504 117.004 32.2413 116.83 32.9136C116.114 35.4084 115.941 38.2727 116.483 40.7898C116.765 42.0915 117.568 42.7646 118.284 42.7424C119 42.721 119.521 42.0693 119.391 40.7898C119.37 40.6375 119.412 40.4417 119.493 40.3707C119.582 40.2937 119.76 40.2903 119.955 40.2903C121.039 40.2903 121.69 40.3117 121.907 40.3339C121.929 40.2475 122.016 40.2039 122.146 40.2039C122.319 40.2039 122.406 40.2689 122.406 40.4203C122.406 43.0238 120.952 45.5194 117.871 45.5194C116.743 45.5194 115.831 45.1722 115.159 44.5C114.726 44.0663 114.335 43.5018 114.096 43.0246C113.966 42.786 113.857 42.5037 113.749 42.1565L113.532 41.3106C113.467 41.0934 113.424 40.7898 113.402 40.3775C113.381 39.9653 113.359 39.683 113.337 39.488C113.294 39.3144 113.294 38.9886 113.337 38.5336V37.6655L113.381 36.776C113.402 36.3201 113.402 36.0601 113.402 36.0165C113.402 35.2356 113.424 34.1725 113.489 33.2822C113.532 32.4141 113.901 31.3732 114.573 30.6565C115.311 29.8756 116.699 29.3761 118.153 29.3111C119.629 29.2248 120.996 29.6798 121.755 30.6351Z" fill="#382200"/>
<path d="M130.241 29.7031L132.324 29.6167C133.236 29.5945 133.843 29.5731 134.125 29.5731H134.169C134.364 29.5731 134.451 29.6381 134.451 29.7903C134.451 29.8117 134.451 29.8553 134.407 29.8767C134.472 30.0939 134.494 30.6576 134.494 31.5693C134.494 31.6129 134.494 31.6557 134.472 31.6779C134.494 31.7215 134.516 31.7643 134.516 31.8293C134.495 31.9815 134.407 32.0465 134.234 32.0243C133.626 31.9807 132.563 31.9807 131.001 32.0457C130.241 32.067 129.677 32.0893 129.33 32.0893C129.287 33.196 129.287 34.5841 129.309 36.2553C130.046 36.3203 130.784 36.2776 132.108 36.2117C132.781 36.1903 133.236 36.1681 133.497 36.1681C133.562 36.1681 133.649 36.1895 133.692 36.2545H133.757C133.931 36.2767 133.996 36.3631 133.974 36.5145C133.909 36.6881 133.887 36.8617 133.887 37.0567C133.887 37.2517 133.887 37.5126 133.909 37.7948V38.4021C133.909 38.5543 133.844 38.6193 133.649 38.6193C133.627 38.6193 133.562 38.6193 133.54 38.5979H133.519C133.389 38.5979 132.412 38.6415 130.589 38.7493C130.068 38.7715 129.656 38.7929 129.331 38.7929C129.353 40.3333 129.331 41.5922 129.31 42.6117C129.635 42.5903 129.896 42.5681 130.069 42.5681H134.322C134.495 42.5681 134.582 42.6331 134.582 42.7853C134.582 42.8717 134.517 42.9367 134.452 42.9804C134.56 43.1967 134.604 43.479 134.604 43.8262C134.604 43.9348 134.604 44.1085 134.583 44.3257C134.561 44.5421 134.561 44.6943 134.561 44.7816C134.561 44.8466 134.518 44.9116 134.453 44.9552V45.0202C134.453 45.1724 134.366 45.2374 134.17 45.2374C133.302 45.2374 132.044 45.2374 130.308 45.2588C128.594 45.2802 127.292 45.3024 126.446 45.3024C126.272 45.3024 126.186 45.2374 126.186 45.0852C126.186 45.0202 126.207 44.9552 126.294 44.9116C126.294 44.4993 126.316 42.7417 126.381 39.5952C126.424 36.4495 126.424 34.6919 126.337 34.2796C126.316 33.846 126.337 33.0865 126.381 32.0234C126.402 31.0903 126.381 30.3531 126.337 29.81V29.7886C126.316 29.7236 126.316 29.68 126.337 29.615C126.423 29.485 126.532 29.4414 126.684 29.5064C127.184 29.68 128.572 29.7236 130.243 29.7014L130.241 29.7031Z" fill="#382200"/>
<path d="M88.9503 29.587C88.9939 29.5656 89.0589 29.5656 89.0803 29.5656C89.1017 29.5656 89.1676 29.5656 89.1889 29.587H89.2103C89.4053 29.587 89.4703 29.652 89.4703 29.8042C89.4703 29.8906 89.4267 29.9565 89.3403 29.9992C89.3403 32.7549 89.4276 35.6406 89.5576 38.6999C89.6876 39.6766 89.6876 41.3906 89.2317 42.4101C88.6022 43.8641 87.3655 44.7749 85.8474 45.0358C84.372 45.2744 82.7231 44.8836 81.3563 43.8641C81.2691 43.8204 81.2477 43.7555 81.2691 43.6905C81.0305 43.6255 80.9561 43.3509 81.2905 43.2568C81.8738 43.0918 82.245 42.8882 82.9831 42.1937C83.0703 42.1287 83.1105 42.0612 83.167 42.0133C83.297 41.9483 83.5262 42.0851 83.5912 42.1937C84.2241 42.6718 85.3462 42.5752 85.8705 42.0184C86.3084 41.554 86.3469 40.3925 86.3469 39.6766C86.3255 39.3294 86.3682 38.7991 86.3682 38.126C86.3682 37.1476 86.3178 34.7751 86.3033 33.3194C86.2861 31.6405 86.1707 30.7809 86.1707 30.0651C86.1707 29.9787 86.2143 29.9128 86.3007 29.8915C86.2357 29.8265 86.2134 29.7828 86.2357 29.7178C86.2793 29.5656 86.6283 29.5228 86.8019 29.5442C87.1055 29.5878 87.8 29.6092 88.9495 29.5878L88.9503 29.587Z" fill="#382200"/>
<defs>
<radialGradient id="paint0_radial_8375_34053" cx="0" cy="0" r="1" gradientUnits="userSpaceOnUse" gradientTransform="translate(32.0087 22.3632) scale(22.2421)">
<stop offset="0.52" stop-color="#F6E09F" stop-opacity="0.99"/>
<stop offset="0.6" stop-color="#F1CD6A" stop-opacity="0.89"/>
<stop offset="0.66" stop-color="#EEC148" stop-opacity="0.82"/>
<stop offset="0.69" stop-color="#EDBD3C" stop-opacity="0.8"/>
<stop offset="0.72" stop-color="#EDBE40" stop-opacity="0.76"/>
<stop offset="0.77" stop-color="#EEC34D" stop-opacity="0.67"/>
<stop offset="0.84" stop-color="#F0CA61" stop-opacity="0.51"/>
<stop offset="0.91" stop-color="#F3D47E" stop-opacity="0.3"/>
<stop offset="0.99" stop-color="#F6E1A2" stop-opacity="0.02"/>
<stop offset="1" stop-color="#F7E2A5" stop-opacity="0"/>
</radialGradient>
<radialGradient id="paint1_radial_8375_34053" cx="0" cy="0" r="1" gradientUnits="userSpaceOnUse" gradientTransform="translate(31.9203 22.3452) scale(13.1275 13.1275)">
<stop stop-color="#FFD882"/>
<stop offset="0.13" stop-color="#FCD475"/>
<stop offset="0.37" stop-color="#F6C955"/>
<stop offset="0.69" stop-color="#EBB822"/>
<stop offset="0.72" stop-color="#EBB71E"/>
<stop offset="0.92" stop-color="#EBA81E"/>
<stop offset="0.98" stop-color="#EBA41E"/>
<stop offset="0.99" stop-color="#EBA71E"/>
<stop offset="1" stop-color="#EBB71E"/>
</radialGradient>
<radialGradient id="paint2_radial_8375_34053" cx="0" cy="0" r="1" gradientUnits="userSpaceOnUse" gradientTransform="translate(31.782 35.4989) scale(51.1798 21.7786)">
<stop offset="0.08" stop-color="#EDBD3C"/>
<stop offset="0.39" stop-color="#B9C13D"/>
<stop offset="0.63" stop-color="#98C43E"/>
<stop offset="0.76" stop-color="#8CC63F"/>
<stop offset="0.99" stop-color="#7EB13B"/>
</radialGradient>
</defs>
</svg>
