<svg xmlns="http://www.w3.org/2000/svg" fill="none" viewBox="0 0 145 36" height="36" width="145">
<g clip-path="url(#clip0_1_27)">
<path fill="#1D1D1B" d="M17.4535 13.4254L22.1444 0L29.8666 0L29.8666 28.1941H24.7825V19.598C24.7825 14.321 24.8349 9.65854 24.9398 5.61951C24.3632 7.6039 23.6556 9.7639 22.8083 12.1171L17.1302 28.1941H12.7538L7.04079 12.1171C6.04494 9.18439 5.34611 7.05073 4.95301 5.69854C5.05783 9.71122 5.11025 14.3473 5.11025 19.598L5.11025 28.1941H0L0 0L7.72215 0L12.5703 13.7063C12.8848 14.6283 13.6885 17.1746 14.9726 21.3541C15.8112 18.4215 16.6411 15.7873 17.4535 13.4341V13.4254Z"></path>
<path fill="#1D1D1B" d="M44.8389 12.9073L46.4899 7.76195L51.6875 7.76195L43.8431 29.8624C43.0045 32.1893 41.9475 33.7873 40.6896 34.6566C39.4054 35.5522 37.5361 36 35.0989 36C34.2865 36 33.5614 35.9649 32.9325 35.8771V31.9522H34.8281C35.9025 31.9522 36.7324 31.6449 37.3089 31.039C37.8855 30.4332 38.1737 29.6429 38.1737 28.6595C38.1737 27.6761 37.8593 26.3063 37.2303 24.5415L31.3164 7.75317L36.6712 7.75317L38.3222 12.8634C39.4753 16.5073 40.5585 20.3093 41.5544 24.2693C42.3406 21.2839 43.4325 17.4995 44.8214 12.9073H44.8389Z"></path>
<path fill="#1D1D1B" d="M61.1132 28.6771C58.1169 28.6771 55.6884 27.7025 53.8278 25.7444C51.9846 23.8215 51.0674 21.2313 51.0674 17.9825C51.0674 14.7337 51.9846 12.1083 53.8278 10.1766C55.636 8.2537 58.0732 7.28784 61.1132 7.28784C63.7688 7.28784 65.9351 7.99028 67.6124 9.40394C69.2896 10.8176 70.2767 12.723 70.5649 15.1288H65.6032C65.3673 13.9435 64.8519 13.0303 64.0658 12.3981C63.2796 11.7659 62.2925 11.4498 61.1132 11.4498C59.567 11.4498 58.344 12.0117 57.4705 13.1356C56.5882 14.2595 56.1514 15.8752 56.1514 17.9913C56.1514 20.1074 56.5969 21.723 57.4879 22.8469C58.379 23.9708 59.5932 24.5327 61.1132 24.5327C62.3187 24.5327 63.3407 24.1991 64.1706 23.523C65.0005 22.8469 65.5071 21.881 65.6906 20.6166L70.6523 20.6166C70.3902 23.0752 69.3944 25.0332 67.656 26.4995C65.9264 27.9659 63.7425 28.6947 61.1132 28.6947V28.6771Z"></path>
<path fill="#1D1D1B" d="M89.5995 25.7444C87.7039 27.7025 85.2143 28.6771 82.1132 28.6771C79.0121 28.6771 76.5225 27.7025 74.6269 25.7444C72.7051 23.8215 71.7529 21.2313 71.7529 17.9825C71.7529 14.7337 72.7138 12.1435 74.6269 10.2205C76.5225 8.26248 79.0121 7.28784 82.1132 7.28784C85.2143 7.28784 87.7039 8.2537 89.5995 10.1766C91.4951 12.1083 92.4385 14.7074 92.4385 17.9825C92.4385 21.2576 91.4951 23.7952 89.5995 25.7444ZM78.2346 22.8556C79.1693 23.9883 80.4622 24.5591 82.1132 24.5591C83.7642 24.5591 85.057 23.9883 85.9917 22.8381C86.9264 21.6878 87.3894 20.0722 87.3894 17.9825C87.3894 15.8927 86.9264 14.2771 85.9917 13.1269C85.057 11.9766 83.7642 11.4059 82.1132 11.4059C80.4622 11.4059 79.1693 11.9766 78.2346 13.1093C77.2999 14.242 76.837 15.8664 76.837 17.9825C76.837 20.0986 77.2999 21.723 78.2346 22.8556Z"></path>
<path fill="#1D1D1B" d="M94.5264 0L105.917 0C108.783 0 110.993 0.755122 112.556 2.25659C114.12 3.75805 114.897 5.8039 114.897 8.39415C114.897 10.9844 114.111 13.0302 112.556 14.5317C110.993 16.0332 108.783 16.7883 105.917 16.7883L96.8587 16.7883V28.1941H94.5351V0L94.5264 0ZM96.85 14.6898L105.909 14.6898C108.014 14.6898 109.63 14.1454 110.774 13.0478C111.919 11.9502 112.486 10.4049 112.486 8.39415C112.486 6.38342 111.919 4.87317 110.792 3.78439C109.665 2.68683 108.031 2.14244 105.909 2.14244L96.85 2.14244V14.6985V14.6898Z"></path>
<path fill="#1D1D1B" d="M135.496 28.6771C132.683 28.6771 130.412 27.6849 128.682 25.7093C126.917 23.7864 126.044 21.2049 126.044 17.9825C126.044 14.76 126.926 12.1786 128.682 10.2205C130.412 8.26248 132.692 7.28784 135.496 7.28784C138.3 7.28784 140.606 8.26248 142.388 10.2205C144.118 12.2049 144.991 14.7864 144.991 17.9825C144.991 21.1786 144.126 23.7776 142.388 25.7093C140.606 27.6937 138.3 28.6771 135.496 28.6771ZM130.298 24.2781C131.582 25.8586 133.321 26.6576 135.496 26.6576C137.671 26.6576 139.418 25.8674 140.737 24.2781C142.021 22.7503 142.668 20.6517 142.668 17.9825C142.668 15.3132 142.021 13.2059 140.737 11.643C139.427 10.0888 137.68 9.30735 135.496 9.30735C133.312 9.30735 131.608 10.0888 130.298 11.643C129.014 13.1971 128.368 15.3132 128.368 17.9825C128.368 20.6517 129.014 22.7503 130.298 24.2781Z"></path>
<path fill="#1D1D1B" d="M117.719 28.2029H115.396V16.358C115.396 11.4321 119.379 7.42822 124.279 7.42822H126.096V9.76383H124.279C120.663 9.76383 117.728 12.7229 117.728 16.3492V28.1941L117.719 28.2029Z"></path>
</g>
<defs>
<clipPath id="clip0_1_27">
<rect fill="white" height="36" width="145"></rect>
</clipPath>
</defs>
</svg>
