<svg width="35" height="35" viewBox="0 0 35 35" fill="none" xmlns="http://www.w3.org/2000/svg">
<path d="M35 11.6673V8.75065C35 4.72565 31.7333 1.45898 27.7083 1.45898H7.29167C3.26667 1.45898 0 4.72565 0 8.75065V11.6673H35ZM28.4375 4.37565C29.6479 4.37565 30.625 5.35273 30.625 6.56315C30.625 7.77357 29.6479 8.75065 28.4375 8.75065C27.2271 8.75065 26.25 7.77357 26.25 6.56315C26.25 5.35273 27.2271 4.37565 28.4375 4.37565ZM22.6042 4.37565C23.8146 4.37565 24.7917 5.35273 24.7917 6.56315C24.7917 7.77357 23.8146 8.75065 22.6042 8.75065C21.3938 8.75065 20.4167 7.77357 20.4167 6.56315C20.4167 5.35273 21.3938 4.37565 22.6042 4.37565ZM16.7708 4.37565C17.9813 4.37565 18.9583 5.35273 18.9583 6.56315C18.9583 7.77357 17.9813 8.75065 16.7708 8.75065C15.5604 8.75065 14.5833 7.77357 14.5833 6.56315C14.5833 5.35273 15.5604 4.37565 16.7708 4.37565ZM35 14.584V26.2507C35 30.2757 31.7333 33.5423 27.7083 33.5423H7.29167C3.26667 33.5423 0 30.2757 0 26.2507V14.584H35Z" fill="#4842A8"/>
</svg>
