<svg width="35" height="35" viewBox="0 0 35 35" fill="none" xmlns="http://www.w3.org/2000/svg">
<g clip-path="url(#clip0_2817_22)">
<path d="M22.8456 0.644629C22.7697 0.454312 22.6384 0.291144 22.4688 0.176224C22.2992 0.0613045 22.099 -8.2714e-05 21.8941 8.36463e-08H13.1071C12.9022 -8.2714e-05 12.702 0.0613045 12.5324 0.176224C12.3628 0.291144 12.2315 0.454312 12.1556 0.644629L11.0372 3.44053H23.964L22.8456 0.644629ZM12.1556 34.3554C12.2315 34.5457 12.3628 34.7089 12.5324 34.8238C12.702 34.9387 12.9022 35.0001 13.1071 35H21.8941C22.3131 35 22.6904 34.745 22.8456 34.3554L23.964 31.5595H11.0372L12.1556 34.3554ZM26.287 5.49151H8.71417C6.93758 5.49151 5.49219 6.93697 5.49219 8.71356V26.2864C5.49219 28.063 6.93758 29.5085 8.71417 29.5085H26.287C28.0636 29.5085 29.5091 28.063 29.5091 26.2864V8.71356C29.5091 6.93697 28.0636 5.49151 26.287 5.49151ZM24.0904 18.5254H22.5275L20.6144 22.3518C20.5292 22.5222 20.3983 22.6654 20.2364 22.7656C20.0744 22.8657 19.8877 22.9187 19.6973 22.9187C19.5068 22.9187 19.3202 22.8657 19.1582 22.7656C18.9962 22.6654 18.8653 22.5222 18.7802 22.3518L15.304 15.3997L14.0245 17.9586C13.9394 18.129 13.8085 18.2722 13.6465 18.3723C13.4845 18.4724 13.2978 18.5255 13.1074 18.5255H10.9108C10.3445 18.5255 9.88537 18.0664 9.88537 17.5001C9.88537 16.9338 10.3445 16.4747 10.9108 16.4747H12.4737L14.3868 12.6483C14.472 12.4779 14.6029 12.3347 14.7649 12.2345C14.9269 12.1344 15.1136 12.0814 15.304 12.0814C15.4945 12.0814 15.6811 12.1344 15.8431 12.2345C16.0051 12.3347 16.136 12.4779 16.2212 12.6483L19.6973 19.6004L20.9768 17.0414C21.062 16.8711 21.1929 16.7279 21.3548 16.6277C21.5168 16.5276 21.7035 16.4746 21.8939 16.4746H24.0904C24.6567 16.4746 25.1158 16.9337 25.1158 17.5C25.1158 18.0663 24.6567 18.5254 24.0904 18.5254Z" fill="#4842A8"/>
</g>
<defs>
<clipPath id="clip0_2817_22">
<rect width="35" height="35" fill="white"/>
</clipPath>
</defs>
</svg>
