<svg width="24" height="24" viewBox="0 0 24 24" fill="none" xmlns="http://www.w3.org/2000/svg">
<g clip-path="url(#clip0_937_1968)">
<path opacity="0.4" d="M24 16.7264C24.0041 18.3318 23.3707 19.8732 22.2389 21.0118C21.107 22.1504 19.5694 22.793 17.964 22.7984H6.06C4.45457 22.7993 2.91445 22.1628 1.77812 21.0287C0.641786 19.8946 0.00222638 18.3558 0 16.7504L0 16.7384C0 16.7384 0.0072 11.4272 0.0168 8.75476C0.0174431 8.6426 0.0495126 8.53287 0.109369 8.43801C0.169226 8.34315 0.254473 8.26697 0.355436 8.21812C0.456399 8.16926 0.569036 8.14968 0.680564 8.1616C0.792092 8.17352 0.898045 8.21647 0.9864 8.28556C3.84 10.5476 8.9364 14.672 9 14.726C9.86213 15.415 10.9324 15.7915 12.036 15.794C13.142 15.7933 14.214 15.4119 15.072 14.714C15.1356 14.6708 20.1204 10.6748 23.0148 8.37076C23.103 8.30067 23.2092 8.25684 23.3212 8.2443C23.4332 8.23176 23.5465 8.25101 23.648 8.29985C23.7496 8.34868 23.8353 8.42513 23.8955 8.52045C23.9556 8.61576 23.9877 8.72607 23.988 8.83876C24 11.4896 24 16.7264 24 16.7264Z" fill="#191919"/>
<path d="M23.3699 4.40802C22.8556 3.43929 22.0873 2.62882 21.1474 2.06354C20.2075 1.49825 19.1315 1.19946 18.0347 1.19922L6.0587 1.19922C4.96171 1.19925 3.88543 1.49793 2.9453 2.06323C2.00518 2.62853 1.2367 3.43911 0.722304 4.40802C0.609414 4.62099 0.574255 4.86664 0.622874 5.10273C0.671493 5.33881 0.800851 5.55058 0.988704 5.70162L9.8987 12.8284C10.5031 13.3174 11.2572 13.5839 12.0347 13.5832H12.0587C12.8362 13.5839 13.5903 13.3174 14.1947 12.8284L23.1047 5.70162C23.2924 5.55042 23.4215 5.33858 23.4699 5.1025C23.5183 4.86642 23.4829 4.62086 23.3699 4.40802Z" fill="#191919"/>
</g>
<defs>
<clipPath id="clip0_937_1968">
<rect width="24" height="24" fill="white"/>
</clipPath>
</defs>
</svg>
