<svg width="30" height="30" viewBox="0 0 30 30" fill="none" xmlns="http://www.w3.org/2000/svg">
<path d="M23.8792 15.9077C23.9224 20.439 27.9553 21.9469 28 21.9662C27.9659 22.0725 27.3556 24.1151 25.8753 26.2249C24.5956 28.049 23.2674 29.8663 21.1752 29.904C19.1193 29.9409 18.4583 28.715 16.1079 28.715C13.7582 28.715 13.0237 29.8663 11.0776 29.9409C9.05811 30.0154 7.52025 27.9684 6.22992 26.1511C3.59329 22.4336 1.57836 15.6463 4.2839 11.0648C5.62796 8.78961 8.02989 7.34886 10.637 7.31192C12.6201 7.27502 14.492 8.61307 15.7043 8.61307C16.9158 8.61307 19.1905 7.00395 21.5818 7.24027C22.5829 7.28091 25.3929 7.63464 27.1973 10.2104C27.0519 10.2983 23.8444 12.1194 23.8792 15.9077ZM20.0155 4.78083C21.0877 3.51513 21.8094 1.75315 21.6125 0C20.067 0.0605762 18.1982 1.00436 17.0897 2.26937C16.0962 3.38959 15.2261 5.18257 15.4609 6.90103C17.1835 7.031 18.9433 6.04733 20.0155 4.78083Z" fill="white"/>
</svg>
