<svg width="30" height="30" viewBox="0 0 30 30" fill="none" xmlns="http://www.w3.org/2000/svg">
<g clip-path="url(#clip0_3587_93)">
<path d="M15 0C6.71601 0 0 6.71601 0 15C0 23.284 6.71601 30 15 30C23.284 30 30 23.284 30 15C30 6.71601 23.284 0 15 0Z" fill="black"/>
<path d="M16.6405 13.6439L23.0618 6.17969H21.5402L15.9645 12.6608L11.5113 6.17969H6.375L13.1092 15.9803L6.375 23.8077H7.89674L13.7848 16.9634L18.4877 23.8077H23.624L16.6401 13.6439H16.6405ZM8.44502 7.32524H10.7823L21.5408 22.7143H19.2036L8.44502 7.32524Z" fill="white"/>
</g>
<defs>
<clipPath id="clip0_3587_93">
<rect width="30" height="30" fill="white"/>
</clipPath>
</defs>
</svg>
