<?xml version="1.0" encoding="iso-8859-1"?>
<!-- Generator: Adobe Illustrator 19.0.0, SVG Export Plug-In . SVG Version: 6.00 Build 0)  -->
<svg version="1.1" id="Capa_1" xmlns="http://www.w3.org/2000/svg" xmlns:xlink="http://www.w3.org/1999/xlink" x="0px" y="0px"
	 viewBox="0 0 512 512" style="enable-background:new 0 0 512 512;" xml:space="preserve">
<g transform="matrix(1.25 0 0 -1.25 0 45)">
	<g>
		<g>
			<path style="fill:#DE3830;" d="M364.089-20.889H73.956L216.178-117.6H409.6v51.2C409.6-41.266,389.222-20.889,364.089-20.889"/>
			<path style="fill:#002395;" d="M73.956-316.711h290.133c25.134,0,45.511,20.378,45.511,45.511v51.2H216.178L73.956-316.711z"/>
			<path style="fill:#141414;" d="M0-89.156v-159.289L119.467-168.8L0-89.156z"/>
			<path style="fill:#FFB611;" d="M0-66.4v-22.756L119.467-168.8L0-248.444V-271.2l153.6,102.4L0-66.4z"/>
			<path style="fill:#007A4D;" d="M40.289-21.207C17.624-23.802,0-43.03,0-66.4l153.6-102.4L0-271.2
				c0-23.359,17.624-42.587,40.289-45.181l170.2,119.137H409.6v56.889H210.489L40.289-21.207z"/>
			<g>
				<path style="fill:#EEEEEE;" d="M73.956-20.889H45.511c-1.775,0-3.504-0.125-5.222-0.319l170.2-119.148H409.6v22.756H216.178
					L73.956-20.889z"/>
				<path style="fill:#EEEEEE;" d="M40.289-316.37c1.718-0.193,3.459-0.319,5.222-0.319h28.444l142.222,96.711H409.6v22.756H210.489
					L40.289-316.37z"/>
			</g>
		</g>
	</g>
</g>
<g>
</g>
<g>
</g>
<g>
</g>
<g>
</g>
<g>
</g>
<g>
</g>
<g>
</g>
<g>
</g>
<g>
</g>
<g>
</g>
<g>
</g>
<g>
</g>
<g>
</g>
<g>
</g>
<g>
</g>
</svg>
