<svg width="18" height="18" viewBox="0 0 18 18" fill="none" xmlns="http://www.w3.org/2000/svg">
<g clip-path="url(#clip0_742_2444)">
<path d="M20.633 0H-2.74105C-3.28705 0.000264984 -3.81061 0.21728 -4.19669 0.60336C-4.58277 0.98944 -4.79978 1.513 -4.80005 2.059L-4.80005 6.004H22.692V2.059C22.6917 1.513 22.4747 0.98944 22.0886 0.60336C21.7025 0.21728 21.179 0.000264984 20.633 0Z" fill="#FAB446"/>
<path d="M-4.80005 15.9531C-4.79978 16.4991 -4.58277 17.0226 -4.19669 17.4087C-3.81061 17.7948 -3.28705 18.0118 -2.74105 18.0121H20.633C21.179 18.0118 21.7025 17.7948 22.0886 17.4087C22.4747 17.0226 22.6917 16.4991 22.692 15.9531V12.0081H-4.80005V15.9531Z" fill="#73AF00"/>
<path d="M-4.80005 6.00391H22.692V12.0079H-4.80005V6.00391Z" fill="#F5F5F5"/>
<path d="M8.94595 11.553C8.27034 11.5525 7.62255 11.2839 7.14483 10.8062C6.6671 10.3284 6.39848 9.68064 6.39795 9.00503C6.39848 8.32942 6.6671 7.68164 7.14483 7.20391C7.62255 6.72618 8.27034 6.45756 8.94595 6.45703C9.62156 6.45756 10.2693 6.72618 10.7471 7.20391C11.2248 7.68164 11.4934 8.32942 11.4939 9.00503C11.4934 9.68064 11.2248 10.3284 10.7471 10.8062C10.2693 11.2839 9.62156 11.5525 8.94595 11.553ZM8.94595 6.93103C7.80095 6.93103 6.87195 7.86003 6.87195 9.00503C6.87195 10.15 7.80095 11.079 8.94595 11.079C10.0909 11.079 11.0199 10.15 11.0199 9.00503C11.0199 7.86003 10.0909 6.93203 8.94595 6.93103Z" fill="#41479B"/>
<path d="M8.94598 9.29504C9.10559 9.29504 9.23498 9.16565 9.23498 9.00604C9.23498 8.84643 9.10559 8.71704 8.94598 8.71704C8.78637 8.71704 8.65698 8.84643 8.65698 9.00604C8.65698 9.16565 8.78637 9.29504 8.94598 9.29504Z" fill="#41479B"/>
<path d="M8.94601 9.04894L8.21201 9.12294L6.63501 9.04894V8.96194L8.21201 8.88794L8.94601 8.96194V9.04894Z" fill="#41479B"/>
<path d="M8.94604 9.04894L9.68004 9.12294L11.257 9.04894V8.96194L9.68004 8.88794L8.94604 8.96194V9.04894Z" fill="#41479B"/>
<path d="M8.90188 9.00607L8.82788 8.27207L8.90188 6.69507H8.98888L9.06288 8.27207L8.98888 9.00607H8.90188Z" fill="#41479B"/>
<path d="M8.90188 9.0061L8.82788 9.7401L8.90188 11.3171H8.98888L9.06288 9.7401L8.98888 9.0061H8.90188Z" fill="#41479B"/>
<path d="M8.91501 9.04106L8.34401 8.57406L7.28101 7.40206L7.34201 7.34106L8.50901 8.40406L8.97601 8.97506L8.91501 9.04106Z" fill="#41479B"/>
<path d="M8.91504 9.0361L9.38204 9.6071L10.549 10.6701L10.61 10.6091L9.54704 9.4421L8.97604 8.9751L8.91504 9.0361Z" fill="#41479B"/>
<path d="M8.91504 8.97506L9.38204 8.40406L10.549 7.34106L10.61 7.40206L9.54704 8.56906L8.97604 9.03606L8.91504 8.97506Z" fill="#41479B"/>
<path d="M8.91501 8.9751L8.34401 9.4421L7.28101 10.6091L7.34201 10.6701L8.50901 9.6071L8.97601 9.0361L8.91501 8.9751Z" fill="#41479B"/>
<path d="M8.96097 9.04606L8.31097 9.39507L6.82597 9.93007L6.79297 9.85007L8.22097 9.17807L8.92697 8.96606L8.96097 9.04606Z" fill="#41479B"/>
<path d="M8.96198 9.04508L9.66798 8.83208L11.096 8.16008L11.063 8.08008L9.57798 8.61508L8.92798 8.96408L8.96198 9.04508Z" fill="#41479B"/>
<path d="M8.905 9.02103L8.556 8.37103L8.021 6.88603L8.101 6.85303L8.773 8.28103L8.985 8.98703L8.905 9.02103Z" fill="#41479B"/>
<path d="M8.90601 9.02204L9.11801 9.72804L9.79001 11.156L9.87001 11.123L9.33501 9.63804L8.98601 8.98804L8.90601 9.02204Z" fill="#41479B"/>
<path d="M8.92892 9.04508L8.22292 8.83208L6.79492 8.16008L6.82792 8.08008L8.31292 8.61508L8.96292 8.96408L8.92892 9.04508Z" fill="#41479B"/>
<path d="M8.92896 9.04606L9.57895 9.39507L11.064 9.93007L11.097 9.85007L9.66895 9.17807L8.96295 8.96606L8.92896 9.04606Z" fill="#41479B"/>
<path d="M8.90601 8.98898L9.11801 8.28298L9.79001 6.85498L9.87001 6.88798L9.33501 8.37298L8.98601 9.02298L8.90601 8.98898Z" fill="#41479B"/>
<path d="M8.905 8.98901L8.556 9.63901L8.021 11.124L8.101 11.157L8.773 9.72901L8.985 9.02301L8.905 8.98901Z" fill="#41479B"/>
<path d="M8.94591 9.39597C9.1613 9.39597 9.33591 9.22136 9.33591 9.00597C9.33591 8.79058 9.1613 8.61597 8.94591 8.61597C8.73052 8.61597 8.55591 8.79058 8.55591 9.00597C8.55591 9.22136 8.73052 9.39597 8.94591 9.39597Z" fill="#F5F5F5"/>
<path d="M8.94591 9.23997C9.07515 9.23997 9.17991 9.13521 9.17991 9.00597C9.17991 8.87674 9.07515 8.77197 8.94591 8.77197C8.81668 8.77197 8.71191 8.87674 8.71191 9.00597C8.71191 9.13521 8.81668 9.23997 8.94591 9.23997Z" fill="#41479B"/>
</g>
<defs>
<clipPath id="clip0_742_2444">
<rect width="18" height="18" rx="9" fill="white"/>
</clipPath>
</defs>
</svg>
