<svg width="35" height="35" viewBox="0 0 35 35" fill="none" xmlns="http://www.w3.org/2000/svg">
<path d="M34.3649 24.8544L33.7068 24.5254L18.8758 31.9409C18.0246 32.3721 16.9756 32.3721 16.1244 31.9409L1.29339 24.5254L0.635295 24.8544C0.464944 24.9395 0.321671 25.0704 0.221536 25.2324C0.1214 25.3944 0.0683594 25.5811 0.0683594 25.7715C0.0683594 25.962 0.1214 26.1486 0.221536 26.3106C0.321671 26.4726 0.464944 26.6035 0.635295 26.6886L17.0415 34.8917C17.1839 34.963 17.3409 35 17.5001 35C17.6593 35 17.8163 34.963 17.9587 34.8917L34.3649 26.6886C34.5353 26.6035 34.6785 26.4726 34.7787 26.3106C34.8788 26.1486 34.9318 25.962 34.9318 25.7715C34.9318 25.5811 34.8788 25.3944 34.7787 25.2324C34.6785 25.0704 34.5353 24.9395 34.3649 24.8544Z" fill="#4842A8"/>
<path d="M34.3649 20.0692L33.7068 19.7402L18.8758 27.1557C18.0246 27.5869 16.9756 27.5869 16.1244 27.1557L1.29339 19.7402L0.635295 20.0692C0.464944 20.1544 0.321671 20.2852 0.221536 20.4472C0.1214 20.6092 0.0683594 20.7959 0.0683594 20.9863C0.0683594 21.1768 0.1214 21.3634 0.221536 21.5254C0.321671 21.6874 0.464944 21.8183 0.635295 21.9034L17.0415 30.1066C17.1839 30.1778 17.3409 30.2148 17.5001 30.2148C17.6593 30.2148 17.8163 30.1778 17.9587 30.1066L34.3649 21.9034C34.5353 21.8183 34.6785 21.6874 34.7787 21.5254C34.8788 21.3634 34.9318 21.1768 34.9318 20.9863C34.9318 20.7959 34.8788 20.6092 34.7787 20.4472C34.6785 20.2852 34.5353 20.1544 34.3649 20.0692ZM8.48261 12.0667L10.5334 15.6188C10.8165 16.1092 11.4437 16.2773 11.9341 15.9941L12.7785 15.5066C13.2905 15.8948 13.8405 16.2147 14.4239 16.4636V17.4316C14.4239 17.9979 14.883 18.457 15.4493 18.457H19.5509C20.1172 18.457 20.5763 17.9979 20.5763 17.4316V16.4636C21.1597 16.2147 21.7097 15.8948 22.2217 15.5066L23.0661 15.9941C23.5565 16.2773 24.1836 16.1092 24.4667 15.6188L26.5175 12.0667C26.8007 11.5763 26.6326 10.9492 26.1422 10.666L25.3014 10.1806C25.3413 9.86125 25.3614 9.54297 25.3614 9.22852C25.3614 8.91406 25.3413 8.59578 25.3015 8.27647L26.1423 7.79099C26.6327 7.50784 26.8007 6.88071 26.5176 6.3903L24.4668 2.83821C24.1837 2.3478 23.5565 2.17971 23.0661 2.46292L22.2217 2.95039C21.7146 2.56501 21.162 2.24358 20.5763 1.99336V1.02539C20.5763 0.459102 20.1172 0 19.5509 0H15.4493C14.883 0 14.4239 0.459102 14.4239 1.02539V1.99336C13.8382 2.24358 13.2856 2.56501 12.7785 2.95039L11.9341 2.46285C11.4437 2.17971 10.8166 2.34773 10.5335 2.83814L8.48268 6.39023C8.19953 6.88064 8.36756 7.50777 8.85797 7.79092L9.69879 8.27641C9.65887 8.59578 9.63877 8.91406 9.63877 9.22852C9.63877 9.54297 9.65887 9.86125 9.69872 10.1806L8.8579 10.666C8.36749 10.9492 8.19946 11.5763 8.48261 12.0667ZM17.5001 6.15234C19.1963 6.15234 20.5763 7.53231 20.5763 9.22852C20.5763 10.9247 19.1963 12.3047 17.5001 12.3047C15.8039 12.3047 14.4239 10.9247 14.4239 9.22852C14.4239 7.53231 15.8039 6.15234 17.5001 6.15234Z" fill="#4842A8"/>
<path d="M0.635295 17.1192L17.0415 25.3223C17.1839 25.3935 17.3409 25.4306 17.5001 25.4306C17.6593 25.4306 17.8163 25.3935 17.9587 25.3223L34.3649 17.1192C34.5353 17.034 34.6785 16.9031 34.7787 16.7411C34.8788 16.5792 34.9318 16.3925 34.9318 16.2021C34.9318 16.0116 34.8788 15.8249 34.7787 15.663C34.6785 15.501 34.5353 15.3701 34.3649 15.2849L28.588 12.3965C28.519 12.6398 28.4201 12.8737 28.2937 13.0929L26.2429 16.645C25.6952 17.5938 24.6739 18.1833 23.5779 18.1833H23.5778C23.2354 18.1832 22.8955 18.1258 22.572 18.0137C22.2995 19.433 21.0484 20.5087 19.5509 20.5087H15.4493C13.9518 20.5087 12.7007 19.433 12.4282 18.0137C12.1047 18.1259 11.7648 18.1832 11.4224 18.1833C10.3263 18.1833 9.30504 17.5938 8.75728 16.6449L6.70656 13.0931C6.57988 12.8741 6.48052 12.6404 6.4107 12.3973L0.635295 15.2849C0.464944 15.3701 0.321671 15.501 0.221536 15.663C0.1214 15.8249 0.0683594 16.0116 0.0683594 16.2021C0.0683594 16.3925 0.1214 16.5792 0.221536 16.7411C0.321671 16.9031 0.464944 17.034 0.635295 17.1192Z" fill="#4842A8"/>
</svg>
