<svg width="77" height="77" viewBox="0 0 77 77" fill="none" xmlns="http://www.w3.org/2000/svg">
<circle cx="38.5" cy="38.5" r="37.5" stroke="#585858" stroke-width="2"/>
<path fill-rule="evenodd" clip-rule="evenodd" d="M49.4386 27.5614C50.1871 28.3099 50.1871 29.5234 49.4386 30.272L30.272 49.4386C29.5234 50.1871 28.3099 50.1871 27.5614 49.4386C26.8129 48.6901 26.8129 47.4765 27.5614 46.728L46.728 27.5614C47.4765 26.8129 48.6901 26.8129 49.4386 27.5614Z" fill="#585858"/>
<path fill-rule="evenodd" clip-rule="evenodd" d="M27 28.9167C27 27.8581 27.8581 27 28.9167 27H48.0833C49.1419 27 50 27.8581 50 28.9167V48.0833C50 49.1419 49.1419 50 48.0833 50C47.0248 50 46.1667 49.1419 46.1667 48.0833V30.8333H28.9167C27.8581 30.8333 27 29.9752 27 28.9167Z" fill="#585858"/>
</svg>
