<?xml version="1.0" encoding="iso-8859-1"?>
<!-- Generator: Adobe Illustrator 19.0.0, SVG Export Plug-In . SVG Version: 6.00 Build 0)  -->
<svg version="1.1" id="Capa_1" xmlns="http://www.w3.org/2000/svg" xmlns:xlink="http://www.w3.org/1999/xlink" x="0px" y="0px"
	 viewBox="0 0 512 512" style="enable-background:new 0 0 512 512;" xml:space="preserve">
<g transform="matrix(1.25 0 0 -1.25 0 45)">
	<g>
		<g>
			<path style="fill:#141414;" d="M409.6-271.2c0-25.134-20.378-45.511-45.511-45.511H45.511C20.378-316.711,0-296.334,0-271.2
				v204.8c0,25.134,20.378,45.511,45.511,45.511h318.578c25.134,0,45.511-20.378,45.511-45.511V-271.2z"/>
			<path style="fill:#EEEEEE;" d="M409.6-225.689H0v113.778h409.6V-225.689z"/>
			<path style="fill:#CE1225;" d="M364.089-20.889H45.511C20.378-20.889,0-41.266,0-66.4v-45.511h409.6V-66.4
				C409.6-41.266,389.222-20.889,364.089-20.889"/>
			<path style="fill:#BF9300;" d="M167.822-209.328c0,0,0.182-2.844,2.662-4.267c0,0-0.705-2.128,1.957-3.379
				c2.674-1.24,12.265-3.197,28.979-3.197s26.135,1.775,28.626,3.026c2.48,1.24,2.662,4.085,2.662,4.085s2.662,1.422,2.492,3.197
				c-0.182,1.775-3.732,3.732-3.732,3.732s-0.887,2.31-3.379,3.197c-2.492,0.899-10.49-3.903-25.782-3.197
				c-15.292,0.717-23.996,3.026-26.84,2.844c-2.844-0.171-4.096-3.015-4.096-3.015S168.175-207.723,167.822-209.328"/>
			<path style="fill:#EEEEEE;" d="M169.779-209.157c-0.148-1.058,2.128-3.379,2.128-3.379s0-2.662,2.321-3.379
				c2.31-0.705,11.73-2.48,27.022-2.31c15.28,0.182,26.123,1.07,27.375,2.139c1.24,1.058,2.31,3.379,2.31,3.379
				s2.492,1.775,2.31,3.197c-0.182,1.422-3.732,2.31-3.732,2.31s-1.001,2.128-2.185,3.015c-1.195,0.899-8.841-3.55-25.19-3.55
				c-16.02,0-25.247,3.914-26.852,3.732c-1.593-0.182-2.662-3.197-2.662-3.197S169.961-207.917,169.779-209.157"/>
			<g>
				<path style="fill:#BF9300;" d="M171.918-196.357l2.128,56.172l5.336-5.689l-1.775-45.682L171.918-196.357z"/>
				<path style="fill:#BF9300;" d="M230.935-196.357l-2.128,56.172l-5.336-5.689l1.775-45.682L230.935-196.357z"/>
				<path style="fill:#BF9300;" d="M190.225-166.866l-11.73-34.315c0,0-8.181,0.535-5.871-6.042c0,0,1.252,3.732,3.379,3.026
					c2.139-0.717,8.351-2.31,8.351-2.31l2.139-3.379l2.662,2.48l8.363,0.364c0,0,2.662-0.717,2.48-3.026
					c2.31,5.336-3.55,6.929-3.55,6.929l-2.674,0.535l5.871,22.938C203.457-185.093,190.225-166.866,190.225-166.866"/>
			</g>
			<path style="fill:#EEEEEE;" d="M197.689-178.926l-6.394-24.36l-10.672,2.139l11.025,31.289L197.689-178.926z"/>
			<path style="fill:#BF9300;" d="M213.106-166.866l11.73-34.315c0,0,8.181,0.535,5.86-6.042c0,0-1.24,3.732-3.368,3.026
				c-2.139-0.717-8.351-2.31-8.351-2.31l-2.128-3.379l-2.674,2.48l-8.363,0.364c0,0-2.662-0.717-2.48-3.026
				c-2.31,5.336,3.55,6.929,3.55,6.929l2.674,0.535l-5.871,22.938C199.885-185.093,213.106-166.866,213.106-166.866"/>
			<path style="fill:#EEEEEE;" d="M205.596-178.926l6.394-24.36l10.684,2.139l-11.036,31.289L205.596-178.926z"/>
			<g>
				<path style="fill:#BF9300;" d="M201.978-179.268c-12.811,7.919-13.881,27.91-13.881,27.91s7.93,0.41,13.687,4.449
					c5.177-4.608,14.04-4.096,14.04-4.096S215.233-171.064,201.978-179.268 M201.967-143.712
					c-7.111-4.972-16.896-5.336-16.896-5.336s1.07-24.178,16.896-33.951c16.35,10.126,17.067,34.315,17.067,34.315
					S208.361-149.401,201.967-143.712"/>
				<path style="fill:#BF9300;" d="M190.76-153.338c0,0,0.887-10.308,5.507-18.307v20.617
					C196.267-151.028,193.252-152.803,190.76-153.338"/>
				<path style="fill:#BF9300;" d="M212.981-153.69c0,0-0.887-10.308-5.507-18.307v20.617
					C207.474-151.381,210.489-153.156,212.981-153.69"/>
				<path style="fill:#BF9300;" d="M165.513-140.174c0,0,0.353,8.351,7.999,7.293c7.646-1.07,8.181-4.801,16.361-5.689
					c8.169-0.899,11.73-0.717,11.73-0.717l-0.182-2.492c0,0-6.36,0.614-12.436,1.252c-6.758,0.705-9.409,4.233-15.826,5.154
					c-4.983,0.705-4.801-4.267-4.801-4.267L165.513-140.174z"/>
				<path style="fill:#BF9300;" d="M237.329-140.174c0,0-0.353,8.351-7.999,7.293c-7.646-1.07-8.181-4.801-16.361-5.689
					c-8.169-0.899-11.73-0.717-11.73-0.717l0.182-2.492c0,0,6.36,0.614,12.436,1.252c6.758,0.705,9.409,4.233,15.826,5.154
					c4.983,0.705,4.801-4.267,4.801-4.267L237.329-140.174z"/>
				<path style="fill:#BF9300;" d="M190.225-141.596c0,0,8.351,9.956,6.576,18.671c0,0-3.55,3.55-4.449,2.31
					c-0.887-1.252-1.946,2.844,0,4.437c1.957,1.604,6.224-0.523,6.224-0.523s1.07,2.48,6.576-0.182
					c5.518-2.674,3.914-4.983,3.914-10.308c0-5.336,2.139-13.335,4.096-14.939c0,0-2.674,0-4.267,1.07l-0.364-1.775
					c0,0-2.48,0.887-3.732,1.775l-3.197-1.604l-1.775,2.492c0,0-3.379-2.492-5.154-3.026l0.705,2.492
					C195.379-140.708,192-141.596,190.225-141.596"/>
			</g>
			<path style="fill:#EEEEEE;" d="M192.887-118.487c0,0,1.24,1.24,4.801-1.24c2.31-1.616,4.358-2.844,4.358-2.844
				s1.456,1.536,3.595,1.183c2.128-0.364,0.933-3.322,1.286-9.546c0.364-6.224,2.844-8.886,2.844-8.886l-3.015,1.775l0.171-1.957
				l-3.379,1.604l-1.593-2.31l-1.604,2.492l-2.594-1.593l-0.785,2.128l-3.015-1.604c0,0,4.437,5.507,4.801,11.56
				c0.102,1.798-0.364,5.86-0.364,5.86S195.55-118.305,192.887-118.487"/>
			<g>
				<path style="fill:#BF9300;" d="M193.991-197.597l2.128-3.197l2.674,2.128l2.128,9.785l-1.24-10.672l1.422-3.379l2.492,2.674
					l-0.364,12.436l1.957-12.265l2.674-1.775l1.775,3.379l-4.801,18.842l-6.224-0.353L193.991-197.597z"/>
				<path style="fill:#BF9300;" d="M176.89-210.397c-2.037-1.217-1.24-1.957,0-2.492c1.24-0.535,8.704-1.434,23.825-1.775
					c15.462-0.353,25.065,1.422,26.305,2.139c1.252,0.705,1.422,1.946-0.705,2.31c-2.139,0.353-12.8-1.422-25.782-1.422
					C184.536-211.637,177.778-209.862,176.89-210.397"/>
				<path style="fill:#BF9300;" d="M185.071-149.071l-1.513,0.603l0,0l-11.992,10.775l-6.053-2.492l-3.015-64.535l6.224,4.801
					l0.034,0.762l12.937,11.503l2.492,2.492l7.111,16.532l-3.379,6.406L185.071-149.071z"/>
				<path style="fill:#BF9300;" d="M240.299-204.708l-3.026,64.535l-6.042,2.492l-10.843-10.32l-2.662-1.058l-2.844-13.164
					l-1.957-5.325l5.689-17.601l2.492-2.492l12.937-11.503l0.034-0.762L240.299-204.708z"/>
				<path style="fill:#BF9300;" d="M194.332-196.357l-2.526-8.351l5.757-2.31l11.082,0.762l1.627,3.436l-5.427,18.807
					c0,0-7.111,0.66-7.27,0C197.404-184.672,194.332-196.357,194.332-196.357"/>
			</g>
		</g>
	</g>
</g>
<g>
</g>
<g>
</g>
<g>
</g>
<g>
</g>
<g>
</g>
<g>
</g>
<g>
</g>
<g>
</g>
<g>
</g>
<g>
</g>
<g>
</g>
<g>
</g>
<g>
</g>
<g>
</g>
<g>
</g>
</svg>
