<svg width="30" height="30" viewBox="0 0 30 30" fill="none" xmlns="http://www.w3.org/2000/svg">
<path d="M30 4.45312C30 3.96088 29.6133 3.57422 29.1211 3.57422H15.8789L15.0114 6.39375L14.1211 3.57422H0.878906C0.38666 3.57422 0 3.96088 0 4.45312V7.96875L1.78611 10.974L0 13.2422V16.7578L1.78611 19.026L0 22.0312V25.5469C0 26.039 0.38666 26.4258 0.878906 26.4258H14.1211L14.9889 23.5334L15.8789 26.4258H29.1211C29.6133 26.4258 30 26.039 30 25.5469V22.0312L27.2036 19.3146L30 16.7578V13.2422L27.2036 10.6854L30 7.96875V4.45312Z" fill="url(#paint0_linear_542_255)"/>
<path d="M15.8789 10.6944V3.57422H14.1211V10.6944C12.1172 11.1028 10.6055 12.878 10.6055 15C10.6055 17.122 12.1172 18.8972 14.1211 19.3056V26.4258H15.8789V19.3056C17.8828 18.8972 19.3945 17.122 19.3945 15C19.3945 12.878 17.8828 11.1028 15.8789 10.6944ZM26.4844 13.2422H30V7.96875H29.1211C25.3839 7.96875 22.2772 10.9099 22.0979 14.6629C21.9045 18.7104 25.4652 22.0312 29.5174 22.0312H30V16.7578H26.4844C25.999 16.7578 25.6055 16.3643 25.6055 15.8789V14.1211C25.6055 13.6357 25.999 13.2422 26.4844 13.2422ZM0.482461 7.96875H0V13.2422H3.51562C4.00102 13.2422 4.39453 13.6357 4.39453 14.1211V15.8789C4.39453 16.3643 4.00102 16.7578 3.51562 16.7578H0V22.0312H0.878906C4.62352 22.0312 7.7233 19.0828 7.90213 15.3368C8.09537 11.2894 4.53451 7.96875 0.482461 7.96875Z" fill="url(#paint1_linear_542_255)"/>
<defs>
<linearGradient id="paint0_linear_542_255" x1="15" y1="26.4258" x2="15" y2="3.57422" gradientUnits="userSpaceOnUse">
<stop stop-color="#5558FF"/>
<stop offset="1" stop-color="#00C0FF"/>
</linearGradient>
<linearGradient id="paint1_linear_542_255" x1="15" y1="26.4258" x2="15" y2="3.57422" gradientUnits="userSpaceOnUse">
<stop stop-color="#ADDCFF"/>
<stop offset="0.503" stop-color="#EAF6FF"/>
<stop offset="1" stop-color="#EAF6FF"/>
</linearGradient>
</defs>
</svg>
