<?xml version="1.0" encoding="iso-8859-1"?>
<!-- Generator: Adobe Illustrator 19.0.0, SVG Export Plug-In . SVG Version: 6.00 Build 0)  -->
<svg version="1.1" id="Capa_1" xmlns="http://www.w3.org/2000/svg" xmlns:xlink="http://www.w3.org/1999/xlink" x="0px" y="0px"
	 viewBox="0 0 512 512" style="enable-background:new 0 0 512 512;" xml:space="preserve">
<g transform="matrix(1.25 0 0 -1.25 0 45)">
	<g>
		<g>
			<path style="fill:#DE2910;" d="M409.6-271.2c0-25.134-20.378-45.511-45.511-45.511H45.511C20.378-316.711,0-296.334,0-271.2
				v204.8c0,25.134,20.378,45.511,45.511,45.511h318.578c25.134,0,45.511-20.378,45.511-45.511V-271.2z"/>
			<path style="fill:#FFFFFF;" d="M176.629-140.265c-3.049,7.35-4.972,15.679-5.245,19.536c-0.398,5.439-0.387,10.945-0.432,14.245
				c-0.08,4.79,1.274,9.978,2.89,15.826c3.425,12.425,16.009,23.12,26.305,25.486c8.488,1.957,16.282,0.057,23.154-3.516
				c6.36-3.3,11.867-9.444,12.277-10.934c0.125-0.41-1.775,0.603-2.503,0.99c-0.819,0.444-1.115,0.375-2.685,1.161
				c-1.832,0.944-4.961,1.161-6.349,0.432c-1.889-1.013-2.492-2.287-3.049-3.22c-0.705-1.172-1.024-1.456-1.035-3.914
				c-0.023-2.071-0.023-5.37,1.65-8.26c0.432-0.774,0.876-2.002,1.661-3.083c1.547-2.116,3.482-4.87,4.688-7.669
				c1.627-3.732,2.253-7.452,2.037-8.806l0.25-3.709c0.273-4.995-3.015-17.328-12.8-23.563c-2.15-1.365-4.506-3.197-6.986-4.54
				c-3.618-1.957-6.736-4.016-8.875-7.851c-1.263-2.287-1.058-4.824-1.001-7.361c0.08-4.574,1.388-9.011,2.537-11.31l0.774-1.729
				c-0.58-0.137-0.853,0.159-1.115,0.387l-1.286,1.445c-1.957,1.991-3.914,6.94-5.461,11.275c-1.24,3.47-2.321,8.954-2.241,12.584
				c0.171,6.349,1.65,11.537,2.571,14.905c1.365,5.063,1.729,5.666,2.31,7.1l0.102,0.239c-0.023,0.216,0.034,0.398-0.137,0.569
				c-0.353,0.33-0.899,0.33-1.217-0.011l-0.125-0.239c-0.933-1.297-1.752-4.187-3.174-9.17c-1.172-4.119-2.15-8.408-1.729-14.734
				c0.239-3.618,0.831-9.182,2.23-12.572c2.025-4.858,4.107-9.079,5.712-10.991l0.967-1.525c0.091-0.296,0.228-0.489,0.41-0.592
				l0.159-0.091c-0.171-0.853-5.598,2.958-12.425,11.913c-5.416,7.111-10.945,15.781-12.618,21.367"/>
			<path style="fill:#DE2910;" d="M202.354-107.781l0.614-7.35l7.122-1.98l-6.815-2.856l0.319-7.384l-4.813,5.586l-6.918-2.571
				l3.812,6.315l-4.574,5.769l7.179-1.673L202.354-107.781z"/>
			<path style="fill:none;stroke:#DE2910;stroke-width:0.013;" d="M202.354-107.781l0.614-7.35l7.122-1.98l-6.815-2.856l0.319-7.384
				l-4.813,5.586l-6.918-2.571l3.812,6.315l-4.574,5.769l7.179-1.673L202.354-107.781z"/>
			<path style="fill:#FFFFFF;" d="M163.521-192.238c-7.896-0.956-16.441-0.546-20.218,0.228c-5.348,1.081-10.638,2.583-13.835,3.413
				c-4.642,1.217-9.273,3.925-14.461,7.043c-11.036,6.656-17.954,21.652-17.454,32.222c0.41,8.693,4.335,15.667,9.637,21.345
				c4.892,5.234,12.288,8.863,13.835,8.875c0.421,0-1.07-1.547-1.638-2.15c-0.649-0.66-0.649-0.978-1.832-2.253
				c-1.411-1.525-2.458-4.494-2.128-6.019c0.466-2.105,1.525-3.004,2.276-3.789c0.933-1.001,1.115-1.388,3.482-2.071
				c2.002-0.58,5.166-1.468,8.42-0.637c0.853,0.216,2.15,0.296,3.413,0.774c2.446,0.922,5.609,2.037,8.636,2.458
				c4.028,0.535,7.782,0.148,9.034-0.421l3.641-0.762c4.881-1.081,15.861-7.578,19.228-18.682c0.74-2.446,1.877-5.2,2.503-7.953
				c0.899-4.005,2.048-7.566,5.154-10.65c1.866-1.843,4.369-2.31,6.827-2.958c4.415-1.149,9.045-1.092,11.571-0.614l1.877,0.284
				c-0.023-0.58-0.375-0.774-0.683-0.967l-1.718-0.842c-2.458-1.354-7.76-1.9-12.345-2.219c-3.675-0.262-9.25,0.171-12.72,1.24
				c-6.064,1.855-10.672,4.688-13.665,6.485c-4.494,2.674-4.983,3.186-6.224,4.13l-0.182,0.159
				c-0.216,0.057-0.375,0.159-0.592,0.023c-0.41-0.239-0.558-0.762-0.307-1.172l0.193-0.182c1.001-1.263,3.55-2.81,7.964-5.53
				c3.652-2.253,7.521-4.346,13.722-5.632c3.55-0.751,9.068-1.673,12.72-1.24c5.222,0.637,9.842,1.513,12.117,2.526l1.729,0.512
				c0.319,0.023,0.523,0.102,0.671,0.25l0.137,0.125c0.774-0.375-4.346-4.597-14.825-8.761c-8.306-3.288-18.136-6.281-23.973-6.372"
				/>
			<path style="fill:#DE2910;" d="M139.173-158.685l7.259-1.388l3.812,6.315l0.922-7.327l7.191-1.684l-6.69-3.129l0.626-7.361
				l-5.04,5.382l-6.815-2.867l3.561,6.463L139.173-158.685z"/>
			<path style="fill:none;stroke:#DE2910;stroke-width:0.013;" d="M139.173-158.685l7.259-1.388l3.812,6.315l0.922-7.327
				l7.191-1.684l-6.69-3.129l0.626-7.361l-5.04,5.382l-6.815-2.867l3.561,6.463L139.173-158.685z"/>
			<path style="fill:#FFFFFF;" d="M228.693-138.023c5.928,5.302,13.153,9.865,16.703,11.401c5.006,2.173,10.194,3.971,13.312,5.109
				c4.483,1.65,9.842,2.082,15.872,2.492c12.868,0.865,27.102-7.487,32.745-16.43c4.642-7.361,5.427-15.337,4.324-23.029
				c-1.013-7.077-4.995-14.302-6.269-15.189c-0.341-0.239-0.034,1.877,0.102,2.708c0.171,0.91-0.023,1.172,0.216,2.901
				c0.284,2.048-0.546,5.086-1.695,6.144c-1.593,1.456-2.981,1.604-4.028,1.809c-1.354,0.284-1.729,0.489-4.051-0.296
				c-1.968-0.671-5.063-1.764-7.259-4.301c-0.58-0.671-1.593-1.468-2.367-2.583c-1.468-2.162-3.425-4.881-5.678-6.952
				c-2.992-2.753-6.292-4.585-7.623-4.824l-3.436-1.468c-4.619-1.9-17.362-2.856-26.476,4.324c-1.991,1.57-4.494,3.174-6.588,5.086
				c-3.038,2.776-6.019,5.04-10.331,5.78c-2.583,0.455-4.904-0.592-7.293-1.479c-4.278-1.582-8.044-4.278-9.83-6.11l-1.388-1.32
				c-0.307,0.501-0.125,0.853,0.011,1.183l0.933,1.684c1.24,2.514,5.268,5.996,8.852,8.886c2.856,2.31,7.691,5.154,11.139,6.258
				c6.042,1.946,11.435,2.253,14.916,2.503c5.222,0.375,5.905,0.239,7.475,0.171l0.239-0.034c0.205,0.091,0.398,0.102,0.501,0.319
				c0.193,0.444,0.011,0.956-0.432,1.149l-0.25,0.034c-1.536,0.455-4.528,0.273-9.705-0.023c-4.278-0.25-8.647-0.751-14.484-3.22
				c-3.322-1.422-8.385-3.823-11.139-6.269c-3.914-3.516-7.202-6.872-8.476-9.011l-1.126-1.411c-0.25-0.193-0.387-0.387-0.41-0.58
				l-0.034-0.182c-0.865-0.125,0.933,6.258,7.134,15.656c4.915,7.452,11.287,15.531,16.02,18.967"/>
			<path style="fill:#DE2910;" d="M267.822-151.597l-6.736-3.015l0.466-7.361l-4.938,5.484l-6.861-2.731l3.686,6.394l-4.71,5.678
				l7.225-1.525l3.937,6.235l0.774-7.339L267.822-151.597z"/>
			<path style="fill:none;stroke:#DE2910;stroke-width:0.013;" d="M267.822-151.597l-6.736-3.015l0.466-7.361l-4.938,5.484
				l-6.861-2.731l3.686,6.394l-4.71,5.678l7.225-1.525l3.937,6.235l0.774-7.339L267.822-151.597z"/>
			<path style="fill:#FFFFFF;" d="M208.418-219.124c-1.479-7.805-4.449-15.838-6.326-19.194c-2.662-4.767-5.689-9.364-7.441-12.151
				c-2.571-4.039-6.542-7.657-11.105-11.651c-9.682-8.511-26.066-10.559-35.977-6.895c-8.169,3.026-13.631,8.886-17.431,15.656
				c-3.504,6.235-4.733,14.393-4.267,15.872c0.125,0.41,1.149-1.479,1.547-2.219c0.432-0.819,0.74-0.922,1.604-2.423
				c1.024-1.809,3.527-3.709,5.074-3.846c2.15-0.193,3.345,0.546,4.312,1.013c1.229,0.592,1.661,0.671,3.015,2.708
				c1.161,1.718,2.958,4.471,3.163,7.817c0.046,0.876,0.364,2.15,0.296,3.493c-0.137,2.606-0.25,5.962,0.284,8.977
				c0.694,4.016,2.207,7.464,3.118,8.476l1.832,3.243c2.514,4.324,12.026,12.834,23.632,12.686c2.549-0.046,5.518,0.205,8.34-0.023
				c4.085-0.364,7.828-0.353,11.708,1.684c2.321,1.217,3.527,3.459,4.881,5.598c2.435,3.868,3.777,8.317,4.085,10.854l0.307,1.866
				c0.546-0.193,0.614-0.592,0.717-0.944l0.273-1.9c0.546-2.753-0.535-7.964-1.616-12.425c-0.865-3.584-2.97-8.761-5.029-11.753
				c-3.618-5.222-7.703-8.738-10.32-11.048c-3.903-3.493-4.551-3.789-5.825-4.676l-0.205-0.125c-0.125-0.205-0.262-0.33-0.205-0.569
				c0.102-0.455,0.569-0.762,1.024-0.66l0.216,0.137c1.513,0.58,3.777,2.537,7.703,5.928c3.231,2.799,6.406,5.848,9.523,11.366
				c1.786,3.163,4.346,8.124,5.029,11.753c0.979,5.166,1.536,9.819,1.252,12.311l0.034,1.798c0.091,0.307,0.068,0.535-0.034,0.717
				l-0.068,0.159c0.603,0.626,3.061-5.518,3.857-16.759c0.626-8.92,0.489-19.194-1.172-24.792"/>
			<path style="fill:#DE2910;" d="M169.085-232.163l3.516,6.497l-4.858,5.564l7.259-1.354l3.777,6.337l0.967-7.316l7.191-1.638
				l-6.656-3.186l0.66-7.35l-5.074,5.359L169.085-232.163z"/>
			<path style="fill:none;stroke:#DE2910;stroke-width:0.013;" d="M169.085-232.163l3.516,6.497l-4.858,5.564l7.259-1.354
				l3.777,6.337l0.967-7.316l7.191-1.638l-6.656-3.186l0.66-7.35l-5.074,5.359L169.085-232.163z"/>
			<path style="fill:#FFFFFF;" d="M247.751-187.551c6.736-4.255,13.107-9.944,15.553-12.925c3.47-4.233,6.633-8.715,8.579-11.389
				c2.844-3.868,4.722-8.875,6.781-14.598c4.358-12.106,0.262-28.114-6.793-35.999c-5.803-6.474-13.255-9.432-20.958-10.479
				c-7.066-0.978-15.11,0.865-16.304,1.843c-0.353,0.273,1.798,0.535,2.617,0.637c0.922,0.114,1.126,0.353,2.856,0.592
				c2.048,0.307,4.722,1.934,5.439,3.334c0.956,1.911,0.705,3.3,0.626,4.358c-0.091,1.365-0.011,1.798-1.411,3.8
				c-1.183,1.718-3.072,4.415-6.121,5.814c-0.796,0.364-1.855,1.126-3.118,1.547c-2.492,0.842-5.655,1.968-8.272,3.561
				c-3.459,2.116-6.133,4.779-6.736,6.019l-2.355,2.89c-3.095,3.914-7.521,15.883-3.118,26.613c0.956,2.367,1.82,5.211,3.072,7.748
				c1.82,3.686,3.174,7.179,2.708,11.526c-0.284,2.605-1.923,4.54-3.413,6.61c-2.708,3.675-6.349,6.542-8.602,7.76l-1.627,0.967
				c0.387,0.444,0.774,0.364,1.126,0.33l1.877-0.432c2.753-0.501,7.225-3.413,10.98-6.064c3.015-2.116,7.066-5.973,9.079-8.988
				c3.538-5.279,5.313-10.377,6.508-13.653c1.809-4.927,1.855-5.621,2.23-7.134l0.023-0.228c0.137-0.193,0.216-0.375,0.444-0.398
				c0.489-0.08,0.933,0.239,0.978,0.705l-0.023,0.25c0.023,1.616-0.978,4.437-2.697,9.341c-1.411,4.039-3.106,8.101-7.088,13.016
				c-2.287,2.822-5.962,7.02-9.091,8.988c-4.437,2.799-8.59,5.04-10.991,5.678l-1.661,0.694c-0.25,0.193-0.478,0.262-0.694,0.239
				l-0.159-0.011c-0.364,0.785,6.269,0.819,17.01-2.56c8.522-2.685,18.034-6.565,22.642-10.16"/>
			<path style="fill:#DE2910;" d="M245.476-228.932l-4.733,5.655l-6.94-2.503l3.891,6.258l-4.506,5.848l7.168-1.775l4.153,6.11
				l0.523-7.384l7.077-2.059l-6.838-2.776L245.476-228.932z"/>
			<path style="fill:none;stroke:#DE2910;stroke-width:0.013;" d="M245.476-228.932l-4.733,5.655l-6.94-2.503l3.891,6.258
				l-4.506,5.848l7.168-1.775l4.153,6.11l0.523-7.384l7.077-2.059l-6.838-2.776L245.476-228.932z"/>
			<g>
				<path style="fill:#DE2910;" d="M195.243-125.951c1.308,4.119,5.359,3.595,3.937-1.388c-1.422-4.972-4.892-17.522-3.049-26.419
					c1.707-8.203,4.142-13.107,7.02-16.555c2.879-3.459-0.193-5.598-3.459-1.502c-3.561,4.437-7.1,12.561-7.828,18.057
					C190.453-143.029,192.273-135.27,195.243-125.951"/>
				<path style="fill:#DE2910;" d="M154.829-170.37c-3.63,2.344-2.048,6.121,2.378,3.436c4.437-2.685,15.61-9.353,24.69-9.91
					c8.363-0.512,13.733,0.546,17.818,2.412c4.096,1.866,5.348-1.65,0.535-3.743c-5.222-2.253-13.995-3.538-19.479-2.788
					C170.052-179.484,163.044-175.695,154.829-170.37"/>
				<path style="fill:#DE2910;" d="M185.902-220.08c-3.277-2.81-6.451-0.239-2.628,3.254c3.823,3.516,13.358,12.345,16.464,20.912
					c2.833,7.862,3.334,13.312,2.697,17.772c-0.649,4.449,3.083,4.665,3.732-0.535c0.705-5.643-0.535-14.427-2.799-19.479
					C198.94-208.019,193.32-213.685,185.902-220.08"/>
				<path style="fill:#DE2910;" d="M240.868-209.999c1.286-4.119-2.332-6.007-4.028-1.115c-1.695,4.904-6.007,17.169-12.618,23.427
					c-6.087,5.746-10.889,8.363-15.235,9.569c-4.335,1.172-3.049,4.676,1.98,3.197c5.461-1.604,13.016-6.246,16.759-10.32
					C235.008-193.239,237.943-200.646,240.868-209.999"/>
				<path style="fill:#DE2910;" d="M248.263-150.664c4.324,0.125,5.166-3.88-0.023-4.176c-5.166-0.296-18.148-1.115-25.953-5.78
					c-7.191-4.312-11.014-8.226-13.346-12.083c-2.31-3.834-5.325-1.673-2.549,2.776c3.026,4.824,9.535,10.832,14.495,13.323
					C230.548-151.767,238.478-150.937,248.263-150.664"/>
			</g>
		</g>
	</g>
</g>
<g>
</g>
<g>
</g>
<g>
</g>
<g>
</g>
<g>
</g>
<g>
</g>
<g>
</g>
<g>
</g>
<g>
</g>
<g>
</g>
<g>
</g>
<g>
</g>
<g>
</g>
<g>
</g>
<g>
</g>
</svg>
