<svg width="30" height="30" viewBox="0 0 30 30" fill="none" xmlns="http://www.w3.org/2000/svg">
<path d="M22.5904 25.3926C19.0597 27.2171 14.2097 27.402 9.33867 25.5368C5.53839 24.0901 2.28463 21.598 0 18.3823C1.06579 19.1343 2.22576 19.7581 3.45452 20.2376C8.48914 22.2995 13.5349 22.2064 17.0768 20.2376C12.4016 16.8721 8.19109 12.9653 4.54448 8.60862C3.91619 7.97983 3.35395 7.28897 2.86648 6.54677C6.69589 9.58993 10.7694 12.3471 15.0506 14.7942C11.9325 11.8034 9.06479 8.58705 6.47467 5.17528C10.7942 9.09743 15.5426 12.5739 20.6404 15.5468L21.1857 15.8353C21.3331 15.4993 21.4606 15.155 21.5674 14.8041C22.7447 10.9688 21.4038 6.60841 18.4617 3C25.2728 6.67991 29.3055 13.5978 27.6263 19.3919C27.6263 19.546 27.5395 19.7014 27.4837 19.8561L27.5383 19.9177C30.9054 23.6808 29.9797 27.6597 29.5546 26.9077C27.713 23.7641 24.3019 24.7318 22.591 25.3913L22.5904 25.3926Z" fill="white"/>
</svg>
