<svg width="24" height="24" viewBox="0 0 24 24" fill="none" xmlns="http://www.w3.org/2000/svg">
<g clip-path="url(#clip0_937_1941)">
<path d="M11.551 20.3996C11.3835 20.392 11.2207 20.3429 11.0774 20.2568C8.80139 18.8036 6.81094 16.9545 5.20272 14.7992C3.84305 12.9896 3.07459 10.8131 3.00001 8.56041C2.9956 7.05872 3.38921 5.58207 4.14166 4.2774C4.89411 2.97273 5.97917 1.88554 7.28886 1.12401C8.58756 0.376214 10.0662 -0.0119665 11.5692 0.000281101C13.0722 0.0125287 14.5441 0.424752 15.8301 1.19361C17.1141 1.98516 18.1701 3.09028 18.8962 4.40241C19.6271 5.72383 20.0069 7.20688 20 8.71281C19.7615 11.8011 18.3819 14.6948 16.124 16.8428C14.903 18.1246 13.5341 19.2604 12.0452 20.2268C11.8927 20.3141 11.7251 20.3727 11.551 20.3996ZM11.4915 5.81721C11.1116 5.8167 10.7355 5.89141 10.3854 6.03692C10.0352 6.18243 9.71807 6.39579 9.45272 6.66441C9.04544 7.07379 8.76864 7.59227 8.65662 8.1556C8.5446 8.71893 8.60228 9.30236 8.82251 9.83361C9.03399 10.3636 9.40176 10.8186 9.8781 11.1396C10.3545 11.4606 10.9174 11.6327 11.4939 11.6336H11.5146C11.8916 11.6341 12.265 11.5601 12.6126 11.4158C12.9603 11.2716 13.2752 11.06 13.5388 10.7936C13.8737 10.4529 14.1203 10.0373 14.2576 9.58206C14.3948 9.12685 14.4187 8.6456 14.3271 8.17931C14.2355 7.71303 14.0312 7.27555 13.7315 6.90416C13.4319 6.53278 13.0458 6.2385 12.6062 6.04641C12.2542 5.89608 11.875 5.8181 11.4915 5.81721Z" fill="#191919"/>
<path opacity="0.4" d="M11.4991 23.9996C14.8523 23.9996 17.5706 23.4624 17.5706 22.7996C17.5706 22.1369 14.8523 21.5996 11.4991 21.5996C8.14597 21.5996 5.4277 22.1369 5.4277 22.7996C5.4277 23.4624 8.14597 23.9996 11.4991 23.9996Z" fill="#191919"/>
</g>
<defs>
<clipPath id="clip0_937_1941">
<rect width="24" height="24" fill="white"/>
</clipPath>
</defs>
</svg>
