<svg width="35" height="35" viewBox="0 0 35 35" fill="none" xmlns="http://www.w3.org/2000/svg">
<g clip-path="url(#clip0_2817_58)">
<path d="M35.0004 23.6869C35.0004 19.3437 32.5087 15.4675 28.777 13.582C28.6612 21.9096 21.9096 28.6612 13.582 28.777C15.4675 32.5087 19.3437 35.0004 23.6869 35.0004C25.7233 35.0004 27.7036 34.458 29.4435 33.4276L34.951 34.951L33.4276 29.4435C34.458 27.7036 35.0004 25.7233 35.0004 23.6869Z" fill="#4842A8"/>
<path d="M26.7285 13.3643C26.7285 5.99512 20.7334 0 13.3643 0C5.99512 0 0 5.99512 0 13.3643C0 15.7659 0.639297 18.1043 1.85322 20.1572L0.049082 26.6791L6.57125 24.8754C8.62422 26.0892 10.9626 26.7285 13.3643 26.7285C20.7334 26.7285 26.7285 20.7334 26.7285 13.3643ZM11.3135 10.2539H9.2627C9.2627 7.99217 11.1025 6.15234 13.3643 6.15234C15.626 6.15234 17.4658 7.99217 17.4658 10.2539C17.4658 11.4019 16.9798 12.5053 16.132 13.2807L14.3896 14.8753V16.4746H12.3389V13.9723L14.7474 11.7677C15.1779 11.3738 15.415 10.8363 15.415 10.2539C15.415 9.12304 14.4951 8.20312 13.3643 8.20312C12.2334 8.20312 11.3135 9.12304 11.3135 10.2539ZM12.3389 18.5254H14.3896V20.5762H12.3389V18.5254Z" fill="#4842A8"/>
</g>
<defs>
<clipPath id="clip0_2817_58">
<rect width="35" height="35" fill="white"/>
</clipPath>
</defs>
</svg>
