<svg width="30" height="30" viewBox="0 0 30 30" fill="none" xmlns="http://www.w3.org/2000/svg">
<g clip-path="url(#clip0_542_215)">
<path d="M28.5938 2.69531H1.40625L0 7.96875V28.1836C0 28.6687 0.39375 29.0625 0.878906 29.0625H29.1211C29.6062 29.0625 30 28.6687 30 28.1836V7.96875L28.5938 2.69531Z" fill="url(#paint0_linear_542_215)"/>
<path d="M25.6055 16.7578H24.4034L22.8759 13.703C22.6589 13.2688 22.131 13.0928 21.6968 13.3099C21.2626 13.527 21.0867 14.0549 21.3038 14.4891L22.4381 16.7579H18.2259L19.3603 14.4891C19.5774 14.0549 19.4014 13.5271 18.9673 13.3099C18.5333 13.0929 18.0052 13.2688 17.7881 13.703L16.2607 16.7578H15.0586C14.9193 16.7578 14.7821 16.7909 14.6581 16.8544C14.5342 16.9179 14.4271 17.0099 14.3456 17.1228C14.2642 17.2358 14.2108 17.3665 14.1898 17.5042C14.1687 17.6418 14.1807 17.7825 14.2247 17.9146L15.9826 23.1881C16.0409 23.3631 16.1528 23.5153 16.3025 23.6231C16.4521 23.731 16.6319 23.7891 16.8164 23.7891H23.8477C24.0321 23.7891 24.2119 23.731 24.3615 23.6232C24.5112 23.5153 24.6231 23.3631 24.6814 23.1881L26.4393 17.9147C26.4833 17.7826 26.4953 17.6419 26.4743 17.5042C26.4533 17.3665 26.3999 17.2358 26.3185 17.1228C26.2371 17.0098 26.1299 16.9178 26.006 16.8544C25.882 16.7909 25.7447 16.7578 25.6055 16.7578ZM11.543 15H4.39453C3.90914 15 3.51562 15.3935 3.51562 15.8789C3.51562 16.3643 3.90914 16.7578 4.39453 16.7578H11.543C12.0284 16.7578 12.4219 16.3643 12.4219 15.8789C12.4219 15.3935 12.0284 15 11.543 15ZM11.543 18.5156H4.39453C3.90914 18.5156 3.51562 18.9091 3.51562 19.3945C3.51562 19.8799 3.90914 20.2734 4.39453 20.2734H11.543C12.0284 20.2734 12.4219 19.8799 12.4219 19.3945C12.4219 18.9091 12.0284 18.5156 11.543 18.5156ZM11.543 22.0312H4.39453C3.90914 22.0312 3.51562 22.4248 3.51562 22.9102C3.51562 23.3955 3.90914 23.7891 4.39453 23.7891H11.543C12.0284 23.7891 12.4219 23.3955 12.4219 22.9102C12.4219 22.4248 12.0284 22.0312 11.543 22.0312ZM29.1211 0.9375H0.878906C0.39375 0.9375 0 1.33125 0 1.81641V7.96875H30V1.81641C30 1.33125 29.6062 0.9375 29.1211 0.9375ZM15.0586 5.33203H4.39453C3.90914 5.33203 3.51562 4.93852 3.51562 4.45312C3.51562 3.96773 3.90914 3.57422 4.39453 3.57422H15.0586C15.544 3.57422 15.9375 3.96773 15.9375 4.45312C15.9375 4.93852 15.544 5.33203 15.0586 5.33203ZM18.5742 5.33203C18.0888 5.33203 17.6953 4.93852 17.6953 4.45312C17.6953 3.96773 18.0888 3.57422 18.5742 3.57422C19.0596 3.57422 19.4531 3.96773 19.4531 4.45312C19.4531 4.93852 19.0596 5.33203 18.5742 5.33203ZM22.0898 5.33203C21.6045 5.33203 21.2109 4.93852 21.2109 4.45312C21.2109 3.96773 21.6045 3.57422 22.0898 3.57422C22.5752 3.57422 22.9688 3.96773 22.9688 4.45312C22.9688 4.93852 22.5752 5.33203 22.0898 5.33203ZM25.6055 5.33203C25.1201 5.33203 24.7266 4.93852 24.7266 4.45312C24.7266 3.96773 25.1201 3.57422 25.6055 3.57422C26.0909 3.57422 26.4844 3.96773 26.4844 4.45312C26.4844 4.93852 26.0909 5.33203 25.6055 5.33203Z" fill="url(#paint1_linear_542_215)"/>
</g>
<defs>
<linearGradient id="paint0_linear_542_215" x1="15" y1="29.0625" x2="15" y2="2.69531" gradientUnits="userSpaceOnUse">
<stop stop-color="#5558FF"/>
<stop offset="1" stop-color="#00C0FF"/>
</linearGradient>
<linearGradient id="paint1_linear_542_215" x1="15" y1="23.7891" x2="15" y2="0.9375" gradientUnits="userSpaceOnUse">
<stop stop-color="#ADDCFF"/>
<stop offset="0.503" stop-color="#EAF6FF"/>
<stop offset="1" stop-color="#EAF6FF"/>
</linearGradient>
<clipPath id="clip0_542_215">
<rect width="30" height="30" fill="white"/>
</clipPath>
</defs>
</svg>
