<svg width="24" height="24" viewBox="0 0 24 24" fill="none" xmlns="http://www.w3.org/2000/svg">
<g clip-path="url(#clip0_937_1920)">
<path opacity="0.4" d="M14.9018 4.18608C14.6438 4.15725 14.3843 4.22663 14.1751 4.38043C13.9659 4.53422 13.8223 4.76115 13.7728 5.01605C13.7234 5.27095 13.7717 5.53514 13.9082 5.75602C14.0447 5.97691 14.2593 6.1383 14.5094 6.20808C15.3254 6.36569 16.0753 6.76441 16.6623 7.35269C17.2493 7.94097 17.6464 8.69177 17.8022 9.50808C17.8466 9.74357 17.9716 9.95625 18.1558 10.1096C18.34 10.2629 18.5718 10.3472 18.8114 10.3481C18.8778 10.348 18.9441 10.3419 19.0094 10.3301C19.2771 10.2756 19.5124 10.1178 19.6645 9.8909C19.8166 9.66403 19.8731 9.38635 19.8218 9.11808C19.589 7.89823 18.9958 6.77623 18.1187 5.89703C17.2417 5.01783 16.1211 4.42185 14.9018 4.18608Z" fill="#191919"/>
<path opacity="0.4" d="M14.8261 0.00894943C14.6931 -0.00914539 14.5578 0.000263283 14.4286 0.0365925C14.2994 0.0729217 14.179 0.135398 14.0749 0.220149C13.9144 0.347118 13.795 0.518831 13.732 0.713598C13.6689 0.908364 13.665 1.11745 13.7208 1.31443C13.7765 1.51141 13.8893 1.68746 14.0451 1.82033C14.2008 1.9532 14.3924 2.03693 14.5957 2.06095C16.4778 2.26557 18.2332 3.10787 19.5705 4.44795C20.9077 5.78804 21.7463 7.54525 21.9469 9.42775C21.9744 9.67949 22.0938 9.91223 22.2822 10.0814C22.4707 10.2506 22.7149 10.3443 22.9681 10.3446C23.0082 10.3447 23.0483 10.3423 23.0881 10.3373C23.2219 10.3229 23.3514 10.282 23.4692 10.2172C23.5871 10.1523 23.6908 10.0646 23.7745 9.95935C23.8591 9.85334 23.9218 9.73164 23.9591 9.60127C23.9964 9.4709 24.0075 9.33443 23.9917 9.19975C23.7433 6.85143 22.6984 4.65892 21.0309 2.98685C19.3634 1.31477 17.1738 0.263885 14.8261 0.00894943Z" fill="#191919"/>
<path d="M18.7196 15.2074C18.0319 15.1172 17.3362 15.2998 16.7816 15.7162C16.2236 16.0402 15.1616 16.897 14.5544 16.6762C11.3003 15.3268 8.68587 12.7833 7.24757 9.56743C7.02437 8.94703 7.88117 7.88743 8.20757 7.32223C8.62185 6.7643 8.80339 6.06736 8.71397 5.37823C8.00057 4.0059 7.08967 2.74568 6.01037 1.63783C5.65729 1.24916 5.17836 0.997586 4.65797 0.927427C2.91917 0.855427 0.977573 3.16663 0.636773 3.71983C-0.217627 4.89823 -0.211627 6.46663 0.651173 8.36743C2.73077 13.477 10.5956 21.187 15.7436 23.3362C16.5515 23.7437 17.4384 23.9705 18.3428 24.001C19.0692 24.0126 19.7801 23.7905 20.3708 23.3674C20.81 23.1142 23.2268 21.0874 23.162 19.3054C23.0923 18.7885 22.8435 18.3125 22.4588 17.9602C21.3524 16.8662 20.0928 15.9389 18.7196 15.2074Z" fill="#191919"/>
</g>
<defs>
<clipPath id="clip0_937_1920">
<rect width="24" height="24" fill="white"/>
</clipPath>
</defs>
</svg>
