<svg width="30" height="30" viewBox="0 0 30 30" fill="none" xmlns="http://www.w3.org/2000/svg">
<g clip-path="url(#clip0_542_251)">
<path d="M22.9102 7.08984H7.08984V22.9102H22.9102V9.72656V7.08984ZM6.21094 8.84766H1.75781V7.96875C1.75781 7.48295 1.36471 7.08984 0.878906 7.08984C0.393105 7.08984 0 7.48295 0 7.96875V9.72656C0 10.2124 0.393105 10.6055 0.878906 10.6055H6.21094C6.69674 10.6055 7.08984 10.2124 7.08984 9.72656C7.08984 9.24076 6.69674 8.84766 6.21094 8.84766ZM6.21094 19.3945H0.878906C0.393105 19.3945 0 19.7876 0 20.2734V22.0312C0 22.5171 0.393105 22.9102 0.878906 22.9102C1.36471 22.9102 1.75781 22.5171 1.75781 22.0312V21.1523H6.21094C6.69674 21.1523 7.08984 20.7592 7.08984 20.2734C7.08984 19.7876 6.69674 19.3945 6.21094 19.3945ZM6.21094 12.3633H0.878906C0.393105 12.3633 0 12.7564 0 13.2422C0 13.728 0.393105 14.1211 0.878906 14.1211H6.21094C6.69674 14.1211 7.08984 13.728 7.08984 13.2422C7.08984 12.7564 6.69674 12.3633 6.21094 12.3633ZM23.7891 10.6055H29.1211C29.6069 10.6055 30 10.2124 30 9.72656V7.96875C30 7.48295 29.6069 7.08984 29.1211 7.08984C28.6353 7.08984 28.2422 7.48295 28.2422 7.96875V8.84766H23.7891C23.3033 8.84766 22.9102 9.24076 22.9102 9.72656C22.9102 10.2124 23.3033 10.6055 23.7891 10.6055ZM23.7891 14.1211H29.1211C29.6069 14.1211 30 13.728 30 13.2422C30 12.7564 29.6069 12.3633 29.1211 12.3633H23.7891C23.3033 12.3633 22.9102 12.7564 22.9102 13.2422C22.9102 13.728 23.3033 14.1211 23.7891 14.1211ZM6.21094 15.8789H0.878906C0.393105 15.8789 0 16.272 0 16.7578C0 17.2436 0.393105 17.6367 0.878906 17.6367H6.21094C6.69674 17.6367 7.08984 17.2436 7.08984 16.7578C7.08984 16.272 6.69674 15.8789 6.21094 15.8789ZM23.7891 17.6367H29.1211C29.6069 17.6367 30 17.2436 30 16.7578C30 16.272 29.6069 15.8789 29.1211 15.8789H23.7891C23.3033 15.8789 22.9102 16.272 22.9102 16.7578C22.9102 17.2436 23.3033 17.6367 23.7891 17.6367ZM23.7891 21.1523H28.2422V22.0312C28.2422 22.5171 28.6353 22.9102 29.1211 22.9102C29.6069 22.9102 30 22.5171 30 22.0312V20.2734C30 19.7876 29.6069 19.3945 29.1211 19.3945H23.7891C23.3033 19.3945 22.9102 19.7876 22.9102 20.2734C22.9102 20.7592 23.3033 21.1523 23.7891 21.1523ZM8.84766 23.7891V28.2422H7.96875C7.48295 28.2422 7.08984 28.6353 7.08984 29.1211C7.08984 29.6069 7.48295 30 7.96875 30H9.72656C10.2124 30 10.6055 29.6069 10.6055 29.1211V23.7891C10.6055 23.3033 10.2124 22.9102 9.72656 22.9102C9.24076 22.9102 8.84766 23.3033 8.84766 23.7891ZM19.3945 23.7891V29.1211C19.3945 29.6069 19.7876 30 20.2734 30H22.0312C22.5171 30 22.9102 29.6069 22.9102 29.1211C22.9102 28.6353 22.5171 28.2422 22.0312 28.2422H21.1523V23.7891C21.1523 23.3033 20.7592 22.9102 20.2734 22.9102C19.7876 22.9102 19.3945 23.3033 19.3945 23.7891ZM12.3633 23.7891V29.1211C12.3633 29.6069 12.7564 30 13.2422 30C13.728 30 14.1211 29.6069 14.1211 29.1211V23.7891C14.1211 23.3033 13.728 22.9102 13.2422 22.9102C12.7564 22.9102 12.3633 23.3033 12.3633 23.7891ZM10.6055 6.21094V0.878906C10.6055 0.393105 10.2124 0 9.72656 0H7.96875C7.48295 0 7.08984 0.393105 7.08984 0.878906C7.08984 1.36471 7.48295 1.75781 7.96875 1.75781H8.84766V6.21094C8.84766 6.69674 9.24076 7.08984 9.72656 7.08984C10.2124 7.08984 10.6055 6.69674 10.6055 6.21094ZM14.1211 6.21094V0.878906C14.1211 0.393105 13.728 0 13.2422 0C12.7564 0 12.3633 0.393105 12.3633 0.878906V6.21094C12.3633 6.69674 12.7564 7.08984 13.2422 7.08984C13.728 7.08984 14.1211 6.69674 14.1211 6.21094ZM15.8789 23.7891V29.1211C15.8789 29.6069 16.272 30 16.7578 30C17.2436 30 17.6367 29.6069 17.6367 29.1211V23.7891C17.6367 23.3033 17.2436 22.9102 16.7578 22.9102C16.272 22.9102 15.8789 23.3033 15.8789 23.7891ZM17.6367 6.21094V0.878906C17.6367 0.393105 17.2436 0 16.7578 0C16.272 0 15.8789 0.393105 15.8789 0.878906V6.21094C15.8789 6.69674 16.272 7.08984 16.7578 7.08984C17.2436 7.08984 17.6367 6.69674 17.6367 6.21094ZM21.1523 6.21094V1.75781H22.0312C22.5171 1.75781 22.9102 1.36471 22.9102 0.878906C22.9102 0.393105 22.5171 0 22.0312 0H20.2734C19.7876 0 19.3945 0.393105 19.3945 0.878906V6.21094C19.3945 6.69674 19.7876 7.08984 20.2734 7.08984C20.7592 7.08984 21.1523 6.69674 21.1523 6.21094Z" fill="url(#paint0_linear_542_251)"/>
<path d="M15.8789 12.3633H14.1211V14.1211H15.8789C16.3712 14.1211 16.7578 13.7343 16.7578 13.2422C16.7578 12.7499 16.3712 12.3633 15.8789 12.3633ZM23.7891 5.33203H6.21094C5.71869 5.33203 5.33203 5.71869 5.33203 6.21094V23.7891C5.33203 24.2812 5.71869 24.668 6.21094 24.668H23.7891C24.2813 24.668 24.668 24.2812 24.668 23.7891V6.21094C24.668 5.71869 24.2813 5.33203 23.7891 5.33203ZM9.72656 21.1523C9.23432 21.1523 8.84766 20.7656 8.84766 20.2734C8.84766 19.7812 9.23432 19.3945 9.72656 19.3945C10.2188 19.3945 10.6055 19.7812 10.6055 20.2734C10.6055 20.7656 10.2188 21.1523 9.72656 21.1523ZM9.72656 10.6055C9.23432 10.6055 8.84766 10.2187 8.84766 9.72656C8.84766 9.23432 9.23432 8.84766 9.72656 8.84766C10.2188 8.84766 10.6055 9.23432 10.6055 9.72656C10.6055 10.2187 10.2188 10.6055 9.72656 10.6055ZM18.5156 16.7578C18.5156 18.2167 17.3379 19.3945 15.8789 19.3945V20.2734C15.8789 20.7656 15.4922 21.1523 15 21.1523C14.5078 21.1523 14.1211 20.7656 14.1211 20.2734V19.3945H12.3633C11.871 19.3945 11.4844 19.0078 11.4844 18.5156C11.4844 18.0234 11.871 17.6367 12.3633 17.6367V12.3633C11.871 12.3633 11.4844 11.9765 11.4844 11.4844C11.4844 10.9921 11.871 10.6055 12.3633 10.6055H14.1211V9.72656C14.1211 9.23432 14.5078 8.84766 15 8.84766C15.4922 8.84766 15.8789 9.23432 15.8789 9.72656V10.6055C17.3379 10.6055 18.5156 11.7831 18.5156 13.2422C18.5156 13.9102 18.2695 14.5253 17.8477 15C18.2695 15.4746 18.5156 16.0898 18.5156 16.7578ZM20.2734 21.1523C19.7812 21.1523 19.3945 20.7656 19.3945 20.2734C19.3945 19.7812 19.7812 19.3945 20.2734 19.3945C20.7657 19.3945 21.1523 19.7812 21.1523 20.2734C21.1523 20.7656 20.7657 21.1523 20.2734 21.1523ZM20.2734 10.6055C19.7812 10.6055 19.3945 10.2187 19.3945 9.72656C19.3945 9.23432 19.7812 8.84766 20.2734 8.84766C20.7657 8.84766 21.1523 9.23432 21.1523 9.72656C21.1523 10.2187 20.7657 10.6055 20.2734 10.6055ZM15.8789 15.8789H14.1211V17.6367H15.8789C16.3712 17.6367 16.7578 17.2499 16.7578 16.7578C16.7578 16.2656 16.3712 15.8789 15.8789 15.8789Z" fill="url(#paint1_linear_542_251)"/>
</g>
<defs>
<linearGradient id="paint0_linear_542_251" x1="15" y1="30" x2="15" y2="0" gradientUnits="userSpaceOnUse">
<stop stop-color="#ADDCFF"/>
<stop offset="0.503" stop-color="#EAF6FF"/>
<stop offset="1" stop-color="#EAF6FF"/>
</linearGradient>
<linearGradient id="paint1_linear_542_251" x1="15" y1="24.668" x2="15" y2="5.33203" gradientUnits="userSpaceOnUse">
<stop stop-color="#5558FF"/>
<stop offset="1" stop-color="#00C0FF"/>
</linearGradient>
<clipPath id="clip0_542_251">
<rect width="30" height="30" fill="white"/>
</clipPath>
</defs>
</svg>
