<svg width="18" height="18" viewBox="0 0 18 18" fill="none" xmlns="http://www.w3.org/2000/svg">
<path d="M17.2778 10.8225C17.2723 10.8522 17.263 10.7958 17.2778 10.8225C17.3648 10.3483 17.4105 9.86311 17.4105 9.37798C17.4105 8.30228 17.2 7.25885 16.7839 6.27632C16.3824 5.32742 15.8081 4.47523 15.0759 3.74354C14.3448 3.01174 13.492 2.43754 12.5435 2.03615C11.5614 1.62055 10.5179 1.40993 9.44227 1.40993C8.9353 1.40993 8.42752 1.45752 7.93335 1.55247C7.93232 1.55268 7.92966 1.553 7.92966 1.553C7.25162 1.19248 6.48921 1 5.71737 1C4.4573 1 3.27262 1.49069 2.3817 2.38191C1.49088 3.27286 1 4.45762 1 5.71758C1 6.51962 1.2064 7.30805 1.59347 8.00462C1.51498 8.45605 1.47348 8.91737 1.47348 9.37798C1.47348 10.4539 1.6841 11.4973 2.10023 12.4798C2.50109 13.4292 3.0756 14.2808 3.80719 15.0126C4.53941 15.7443 5.39096 16.3194 6.3405 16.7197C7.32268 17.1362 8.36656 17.3469 9.44216 17.3469C9.91039 17.3469 10.3796 17.3041 10.8378 17.2229C11.5456 17.6236 12.3451 17.8342 13.1585 17.8344C14.4182 17.8344 15.6024 17.3446 16.4934 16.453C17.3846 15.5625 17.875 14.3775 17.875 13.1176C17.875 12.3129 17.6676 11.5219 17.2778 10.8225ZM9.47399 14.2581C6.64312 14.2581 5.37654 12.8664 5.37654 11.8232C5.37654 11.2884 5.77152 10.9133 6.31588 10.9133C7.52745 10.9133 7.21371 12.6528 9.47399 12.6528C10.6312 12.6528 11.27 12.0245 11.27 11.3816C11.27 10.9948 11.0793 10.5662 10.3173 10.3784L7.79946 9.74981C5.77155 9.24132 5.40365 8.145 5.40365 7.11451C5.40365 4.97497 7.41816 4.17169 9.3099 4.17169C11.0526 4.17169 13.1069 5.13481 13.1069 6.41837C13.1069 6.96839 12.6306 7.28817 12.0865 7.28817C11.0526 7.28817 11.2427 5.85714 9.16014 5.85714C8.12681 5.85714 7.55432 6.32516 7.55432 6.99473C7.55432 7.66319 8.37057 7.87671 9.07919 8.03808L10.9429 8.45183C12.9844 8.90667 13.502 10.0985 13.502 11.2212C13.5022 12.9598 12.1676 14.2581 9.47399 14.2581Z" fill="#4842A8"/>
</svg>
