<svg width="153" height="50" viewBox="0 0 153 50" fill="none" xmlns="http://www.w3.org/2000/svg">
<g clip-path="url(#clip0_3838_157)">
<path d="M49.6699 19.7931V2.96841C49.6699 2.42969 49.8505 1.95313 50.2318 1.58016C50.5931 1.18648 51.0546 1 51.5764 1H53.4227V7.98268H60.9282V1H64.7411V19.7724H60.9282V11.4429H53.4227V19.7931H49.6699Z" fill="#4842A8"/>
<path d="M67.751 24.911V21.9066H68.7544C69.4568 21.9066 70.0187 21.7408 70.42 21.3886C70.8214 21.0363 70.9017 20.4976 70.6609 19.731L65.7441 5.26831H69.818L72.6677 15.5248L75.1561 6.57368C75.3769 5.70343 75.9388 5.26831 76.8419 5.26831H79.3705L73.9721 21.803C73.5507 23.0047 73.0289 23.8543 72.3867 24.3723C71.7445 24.8074 70.7211 25.0353 69.2761 25.0353H68.9149H68.5537C68.4533 24.9939 68.3129 24.9731 68.1523 24.9524C67.9918 24.9317 67.8513 24.911 67.751 24.911Z" fill="#4842A8"/>
<path d="M82.4008 23.2741C82.4008 23.7921 82.2202 24.2272 81.879 24.5794C81.5178 24.9524 81.0964 25.1182 80.6147 25.1182H78.8086V11.5465C78.8086 8.99791 79.531 7.25742 80.976 6.32502C82.4209 5.39261 83.9862 4.93677 85.6719 4.93677C86.5549 4.93677 87.4379 5.10253 88.341 5.45477C89.2441 5.80701 89.9464 6.3043 90.4883 6.96734C91.5519 8.37631 92.0737 10.1997 92.0737 12.4167C92.0737 14.7167 91.5519 16.5608 90.4883 17.9904C89.4247 19.3787 88.0801 20.0625 86.4144 20.0625C85.5314 20.0625 84.7488 19.8967 84.0865 19.5652C83.3841 19.1922 82.8222 18.6328 82.4008 17.8661V23.2741ZM88.4413 12.5825C88.4413 11.1735 88.1804 10.0754 87.6386 9.30871C87.1168 8.54207 86.3542 8.16911 85.3709 8.16911C84.4277 8.16911 83.6852 8.54207 83.1433 9.30871C82.6416 9.99248 82.4008 11.0906 82.4008 12.5825C82.4008 13.9707 82.6617 15.0067 83.2035 15.6905C83.7253 16.4572 84.4879 16.8301 85.4712 16.8301C86.3944 16.8301 87.1168 16.4572 87.6386 15.6905C88.1804 14.9239 88.4413 13.8879 88.4413 12.5825Z" fill="#4842A8"/>
<path d="M102.77 15.3176H105.419C105.037 16.8509 104.295 18.0113 103.191 18.8193C102.107 19.6481 100.723 20.0833 99.077 20.0833C97.0702 20.0833 95.5049 19.3995 94.381 18.0734C93.2572 16.7681 92.6953 14.8825 92.6953 12.4583C92.6953 10.1376 93.2372 8.31424 94.3409 7.00888C95.4647 5.66207 97.03 4.99902 99.0569 4.99902C101.164 4.99902 102.81 5.66207 103.974 6.96743C105.097 8.31424 105.659 10.1791 105.659 12.5826V12.9141V13.1213C105.659 13.3078 105.639 13.4321 105.599 13.4943H96.4481C96.4882 14.6339 96.7491 15.4627 97.2307 16.0014C97.6923 16.5816 98.3746 16.8717 99.2978 16.8717C99.8998 16.8717 100.402 16.7473 100.823 16.4987C100.923 16.4573 101.024 16.3951 101.124 16.3122C101.204 16.2293 101.305 16.1257 101.405 16.0221C101.445 15.9185 101.565 15.7735 101.806 15.587C102.027 15.4005 102.348 15.3176 102.77 15.3176ZM96.428 11.0493H101.826C101.746 10.0755 101.505 9.32953 101.084 8.87369C100.622 8.35568 99.9801 8.10704 99.1372 8.10704C98.3545 8.10704 97.7324 8.35568 97.2307 8.87369C96.729 9.37097 96.4681 10.0962 96.428 11.0493Z" fill="#4842A8"/>
<path d="M106.482 19.7931V12.7483C106.482 11.3393 106.683 10.1375 107.084 9.16369C107.486 8.18985 108.048 7.4232 108.75 6.84304C109.412 6.30432 110.195 5.88991 111.098 5.64127C112.001 5.39263 112.924 5.26831 113.868 5.26831H114.128H114.389V9.14297H113.185C112.162 9.14297 111.399 9.39161 110.918 9.90962C110.416 10.4276 110.175 11.215 110.175 12.3132V19.7931H106.482Z" fill="#4842A8"/>
<path d="M115.936 1H117.842C118.344 1 118.765 1.16576 119.106 1.518C119.468 1.87025 119.628 2.28465 119.628 2.80265V19.7724H115.936V1Z" fill="#4842A8"/>
<path d="M121.594 1H123.5C124.002 1 124.423 1.18648 124.765 1.53872C125.126 1.91169 125.286 2.34681 125.286 2.84409V4.00442H121.594V1ZM121.594 5.26834H123.5C124.002 5.26834 124.423 5.45483 124.765 5.80707C125.126 6.18003 125.286 6.61515 125.286 7.11244V19.7724H121.594V5.26834Z" fill="#4842A8"/>
<path d="M138.733 19.7931H136.867C136.345 19.7931 135.903 19.6273 135.562 19.2751C135.221 18.9228 135.06 18.4877 135.06 17.9283V10.5105C135.06 9.64024 134.8 8.99791 134.298 8.60423C133.796 8.21055 133.214 8.00335 132.572 8.00335C131.93 8.00335 131.368 8.21055 130.886 8.60423C130.385 8.99791 130.144 9.64024 130.144 10.5105V19.7931H126.451V11.2771C126.451 8.81143 127.073 7.15382 128.338 6.3043C129.582 5.47549 130.967 5.01965 132.492 4.93677C134.037 4.93677 135.462 5.35117 136.766 6.20069C138.071 7.0295 138.713 8.72855 138.713 11.2771V19.7931H138.733Z" fill="#4842A8"/>
<path d="M144.011 5.26834V10.6141L148.506 5.26834H152.941L147.924 10.8421L153.001 19.7931H148.566L145.978 14.8825C145.456 13.9086 144.994 13.4735 144.593 13.6186C144.212 13.7636 144.011 13.9708 144.011 14.2816V16.2914V19.7931H140.318V1H142.225C142.727 1 143.148 1.18648 143.489 1.53872C143.85 1.91169 144.011 2.32609 144.011 2.80265V5.26834Z" fill="#4842A8"/>
<path d="M48.7461 43.6214V29.138C48.7461 28.6615 48.9066 28.2678 49.2277 27.9362C49.5488 27.6047 49.9301 27.439 50.3917 27.439H51.9771V43.6214H48.7461Z" fill="#DC2E3D"/>
<path d="M63.5564 43.6214H61.971C61.5095 43.6214 61.1482 43.4764 60.8472 43.1656C60.5663 42.8755 60.4057 42.4818 60.4057 42.0053V35.6028C60.4057 34.8568 60.185 34.2974 59.7435 33.9659C59.302 33.6136 58.8203 33.4479 58.2584 33.4479C57.7166 33.4479 57.2349 33.6136 56.7934 33.9659C56.372 34.3181 56.1512 34.8568 56.1512 35.6028V43.6007H52.9805V36.2658C52.9805 34.1316 53.5223 32.7019 54.606 31.9975C55.6897 31.2723 56.8737 30.8786 58.1781 30.8164C59.5227 30.8164 60.7469 31.1687 61.8707 31.8939C62.9945 32.6191 63.5564 34.0695 63.5564 36.2658V43.6214Z" fill="#DC2E3D"/>
<path d="M64.2793 43.6213V30.7334C64.2793 29.6145 64.5603 28.765 65.1422 28.1848C65.6841 27.6461 66.5871 27.3767 67.8314 27.3767C68.1324 27.3767 68.3732 27.3974 68.5538 27.4181C68.895 27.4181 69.1559 27.4389 69.3365 27.4596V30.0496H68.5137C68.0923 30.0496 67.7912 30.1118 67.6106 30.2361C67.4501 30.3604 67.3899 30.609 67.3899 30.982V31.8315H69.3566V32.536C69.3566 33.0126 69.196 33.3855 68.895 33.6963C68.594 33.9864 68.2327 34.1522 67.8514 34.1522H67.3899V43.6006H64.2793V43.6213Z" fill="#DC2E3D"/>
<path d="M71.3031 42.4818C70.6609 41.9223 70.2194 41.1557 69.9385 40.2026C69.6575 39.2494 69.5371 38.2549 69.5371 37.2189C69.5371 36.3693 69.6575 35.5198 69.8783 34.6703C70.099 33.8208 70.4602 33.1163 70.9419 32.5568C71.7245 31.6244 72.748 31.065 73.9923 30.8785C75.2365 30.7127 76.3603 30.8163 77.3637 31.1893C78.5076 31.6659 79.3705 32.474 79.9124 33.6343C80.4341 34.6703 80.695 35.8721 80.695 37.2603C80.695 38.2549 80.5947 39.1251 80.3739 39.8503C80.1532 40.5755 79.8923 41.1764 79.5511 41.6737C78.8287 42.7097 77.9056 43.352 76.7817 43.6007C75.7783 43.8907 74.7749 43.9115 73.7514 43.6628C72.728 43.4556 71.9052 43.0619 71.3031 42.4818ZM73.4905 34.2144C72.8484 34.9397 72.5674 36.0171 72.6276 37.4261C72.6878 38.8558 72.9487 39.8503 73.4103 40.4098C73.5909 40.6584 73.912 40.8656 74.3735 41.0521C74.8351 41.2178 75.2967 41.2386 75.7583 41.0935C76.2198 40.9485 76.6413 40.5962 77.0025 40.0368C77.3637 39.4774 77.5644 38.5657 77.5845 37.3017C77.5845 36.1621 77.4038 35.3333 77.0627 34.7532C76.7215 34.1937 76.3202 33.8208 75.8586 33.6757C75.397 33.51 74.9555 33.51 74.494 33.655C74.0324 33.8208 73.7113 33.9865 73.4905 34.2144Z" fill="#DC2E3D"/>
<path d="M81.418 38.5864H84.6088C84.7292 39.5188 85.0704 40.1818 85.6524 40.5548C86.2544 40.9899 87.0973 41.2178 88.1609 41.2178C89.1041 41.2178 89.8065 41.0521 90.3082 40.6998C90.7898 40.3476 91.0306 39.8503 91.0306 39.1873C91.0306 38.1927 89.666 37.3639 86.9367 36.7423L86.8364 36.7009L86.4752 36.5973C84.9299 36.245 83.8864 35.8928 83.3847 35.5198C82.7826 35.1676 82.3612 34.6703 82.1003 34.0072C81.7993 33.4478 81.6387 32.7226 81.6387 31.8523C81.6387 30.3191 82.1605 29.1173 83.184 28.2263C84.2074 27.3768 85.7126 26.9624 87.6993 26.9624C89.5456 26.9624 90.9704 27.3975 91.9738 28.2885C92.9973 29.2623 93.5592 30.5263 93.6194 32.101H91.7932C91.0908 32.101 90.5891 31.7695 90.2881 31.1064C90.1276 30.7956 89.9269 30.5263 89.6459 30.2983C89.1041 29.8839 88.3616 29.6767 87.4184 29.6767C86.5153 29.6767 85.853 29.8425 85.4517 30.1947C84.9901 30.547 84.7694 31.0235 84.7694 31.6451C84.7694 32.4947 85.6524 33.1163 87.4184 33.5307C87.9401 33.6964 88.3214 33.7793 88.5622 33.8208C89.1041 34.0072 89.5857 34.1523 89.9871 34.2766C90.3885 34.3802 90.7296 34.4631 90.9704 34.5252C91.3919 34.7117 91.8133 34.8982 92.2548 35.0847C92.8568 35.4576 93.3385 35.9549 93.6596 36.5351C94.0007 37.1981 94.1613 37.9233 94.1613 38.69C94.1613 40.389 93.6194 41.6944 92.5157 42.6475C91.432 43.5178 89.8667 43.9736 87.8799 43.9736C85.8129 43.9736 84.2677 43.5178 83.2241 42.6061C82.1204 41.7151 81.5183 40.3683 81.418 38.5864Z" fill="#DC2E3D"/>
<path d="M96.1463 48.0348V45.4448H97.0093C97.6113 45.4448 98.0929 45.2997 98.4341 44.9889C98.7753 44.6988 98.8555 44.2223 98.6348 43.5592L94.4004 31.1064H97.9123L100.381 39.9539L102.528 32.2461C102.709 31.5001 103.19 31.1272 103.993 31.1272H106.16L101.525 45.3826C101.163 46.4186 100.702 47.1438 100.16 47.5997C99.6181 47.9726 98.7151 48.1591 97.4708 48.1591H97.1497H96.8286C96.7283 48.1177 96.628 48.0969 96.4875 48.0969C96.347 48.0555 96.2266 48.0348 96.1463 48.0348Z" fill="#DC2E3D"/>
<path d="M106.042 39.4774H109.132C109.172 40.0991 109.393 40.5756 109.814 40.8864C110.276 41.1972 110.878 41.363 111.641 41.363C112.182 41.363 112.664 41.2594 113.045 41.0315C113.407 40.8035 113.587 40.5135 113.587 40.1405C113.587 39.581 112.945 39.1459 111.681 38.8766C111.139 38.773 110.717 38.6901 110.457 38.5865C108.851 38.1721 107.767 37.6955 107.226 37.1361C106.624 36.5766 106.323 35.81 106.323 34.8776C106.323 33.6758 106.764 32.702 107.647 31.9146C108.55 31.1894 109.734 30.8372 111.199 30.8372C112.784 30.8372 114.029 31.1894 114.972 31.9146C115.855 32.702 116.316 33.7173 116.377 34.9605H114.41C113.828 34.9605 113.387 34.6911 113.085 34.1524C112.965 34.0281 112.845 33.9037 112.724 33.7794C112.363 33.4893 111.861 33.365 111.219 33.365C110.617 33.365 110.156 33.4686 109.855 33.6551C109.574 33.8416 109.453 34.1317 109.453 34.5046C109.453 35.0019 110.236 35.437 111.821 35.7685C112.002 35.8307 112.162 35.8721 112.303 35.9136C112.443 35.955 112.564 35.955 112.684 35.955C114.229 36.3694 115.313 36.8253 115.915 37.364C116.497 37.9234 116.778 38.6901 116.778 39.6225C116.778 41.0107 116.296 42.0675 115.313 42.8134C114.41 43.4972 113.045 43.8494 111.219 43.8494C109.493 43.8494 108.189 43.4972 107.346 42.7719C106.463 42.0467 106.021 41.0107 106.021 39.6225V39.4774H106.042Z" fill="#DC2E3D"/>
<path d="M122.878 43.6214C121.874 43.6836 120.791 43.6628 119.627 43.58C118.463 43.4764 117.881 42.7097 117.881 41.28V27.4597H119.526C119.928 27.4597 120.269 27.6255 120.57 27.9363C120.871 28.2471 121.032 28.62 121.032 29.0552V31.1686H122.898V31.8317C122.898 32.3082 122.737 32.6812 122.436 32.992C122.135 33.2821 121.774 33.4478 121.353 33.4478H121.011V40.4098C121.011 40.9485 121.313 41.2179 121.915 41.2179H122.878V43.6214Z" fill="#DC2E3D"/>
<path d="M131.809 39.7675H134.077C133.736 41.0936 133.114 42.0882 132.17 42.7719C131.227 43.4971 130.043 43.8494 128.618 43.8494C126.892 43.8494 125.528 43.2692 124.565 42.1089C123.601 40.9693 123.1 39.3738 123.1 37.2604C123.1 35.2505 123.561 33.6965 124.504 32.5569C125.468 31.3966 126.832 30.8164 128.558 30.8164C130.384 30.8164 131.789 31.3759 132.793 32.5155C133.756 33.6758 134.258 35.292 134.258 37.364V37.6955V37.882C134.258 38.0477 134.237 38.1513 134.217 38.2135H126.331C126.351 39.1873 126.591 39.9125 127.013 40.3684C127.414 40.8657 127.996 41.1143 128.779 41.1143C129.301 41.1143 129.742 41.0107 130.103 40.7828C130.204 40.7621 130.284 40.6999 130.344 40.617C130.424 40.5341 130.505 40.4513 130.585 40.3684C130.605 40.2648 130.726 40.1405 130.926 39.9954C131.167 39.8504 131.448 39.7675 131.809 39.7675ZM126.351 36.1H130.986C130.926 35.2505 130.705 34.6289 130.344 34.2145C129.943 33.7794 129.381 33.5515 128.658 33.5515C127.996 33.5515 127.434 33.7794 127.013 34.2145C126.612 34.6496 126.391 35.2712 126.351 36.1Z" fill="#DC2E3D"/>
<path d="M145.575 43.6214H142.424V36.2865V35.6235C142.424 34.8776 142.203 34.3181 141.762 33.9866C141.32 33.6343 140.838 33.4686 140.277 33.4686C139.735 33.4686 139.253 33.6343 138.812 33.9866C138.39 34.3388 138.169 34.8776 138.169 35.6235V43.6214H134.979V36.2865C134.979 34.1523 135.52 32.7227 136.604 32.0182C137.688 31.293 138.872 30.8993 140.176 30.8371C140.879 30.8371 141.561 30.92 142.223 31.0651C142.885 31.2308 143.508 31.5416 144.049 31.9975C144.511 31.5831 145.053 31.293 145.675 31.1272C146.297 30.9614 146.939 30.8578 147.621 30.8164C148.966 30.8164 150.19 31.1687 151.314 31.8939C152.438 32.6191 153 34.0695 153 36.2658V43.6007H151.414C150.953 43.6007 150.592 43.4557 150.291 43.1449C150.01 42.8548 149.869 42.4611 149.869 41.9846V35.582C149.869 34.8361 149.648 34.2767 149.207 33.9451C148.765 33.5929 148.264 33.4271 147.722 33.4271C147.18 33.4271 146.678 33.5929 146.237 33.9451C145.795 34.2974 145.575 34.8361 145.575 35.582V36.2451V43.6214Z" fill="#DC2E3D"/>
<path d="M9.01078 0C3.6325 0 0.000150648 2.65217 0.742674 10.0078C1.72602 19.6427 9.05091 43.0978 17.5598 46.9725C22.2157 49.086 26.4701 41.8132 25.5269 37.8349C24.4834 33.4837 20.8109 30.6658 18.1217 27.4749C15.0112 23.7867 11.0778 18.4202 11.1179 13.2816C11.2183 2.36209 35.9222 10.8366 40.6784 15.0428C36.9658 10.2979 19.6068 0 9.01078 0Z" fill="url(#paint0_radial_3838_157)"/>
<path d="M23.1989 26.646C23.1989 26.646 34.8786 36.6123 25.9081 47.2003C34.999 37.8141 52.3781 21.8389 32.1092 14.0481C28.236 12.5563 25.0653 11.8518 22.6771 11.8518C16.0145 11.8518 15.5529 17.3841 23.1989 26.646Z" fill="url(#paint1_radial_3838_157)"/>
</g>
<defs>
<radialGradient id="paint0_radial_3838_157" cx="0" cy="0" r="1" gradientUnits="userSpaceOnUse" gradientTransform="translate(15.2148 20.534) scale(46.0872 46.6426)">
<stop stop-color="#ED13B3"/>
<stop offset="0.2418" stop-color="#ED13B3"/>
<stop offset="0.6044" stop-color="#D9382F"/>
<stop offset="1" stop-color="#D9382F"/>
</radialGradient>
<radialGradient id="paint1_radial_3838_157" cx="0" cy="0" r="1" gradientUnits="userSpaceOnUse" gradientTransform="translate(20.9217 14.7644) scale(19.3242 30.6645)">
<stop stop-color="#8480DF"/>
<stop offset="0.6813" stop-color="#453E9F"/>
<stop offset="1" stop-color="#453E9F"/>
</radialGradient>
<clipPath id="clip0_3838_157">
<rect width="153" height="49.086" fill="white"/>
</clipPath>
</defs>
</svg>
