<svg width="35" height="35" viewBox="0 0 35 35" fill="none" xmlns="http://www.w3.org/2000/svg">
<g clip-path="url(#clip0_2817_62)">
<path d="M35 8.27148V3.14453C35 1.44833 33.62 0.0683594 31.9238 0.0683594H3.07617C1.37997 0.0683594 0 1.44833 0 3.14453V8.27148H35ZM23.6523 4.16992H29.8047C30.371 4.16992 30.8301 4.62902 30.8301 5.19531C30.8301 5.7616 30.371 6.2207 29.8047 6.2207H23.6523C23.0861 6.2207 22.627 5.7616 22.627 5.19531C22.627 4.62902 23.0861 4.16992 23.6523 4.16992ZM13.3984 4.16992C13.9647 4.16992 14.4238 4.62902 14.4238 5.19531C14.4238 5.7616 13.9647 6.2207 13.3984 6.2207C12.8321 6.2207 12.373 5.7616 12.373 5.19531C12.373 4.62902 12.8321 4.16992 13.3984 4.16992ZM9.29688 4.16992C9.86316 4.16992 10.3223 4.62902 10.3223 5.19531C10.3223 5.7616 9.86316 6.2207 9.29688 6.2207C8.73059 6.2207 8.27148 5.7616 8.27148 5.19531C8.27148 4.62902 8.73059 4.16992 9.29688 4.16992ZM5.19531 4.16992C5.7616 4.16992 6.2207 4.62902 6.2207 5.19531C6.2207 5.7616 5.7616 6.2207 5.19531 6.2207C4.62902 6.2207 4.16992 5.7616 4.16992 5.19531C4.16992 4.62902 4.62902 4.16992 5.19531 4.16992ZM0 10.3223V31.8555C0 33.5517 1.37997 34.9316 3.07617 34.9316H31.9238C33.62 34.9316 35 33.5517 35 31.8555V10.3223H0ZM11.9882 24.9024C12.4305 25.2562 12.5021 25.9014 12.1483 26.3437C11.7947 26.7858 11.1493 26.8576 10.7071 26.5038L5.58018 22.4022C5.06755 21.9922 5.06721 21.2111 5.58018 20.8008L10.7071 16.6992C11.1491 16.3455 11.7945 16.4171 12.1483 16.8593C12.5021 17.3016 12.4305 17.9469 11.9882 18.3006L7.86215 21.6016L11.9882 24.9024ZM21.5186 14.8278L15.3663 29.1832C15.1432 29.7037 14.5406 29.945 14.0199 29.7218C13.4994 29.4987 13.2582 28.8958 13.4814 28.3754L19.6337 14.0199C19.8568 13.4994 20.4596 13.2583 20.9801 13.4814C21.5006 13.7044 21.7418 14.3072 21.5186 14.8278ZM29.4198 22.4023L24.2929 26.5038C23.8514 26.8571 23.206 26.7866 22.8516 26.3437C22.4979 25.9015 22.5695 25.2562 23.0118 24.9025L27.1379 21.6016L23.0118 18.3007C22.5695 17.9469 22.4979 17.3017 22.8516 16.8595C23.2053 16.4173 23.8507 16.3455 24.2929 16.6994L29.4198 20.8009C29.9325 21.2109 29.9328 21.992 29.4198 22.4023Z" fill="#4842A8"/>
</g>
<defs>
<clipPath id="clip0_2817_62">
<rect width="35" height="35" fill="white"/>
</clipPath>
</defs>
</svg>
