<svg width="24" height="24" viewBox="0 0 24 24" fill="none" xmlns="http://www.w3.org/2000/svg">
<g clip-path="url(#clip0_937_1949)">
<path d="M12.024 2.40382e-05C10.4461 -0.00313647 8.88311 0.305387 7.42443 0.907934C5.96575 1.51048 4.64005 2.39522 3.5232 3.51151C2.40635 4.62781 1.52029 5.95373 0.915736 7.41339C0.31118 8.87306 -3.15575e-06 10.4378 0 12.0181C0.0355692 14.1206 0.592248 16.1813 1.62 18.015C1.71384 18.1776 1.7701 18.3591 1.78463 18.5463C1.79917 18.7335 1.77162 18.9216 1.704 19.0967L0.9 21.7887C0.854394 21.9241 0.848372 22.0698 0.882644 22.2085C0.916915 22.3472 0.990052 22.4733 1.09344 22.5717C1.19683 22.6702 1.32617 22.7371 1.46623 22.7645C1.60629 22.7918 1.75124 22.7785 1.884 22.7261L4.308 22.005C4.61922 21.9317 4.9433 21.9326 5.25409 22.0078C5.56488 22.0829 5.85368 22.2302 6.0972 22.4377C7.69221 23.3454 9.47401 23.8743 11.3053 23.9836C13.1366 24.0929 14.9685 23.7796 16.6599 23.068C18.3512 22.3564 19.8569 21.2654 21.0608 19.8791C22.2648 18.4928 23.1348 16.8482 23.604 15.072C24.0732 13.2958 24.1289 11.4354 23.767 9.63422C23.405 7.83304 22.6349 6.13913 21.5162 4.68301C20.3974 3.22688 18.9598 2.04743 17.3141 1.23552C15.6684 0.423607 13.8585 0.000919586 12.024 2.40382e-05Z" fill="#191919"/>
<path d="M15.9722 12.0305C15.9724 11.7263 16.0627 11.429 16.2316 11.1762C16.4006 10.9234 16.6405 10.7264 16.9212 10.6101C17.2019 10.4939 17.5107 10.4636 17.8086 10.5231C18.1065 10.5826 18.38 10.7292 18.5947 10.9444C18.8094 11.1596 18.9556 11.4337 19.0148 11.732C19.0739 12.0304 19.0435 12.3396 18.9272 12.6207C18.8109 12.9017 18.614 13.1419 18.3614 13.3108C18.1089 13.4798 17.8119 13.57 17.5082 13.57C17.3062 13.5706 17.1061 13.5312 16.9194 13.4541C16.7327 13.3769 16.563 13.2635 16.4202 13.1204C16.2775 12.9773 16.1644 12.8074 16.0875 12.6203C16.0106 12.4332 15.9714 12.2328 15.9722 12.0305ZM10.4402 12.0185C10.4428 11.7148 10.5351 11.4187 10.7055 11.1675C10.8758 10.9162 11.1166 10.7211 11.3975 10.6067C11.6784 10.4923 11.9868 10.4637 12.2839 10.5246C12.581 10.5854 12.8534 10.733 13.0669 10.9486C13.2804 11.1643 13.4254 11.4384 13.4836 11.7364C13.5418 12.0345 13.5106 12.3431 13.394 12.6234C13.2773 12.9037 13.0805 13.1432 12.8282 13.3116C12.5759 13.4801 12.2794 13.57 11.9762 13.57C11.5679 13.5659 11.1778 13.4006 10.8904 13.1102C10.603 12.8197 10.4405 12.4274 10.4402 12.0185ZM4.9082 12.0305C4.9082 11.6225 5.07003 11.2312 5.35809 10.9427C5.64614 10.6543 6.03683 10.4922 6.4442 10.4922C6.85158 10.4922 7.24226 10.6543 7.53032 10.9427C7.81838 11.2312 7.9802 11.6225 7.9802 12.0305C7.97738 12.4377 7.81468 12.8275 7.52727 13.1155C7.23986 13.4036 6.85081 13.5669 6.4442 13.57C6.0375 13.5672 5.64827 13.404 5.36079 13.1159C5.07332 12.8278 4.91072 12.4378 4.9082 12.0305Z" fill="white"/>
</g>
<defs>
<clipPath id="clip0_937_1949">
<rect width="24" height="24" fill="white"/>
</clipPath>
</defs>
</svg>
