<svg width="50" height="50" viewBox="0 0 50 50" fill="none" xmlns="http://www.w3.org/2000/svg">
<circle cx="25" cy="25" r="25" fill="#191919"/>
<path d="M30.9305 22.6666L20.9162 16.2893C20.63 16.1026 20.304 16.0028 19.9714 16C19.4485 16 18.9471 16.2289 18.5774 16.6364C18.2077 17.0439 18 17.5966 18 18.1729V31.8596C18.0001 32.2421 18.0931 32.6175 18.2694 32.9469C18.4456 33.2763 18.6988 33.5476 19.0024 33.7327C19.306 33.9177 19.6491 34.0098 19.9959 33.9992C20.3427 33.9886 20.6807 33.8758 20.9745 33.6725L31.0005 26.691C31.3123 26.4759 31.5682 26.1755 31.7432 25.8191C31.9183 25.4626 32.0067 25.0622 31.9996 24.6569C31.9926 24.2516 31.8904 23.8553 31.703 23.5065C31.5157 23.1577 31.2495 22.8683 30.9305 22.6666Z" fill="white"/>
</svg>
