<svg width="18" height="18" viewBox="0 0 18 18" fill="none" xmlns="http://www.w3.org/2000/svg">
<g clip-path="url(#clip0_742_2520)">
<path d="M20.433 0H-2.941C-3.487 0.000264984 -4.01056 0.21728 -4.39664 0.60336C-4.78272 0.98944 -4.99974 1.513 -5 2.059L-5 15.953C-4.99974 16.499 -4.78272 17.0226 -4.39664 17.4086C-4.01056 17.7947 -3.487 18.0117 -2.941 18.012H20.433C20.979 18.0117 21.5026 17.7947 21.8886 17.4086C22.2747 17.0226 22.4917 16.499 22.492 15.953V2.059C22.4917 1.513 22.2747 0.98944 21.8886 0.60336C21.5026 0.21728 20.979 0.000264984 20.433 0Z" fill="#41479B"/>
<path d="M22.464 1.719C22.3834 1.23876 22.1353 0.802607 21.7637 0.487923C21.392 0.173239 20.921 0.000373613 20.434 0L19.9 0L11.119 5.753V0H6.379V5.753L-2.405 0H-2.941C-3.42795 0.000373613 -3.89903 0.173239 -4.27065 0.487923C-4.64227 0.802607 -4.89039 1.23876 -4.971 1.719L2.534 6.636H-5V11.376H2.534L-4.971 16.293C-4.89039 16.7732 -4.64227 17.2094 -4.27065 17.5241C-3.89903 17.8388 -3.42795 18.0116 -2.941 18.012H-2.405L6.376 12.259V18.012H11.116V12.259L19.897 18.012H20.433C20.92 18.0116 21.391 17.8388 21.7627 17.5241C22.1343 17.2094 22.3824 16.7732 22.463 16.293L14.958 11.376H22.492V6.636H14.958L22.464 1.719Z" fill="#F5F5F5"/>
<path d="M10.168 0H7.324V7.584H-5V10.424H7.324V18.008H10.168V10.424H22.492V7.584H10.168V0ZM-3.669 17.879L6.35 11.379H4.608L-4.505 17.295C-4.27968 17.5567 -3.99221 17.7575 -3.669 17.879ZM13.598 11.376H11.858L21.558 17.676C21.8299 17.4977 22.056 17.2579 22.218 16.976L13.598 11.376ZM-4.783 1.138L3.686 6.638H5.428L-4.172 0.408C-4.43 0.6 -4.639 0.85 -4.783 1.138ZM12.857 6.636L21.987 0.709C21.7596 0.446748 21.4696 0.246207 21.144 0.126L11.116 6.636H12.857Z" fill="#FF4B55"/>
</g>
<defs>
<clipPath id="clip0_742_2520">
<rect width="18" height="18" rx="9" fill="white"/>
</clipPath>
</defs>
</svg>
