<svg width="35" height="35" viewBox="0 0 35 35" fill="none" xmlns="http://www.w3.org/2000/svg">
<g clip-path="url(#clip0_2817_25)">
<path d="M17.4994 26.1523C13.165 26.1523 9.63867 29.6787 9.63867 34.0131C9.63867 34.5583 10.0807 35.0003 10.6259 35.0003H24.3729C24.9181 35.0003 25.3601 34.5583 25.3601 34.0131C25.3601 29.6787 21.8338 26.1523 17.4994 26.1523Z" fill="#4842A8"/>
<path d="M21.2398 22.4109C21.2398 20.3485 19.5619 18.6706 17.4994 18.6706C12.5441 18.8587 12.5455 25.9641 17.4995 26.1514C19.5619 26.1513 21.2398 24.4734 21.2398 22.4109ZM19.2198 8.16376C19.2198 7.21514 18.448 6.44336 17.4994 6.44336C15.2203 6.52983 15.2209 9.79796 17.4994 9.88409C18.448 9.88409 19.2198 9.11238 19.2198 8.16376ZM13.0996 15.5462C15.889 15.2235 19.1099 15.2235 21.8993 15.5462C20.8764 10.7605 14.1206 10.7637 13.0996 15.5462Z" fill="#4842A8"/>
<path d="M32.9492 5.5326C32.9492 4.42675 31.4578 3.09347 29.057 2.05311C26.0021 0.729121 21.8976 0 17.5 0C13.1024 0 8.99793 0.729121 5.94295 2.05304C1.58224 4.05549 -0.216023 6.4372 6.53932 9.25682C7.95969 9.75687 8.90954 11.0935 8.90954 12.6022V16.2807C9.57673 16.1173 10.2716 15.973 10.9892 15.8478C11.1917 13.5313 12.607 11.5573 14.5954 10.5668C12.5667 8.17619 14.3353 4.36577 17.5001 4.39332C20.6646 4.3657 22.4338 8.17687 20.4047 10.5668C22.3932 11.5573 23.8084 13.5313 24.0109 15.8478C24.7285 15.9729 25.4234 16.1173 26.0906 16.2807V12.6022C26.0906 11.0936 27.0404 9.75693 28.4608 9.25682C33.0738 7.45671 32.9492 5.59515 32.9492 5.5326Z" fill="#4842A8"/>
<path d="M5.83331 11.1834C2.25169 9.79445 0 7.77669 0 5.5332V22.9789C0 25.2224 2.25169 27.2402 5.83331 28.6291C6.33233 28.7954 6.8587 28.4312 6.8587 27.9052V12.6028C6.8587 11.9621 6.44116 11.3859 5.83331 11.1834ZM29.1667 11.1834C28.5589 11.3859 28.1413 11.9621 28.1413 12.6028V27.9052C28.1413 28.4312 28.6677 28.7954 29.1667 28.6291C32.7483 27.2402 35 25.2224 35 22.9789V5.5332C35 7.77669 32.7483 9.79445 29.1667 11.1834Z" fill="#4842A8"/>
</g>
<defs>
<clipPath id="clip0_2817_25">
<rect width="35" height="35" fill="white"/>
</clipPath>
</defs>
</svg>
