<svg width="35" height="35" viewBox="0 0 35 35" fill="none" xmlns="http://www.w3.org/2000/svg">
<path d="M35 19.1214V5.40039C35 3.70419 33.62 2.32422 31.9238 2.32422H3.07617C1.37997 2.32422 0 3.70426 0 5.40039V19.1214H35ZM15.9301 12.8611H6.11816C5.55181 12.8611 5.09277 12.4021 5.09277 11.8357C5.09277 11.2694 5.55181 10.8104 6.11816 10.8104H15.9301C16.4965 10.8104 16.9555 11.2693 16.9555 11.8357C16.9555 12.4022 16.4965 12.8611 15.9301 12.8611ZM15.9301 9.59H6.11816C5.55181 9.59 5.09277 9.13069 5.09277 8.56461C5.09277 7.99825 5.55181 7.53922 6.11816 7.53922H15.9301C16.4965 7.53922 16.9555 7.99825 16.9555 8.56461C16.9555 9.13069 16.4965 9.59 15.9301 9.59ZM15.9301 16.1322H6.11816C5.55181 16.1322 5.09277 15.6732 5.09277 15.1068C5.09277 14.5407 5.55181 14.0814 6.11816 14.0814H15.9301C16.4965 14.0814 16.9555 14.5407 16.9555 15.1068C16.9555 15.6732 16.4965 16.1322 15.9301 16.1322ZM22.3586 17.2126C21.7922 17.2126 21.3333 16.7536 21.3333 16.1872C21.3333 15.6211 21.7922 15.1618 22.3586 15.1618C22.9247 15.1618 23.384 15.6211 23.384 16.1872C23.384 16.7536 22.9247 17.2126 22.3586 17.2126ZM25.196 17.2126C24.6297 17.2126 24.1706 16.7536 24.1706 16.1872C24.1706 15.6211 24.6297 15.1618 25.196 15.1618C25.7621 15.1618 26.2214 15.6211 26.2214 16.1872C26.2214 16.7536 25.7624 17.2126 25.196 17.2126ZM29.7734 10.0373L27.4548 14.1159C27.3653 14.2734 27.2357 14.4044 27.0791 14.4955C26.9225 14.5867 26.7446 14.6347 26.5634 14.6347H21.8222C21.6874 14.6347 21.554 14.6081 21.4295 14.5564C21.305 14.5048 21.1919 14.4292 21.0967 14.3338C21.0015 14.2385 20.926 14.1253 20.8745 14.0007C20.8231 13.8762 20.7966 13.7427 20.7968 13.608L20.8013 9.52937V8.53815H20.2677C19.7017 8.53815 19.2423 8.07892 19.2423 7.51276C19.2423 6.94641 19.7017 6.48737 20.2677 6.48737H21.8267C22.3928 6.48737 22.8521 6.94641 22.8521 7.51276V8.50507H28.8818C29.0612 8.50511 29.2375 8.55221 29.393 8.64167C29.5485 8.73112 29.6779 8.85981 29.7681 9.01487C29.8583 9.16993 29.9063 9.34595 29.9072 9.52536C29.9082 9.70476 29.8621 9.88127 29.7734 10.0373ZM0 21.1722V23.9252C0 25.6214 1.38004 27.0014 3.07617 27.0014H13.1747V30.6541H10.3417C9.77539 30.6541 9.31636 31.1132 9.31636 31.6795C9.31636 32.2459 9.77539 32.7049 10.3417 32.7049H24.6586C25.2247 32.7049 25.684 32.2459 25.684 31.6795C25.684 31.1132 25.2247 30.6541 24.6586 30.6541H21.8254V27.0014H31.9238C33.62 27.0014 35 25.6214 35 23.9252V21.1723L0 21.1722ZM17.057 22.1298H17.943C18.5091 22.1298 18.9684 22.5887 18.9684 23.1552C18.9684 23.7215 18.5091 24.1806 17.943 24.1806H17.057C16.4909 24.1806 16.0316 23.7215 16.0316 23.1552C16.0316 22.5887 16.4909 22.1298 17.057 22.1298Z" fill="#4842A8"/>
</svg>
