<svg width="18" height="18" viewBox="0 0 18 18" fill="none" xmlns="http://www.w3.org/2000/svg">
<g clip-path="url(#clip0_742_2472)">
<path d="M25.433 0H2.059C1.513 0.000264984 0.98944 0.21728 0.60336 0.60336C0.21728 0.98944 0.000264984 1.513 0 2.059L0 15.953C0.000264984 16.499 0.21728 17.0226 0.60336 17.4086C0.98944 17.7947 1.513 18.0117 2.059 18.012H25.433C25.979 18.0117 26.5026 17.7947 26.8886 17.4086C27.2747 17.0226 27.4917 16.499 27.492 15.953V2.059C27.4917 1.513 27.2747 0.98944 26.8886 0.60336C26.5026 0.21728 25.979 0.000264984 25.433 0Z" fill="#F5F5F5"/>
<path d="M0.113 1.386H27.379C27.2389 0.981385 26.9762 0.63048 26.6274 0.382079C26.2787 0.133679 25.8612 0.000128587 25.433 0L2.059 0C1.63082 0.000128587 1.21332 0.133679 0.864553 0.382079C0.515788 0.63048 0.253094 0.981385 0.113 1.386ZM0 5.542H27.492V6.928H0V5.542ZM0 2.771H27.492V4.157H0V2.771ZM0 9.225C0 9.487 0.212 9.699 0.474 9.699H27.492V8.315H0V9.225ZM0 13.856H27.492V15.242H0V13.856ZM27.379 16.626H0.113C0.253094 17.0306 0.515788 17.3815 0.864553 17.6299C1.21332 17.8783 1.63082 18.0119 2.059 18.012H25.433C25.8612 18.0119 26.2787 17.8783 26.6274 17.6299C26.9762 17.3815 27.2389 17.0306 27.379 16.626ZM0 11.085H27.492V12.471H0V11.085Z" fill="#FF4B55"/>
<path d="M0.474 9.699H12.324C12.45 9.7 12.571 9.65 12.66 9.561C12.749 9.472 12.8 9.351 12.8 9.225V0.474C12.8 0.348 12.75 0.228 12.661 0.139C12.572 0.05 12.452 0 12.326 0H2.059C1.513 0.000264984 0.98944 0.21728 0.60336 0.60336C0.21728 0.98944 0.000264984 1.513 0 2.059L0 9.225C0 9.351 0.05 9.471 0.139 9.56C0.228 9.649 0.348 9.699 0.474 9.699Z" fill="#41479B"/>
<path d="M1.32996 1.08902L1.42996 1.40402H1.76196C1.78096 1.40402 1.79796 1.41702 1.80396 1.43502C1.80996 1.45302 1.80296 1.47302 1.78796 1.48502L1.52096 1.68502L1.62096 2.00102C1.62696 2.01902 1.61996 2.03902 1.60396 2.05102C1.58796 2.06302 1.56696 2.06202 1.55196 2.05102L1.28196 1.85802L1.01196 2.05102C0.995955 2.06202 0.974955 2.06202 0.959955 2.05102C0.944955 2.04002 0.937955 2.02002 0.942955 2.00102L1.04296 1.68502L0.775955 1.48502C0.760955 1.47302 0.753955 1.45402 0.759955 1.43502C0.765955 1.41602 0.782955 1.40402 0.801955 1.40402H1.13396L1.23396 1.08902C1.23396 1.06202 1.25496 1.04102 1.28196 1.04102C1.30896 1.04102 1.32996 1.06202 1.32996 1.08902Z" fill="#F5F5F5"/>
<path d="M1.32996 2.73306L1.42996 3.04806H1.76196C1.78096 3.04806 1.79796 3.06106 1.80396 3.07906C1.80996 3.09706 1.80296 3.11706 1.78796 3.12906L1.52096 3.32906L1.62096 3.64506C1.62696 3.66306 1.61996 3.68306 1.60396 3.69506C1.58796 3.70706 1.56696 3.70606 1.55196 3.69506L1.28196 3.50206L1.01196 3.69506C0.995955 3.70606 0.974955 3.70606 0.959955 3.69506C0.944955 3.68406 0.937955 3.66406 0.942955 3.64506L1.04296 3.32906L0.775955 3.12906C0.760955 3.11706 0.753955 3.09806 0.759955 3.07906C0.765955 3.06006 0.782955 3.04806 0.801955 3.04806H1.13396L1.23396 2.73306C1.23396 2.70606 1.25496 2.68506 1.28196 2.68506C1.30896 2.68506 1.32996 2.70606 1.32996 2.73306Z" fill="#F5F5F5"/>
<path d="M1.32996 4.37905L1.42996 4.69405H1.76196C1.78096 4.69405 1.79796 4.70705 1.80396 4.72505C1.80996 4.74305 1.80296 4.76305 1.78796 4.77505L1.52096 4.97505L1.62096 5.29105C1.62696 5.30905 1.61996 5.32905 1.60396 5.34105C1.58796 5.35305 1.56696 5.35205 1.55196 5.34105L1.28196 5.14805L1.01196 5.34105C0.995955 5.35205 0.974955 5.35205 0.959955 5.34105C0.944955 5.33005 0.937955 5.31005 0.942955 5.29105L1.04296 4.97505L0.775955 4.77505C0.760955 4.76305 0.753955 4.74405 0.759955 4.72505C0.765955 4.70605 0.782955 4.69405 0.801955 4.69405H1.13396L1.23396 4.37905C1.23396 4.35205 1.25496 4.33105 1.28196 4.33105C1.30896 4.33105 1.32996 4.35205 1.32996 4.37905Z" fill="#F5F5F5"/>
<path d="M1.32996 6.02505L1.42996 6.34005H1.76196C1.78096 6.34005 1.79796 6.35305 1.80396 6.37105C1.80996 6.38905 1.80296 6.40905 1.78796 6.42105L1.52096 6.62105L1.62096 6.93705C1.62696 6.95505 1.61996 6.97505 1.60396 6.98705C1.58796 6.99905 1.56696 6.99805 1.55196 6.98705L1.28196 6.79405L1.01196 6.98705C0.995955 6.99805 0.974955 6.99805 0.959955 6.98705C0.944955 6.97605 0.937955 6.95605 0.942955 6.93705L1.04296 6.62105L0.775955 6.42105C0.760955 6.40905 0.753955 6.39005 0.759955 6.37105C0.765955 6.35205 0.782955 6.34005 0.801955 6.34005H1.13396L1.23396 6.02505C1.23396 5.99805 1.25496 5.97705 1.28196 5.97705C1.30896 5.97705 1.32996 5.99805 1.32996 6.02505Z" fill="#F5F5F5"/>
<path d="M1.32996 7.67105L1.42996 7.98605H1.76196C1.78096 7.98605 1.79796 7.99905 1.80396 8.01705C1.80996 8.03505 1.80296 8.05505 1.78796 8.06705L1.52096 8.26705L1.62096 8.58305C1.62696 8.60105 1.61996 8.62105 1.60396 8.63305C1.58796 8.64505 1.56696 8.64405 1.55196 8.63305L1.28196 8.44005L1.01196 8.63305C0.995955 8.64405 0.974955 8.64405 0.959955 8.63305C0.944955 8.62205 0.937955 8.60205 0.942955 8.58305L1.04296 8.26705L0.775955 8.06705C0.760955 8.05505 0.753955 8.03605 0.759955 8.01705C0.765955 7.99805 0.782955 7.98605 0.801955 7.98605H1.13396L1.23396 7.67105C1.23396 7.64405 1.25496 7.62305 1.28196 7.62305C1.30896 7.62305 1.32996 7.64405 1.32996 7.67105Z" fill="#F5F5F5"/>
<path d="M2.60803 1.89492L2.70803 2.20992H3.04003C3.05903 2.20992 3.07603 2.22292 3.08203 2.24092C3.08803 2.25892 3.08103 2.27892 3.06603 2.29092L2.79903 2.49092L2.89903 2.80692C2.90503 2.82492 2.89803 2.84492 2.88203 2.85692C2.86603 2.86892 2.84503 2.86792 2.83003 2.85692L2.56003 2.66392L2.29003 2.85692C2.27403 2.86792 2.25303 2.86792 2.23803 2.85692C2.22303 2.84592 2.21603 2.82592 2.22103 2.80692L2.32103 2.49092L2.05403 2.29092C2.03903 2.27892 2.03203 2.25992 2.03803 2.24092C2.04403 2.22192 2.06103 2.20992 2.08003 2.20992H2.41203L2.51203 1.89492C2.51203 1.86792 2.53303 1.84692 2.56003 1.84692C2.58703 1.84692 2.60803 1.86792 2.60803 1.89492Z" fill="#F5F5F5"/>
<path d="M2.60792 3.53997L2.70792 3.85497H3.03992C3.05892 3.85497 3.07592 3.86797 3.08192 3.88597C3.08792 3.90397 3.08092 3.92397 3.06592 3.93597L2.79892 4.13597L2.89892 4.45197C2.90492 4.46997 2.89792 4.48997 2.88192 4.50197C2.86592 4.51397 2.84492 4.51297 2.82992 4.50197L2.55992 4.30897L2.28992 4.50197C2.27392 4.51297 2.25292 4.51297 2.23792 4.50197C2.22292 4.49097 2.21592 4.47097 2.22092 4.45197L2.32092 4.13597L2.05392 3.93597C2.03992 3.92297 2.03592 3.90297 2.04292 3.88497C2.04992 3.86697 2.06792 3.85697 2.08692 3.85797H2.41892L2.51892 3.54297C2.52092 3.52097 2.53992 3.50397 2.56192 3.50297C2.58392 3.50197 2.60392 3.51797 2.60792 3.53997Z" fill="#F5F5F5"/>
<path d="M2.60803 5.18594L2.70803 5.50094H3.04003C3.05903 5.50094 3.07603 5.51394 3.08203 5.53194C3.08803 5.54994 3.08103 5.56994 3.06603 5.58194L2.79903 5.78194L2.89903 6.09794C2.90503 6.11594 2.89803 6.13594 2.88203 6.14794C2.86603 6.15994 2.84503 6.15894 2.83003 6.14794L2.56003 5.95494L2.29003 6.14794C2.27403 6.15894 2.25303 6.15894 2.23803 6.14794C2.22303 6.13694 2.21603 6.11694 2.22103 6.09794L2.32103 5.78194L2.05403 5.58194C2.03903 5.56994 2.03203 5.55094 2.03803 5.53194C2.04403 5.51294 2.06103 5.50094 2.08003 5.50094H2.41203L2.51203 5.18594C2.51203 5.15894 2.53303 5.13794 2.56003 5.13794C2.58703 5.13794 2.60803 5.15894 2.60803 5.18594Z" fill="#F5F5F5"/>
<path d="M2.60803 6.83291L2.70803 7.14791H3.04003C3.05903 7.14791 3.07603 7.16091 3.08203 7.17891C3.08803 7.19691 3.08103 7.21691 3.06603 7.22891L2.79903 7.42891L2.89903 7.74491C2.90503 7.76291 2.89803 7.78291 2.88203 7.79491C2.86603 7.80691 2.84503 7.80591 2.83003 7.79491L2.56003 7.60191L2.29003 7.79491C2.27403 7.80591 2.25303 7.80591 2.23803 7.79491C2.22303 7.78391 2.21603 7.76391 2.22103 7.74491L2.32103 7.42891L2.05403 7.22891C2.03903 7.21691 2.03203 7.19791 2.03803 7.17891C2.04403 7.15991 2.06103 7.14791 2.08003 7.14791H2.41203L2.51203 6.83291C2.51203 6.80591 2.53303 6.78491 2.56003 6.78491C2.58703 6.78491 2.60803 6.80591 2.60803 6.83291Z" fill="#F5F5F5"/>
<path d="M3.88196 1.08902L3.98196 1.40402H4.31396C4.33296 1.40402 4.34996 1.41702 4.35596 1.43502C4.36196 1.45302 4.35496 1.47302 4.33996 1.48502L4.07296 1.68502L4.17296 2.00102C4.17896 2.01902 4.17196 2.03902 4.15596 2.05102C4.13996 2.06302 4.11896 2.06202 4.10396 2.05102L3.83396 1.85802L3.56396 2.05102C3.54796 2.06202 3.52696 2.06202 3.51196 2.05102C3.49696 2.04002 3.48996 2.02002 3.49496 2.00102L3.59496 1.68502L3.32796 1.48502C3.31296 1.47302 3.30596 1.45402 3.31196 1.43502C3.31796 1.41602 3.33496 1.40402 3.35396 1.40402H3.68596L3.78596 1.08902C3.78596 1.06202 3.80696 1.04102 3.83396 1.04102C3.86096 1.04102 3.88196 1.06202 3.88196 1.08902Z" fill="#F5F5F5"/>
<path d="M3.88196 2.73404L3.98196 3.04904H4.31396C4.33296 3.04904 4.34996 3.06204 4.35596 3.08004C4.36196 3.09804 4.35496 3.11804 4.33996 3.13004L4.07296 3.33004L4.17296 3.64604C4.17896 3.66404 4.17196 3.68404 4.15596 3.69604C4.13996 3.70804 4.11896 3.70704 4.10396 3.69604L3.83396 3.50304L3.56396 3.69604C3.54796 3.70704 3.52696 3.70704 3.51196 3.69604C3.49696 3.68504 3.48996 3.66504 3.49496 3.64604L3.59496 3.33004L3.32796 3.13004C3.31296 3.11804 3.30596 3.09904 3.31196 3.08004C3.31796 3.06104 3.33496 3.04904 3.35396 3.04904H3.68596L3.78596 2.73404C3.78596 2.70704 3.80696 2.68604 3.83396 2.68604C3.86096 2.68604 3.88196 2.70704 3.88196 2.73404Z" fill="#F5F5F5"/>
<path d="M3.88196 4.37905L3.98196 4.69405H4.31396C4.33296 4.69405 4.34996 4.70705 4.35596 4.72505C4.36196 4.74305 4.35496 4.76305 4.33996 4.77505L4.07296 4.97505L4.17296 5.29105C4.17896 5.30905 4.17196 5.32905 4.15596 5.34105C4.13996 5.35305 4.11896 5.35205 4.10396 5.34105L3.83396 5.14805L3.56396 5.34105C3.54796 5.35205 3.52696 5.35205 3.51196 5.34105C3.49696 5.33005 3.48996 5.31005 3.49496 5.29105L3.59496 4.97505L3.32796 4.77505C3.31296 4.76305 3.30596 4.74405 3.31196 4.72505C3.31796 4.70605 3.33496 4.69405 3.35396 4.69405H3.68596L3.78596 4.37905C3.78596 4.35205 3.80696 4.33105 3.83396 4.33105C3.86096 4.33105 3.88196 4.35205 3.88196 4.37905Z" fill="#F5F5F5"/>
<path d="M3.88196 6.02505L3.98196 6.34005H4.31396C4.33296 6.34005 4.34996 6.35305 4.35596 6.37105C4.36196 6.38905 4.35496 6.40905 4.33996 6.42105L4.07296 6.62105L4.17296 6.93705C4.17896 6.95505 4.17196 6.97505 4.15596 6.98705C4.13996 6.99905 4.11896 6.99805 4.10396 6.98705L3.83396 6.79405L3.56396 6.98705C3.54796 6.99805 3.52696 6.99805 3.51196 6.98705C3.49696 6.97605 3.48996 6.95605 3.49496 6.93705L3.59496 6.62105L3.32796 6.42105C3.31296 6.40905 3.30596 6.39005 3.31196 6.37105C3.31796 6.35205 3.33496 6.34005 3.35396 6.34005H3.68596L3.78596 6.02505C3.78596 5.99805 3.80696 5.97705 3.83396 5.97705C3.86096 5.97705 3.88196 5.99805 3.88196 6.02505Z" fill="#F5F5F5"/>
<path d="M3.88196 7.67202L3.98196 7.98702H4.31396C4.33296 7.98702 4.34996 8.00002 4.35596 8.01802C4.36196 8.03602 4.35496 8.05602 4.33996 8.06802L4.07296 8.26802L4.17296 8.58402C4.17896 8.60202 4.17196 8.62202 4.15596 8.63402C4.13996 8.64602 4.11896 8.64502 4.10396 8.63402L3.83396 8.44102L3.56396 8.63402C3.54796 8.64502 3.52696 8.64502 3.51196 8.63402C3.49696 8.62302 3.48996 8.60302 3.49496 8.58402L3.59496 8.26802L3.32796 8.06802C3.31296 8.05602 3.30596 8.03702 3.31196 8.01802C3.31796 7.99902 3.33496 7.98702 3.35396 7.98702H3.68596L3.78596 7.67202C3.78596 7.64502 3.80696 7.62402 3.83396 7.62402C3.86096 7.62402 3.88196 7.64502 3.88196 7.67202Z" fill="#F5F5F5"/>
<path d="M5.16492 1.89492L5.26492 2.20992H5.59692C5.61592 2.20992 5.63292 2.22292 5.63892 2.24092C5.64492 2.25892 5.63792 2.27892 5.62292 2.29092L5.35592 2.49092L5.45592 2.80692C5.46192 2.82492 5.45492 2.84492 5.43892 2.85692C5.42292 2.86892 5.40192 2.86792 5.38692 2.85692L5.11692 2.66392L4.84692 2.85692C4.83092 2.86792 4.80992 2.86792 4.79492 2.85692C4.77992 2.84592 4.77292 2.82592 4.77792 2.80692L4.87792 2.49092L4.61092 2.29092C4.59592 2.27892 4.58892 2.25992 4.59492 2.24092C4.60092 2.22192 4.61792 2.20992 4.63692 2.20992H4.96892L5.06892 1.89492C5.06892 1.86792 5.08992 1.84692 5.11692 1.84692C5.14392 1.84692 5.16492 1.86792 5.16492 1.89492Z" fill="#F5F5F5"/>
<path d="M5.16492 3.53994L5.26492 3.85494H5.59692C5.61592 3.85494 5.63292 3.86794 5.63892 3.88594C5.64492 3.90394 5.63792 3.92394 5.62292 3.93594L5.35592 4.13594L5.45592 4.45194C5.46192 4.46994 5.45492 4.48994 5.43892 4.50194C5.42292 4.51394 5.40192 4.51294 5.38692 4.50194L5.11692 4.30894L4.84692 4.50194C4.83092 4.51294 4.80992 4.51294 4.79492 4.50194C4.77992 4.49094 4.77292 4.47094 4.77792 4.45194L4.87792 4.13594L4.61092 3.93594C4.59592 3.92394 4.58892 3.90494 4.59492 3.88594C4.60092 3.86694 4.61792 3.85494 4.63692 3.85494H4.96892L5.06892 3.53994C5.06892 3.51294 5.08992 3.49194 5.11692 3.49194C5.14392 3.49194 5.16492 3.51294 5.16492 3.53994Z" fill="#F5F5F5"/>
<path d="M5.16492 5.18594L5.26492 5.50094H5.59692C5.61592 5.50094 5.63292 5.51394 5.63892 5.53194C5.64492 5.54994 5.63792 5.56994 5.62292 5.58194L5.35592 5.78194L5.45592 6.09794C5.46192 6.11594 5.45492 6.13594 5.43892 6.14794C5.42292 6.15994 5.40192 6.15894 5.38692 6.14794L5.11692 5.95494L4.84692 6.14794C4.83092 6.15894 4.80992 6.15894 4.79492 6.14794C4.77992 6.13694 4.77292 6.11694 4.77792 6.09794L4.87792 5.78194L4.61092 5.58194C4.59592 5.56994 4.58892 5.55094 4.59492 5.53194C4.60092 5.51294 4.61792 5.50094 4.63692 5.50094H4.96892L5.06892 5.18594C5.06892 5.15894 5.08992 5.13794 5.11692 5.13794C5.14392 5.13794 5.16492 5.15894 5.16492 5.18594Z" fill="#F5F5F5"/>
<path d="M5.16492 6.83291L5.26492 7.14791H5.59692C5.61592 7.14791 5.63292 7.16091 5.63892 7.17891C5.64492 7.19691 5.63792 7.21691 5.62292 7.22891L5.35592 7.42891L5.45592 7.74491C5.46192 7.76291 5.45492 7.78291 5.43892 7.79491C5.42292 7.80691 5.40192 7.80591 5.38692 7.79491L5.11692 7.60191L4.84692 7.79491C4.83092 7.80591 4.80992 7.80591 4.79492 7.79491C4.77992 7.78391 4.77292 7.76391 4.77792 7.74491L4.87792 7.42891L4.61092 7.22891C4.59592 7.21691 4.58892 7.19791 4.59492 7.17891C4.60092 7.15991 4.61792 7.14791 4.63692 7.14791H4.96892L5.06892 6.83291C5.06892 6.80591 5.08992 6.78491 5.11692 6.78491C5.14392 6.78491 5.16492 6.80591 5.16492 6.83291Z" fill="#F5F5F5"/>
<path d="M6.44104 1.08902L6.54104 1.40402H6.87304C6.89204 1.40402 6.90904 1.41702 6.91504 1.43502C6.92104 1.45302 6.91404 1.47302 6.89904 1.48502L6.63204 1.68502L6.73204 2.00102C6.73804 2.01902 6.73104 2.03902 6.71504 2.05102C6.69904 2.06302 6.67804 2.06202 6.66304 2.05102L6.39304 1.85802L6.12304 2.05102C6.10704 2.06202 6.08604 2.06202 6.07104 2.05102C6.05604 2.04002 6.04904 2.02002 6.05404 2.00102L6.15404 1.68502L5.88704 1.48502C5.87204 1.47302 5.86504 1.45402 5.87104 1.43502C5.87704 1.41602 5.89404 1.40402 5.91304 1.40402H6.24504L6.34504 1.08902C6.34504 1.06202 6.36604 1.04102 6.39304 1.04102C6.42004 1.04102 6.44104 1.06202 6.44104 1.08902Z" fill="#F5F5F5"/>
<path d="M6.44104 2.73404L6.54104 3.04904H6.87304C6.89204 3.04904 6.90904 3.06204 6.91504 3.08004C6.92104 3.09804 6.91404 3.11804 6.89904 3.13004L6.63204 3.33004L6.73204 3.64604C6.73804 3.66404 6.73104 3.68404 6.71504 3.69604C6.69904 3.70804 6.67804 3.70704 6.66304 3.69604L6.39304 3.50304L6.12304 3.69604C6.10704 3.70704 6.08604 3.70704 6.07104 3.69604C6.05604 3.68504 6.04904 3.66504 6.05404 3.64604L6.15404 3.33004L5.88704 3.13004C5.87204 3.11804 5.86504 3.09904 5.87104 3.08004C5.87704 3.06104 5.89404 3.04904 5.91304 3.04904H6.24504L6.34504 2.73404C6.34504 2.70704 6.36604 2.68604 6.39304 2.68604C6.42004 2.68604 6.44104 2.70704 6.44104 2.73404Z" fill="#F5F5F5"/>
<path d="M6.44104 4.37905L6.54104 4.69405H6.87304C6.89204 4.69405 6.90904 4.70705 6.91504 4.72505C6.92104 4.74305 6.91404 4.76305 6.89904 4.77505L6.63204 4.97505L6.73204 5.29105C6.73804 5.30905 6.73104 5.32905 6.71504 5.34105C6.69904 5.35305 6.67804 5.35205 6.66304 5.34105L6.39304 5.14805L6.12304 5.34105C6.10704 5.35205 6.08604 5.35205 6.07104 5.34105C6.05604 5.33005 6.04904 5.31005 6.05404 5.29105L6.15404 4.97505L5.88704 4.77505C5.87204 4.76305 5.86504 4.74405 5.87104 4.72505C5.87704 4.70605 5.89404 4.69405 5.91304 4.69405H6.24504L6.34504 4.37905C6.34504 4.35205 6.36604 4.33105 6.39304 4.33105C6.42004 4.33105 6.44104 4.35205 6.44104 4.37905Z" fill="#F5F5F5"/>
<path d="M6.44104 6.02505L6.54104 6.34005H6.87304C6.89204 6.34005 6.90904 6.35305 6.91504 6.37105C6.92104 6.38905 6.91404 6.40905 6.89904 6.42105L6.63204 6.62105L6.73204 6.93705C6.73804 6.95505 6.73104 6.97505 6.71504 6.98705C6.69904 6.99905 6.67804 6.99805 6.66304 6.98705L6.39304 6.79405L6.12304 6.98705C6.10704 6.99805 6.08604 6.99805 6.07104 6.98705C6.05604 6.97605 6.04904 6.95605 6.05404 6.93705L6.15404 6.62105L5.88704 6.42105C5.87204 6.40905 5.86504 6.39005 5.87104 6.37105C5.87704 6.35205 5.89404 6.34005 5.91304 6.34005H6.24504L6.34504 6.02505C6.34504 5.99805 6.36604 5.97705 6.39304 5.97705C6.42004 5.97705 6.44104 5.99805 6.44104 6.02505Z" fill="#F5F5F5"/>
<path d="M6.44104 7.67202L6.54104 7.98702H6.87304C6.89204 7.98702 6.90904 8.00002 6.91504 8.01802C6.92104 8.03602 6.91404 8.05602 6.89904 8.06802L6.63204 8.26802L6.73204 8.58402C6.73804 8.60202 6.73104 8.62202 6.71504 8.63402C6.69904 8.64602 6.67804 8.64502 6.66304 8.63402L6.39304 8.44102L6.12304 8.63402C6.10704 8.64502 6.08604 8.64502 6.07104 8.63402C6.05604 8.62302 6.04904 8.60302 6.05404 8.58402L6.15404 8.26802L5.88704 8.06802C5.87204 8.05602 5.86504 8.03702 5.87104 8.01802C5.87704 7.99902 5.89404 7.98702 5.91304 7.98702H6.24504L6.34504 7.67202C6.34504 7.64502 6.36604 7.62402 6.39304 7.62402C6.42004 7.62402 6.44104 7.64502 6.44104 7.67202Z" fill="#F5F5F5"/>
<path d="M7.71789 1.89492L7.81789 2.20992H8.14989C8.16889 2.20992 8.18589 2.22292 8.19189 2.24092C8.19789 2.25892 8.19089 2.27892 8.17589 2.29092L7.90889 2.49092L8.00889 2.80692C8.01489 2.82492 8.00789 2.84492 7.99189 2.85692C7.97589 2.86892 7.95489 2.86792 7.93989 2.85692L7.66989 2.66392L7.39989 2.85692C7.38389 2.86792 7.36289 2.86792 7.34789 2.85692C7.33289 2.84592 7.32589 2.82592 7.33089 2.80692L7.43089 2.49092L7.16389 2.29092C7.14889 2.27892 7.14189 2.25992 7.14789 2.24092C7.15389 2.22192 7.17089 2.20992 7.18989 2.20992H7.52189L7.62189 1.89492C7.62189 1.86792 7.64289 1.84692 7.66989 1.84692C7.69689 1.84692 7.71789 1.86792 7.71789 1.89492Z" fill="#F5F5F5"/>
<path d="M7.71789 3.53994L7.81789 3.85494H8.14989C8.16889 3.85494 8.18589 3.86794 8.19189 3.88594C8.19789 3.90394 8.19089 3.92394 8.17589 3.93594L7.90889 4.13594L8.00889 4.45194C8.01489 4.46994 8.00789 4.48994 7.99189 4.50194C7.97589 4.51394 7.95489 4.51294 7.93989 4.50194L7.66989 4.30894L7.39989 4.50194C7.38389 4.51294 7.36289 4.51294 7.34789 4.50194C7.33289 4.49094 7.32589 4.47094 7.33089 4.45194L7.43089 4.13594L7.16389 3.93594C7.14889 3.92394 7.14189 3.90494 7.14789 3.88594C7.15389 3.86694 7.17089 3.85494 7.18989 3.85494H7.52189L7.62189 3.53994C7.62189 3.51294 7.64289 3.49194 7.66989 3.49194C7.69689 3.49194 7.71789 3.51294 7.71789 3.53994Z" fill="#F5F5F5"/>
<path d="M7.71789 5.18594L7.81789 5.50094H8.14989C8.16889 5.50094 8.18589 5.51394 8.19189 5.53194C8.19789 5.54994 8.19089 5.56994 8.17589 5.58194L7.90889 5.78194L8.00889 6.09794C8.01489 6.11594 8.00789 6.13594 7.99189 6.14794C7.97589 6.15994 7.95489 6.15894 7.93989 6.14794L7.66989 5.95494L7.39989 6.14794C7.38389 6.15894 7.36289 6.15894 7.34789 6.14794C7.33289 6.13694 7.32589 6.11694 7.33089 6.09794L7.43089 5.78194L7.16389 5.58194C7.14889 5.56994 7.14189 5.55094 7.14789 5.53194C7.15389 5.51294 7.17089 5.50094 7.18989 5.50094H7.52189L7.62189 5.18594C7.62189 5.15894 7.64289 5.13794 7.66989 5.13794C7.69689 5.13794 7.71789 5.15894 7.71789 5.18594Z" fill="#F5F5F5"/>
<path d="M7.71789 6.83291L7.81789 7.14791H8.14989C8.16889 7.14791 8.18589 7.16091 8.19189 7.17891C8.19789 7.19691 8.19089 7.21691 8.17589 7.22891L7.90889 7.42891L8.00889 7.74491C8.01489 7.76291 8.00789 7.78291 7.99189 7.79491C7.97589 7.80691 7.95489 7.80591 7.93989 7.79491L7.66989 7.60191L7.39989 7.79491C7.38389 7.80591 7.36289 7.80591 7.34789 7.79491C7.33289 7.78391 7.32589 7.76391 7.33089 7.74491L7.43089 7.42891L7.16389 7.22891C7.14889 7.21691 7.14189 7.19791 7.14789 7.17891C7.15389 7.15991 7.17089 7.14791 7.18989 7.14791H7.52189L7.62189 6.83291C7.62189 6.80591 7.64289 6.78491 7.66989 6.78491C7.69689 6.78491 7.71789 6.80591 7.71789 6.83291Z" fill="#F5F5F5"/>
<path d="M8.99597 1.08902L9.09597 1.40402H9.42797C9.44697 1.40402 9.46397 1.41702 9.46997 1.43502C9.47597 1.45302 9.46897 1.47302 9.45397 1.48502L9.18697 1.68502L9.28697 2.00102C9.29297 2.01902 9.28597 2.03902 9.26997 2.05102C9.25397 2.06302 9.23297 2.06202 9.21797 2.05102L8.94797 1.85802L8.67797 2.05102C8.66197 2.06202 8.64097 2.06202 8.62597 2.05102C8.61097 2.04002 8.60397 2.02002 8.60897 2.00102L8.70897 1.68502L8.44197 1.48502C8.42697 1.47302 8.41997 1.45402 8.42597 1.43502C8.43197 1.41602 8.44897 1.40402 8.46797 1.40402H8.79997L8.89997 1.08902C8.89997 1.06202 8.92097 1.04102 8.94797 1.04102C8.97497 1.04102 8.99597 1.06202 8.99597 1.08902Z" fill="#F5F5F5"/>
<path d="M8.99597 2.73404L9.09597 3.04904H9.42797C9.44697 3.04904 9.46397 3.06204 9.46997 3.08004C9.47597 3.09804 9.46897 3.11804 9.45397 3.13004L9.18697 3.33004L9.28697 3.64604C9.29297 3.66404 9.28597 3.68404 9.26997 3.69604C9.25397 3.70804 9.23297 3.70704 9.21797 3.69604L8.94797 3.50304L8.67797 3.69604C8.66197 3.70704 8.64097 3.70704 8.62597 3.69604C8.61097 3.68504 8.60397 3.66504 8.60897 3.64604L8.70897 3.33004L8.44197 3.13004C8.42697 3.11804 8.41997 3.09904 8.42597 3.08004C8.43197 3.06104 8.44897 3.04904 8.46797 3.04904H8.79997L8.89997 2.73404C8.89997 2.70704 8.92097 2.68604 8.94797 2.68604C8.97497 2.68604 8.99597 2.70704 8.99597 2.73404Z" fill="#F5F5F5"/>
<path d="M8.99597 4.37905L9.09597 4.69405H9.42797C9.44697 4.69405 9.46397 4.70705 9.46997 4.72505C9.47597 4.74305 9.46897 4.76305 9.45397 4.77505L9.18697 4.97505L9.28697 5.29105C9.29297 5.30905 9.28597 5.32905 9.26997 5.34105C9.25397 5.35305 9.23297 5.35205 9.21797 5.34105L8.94797 5.14805L8.67797 5.34105C8.66197 5.35205 8.64097 5.35205 8.62597 5.34105C8.61097 5.33005 8.60397 5.31005 8.60897 5.29105L8.70897 4.97505L8.44197 4.77505C8.42697 4.76305 8.41997 4.74405 8.42597 4.72505C8.43197 4.70605 8.44897 4.69405 8.46797 4.69405H8.79997L8.89997 4.37905C8.89997 4.35205 8.92097 4.33105 8.94797 4.33105C8.97497 4.33105 8.99597 4.35205 8.99597 4.37905Z" fill="#F5F5F5"/>
<path d="M8.99597 6.02505L9.09597 6.34005H9.42797C9.44697 6.34005 9.46397 6.35305 9.46997 6.37105C9.47597 6.38905 9.46897 6.40905 9.45397 6.42105L9.18697 6.62105L9.28697 6.93705C9.29297 6.95505 9.28597 6.97505 9.26997 6.98705C9.25397 6.99905 9.23297 6.99805 9.21797 6.98705L8.94797 6.79405L8.67797 6.98705C8.66197 6.99805 8.64097 6.99805 8.62597 6.98705C8.61097 6.97605 8.60397 6.95605 8.60897 6.93705L8.70897 6.62105L8.44197 6.42105C8.42697 6.40905 8.41997 6.39005 8.42597 6.37105C8.43197 6.35205 8.44897 6.34005 8.46797 6.34005H8.79997L8.89997 6.02505C8.89997 5.99805 8.92097 5.97705 8.94797 5.97705C8.97497 5.97705 8.99597 5.99805 8.99597 6.02505Z" fill="#F5F5F5"/>
<path d="M8.99597 7.67202L9.09597 7.98702H9.42797C9.44697 7.98702 9.46397 8.00002 9.46997 8.01802C9.47597 8.03602 9.46897 8.05602 9.45397 8.06802L9.18697 8.26802L9.28697 8.58402C9.29297 8.60202 9.28597 8.62202 9.26997 8.63402C9.25397 8.64602 9.23297 8.64502 9.21797 8.63402L8.94797 8.44102L8.67797 8.63402C8.66197 8.64502 8.64097 8.64502 8.62597 8.63402C8.61097 8.62302 8.60397 8.60302 8.60897 8.58402L8.70897 8.26802L8.44197 8.06802C8.42697 8.05602 8.41997 8.03702 8.42597 8.01802C8.43197 7.99902 8.44897 7.98702 8.46797 7.98702H8.79997L8.89997 7.67202C8.89997 7.64502 8.92097 7.62402 8.94797 7.62402C8.97497 7.62402 8.99597 7.64502 8.99597 7.67202Z" fill="#F5F5F5"/>
<path d="M10.274 1.89492L10.374 2.20992H10.706C10.725 2.20992 10.742 2.22292 10.748 2.24092C10.754 2.25892 10.747 2.27892 10.732 2.29092L10.465 2.49092L10.565 2.80692C10.571 2.82492 10.564 2.84492 10.548 2.85692C10.532 2.86892 10.511 2.86792 10.496 2.85692L10.226 2.66392L9.95605 2.85692C9.94005 2.86792 9.91905 2.86792 9.90405 2.85692C9.88905 2.84592 9.88205 2.82592 9.88705 2.80692L9.98705 2.49092L9.72005 2.29092C9.70505 2.27892 9.69805 2.25992 9.70405 2.24092C9.71005 2.22192 9.72705 2.20992 9.74605 2.20992H10.078L10.178 1.89492C10.178 1.86792 10.199 1.84692 10.226 1.84692C10.253 1.84692 10.274 1.86792 10.274 1.89492Z" fill="#F5F5F5"/>
<path d="M10.274 3.53994L10.374 3.85494H10.706C10.725 3.85494 10.742 3.86794 10.748 3.88594C10.754 3.90394 10.747 3.92394 10.732 3.93594L10.465 4.13594L10.565 4.45194C10.571 4.46994 10.564 4.48994 10.548 4.50194C10.532 4.51394 10.511 4.51294 10.496 4.50194L10.226 4.30894L9.95605 4.50194C9.94005 4.51294 9.91905 4.51294 9.90405 4.50194C9.88905 4.49094 9.88205 4.47094 9.88705 4.45194L9.98705 4.13594L9.72005 3.93594C9.70505 3.92394 9.69805 3.90494 9.70405 3.88594C9.71005 3.86694 9.72705 3.85494 9.74605 3.85494H10.078L10.178 3.53994C10.178 3.51294 10.199 3.49194 10.226 3.49194C10.253 3.49194 10.274 3.51294 10.274 3.53994Z" fill="#F5F5F5"/>
<path d="M10.274 5.18594L10.374 5.50094H10.706C10.725 5.50094 10.742 5.51394 10.748 5.53194C10.754 5.54994 10.747 5.56994 10.732 5.58194L10.465 5.78194L10.565 6.09794C10.571 6.11594 10.564 6.13594 10.548 6.14794C10.532 6.15994 10.511 6.15894 10.496 6.14794L10.226 5.95494L9.95605 6.14794C9.94005 6.15894 9.91905 6.15894 9.90405 6.14794C9.88905 6.13694 9.88205 6.11694 9.88705 6.09794L9.98705 5.78194L9.72005 5.58194C9.70505 5.56994 9.69805 5.55094 9.70405 5.53194C9.71005 5.51294 9.72705 5.50094 9.74605 5.50094H10.078L10.178 5.18594C10.178 5.15894 10.199 5.13794 10.226 5.13794C10.253 5.13794 10.274 5.15894 10.274 5.18594Z" fill="#F5F5F5"/>
<path d="M10.274 6.83291L10.374 7.14791H10.706C10.725 7.14791 10.742 7.16091 10.748 7.17891C10.754 7.19691 10.747 7.21691 10.732 7.22891L10.465 7.42891L10.565 7.74491C10.571 7.76291 10.564 7.78291 10.548 7.79491C10.532 7.80691 10.511 7.80591 10.496 7.79491L10.226 7.60191L9.95605 7.79491C9.94005 7.80591 9.91905 7.80591 9.90405 7.79491C9.88905 7.78391 9.88205 7.76391 9.88705 7.74491L9.98705 7.42891L9.72005 7.22891C9.70505 7.21691 9.69805 7.19791 9.70405 7.17891C9.71005 7.15991 9.72705 7.14791 9.74605 7.14791H10.078L10.178 6.83291C10.178 6.80591 10.199 6.78491 10.226 6.78491C10.253 6.78491 10.274 6.80591 10.274 6.83291Z" fill="#F5F5F5"/>
<path d="M11.5509 1.08902L11.6509 1.40402H11.9829C12.0019 1.40402 12.0189 1.41702 12.0249 1.43502C12.0309 1.45302 12.0239 1.47302 12.0089 1.48502L11.7419 1.68502L11.8419 2.00102C11.8479 2.01902 11.8409 2.03902 11.8249 2.05102C11.8089 2.06302 11.7879 2.06202 11.7729 2.05102L11.5029 1.85802L11.2329 2.05102C11.2169 2.06202 11.1959 2.06202 11.1809 2.05102C11.1659 2.04002 11.1589 2.02002 11.1639 2.00102L11.2639 1.68502L10.9969 1.48502C10.9819 1.47302 10.9749 1.45402 10.9809 1.43502C10.9869 1.41602 11.0039 1.40402 11.0229 1.40402H11.3549L11.4549 1.08902C11.4549 1.06202 11.4759 1.04102 11.5029 1.04102C11.5299 1.04102 11.5509 1.06202 11.5509 1.08902Z" fill="#F5F5F5"/>
<path d="M11.5509 2.73404L11.6509 3.04904H11.9829C12.0019 3.04904 12.0189 3.06204 12.0249 3.08004C12.0309 3.09804 12.0239 3.11804 12.0089 3.13004L11.7419 3.33004L11.8419 3.64604C11.8479 3.66404 11.8409 3.68404 11.8249 3.69604C11.8089 3.70804 11.7879 3.70704 11.7729 3.69604L11.5029 3.50304L11.2329 3.69604C11.2169 3.70704 11.1959 3.70704 11.1809 3.69604C11.1659 3.68504 11.1589 3.66504 11.1639 3.64604L11.2639 3.33004L10.9969 3.13004C10.9819 3.11804 10.9749 3.09904 10.9809 3.08004C10.9869 3.06104 11.0039 3.04904 11.0229 3.04904H11.3549L11.4549 2.73404C11.4549 2.70704 11.4759 2.68604 11.5029 2.68604C11.5299 2.68604 11.5509 2.70704 11.5509 2.73404Z" fill="#F5F5F5"/>
<path d="M11.5509 4.37905L11.6509 4.69405H11.9829C12.0019 4.69405 12.0189 4.70705 12.0249 4.72505C12.0309 4.74305 12.0239 4.76305 12.0089 4.77505L11.7419 4.97505L11.8419 5.29105C11.8479 5.30905 11.8409 5.32905 11.8249 5.34105C11.8089 5.35305 11.7879 5.35205 11.7729 5.34105L11.5029 5.14805L11.2329 5.34105C11.2169 5.35205 11.1959 5.35205 11.1809 5.34105C11.1659 5.33005 11.1589 5.31005 11.1639 5.29105L11.2639 4.97505L10.9969 4.77505C10.9819 4.76305 10.9749 4.74405 10.9809 4.72505C10.9869 4.70605 11.0039 4.69405 11.0229 4.69405H11.3549L11.4549 4.37905C11.4549 4.35205 11.4759 4.33105 11.5029 4.33105C11.5299 4.33105 11.5509 4.35205 11.5509 4.37905Z" fill="#F5F5F5"/>
<path d="M11.5509 6.02505L11.6509 6.34005H11.9829C12.0019 6.34005 12.0189 6.35305 12.0249 6.37105C12.0309 6.38905 12.0239 6.40905 12.0089 6.42105L11.7419 6.62105L11.8419 6.93705C11.8479 6.95505 11.8409 6.97505 11.8249 6.98705C11.8089 6.99905 11.7879 6.99805 11.7729 6.98705L11.5029 6.79405L11.2329 6.98705C11.2169 6.99805 11.1959 6.99805 11.1809 6.98705C11.1659 6.97605 11.1589 6.95605 11.1639 6.93705L11.2639 6.62105L10.9969 6.42105C10.9819 6.40905 10.9749 6.39005 10.9809 6.37105C10.9869 6.35205 11.0039 6.34005 11.0229 6.34005H11.3549L11.4549 6.02505C11.4549 5.99805 11.4759 5.97705 11.5029 5.97705C11.5299 5.97705 11.5509 5.99805 11.5509 6.02505Z" fill="#F5F5F5"/>
<path d="M11.5509 7.67202L11.6509 7.98702H11.9829C12.0019 7.98702 12.0189 8.00002 12.0249 8.01802C12.0309 8.03602 12.0239 8.05602 12.0089 8.06802L11.7419 8.26802L11.8419 8.58402C11.8479 8.60202 11.8409 8.62202 11.8249 8.63402C11.8089 8.64602 11.7879 8.64502 11.7729 8.63402L11.5029 8.44102L11.2329 8.63402C11.2169 8.64502 11.1959 8.64502 11.1809 8.63402C11.1659 8.62302 11.1589 8.60302 11.1639 8.58402L11.2639 8.26802L10.9969 8.06802C10.9819 8.05602 10.9749 8.03702 10.9809 8.01802C10.9869 7.99902 11.0039 7.98702 11.0229 7.98702H11.3549L11.4549 7.67202C11.4549 7.64502 11.4759 7.62402 11.5029 7.62402C11.5299 7.62402 11.5509 7.64502 11.5509 7.67202Z" fill="#F5F5F5"/>
</g>
<defs>
<clipPath id="clip0_742_2472">
<rect width="18" height="18" rx="9" fill="white"/>
</clipPath>
</defs>
</svg>
