<svg width="30" height="30" viewBox="0 0 30 30" fill="none" xmlns="http://www.w3.org/2000/svg">
<g clip-path="url(#clip0_543_259)">
<path d="M9.72656 20.2734H20.2734V9.72656H9.72656V20.2734ZM6.21094 8.84766H0.878906C0.393105 8.84766 0 9.24076 0 9.72656C0 10.2124 0.393105 10.6055 0.878906 10.6055H6.21094C6.69674 10.6055 7.08984 10.2124 7.08984 9.72656C7.08984 9.24076 6.69674 8.84766 6.21094 8.84766ZM6.21094 14.1211H0.878906C0.393105 14.1211 0 14.5142 0 15C0 15.4858 0.393105 15.8789 0.878906 15.8789H6.21094C6.69674 15.8789 7.08984 15.4858 7.08984 15C7.08984 14.5142 6.69674 14.1211 6.21094 14.1211ZM6.21094 19.3945H0.878906C0.393105 19.3945 0 19.7876 0 20.2734C0 20.7592 0.393105 21.1523 0.878906 21.1523H6.21094C6.69674 21.1523 7.08984 20.7592 7.08984 20.2734C7.08984 19.7876 6.69674 19.3945 6.21094 19.3945ZM23.7891 10.6055H29.1211C29.6069 10.6055 30 10.2124 30 9.72656C30 9.24076 29.6069 8.84766 29.1211 8.84766H23.7891C23.3033 8.84766 22.9102 9.24076 22.9102 9.72656C22.9102 10.2124 23.3033 10.6055 23.7891 10.6055ZM29.1211 14.1211H23.7891C23.3033 14.1211 22.9102 14.5142 22.9102 15C22.9102 15.4858 23.3033 15.8789 23.7891 15.8789H29.1211C29.6069 15.8789 30 15.4858 30 15C30 14.5142 29.6069 14.1211 29.1211 14.1211ZM29.1211 19.3945H23.7891C23.3033 19.3945 22.9102 19.7876 22.9102 20.2734C22.9102 20.7592 23.3033 21.1523 23.7891 21.1523H29.1211C29.6069 21.1523 30 20.7592 30 20.2734C30 19.7876 29.6069 19.3945 29.1211 19.3945ZM15 7.08984C15.4858 7.08984 15.8789 6.69674 15.8789 6.21094V0.878906C15.8789 0.393105 15.4858 0 15 0C14.5142 0 14.1211 0.393105 14.1211 0.878906V6.21094C14.1211 6.69674 14.5142 7.08984 15 7.08984ZM20.2734 0C19.7876 0 19.3945 0.393105 19.3945 0.878906V6.21094C19.3945 6.69674 19.7876 7.08984 20.2734 7.08984C20.7592 7.08984 21.1523 6.69674 21.1523 6.21094V0.878906C21.1523 0.393105 20.7592 0 20.2734 0ZM9.72656 7.08984C10.2124 7.08984 10.6055 6.69674 10.6055 6.21094V0.878906C10.6055 0.393105 10.2124 0 9.72656 0C9.24076 0 8.84766 0.393105 8.84766 0.878906V6.21094C8.84766 6.69674 9.24076 7.08984 9.72656 7.08984ZM15 22.9102C14.5142 22.9102 14.1211 23.3033 14.1211 23.7891V29.1211C14.1211 29.6069 14.5142 30 15 30C15.4858 30 15.8789 29.6069 15.8789 29.1211V23.7891C15.8789 23.3033 15.4858 22.9102 15 22.9102ZM20.2734 22.9102C19.7876 22.9102 19.3945 23.3033 19.3945 23.7891V29.1211C19.3945 29.6069 19.7876 30 20.2734 30C20.7592 30 21.1523 29.6069 21.1523 29.1211V23.7891C21.1523 23.3033 20.7592 22.9102 20.2734 22.9102ZM9.72656 22.9102C9.24076 22.9102 8.84766 23.3033 8.84766 23.7891V29.1211C8.84766 29.6069 9.24076 30 9.72656 30C10.2124 30 10.6055 29.6069 10.6055 29.1211V23.7891C10.6055 23.3033 10.2124 22.9102 9.72656 22.9102Z" fill="url(#paint0_linear_543_259)"/>
<path d="M23.7891 5.33203H6.21094C5.71869 5.33203 5.33203 5.71869 5.33203 6.21094V23.7891C5.33203 24.2812 5.71869 24.668 6.21094 24.668H23.7891C24.2813 24.668 24.668 24.2812 24.668 23.7891V6.21094C24.668 5.71869 24.2813 5.33203 23.7891 5.33203ZM15.8789 18.5156C15.8789 19.0078 15.4922 19.3945 15 19.3945C14.5078 19.3945 14.1211 19.0078 14.1211 18.5156V15.8789H12.3633V18.5156C12.3633 19.0078 11.9766 19.3945 11.4844 19.3945C10.9921 19.3945 10.6055 19.0078 10.6055 18.5156V13.2422C10.6055 11.7831 11.7831 10.6055 13.2422 10.6055C14.7012 10.6055 15.8789 11.7831 15.8789 13.2422V18.5156ZM19.3945 18.5156C19.3945 19.0078 19.0079 19.3945 18.5156 19.3945C18.0234 19.3945 17.6367 19.0078 17.6367 18.5156V11.4844C17.6367 10.9921 18.0234 10.6055 18.5156 10.6055C19.0079 10.6055 19.3945 10.9921 19.3945 11.4844V18.5156ZM13.2422 12.3633C12.7499 12.3633 12.3633 12.7499 12.3633 13.2422V14.1211H14.1211V13.2422C14.1211 12.7499 13.7344 12.3633 13.2422 12.3633Z" fill="url(#paint1_linear_543_259)"/>
</g>
<defs>
<linearGradient id="paint0_linear_543_259" x1="15" y1="30" x2="15" y2="0" gradientUnits="userSpaceOnUse">
<stop stop-color="#ADDCFF"/>
<stop offset="0.503" stop-color="#EAF6FF"/>
<stop offset="1" stop-color="#EAF6FF"/>
</linearGradient>
<linearGradient id="paint1_linear_543_259" x1="15" y1="24.668" x2="15" y2="5.33203" gradientUnits="userSpaceOnUse">
<stop stop-color="#5558FF"/>
<stop offset="1" stop-color="#00C0FF"/>
</linearGradient>
<clipPath id="clip0_543_259">
<rect width="30" height="30" fill="white"/>
</clipPath>
</defs>
</svg>
