<svg width="50" height="50" viewBox="0 0 50 50" fill="none" xmlns="http://www.w3.org/2000/svg">
<g clip-path="url(#clip0_3668_2)">
<path d="M24.9727 49.668C38.6126 49.668 49.6699 38.6106 49.6699 24.9707C49.6699 11.3308 38.6126 0.273438 24.9727 0.273438C11.3327 0.273438 0.275391 11.3308 0.275391 24.9707C0.275391 38.6106 11.3327 49.668 24.9727 49.668Z" fill="#25D366"/>
<path d="M12.6837 38.416C12.5148 38.416 12.3481 38.3771 12.1967 38.3021C12.0453 38.2272 11.9133 38.1184 11.8108 37.9841C11.7084 37.8497 11.6383 37.6936 11.6061 37.5278C11.5739 37.362 11.5803 37.1909 11.625 37.028L13.2435 31.1172C12.2217 29.1888 11.6879 27.0395 11.6887 24.8572C11.6914 17.5051 17.6742 11.5234 25.0247 11.5234C28.591 11.5245 31.9415 12.9136 34.4585 15.4344C36.9759 17.9546 38.3612 21.3052 38.3601 24.8682C38.3573 32.2214 32.3751 38.2036 25.0241 38.2036C22.9459 38.2028 20.8965 37.7174 19.0386 36.786L12.962 38.3798C12.8712 38.404 12.7777 38.4162 12.6837 38.416ZM19.1714 34.5188C19.3536 34.5188 19.5347 34.5643 19.6972 34.6527C21.3308 35.5413 23.1607 36.0073 25.0203 36.0083C31.1655 36.0083 36.1626 31.0107 36.1653 24.8671C36.17 23.4032 35.8843 21.9529 35.3248 20.6001C34.7653 19.2473 33.9432 18.0189 32.9058 16.9859C31.8736 15.9471 30.6455 15.1234 29.2926 14.5626C27.9398 14.0018 26.4891 13.7149 25.0247 13.7188C18.8844 13.7188 13.8873 18.7158 13.8846 24.8589C13.8834 26.8134 14.3962 28.7339 15.3713 30.4278C15.5179 30.6819 15.5563 30.9838 15.4794 31.2664L14.2451 35.774L18.8937 34.5545C18.9843 34.5309 19.0781 34.5188 19.1714 34.5188Z" fill="white"/>
<path d="M20.2389 25.1064C20.0825 24.8978 18.9629 23.4116 18.9629 21.8732C18.9629 20.3349 19.7702 19.5786 20.0567 19.2658C20.3432 18.9529 20.6818 18.875 20.8904 18.875C21.0989 18.875 21.3075 18.8772 21.4897 18.886C21.6818 18.8959 21.9392 18.813 22.1927 19.4227C22.4534 20.0484 23.078 21.5873 23.1565 21.7437C23.235 21.9001 23.2866 22.0824 23.1828 22.2915C23.0786 22.5 23.0264 22.6301 22.8705 22.8128C22.7141 22.9956 22.5423 23.2206 22.4013 23.3606C22.2449 23.5164 22.0819 23.6855 22.2641 23.9983C22.4463 24.3111 23.0736 25.3347 24.0028 26.164C25.1965 27.2293 26.2036 27.5591 26.5164 27.7155C26.8287 27.8719 27.0115 27.8461 27.1937 27.637C27.3759 27.4285 27.9752 26.7243 28.1838 26.4115C28.3923 26.0987 28.6003 26.1508 28.8868 26.2551C29.1733 26.3594 30.71 27.1157 31.0223 27.2721C31.3346 27.4285 31.5431 27.507 31.6216 27.637C31.7001 27.7677 31.7001 28.3933 31.4394 29.1233C31.1787 29.8532 29.9301 30.52 29.3297 30.6095C28.7913 30.6902 28.1097 30.7237 27.3611 30.4855C26.7558 30.2976 26.161 30.0778 25.579 29.8269C22.443 28.4724 20.3959 25.3149 20.2389 25.1064Z" fill="white"/>
</g>
<defs>
<clipPath id="clip0_3668_2">
<rect width="50" height="50" fill="white"/>
</clipPath>
</defs>
</svg>
