<svg width="35" height="35" viewBox="0 0 35 35" fill="none" xmlns="http://www.w3.org/2000/svg">
<path d="M18.4618 28.0288L19.8629 32.3743C20.005 32.8337 20.5738 32.9759 20.9129 32.6368C23.0238 30.5259 26.5238 26.9712 26.7644 25.0243C26.8782 24.1909 26.5741 23.0818 26.2339 22.1018C24.1886 24.181 21.6413 26.2001 18.4618 28.0288ZM12.8979 8.7657C11.9189 8.42554 10.8088 8.12148 9.97535 8.23523C8.02848 8.47585 4.47379 11.9759 2.36285 14.0868C2.02379 14.4259 2.16598 14.9946 2.62535 15.1368L6.97082 16.5368C8.79957 13.3584 10.8186 10.811 12.8979 8.7657ZM10.1296 29.7198C7.10426 31.4544 3.57801 31.4665 3.53426 31.4665C3.53426 31.4216 3.5452 27.8965 5.28098 24.8712L10.1296 29.7198ZM23.4679 9.36945C22.8904 9.36945 22.3479 9.59476 21.9399 10.0027C21.5308 10.4118 21.3055 10.9543 21.3055 11.5318C21.3055 12.1093 21.5308 12.6529 21.9399 13.0609C22.7547 13.879 24.1799 13.879 24.9969 13.0609C25.2978 12.7578 25.5023 12.3727 25.5848 11.9537C25.6674 11.5348 25.6243 11.1008 25.4608 10.7063C25.2974 10.3118 25.0211 9.97443 24.6665 9.73657C24.3119 9.49871 23.8948 9.37098 23.4679 9.36945Z" fill="#4842A8"/>
<path d="M31.436 2.17614C27.3235 2.25379 14.7716 3.88129 6.94476 20.0918C6.6932 20.6124 6.80257 21.2391 7.21163 21.6471L13.3509 27.7863C13.7599 28.1954 14.3855 28.3047 14.9062 28.0532C31.1177 20.2274 32.7452 7.67551 32.8229 3.56301C32.8271 3.37974 32.7941 3.19752 32.7258 3.02736C32.6576 2.85721 32.5556 2.70264 32.426 2.57302C32.2964 2.44339 32.1418 2.34139 31.9717 2.27317C31.8015 2.20496 31.6193 2.17195 31.436 2.17614ZM26.3894 14.4524C25.6085 15.2322 24.5716 15.6621 23.468 15.6621C22.3644 15.6621 21.3265 15.2322 20.5466 14.4524C19.7668 13.6725 19.3369 12.6346 19.3369 11.531C19.3369 10.4274 19.7679 9.38942 20.5466 8.60957C22.1063 7.04989 24.8276 7.04989 26.3894 8.60957C27.1627 9.38518 27.597 10.4357 27.597 11.531C27.597 12.6262 27.1627 13.6768 26.3894 14.4524Z" fill="#4842A8"/>
</svg>
