<svg width="35" height="35" viewBox="0 0 35 35" fill="none" xmlns="http://www.w3.org/2000/svg">
<path fill-rule="evenodd" clip-rule="evenodd" d="M23.887 12.381L20.7064 21.9273C20.6588 22.0641 20.6388 22.209 20.6477 22.3536C20.6565 22.4981 20.694 22.6395 20.758 22.7695C20.8219 22.8995 20.9111 23.0154 21.0202 23.1107C21.1293 23.2059 21.2563 23.2786 21.3937 23.3243C21.5312 23.3701 21.6763 23.3881 21.8208 23.3774C21.9652 23.3666 22.1061 23.3272 22.2352 23.2616C22.3643 23.1959 22.4791 23.1052 22.5729 22.9948C22.6667 22.8845 22.7376 22.7565 22.7816 22.6185L25.9622 13.0723C26.0098 12.9355 26.0297 12.7906 26.0209 12.646C26.012 12.5014 25.9745 12.36 25.9106 12.23C25.8466 12.1001 25.7575 11.9841 25.6484 11.8888C25.5392 11.7936 25.4123 11.721 25.2748 11.6752C25.1374 11.6294 24.9922 11.6114 24.8478 11.6222C24.7033 11.6329 24.5625 11.6723 24.4334 11.738C24.3042 11.8036 24.1895 11.8943 24.0957 12.0047C24.0019 12.1151 23.9309 12.243 23.887 12.381ZM26.6709 15.0921L29.0787 17.4998L26.6709 19.9075C26.5693 20.0091 26.4888 20.1297 26.4338 20.2624C26.3788 20.3952 26.3505 20.5374 26.3505 20.6811C26.3505 20.8248 26.3788 20.9671 26.4338 21.0998C26.4888 21.2326 26.5693 21.3532 26.6709 21.4548C26.7725 21.5564 26.8932 21.637 27.0259 21.6919C27.1586 21.7469 27.3009 21.7752 27.4446 21.7752C27.5883 21.7752 27.7305 21.7469 27.8633 21.6919C27.996 21.637 28.1166 21.5564 28.2182 21.4548L31.3989 18.2727C31.5005 18.1712 31.5811 18.0508 31.636 17.9181C31.691 17.7855 31.7193 17.6433 31.7193 17.4998C31.7193 17.3562 31.691 17.214 31.636 17.0814C31.5811 16.9488 31.5005 16.8283 31.3989 16.7268L28.2182 13.5448C28.1166 13.4432 27.996 13.3626 27.8633 13.3076C27.7305 13.2526 27.5883 13.2243 27.4446 13.2243C27.3009 13.2243 27.1586 13.2526 27.0259 13.3076C26.8932 13.3626 26.7725 13.4432 26.6709 13.5448C26.5693 13.6464 26.4888 13.767 26.4338 13.8997C26.3788 14.0325 26.3505 14.1747 26.3505 14.3184C26.3505 14.4621 26.3788 14.6044 26.4338 14.7371C26.4888 14.8698 26.5693 14.9905 26.6709 15.0921ZM18.4503 13.5448L15.2697 16.7268C15.1681 16.8283 15.0875 16.9488 15.0325 17.0814C14.9775 17.214 14.9492 17.3562 14.9492 17.4998C14.9492 17.6433 14.9775 17.7855 15.0325 17.9181C15.0875 18.0508 15.1681 18.1712 15.2697 18.2727L18.4503 21.4548C18.5519 21.5564 18.6725 21.637 18.8053 21.6919C18.938 21.7469 19.0803 21.7752 19.224 21.7752C19.3676 21.7752 19.5099 21.7469 19.6427 21.6919C19.7754 21.637 19.896 21.5564 19.9976 21.4548C20.0992 21.3532 20.1798 21.2326 20.2348 21.0998C20.2898 20.9671 20.3181 20.8248 20.3181 20.6811C20.3181 20.5374 20.2898 20.3952 20.2348 20.2624C20.1798 20.1297 20.0992 20.0091 19.9976 19.9075L17.5899 17.4998L19.9976 15.0921C20.0992 14.9905 20.1798 14.8698 20.2348 14.7371C20.2898 14.6044 20.3181 14.4621 20.3181 14.3184C20.3181 14.1747 20.2898 14.0325 20.2348 13.8997C20.1798 13.767 20.0992 13.6464 19.9976 13.5448C19.896 13.4432 19.7754 13.3626 19.6427 13.3076C19.5099 13.2526 19.3676 13.2243 19.224 13.2243C19.0803 13.2243 18.938 13.2526 18.8053 13.3076C18.6725 13.3626 18.5519 13.4432 18.4503 13.5448Z" fill="#4842A8"/>
<path fill-rule="evenodd" clip-rule="evenodd" d="M24.4271 22.2885L24.1631 23.0789C23.9978 23.5739 23.6847 24.0062 23.2661 24.3177C22.8474 24.6292 22.3434 24.8049 21.8218 24.8211C21.3003 24.8373 20.7863 24.6933 20.3491 24.4083C19.912 24.1234 19.5726 23.7114 19.3769 23.2277C19.0165 23.2497 18.6555 23.1949 18.3178 23.067C17.9802 22.939 17.6736 22.7408 17.4183 22.4854L14.2377 19.3033C14.0006 19.0665 13.8124 18.7853 13.6841 18.4758C13.5557 18.1663 13.4896 17.8345 13.4896 17.4993C13.4896 17.1642 13.5557 16.8324 13.6841 16.5229C13.8124 16.2134 14.0006 15.9322 14.2377 15.6954L17.4183 12.5133C17.7636 12.1678 18.2007 11.9286 18.6779 11.8241C19.1551 11.7196 19.6522 11.7543 20.1102 11.9239C20.5683 12.0936 20.968 12.3912 21.262 12.7813C21.5559 13.1714 21.7317 13.6377 21.7685 14.1248L22.5035 11.9198C22.6458 11.4924 22.8988 11.1103 23.2367 10.8124C23.5745 10.5145 23.9853 10.3114 24.4271 10.2237V5.83268C24.4271 4.76956 24.0042 3.74872 23.2531 2.99622C22.5003 2.24488 21.4803 1.82271 20.4167 1.82227H7.29167C6.22854 1.82227 5.20771 2.24518 4.45521 2.99622C3.70387 3.74905 3.2817 4.76908 3.28125 5.83268V29.166C3.28125 30.2291 3.70417 31.25 4.45521 32.0025C5.20803 32.7538 6.22806 33.176 7.29167 33.1764H20.4167C21.4798 33.1764 22.5006 32.7535 23.2531 32.0025C24.0045 31.2497 24.4266 30.2296 24.4271 29.166V22.2885ZM10.9375 29.5306H16.7708C17.0609 29.5306 17.3391 29.4154 17.5442 29.2102C17.7493 29.0051 17.8646 28.7269 17.8646 28.4368C17.8646 28.1468 17.7493 27.8686 17.5442 27.6635C17.3391 27.4583 17.0609 27.3431 16.7708 27.3431H10.9375C10.6474 27.3431 10.3692 27.4583 10.1641 27.6635C9.95898 27.8686 9.84375 28.1468 9.84375 28.4368C9.84375 28.7269 9.95898 29.0051 10.1641 29.2102C10.3692 29.4154 10.6474 29.5306 10.9375 29.5306ZM19.6875 4.00977H8.02083L8.92938 6.28039C9.09175 6.6864 9.37208 7.03443 9.73419 7.27956C10.0963 7.52469 10.5236 7.65567 10.9608 7.6556H16.7475C17.1848 7.65567 17.612 7.52469 17.9741 7.27956C18.3363 7.03443 18.6166 6.6864 18.779 6.28039L19.6875 4.00977Z" fill="#4842A8"/>
</svg>
