<svg width="30" height="30" viewBox="0 0 30 30" fill="none" xmlns="http://www.w3.org/2000/svg">
<g clip-path="url(#clip0_542_219)">
<path d="M23.7891 27.3047H20.9065L17.6367 26.4258H12.3633L9.09346 27.3047H6.21094C5.72514 27.3047 5.33203 27.6978 5.33203 28.1836C5.33203 28.6694 5.72514 29.0625 6.21094 29.0625H23.7891C24.2749 29.0625 24.668 28.6694 24.668 28.1836C24.668 27.6978 24.2749 27.3047 23.7891 27.3047ZM29.1211 0.9375H0.878906C0.393105 0.9375 0 1.33061 0 1.81641V22.9102C0 23.396 0.393105 23.7891 0.878906 23.7891H10.2653L12.3633 24.668H17.6367L19.7347 23.7891H29.1211C29.6069 23.7891 30 23.396 30 22.9102V1.81641C30 1.33061 29.6069 0.9375 29.1211 0.9375Z" fill="url(#paint0_linear_542_219)"/>
<path d="M8.40096 14.2331C9.02208 14.2331 9.48576 14.1201 9.7791 13.8975C10.0693 13.6771 10.2698 13.2951 10.3749 12.7624C10.4729 12.2645 10.4355 11.9169 10.264 11.7292C10.0886 11.5376 9.7094 11.4404 9.13693 11.4404H8.14439L7.59406 14.2332H8.40091L8.40096 14.2331ZM5.15439 17.6732C5.10832 17.6732 5.06456 17.6529 5.03527 17.6178C5.02078 17.6005 5.01036 17.5802 5.00475 17.5584C4.99915 17.5366 4.99849 17.5139 5.00283 17.4919L6.46118 10.0911C6.46802 10.0564 6.48689 10.0251 6.51455 10.0027C6.54221 9.98018 6.57694 9.96789 6.61279 9.96789H9.75588C10.7437 9.96789 11.4789 10.2319 11.9411 10.7543C12.4057 11.2788 12.5492 12.0121 12.3675 12.9336C12.2936 13.3091 12.1664 13.6577 11.9896 13.97C11.8125 14.2825 11.5786 14.5717 11.2941 14.8296C10.9535 15.144 10.568 15.372 10.1494 15.5062C9.7374 15.6386 9.20833 15.7057 8.57677 15.7057H7.30407L6.94061 17.5501C6.93378 17.5848 6.91492 17.616 6.88727 17.6385C6.85962 17.661 6.8249 17.6733 6.78906 17.6733H5.15439V17.6732Z" fill="url(#paint1_linear_542_219)"/>
<path d="M16.1141 15.7055C16.068 15.7055 16.0243 15.6852 15.995 15.6501C15.9657 15.6149 15.9537 15.5688 15.9625 15.5241L16.6076 12.2495C16.669 11.9381 16.6538 11.7146 16.565 11.6202C16.5106 11.5624 16.3474 11.4656 15.8645 11.4656H14.6958L13.8847 15.5822C13.8779 15.6169 13.859 15.6482 13.8314 15.6707C13.8037 15.6932 13.769 15.7055 13.7331 15.7055H12.1115C12.0887 15.7055 12.0662 15.7005 12.0456 15.6909C12.025 15.6813 12.0068 15.6674 11.9923 15.65C11.9778 15.6327 11.9674 15.6124 11.9618 15.5906C11.9562 15.5689 11.9555 15.5461 11.9599 15.5241L13.4182 8.12335C13.4251 8.08865 13.4439 8.05737 13.4716 8.03489C13.4992 8.01241 13.534 8.00011 13.5698 8.00011H15.1915C15.2142 8.00011 15.2367 8.00508 15.2573 8.01467C15.2779 8.02425 15.2961 8.03821 15.3106 8.05554C15.3251 8.07288 15.3355 8.09316 15.3411 8.11493C15.3468 8.13671 15.3474 8.15944 15.3431 8.18149L14.9911 9.96772H16.2484C17.2062 9.96772 17.8556 10.1343 18.234 10.4769C18.6201 10.8265 18.7399 11.3853 18.5916 12.1383L17.9131 15.5823C17.9063 15.617 17.8874 15.6483 17.8598 15.6708C17.8321 15.6933 17.7974 15.7056 17.7615 15.7056H16.1141L16.1141 15.7055Z" fill="url(#paint2_linear_542_219)"/>
<path d="M21.1587 14.2331C21.7798 14.2331 22.2435 14.1201 22.5369 13.8975C22.8271 13.6771 23.0276 13.2953 23.1327 12.7624C23.2307 12.2645 23.1933 11.9169 23.0217 11.7292C22.8464 11.5376 22.4671 11.4404 21.8947 11.4404H20.9021L20.3518 14.2332H21.1587L21.1587 14.2331ZM17.9122 17.6732C17.8662 17.6732 17.8224 17.6529 17.7931 17.6178C17.7786 17.6005 17.7682 17.5802 17.7626 17.5584C17.757 17.5366 17.7563 17.5139 17.7606 17.4919L19.219 10.0911C19.2258 10.0564 19.2447 10.0251 19.2724 10.0026C19.3 9.98016 19.3348 9.96787 19.3706 9.96789H22.5137C23.5016 9.96789 24.2367 10.2319 24.6989 10.7543C25.1635 11.2788 25.3069 12.012 25.1253 12.9336C25.0513 13.3091 24.9242 13.6577 24.7474 13.97C24.5703 14.2825 24.3364 14.5717 24.0519 14.8296C23.7113 15.144 23.3258 15.372 22.9072 15.5062C22.4952 15.6386 21.9661 15.7057 21.3345 15.7057H20.0617L19.6984 17.5501C19.6915 17.5848 19.6727 17.6161 19.645 17.6386C19.6173 17.6611 19.5826 17.6734 19.5467 17.6733H17.9122L17.9122 17.6732Z" fill="url(#paint3_linear_542_219)"/>
<path d="M10.2656 23.7893L9.09375 27.3049H20.9068L19.735 23.7893H10.2656Z" fill="url(#paint4_linear_542_219)"/>
</g>
<defs>
<linearGradient id="paint0_linear_542_219" x1="15" y1="29.0625" x2="15" y2="0.9375" gradientUnits="userSpaceOnUse">
<stop stop-color="#5558FF"/>
<stop offset="1" stop-color="#00C0FF"/>
</linearGradient>
<linearGradient id="paint1_linear_542_219" x1="8.72184" y1="9.96789" x2="8.72184" y2="17.6733" gradientUnits="userSpaceOnUse">
<stop stop-color="#ADDCFF"/>
<stop offset="0.503" stop-color="#EAF6FF"/>
<stop offset="1" stop-color="#EAF6FF"/>
</linearGradient>
<linearGradient id="paint2_linear_542_219" x1="15.3051" y1="8.00011" x2="15.3051" y2="15.7056" gradientUnits="userSpaceOnUse">
<stop stop-color="#ADDCFF"/>
<stop offset="0.503" stop-color="#EAF6FF"/>
<stop offset="1" stop-color="#EAF6FF"/>
</linearGradient>
<linearGradient id="paint3_linear_542_219" x1="21.4797" y1="9.96789" x2="21.4797" y2="17.6733" gradientUnits="userSpaceOnUse">
<stop stop-color="#ADDCFF"/>
<stop offset="0.503" stop-color="#EAF6FF"/>
<stop offset="1" stop-color="#EAF6FF"/>
</linearGradient>
<linearGradient id="paint4_linear_542_219" x1="14.9996" y1="27.3047" x2="14.9996" y2="4.45312" gradientUnits="userSpaceOnUse">
<stop stop-color="#ADDCFF"/>
<stop offset="0.503" stop-color="#EAF6FF"/>
<stop offset="1" stop-color="#EAF6FF"/>
</linearGradient>
<clipPath id="clip0_542_219">
<rect width="30" height="30" fill="white"/>
</clipPath>
</defs>
</svg>
