<svg width="30" height="30" viewBox="0 0 30 30" fill="none" xmlns="http://www.w3.org/2000/svg">
<g clip-path="url(#clip0_937_1262)">
<path d="M9.79716 0.220162L11.1472 2.62954C8.63935 3.88204 6.90497 6.28204 6.90497 9.08704H23.0956C23.0956 6.29329 21.3612 3.88391 18.8553 2.62954L20.2053 0.220162C20.2053 0.220162 20.3018 0.1236 20.1087 0.0270375C20.0122 -0.069525 19.9156 0.1236 19.9156 0.1236L18.469 2.53391C17.3475 2.02974 16.1324 1.76718 14.9028 1.76329C13.6731 1.76718 12.4581 2.02974 11.3365 2.53391L9.89279 0.124537C9.89279 0.124537 9.79716 0.0289125 9.69966 0.0289125C9.70983 0.102125 9.74376 0.169973 9.79622 0.222037L9.79716 0.220162ZM11.1565 4.94141C11.5315 4.94141 11.9272 5.31641 11.9272 5.71204C11.9272 6.10766 11.5522 6.48266 11.1565 6.48266C11.0549 6.48418 10.954 6.46528 10.8598 6.42709C10.7657 6.3889 10.6801 6.33219 10.6082 6.26033C10.5364 6.18847 10.4797 6.10291 10.4415 6.00873C10.4033 5.91455 10.3844 5.81366 10.3859 5.71204C10.3844 5.61042 10.4033 5.50953 10.4415 5.41535C10.4797 5.32116 10.5364 5.23561 10.6082 5.16374C10.6801 5.09188 10.7657 5.03517 10.8598 4.99698C10.954 4.95879 11.0549 4.9399 11.1565 4.94141ZM18.8665 4.94141C19.2415 4.94141 19.6372 5.31641 19.6372 5.71204C19.6372 6.10766 19.2622 6.48266 18.8665 6.48266C18.7649 6.48418 18.664 6.46528 18.5698 6.42709C18.4757 6.3889 18.3901 6.33219 18.3182 6.26033C18.2464 6.18847 18.1897 6.10291 18.1515 6.00873C18.1133 5.91455 18.0944 5.81366 18.0959 5.71204C18.0944 5.61042 18.1133 5.50953 18.1515 5.41535C18.1897 5.32116 18.2464 5.23561 18.3182 5.16374C18.3901 5.09188 18.4757 5.03517 18.5698 4.99698C18.664 4.95879 18.7649 4.9399 18.8665 4.94141ZM6.80841 10.0508V22.3883C6.80841 22.9667 7.57904 23.8339 8.15841 23.8339H10.0859V28.0742C10.0859 29.1336 10.8565 30.0017 11.8203 30.0017C12.784 30.0017 13.5547 29.1345 13.5547 28.0742V23.832H16.3484V28.0723C16.3484 29.1317 17.119 29.9998 18.0828 29.9998C19.0465 29.9998 19.8172 29.1327 19.8172 28.0723V23.832H21.7447C22.3231 23.832 23.0947 23.0614 23.0947 22.3864V10.0508H6.80841Z" fill="white"/>
<path d="M4.10938 9.76172C5.07313 9.76172 5.84375 10.6289 5.84375 11.6892V19.0139C5.84375 20.0733 5.07313 20.9414 4.10938 20.9414C3.14562 20.9414 2.375 20.0742 2.375 19.0139V11.6892C2.375 10.6298 3.14562 9.76172 4.10938 9.76172Z" fill="white"/>
<path d="M25.8906 9.76172C26.8544 9.76172 27.625 10.6289 27.625 11.6892V19.0139C27.625 20.0733 26.8544 20.9414 25.8906 20.9414C24.9269 20.9414 24.1562 20.0742 24.1562 19.0139V11.6892C24.1562 10.6298 24.9269 9.76172 25.8906 9.76172Z" fill="white"/>
</g>
<defs>
<clipPath id="clip0_937_1262">
<rect width="30" height="30" fill="white"/>
</clipPath>
</defs>
</svg>
