<svg width="30" height="30" viewBox="0 0 30 30" fill="none" xmlns="http://www.w3.org/2000/svg">
<path d="M12.4842 7.29018C13.4517 6.28207 14.7987 5.65682 16.2885 5.65682C18.2688 5.65682 19.9966 6.76108 20.9167 8.40039C21.7163 8.04315 22.6013 7.84441 23.5325 7.84441C27.1043 7.84441 30 10.7654 30 14.3683C30 17.9717 27.1043 20.8927 23.5325 20.8927C23.1047 20.893 22.6779 20.8504 22.2586 20.7658C21.4483 22.2111 19.9043 23.1876 18.1321 23.1876C17.3902 23.1876 16.6885 23.0162 16.0637 22.7115C15.2423 24.6435 13.3286 25.9982 11.0983 25.9982C8.77565 25.9982 6.79616 24.5286 6.03634 22.4675C5.70429 22.538 5.36027 22.5747 5.00727 22.5747C2.24189 22.5748 0 20.3098 0 17.5154C0 15.6427 1.00727 14.0077 2.50384 13.1329C2.19574 12.4239 2.02435 11.6414 2.02435 10.8188C2.02435 7.60511 4.63333 5 7.85129 5C9.7406 5 11.4197 5.89829 12.4842 7.29018Z" fill="url(#paint0_linear_543_271)"/>
<path d="M4.34662 15.8892C4.32782 15.9383 4.35347 15.9486 4.35944 15.9571C4.41584 15.9981 4.47314 16.0277 4.53082 16.0605C4.8368 16.2229 5.12572 16.2703 5.42785 16.2703C6.04323 16.2703 6.42527 15.943 6.42527 15.4161V15.4058C6.42527 14.9186 5.9941 14.7417 5.58938 14.6139L5.53683 14.5969C5.2317 14.4977 4.96845 14.4123 4.96845 14.2114V14.2007C4.96845 14.0289 5.1223 13.9024 5.36076 13.9024C5.62572 13.9024 5.94025 13.9905 6.14281 14.1024C6.14281 14.1024 6.20221 14.1409 6.22401 14.0832C6.23596 14.0524 6.33854 13.7763 6.34923 13.7464C6.36076 13.7139 6.34025 13.69 6.31932 13.6772C6.08812 13.5366 5.76845 13.4404 5.4377 13.4404L5.37617 13.4409C4.81293 13.4409 4.41977 13.781 4.41977 14.2686V14.2789C4.41977 14.793 4.85353 14.9596 5.25995 15.0759L5.32533 15.096C5.62149 15.187 5.87662 15.2652 5.87662 15.4738V15.484C5.87662 15.6746 5.71082 15.8165 5.44329 15.8165C5.33944 15.8165 5.00824 15.8144 4.65055 15.5883C4.60737 15.563 4.58218 15.5447 4.54884 15.5246C4.53133 15.5135 4.48731 15.4942 4.46809 15.5524L4.34662 15.8892ZM13.3556 15.8892C13.3368 15.9383 13.3624 15.9486 13.3684 15.9571C13.4248 15.9981 13.4821 16.0277 13.5397 16.0605C13.8457 16.2229 14.1347 16.2703 14.4368 16.2703C15.0521 16.2703 15.4342 15.943 15.4342 15.4161V15.4058C15.4342 14.9186 15.003 14.7417 14.5983 14.6139L14.5457 14.5969C14.2406 14.4977 13.9773 14.4123 13.9773 14.2114V14.2007C13.9773 14.0289 14.1312 13.9024 14.3697 13.9024C14.6346 13.9024 14.9491 13.9905 15.1517 14.1024C15.1517 14.1024 15.2111 14.1409 15.2329 14.0832C15.2448 14.0524 15.3474 13.7763 15.3581 13.7464C15.3697 13.7139 15.3491 13.69 15.3282 13.6772C15.097 13.5366 14.7773 13.4404 14.4466 13.4404L14.385 13.4409C13.8218 13.4409 13.4286 13.781 13.4286 14.2686V14.2789C13.4286 14.793 13.8624 14.9596 14.2688 15.0759L14.3342 15.096C14.6303 15.187 14.8859 15.2652 14.8859 15.4738V15.484C14.8859 15.6746 14.7197 15.8165 14.4521 15.8165C14.3483 15.8165 14.0171 15.8144 13.6594 15.5883C13.6163 15.563 13.5906 15.5455 13.5582 15.5246C13.547 15.5173 13.4949 15.4972 13.477 15.5524L13.3556 15.8892ZM19.5057 14.857C19.5057 15.1549 19.4502 15.3895 19.3408 15.5553C19.2327 15.7194 19.069 15.7993 18.8408 15.7993C18.6122 15.7993 18.4494 15.7199 18.343 15.5553C18.2352 15.3899 18.1806 15.1549 18.1806 14.857C18.1806 14.5596 18.2352 14.3254 18.343 14.1613C18.4494 13.9989 18.6122 13.9199 18.8408 13.9199C19.069 13.9199 19.2327 13.9989 19.3412 14.1613C19.4502 14.3254 19.5057 14.5596 19.5057 14.857ZM20.0194 14.3049C19.969 14.1344 19.8904 13.9839 19.7857 13.8587C19.681 13.7331 19.5485 13.6323 19.3912 13.5587C19.2344 13.4857 19.0489 13.4485 18.8408 13.4485C18.6323 13.4485 18.4468 13.4857 18.29 13.5587C18.1327 13.6323 18.0002 13.7331 17.8951 13.8587C17.7908 13.9844 17.7122 14.1348 17.6613 14.3049C17.6113 14.4745 17.5861 14.66 17.5861 14.857C17.5861 15.0541 17.6113 15.2399 17.6613 15.4092C17.7122 15.5793 17.7904 15.7297 17.8955 15.8553C18.0002 15.981 18.1331 16.0814 18.29 16.1527C18.4472 16.2241 18.6323 16.2604 18.8409 16.2604C19.049 16.2604 19.234 16.2241 19.3912 16.1527C19.5481 16.0814 19.681 15.9809 19.7857 15.8553C19.8904 15.7301 19.969 15.5797 20.0195 15.4092C20.0699 15.2395 20.0951 15.0536 20.0951 14.857C20.0951 14.6605 20.0699 14.4745 20.0194 14.3049ZM24.2377 15.7198C24.2206 15.6698 24.1723 15.6886 24.1723 15.6886C24.0975 15.7172 24.018 15.7437 23.9334 15.757C23.8475 15.7702 23.753 15.7771 23.6518 15.7771C23.4031 15.7771 23.2056 15.7031 23.0642 15.557C22.9223 15.4108 22.8428 15.1745 22.8436 14.8548C22.8445 14.5638 22.9146 14.345 23.0407 14.1784C23.1659 14.0126 23.3565 13.9275 23.6108 13.9275C23.8227 13.9275 23.9843 13.9518 24.1535 14.0053C24.1535 14.0053 24.1941 14.0228 24.2133 13.9698C24.2582 13.845 24.2915 13.7557 24.3394 13.6185C24.353 13.5796 24.3197 13.563 24.3077 13.5582C24.2411 13.5322 24.0838 13.4899 23.965 13.4719C23.8539 13.4548 23.724 13.4459 23.5795 13.4459C23.3637 13.4459 23.1714 13.4826 23.0069 13.5561C22.8428 13.6292 22.7035 13.73 22.5932 13.8557C22.483 13.9814 22.3992 14.1318 22.3432 14.3018C22.2877 14.4715 22.2595 14.6578 22.2595 14.8548C22.2595 15.2809 22.3744 15.6253 22.6014 15.8775C22.8287 16.1305 23.1702 16.2591 23.6155 16.2591C23.8787 16.2591 24.1488 16.2057 24.3428 16.1292C24.3428 16.1292 24.38 16.1112 24.3638 16.0681L24.2377 15.7198ZM25.1364 14.5717C25.1608 14.4063 25.2065 14.2687 25.277 14.1615C25.3835 13.9986 25.5458 13.9093 25.7741 13.9093C26.0023 13.9093 26.1531 13.999 26.2612 14.1615C26.333 14.2687 26.3642 14.4123 26.3767 14.5717H25.1364ZM26.8659 14.208C26.8224 14.0435 26.7142 13.8772 26.6433 13.8012C26.5313 13.6806 26.4219 13.5965 26.3134 13.5494C26.1715 13.4887 26.0014 13.4486 25.8151 13.4486C25.598 13.4486 25.401 13.4849 25.2412 13.5601C25.0809 13.6354 24.9463 13.7379 24.8407 13.8657C24.7351 13.993 24.6557 14.1448 24.6052 14.317C24.5544 14.4884 24.5288 14.6751 24.5288 14.8721C24.5288 15.0725 24.5553 15.2593 24.6078 15.4272C24.6608 15.5965 24.7454 15.7456 24.86 15.8691C24.974 15.9935 25.1211 16.0909 25.2971 16.1588C25.4719 16.2263 25.6843 16.2614 25.9283 16.2609C26.4305 16.2592 26.695 16.1473 26.804 16.087C26.8232 16.0763 26.8416 16.0575 26.8185 16.0037L26.7048 15.6853C26.6878 15.6379 26.6394 15.6554 26.6394 15.6554C26.5151 15.7015 26.3382 15.7845 25.9257 15.7836C25.6561 15.7832 25.4561 15.7037 25.3309 15.5793C25.2022 15.452 25.1394 15.2648 25.1283 15.0007L26.8672 15.0024C26.8672 15.0024 26.9129 15.0016 26.9176 14.9571C26.9194 14.9384 26.9775 14.5999 26.8659 14.208ZM11.2105 14.5717C11.2352 14.4063 11.2806 14.2687 11.3511 14.1615C11.4575 13.9986 11.6199 13.9093 11.8481 13.9093C12.0763 13.9093 12.2271 13.999 12.3357 14.1615C12.407 14.2687 12.4382 14.4123 12.4506 14.5717H11.2105ZM12.9395 14.208C12.8959 14.0435 12.7882 13.8772 12.7173 13.8012C12.6053 13.6806 12.4959 13.5965 12.3874 13.5494C12.2455 13.4887 12.0754 13.4486 11.8891 13.4486C11.6724 13.4486 11.475 13.4849 11.3152 13.5601C11.1549 13.6354 11.0203 13.7379 10.9148 13.8657C10.8092 13.993 10.7297 14.1448 10.6793 14.317C10.6289 14.4884 10.6028 14.6751 10.6028 14.8721C10.6028 15.0725 10.6293 15.2593 10.6819 15.4272C10.7349 15.5965 10.8195 15.7456 10.934 15.8691C11.0481 15.9935 11.1951 16.0909 11.3712 16.1588C11.546 16.2263 11.7584 16.2614 12.0024 16.2609C12.5045 16.2592 12.7691 16.1473 12.878 16.087C12.8973 16.0763 12.9156 16.0575 12.8926 16.0037L12.7793 15.6853C12.7618 15.6379 12.7135 15.6554 12.7135 15.6554C12.5892 15.7015 12.4127 15.7845 11.9994 15.7836C11.7302 15.7832 11.5302 15.7037 11.405 15.5793C11.2763 15.452 11.2135 15.2648 11.2024 15.0007L12.9413 15.0024C12.9413 15.0024 12.987 15.0016 12.9917 14.9571C12.9933 14.9384 13.0515 14.5999 12.9395 14.208ZM7.45188 15.7103C7.38392 15.656 7.37452 15.6423 7.35146 15.6073C7.31725 15.5539 7.29974 15.4778 7.29974 15.3812C7.29974 15.2282 7.35016 15.1184 7.45488 15.0445C7.45362 15.0449 7.60446 14.9141 7.95914 14.9188C8.20827 14.9222 8.43091 14.959 8.43091 14.959V15.7496H8.43134C8.43134 15.7496 8.2104 15.797 7.9617 15.812C7.60785 15.8333 7.45058 15.7099 7.45188 15.7103ZM8.14374 14.4885C8.07323 14.4833 7.98176 14.4803 7.87236 14.4803C7.72323 14.4803 7.5792 14.4991 7.44416 14.5355C7.30827 14.5718 7.18605 14.6287 7.08091 14.7038C6.97594 14.7788 6.88966 14.8769 6.82878 14.9906C6.76725 15.1051 6.73605 15.2402 6.73605 15.3915C6.73605 15.5453 6.76254 15.679 6.81554 15.7885C6.86854 15.8983 6.94503 15.9897 7.04245 16.0603C7.13902 16.1308 7.25827 16.1825 7.39671 16.2137C7.53305 16.2449 7.68773 16.2607 7.85698 16.2607C8.03518 16.2607 8.21296 16.2462 8.38518 16.2166C8.55569 16.1876 8.76509 16.1453 8.8232 16.1321C8.86394 16.1222 8.90455 16.1118 8.945 16.1009C8.98818 16.0902 8.98476 16.044 8.98476 16.044L8.98389 14.4539C8.98389 14.1051 8.89073 13.8466 8.7074 13.6863C8.52491 13.5265 8.25611 13.4457 7.90869 13.4457C7.77833 13.4457 7.56851 13.4637 7.44287 13.4889C7.44287 13.4889 7.06296 13.5624 6.90653 13.6846C6.90653 13.6846 6.87236 13.706 6.89115 13.7539L7.01425 14.0846C7.02962 14.1274 7.07109 14.1128 7.07109 14.1128C7.07109 14.1128 7.08434 14.1077 7.09974 14.0987C7.43437 13.9167 7.85743 13.9222 7.85743 13.9222C8.04548 13.9222 8.18992 13.9598 8.28734 14.0346C8.38221 14.1072 8.43049 14.2171 8.43049 14.4487V14.5222C8.28091 14.5009 8.14374 14.4885 8.14374 14.4885ZM22.1686 13.5925C22.1818 13.5532 22.1541 13.5344 22.1425 13.5301C22.1131 13.5186 21.9652 13.4874 21.8511 13.4801C21.6327 13.4669 21.5114 13.5036 21.4028 13.5523C21.2951 13.601 21.1755 13.6796 21.1088 13.769V13.5575C21.1088 13.528 21.0879 13.5045 21.0588 13.5045H20.613C20.584 13.5045 20.5631 13.5279 20.5631 13.5575V16.151C20.5631 16.1801 20.587 16.204 20.616 16.204H21.0729C21.0869 16.204 21.1003 16.1983 21.1101 16.1884C21.12 16.1785 21.1255 16.165 21.1254 16.151V14.8553C21.1254 14.6814 21.1447 14.5079 21.1832 14.3989C21.2208 14.2912 21.2721 14.2049 21.3353 14.1429C21.399 14.0814 21.4712 14.0382 21.5503 14.0139C21.631 13.9891 21.7203 13.981 21.7836 13.981C21.8746 13.981 21.9746 14.0045 21.9746 14.0045C22.0079 14.0083 22.0267 13.9878 22.0378 13.9575C22.0678 13.878 22.1524 13.6399 22.1686 13.5925Z" fill="white"/>
<path d="M17.8796 12.3905C17.8241 12.3734 17.7737 12.3619 17.7078 12.3495C17.6411 12.3375 17.5617 12.3315 17.4715 12.3315C17.157 12.3315 16.9091 12.4204 16.7352 12.5956C16.5621 12.77 16.4446 13.0354 16.3856 13.3845L16.3642 13.5021H15.9694C15.9694 13.5021 15.9215 13.5003 15.9112 13.5525L15.8467 13.9145C15.842 13.9487 15.857 13.9704 15.9031 13.9704H16.2873L15.8976 16.1465C15.8672 16.3217 15.8322 16.4657 15.7933 16.5751C15.7552 16.6828 15.7181 16.7636 15.6719 16.8226C15.6275 16.879 15.5856 16.9209 15.5129 16.9452C15.4531 16.9653 15.3839 16.9747 15.3082 16.9747C15.2663 16.9747 15.2104 16.9678 15.1689 16.9593C15.1279 16.9512 15.1061 16.9422 15.0749 16.9289C15.0749 16.9289 15.03 16.9119 15.0121 16.9567C14.998 16.9939 14.8954 17.2755 14.883 17.3102C14.8711 17.3448 14.8881 17.3717 14.9099 17.3798C14.9612 17.3978 14.9992 17.4097 15.0689 17.4264C15.1655 17.449 15.2471 17.4503 15.3236 17.4503C15.4834 17.4503 15.6295 17.4277 15.7505 17.3841C15.8719 17.3401 15.9778 17.2636 16.0719 17.1602C16.1732 17.0482 16.2368 16.9311 16.2975 16.7709C16.3578 16.6127 16.4095 16.4161 16.4505 16.1871L16.8424 13.9704H17.415C17.415 13.9704 17.4633 13.9721 17.4732 13.9196L17.5381 13.5581C17.5424 13.5235 17.5279 13.5021 17.4813 13.5021H16.9253C16.9283 13.4897 16.9535 13.2939 17.0172 13.1098C17.0445 13.0316 17.0958 12.9679 17.139 12.9243C17.1817 12.8816 17.2309 12.8512 17.2847 12.8337C17.3399 12.8157 17.4027 12.8072 17.4715 12.8072C17.5236 12.8072 17.5753 12.8132 17.6142 12.8213C17.668 12.8329 17.689 12.8388 17.7031 12.8431C17.76 12.8602 17.7676 12.8436 17.7788 12.8162L17.9117 12.4513C17.9253 12.4119 17.8916 12.3952 17.8796 12.3905ZM10.1115 16.1512C10.1115 16.1803 10.0905 16.2038 10.0615 16.2038H9.60036C9.57129 16.2038 9.55078 16.1803 9.55078 16.1512V12.4401C9.55078 12.4111 9.57129 12.3875 9.60036 12.3875H10.0615C10.0905 12.3875 10.1115 12.4111 10.1115 12.4401V16.1512Z" fill="white"/>
<defs>
<linearGradient id="paint0_linear_543_271" x1="15" y1="25.9982" x2="15" y2="5" gradientUnits="userSpaceOnUse">
<stop stop-color="#5558FF"/>
<stop offset="1" stop-color="#00C0FF"/>
</linearGradient>
</defs>
</svg>
