<svg width="35" height="35" viewBox="0 0 35 35" fill="none" xmlns="http://www.w3.org/2000/svg">
<g clip-path="url(#clip0_2817_65)">
<path d="M31.778 4.39258H31.6322V18.7435C31.6322 20.4397 30.2522 21.8196 28.556 21.8196H6.44403C4.74783 21.8196 3.36786 20.4397 3.36786 18.7435V4.39258H3.22205C1.44539 4.39258 0 5.83797 0 7.61456V25.1875C0 26.9641 1.44539 28.4095 3.22198 28.4095H31.7779C33.5545 28.4095 34.9999 26.9641 34.9999 25.1875V7.61456C35 5.83797 33.5546 4.39258 31.778 4.39258ZM25.1882 32.9485H22.9186V30.4603H12.0814V32.9485H9.81183C9.24554 32.9485 8.78644 33.4076 8.78644 33.9739C8.78644 34.5402 9.24554 34.9993 9.81183 34.9993H25.1882C25.7545 34.9993 26.2136 34.5402 26.2136 33.9739C26.2136 33.4076 25.7545 32.9485 25.1882 32.9485Z" fill="#4842A8"/>
<path d="M6.44336 19.7695H28.5554C29.1217 19.7695 29.5808 19.3104 29.5808 18.7441V1.02539C29.5808 0.459102 29.1217 0 28.5554 0H6.44336C5.87707 0 5.41797 0.459102 5.41797 1.02539V18.7441C5.41797 19.3104 5.877 19.7695 6.44336 19.7695ZM21.7166 8.41319C21.3162 8.01281 21.3162 7.36354 21.7166 6.96309C22.117 6.56264 22.7663 6.56271 23.1667 6.96309L25.3634 9.15975C25.5557 9.35204 25.6637 9.61284 25.6637 9.88477C25.6637 10.1567 25.5557 10.4175 25.3634 10.6098L23.1667 12.8064C22.7663 13.2068 22.1171 13.2069 21.7166 12.8064C21.3162 12.406 21.3162 11.7568 21.7166 11.3563L23.1882 9.88477L21.7166 8.41319ZM15.484 11.6228L17.6805 7.22955C17.9338 6.72301 18.5497 6.51772 19.0562 6.771C19.5628 7.02427 19.768 7.64019 19.5148 8.14673L17.3182 12.54C17.0649 13.0465 16.449 13.2518 15.9425 12.9985C15.4359 12.7453 15.2306 12.1293 15.484 11.6228ZM9.63526 9.15975L11.8319 6.96309C12.2323 6.56277 12.8816 6.56264 13.282 6.96309C13.6825 7.36354 13.6825 8.01274 13.282 8.41319L11.8104 9.88477L13.282 11.3563C13.6824 11.7567 13.6824 12.406 13.282 12.8064C12.8816 13.2069 12.2323 13.2068 11.8319 12.8064L9.6352 10.6098C9.44293 10.4175 9.33493 10.1567 9.33494 9.88475C9.33495 9.61282 9.44298 9.35203 9.63526 9.15975Z" fill="#4842A8"/>
</g>
<defs>
<clipPath id="clip0_2817_65">
<rect width="35" height="35" fill="white"/>
</clipPath>
</defs>
</svg>
