<svg width="35" height="35" viewBox="0 0 35 35" fill="none" xmlns="http://www.w3.org/2000/svg">
<g clip-path="url(#clip0_2813_4)">
<path fill-rule="evenodd" clip-rule="evenodd" d="M0 17.5C0 7.83535 7.83535 0 17.5 0C27.1646 0 35 7.83535 35 17.5C35 27.1646 27.1646 35 17.5 35C7.83535 35 0 27.1646 0 17.5ZM26.906 7.20801L19.4145 15.9163H19.414L27.5619 27.774H21.5696L16.0828 19.789L9.21347 27.774H7.43811L15.2946 18.642L7.43811 7.20801H13.4304L18.6259 14.7693L25.1308 7.20801H26.906ZM12.58 8.54448H9.85314L22.4048 26.4983H25.1316L12.58 8.54448Z" fill="white"/>
</g>
<defs>
<clipPath id="clip0_2813_4">
<rect width="35" height="35" fill="white"/>
</clipPath>
</defs>
</svg>
