<svg width="35" height="35" viewBox="0 0 35 35" fill="none" xmlns="http://www.w3.org/2000/svg">
<g clip-path="url(#clip0_937_1345)">
<path d="M26.2485 18.959C24.9658 18.9546 23.7176 19.3745 22.6984 20.1532C21.6791 20.932 20.946 22.0259 20.6132 23.2647C20.2804 24.5035 20.3665 25.8175 20.8582 27.0023C21.35 28.187 22.2196 29.1758 23.3318 29.8149V33.9463C23.3317 34.1543 23.3933 34.3577 23.5089 34.5307C23.6244 34.7037 23.7887 34.8386 23.9809 34.9182C24.173 34.9978 24.3845 35.0187 24.5886 34.9781C24.7926 34.9374 24.98 34.8372 25.127 34.6901L26.2485 33.5701L27.37 34.6901C27.517 34.8372 27.7044 34.9374 27.9084 34.9781C28.1125 35.0187 28.324 34.9978 28.5162 34.9182C28.7084 34.8386 28.8726 34.7037 28.9881 34.5307C29.1037 34.3577 29.1653 34.1543 29.1652 33.9463V29.8149C30.2774 29.1758 31.147 28.187 31.6388 27.0023C32.1305 25.8175 32.2166 24.5035 31.8838 23.2647C31.551 22.0259 30.8179 20.932 29.7986 20.1532C28.7794 19.3745 27.5312 18.9546 26.2485 18.959Z" fill="#4842A8"/>
<path d="M17.5 24.7917C17.4982 23.2552 17.9015 21.7453 18.6693 20.4144C19.4371 19.0834 20.5421 17.9784 21.8731 17.2107C23.2041 16.443 24.714 16.0398 26.2505 16.0417C27.787 16.0436 29.2959 16.4505 30.625 17.2215V7.29167C30.6227 5.35851 29.8537 3.50519 28.4868 2.13824C27.1198 0.771286 25.2665 0.00231563 23.3333 0L11.6667 0C9.73351 0.00231563 7.88019 0.771286 6.51324 2.13824C5.14629 3.50519 4.37732 5.35851 4.375 7.29167V24.7917C4.37732 26.7248 5.14629 28.5781 6.51324 29.9451C7.88019 31.3121 9.73351 32.081 11.6667 32.0833H20.4167V31.2958C19.4995 30.4786 18.7655 29.4766 18.2628 28.3556C17.7602 27.2347 17.5002 26.0202 17.5 24.7917ZM11.6667 5.83333H23.3333C23.7201 5.83333 24.091 5.98698 24.3645 6.26047C24.638 6.53396 24.7917 6.90489 24.7917 7.29167C24.7917 7.67844 24.638 8.04937 24.3645 8.32286C24.091 8.59636 23.7201 8.75 23.3333 8.75H11.6667C11.2799 8.75 10.909 8.59636 10.6355 8.32286C10.362 8.04937 10.2083 7.67844 10.2083 7.29167C10.2083 6.90489 10.362 6.53396 10.6355 6.26047C10.909 5.98698 11.2799 5.83333 11.6667 5.83333ZM11.6667 11.6667H23.3333C23.7201 11.6667 24.091 11.8203 24.3645 12.0938C24.638 12.3673 24.7917 12.7382 24.7917 13.125C24.7917 13.5118 24.638 13.8827 24.3645 14.1562C24.091 14.4297 23.7201 14.5833 23.3333 14.5833H11.6667C11.2799 14.5833 10.909 14.4297 10.6355 14.1562C10.362 13.8827 10.2083 13.5118 10.2083 13.125C10.2083 12.7382 10.362 12.3673 10.6355 12.0938C10.909 11.8203 11.2799 11.6667 11.6667 11.6667ZM16.0417 20.4167H11.6667C11.2799 20.4167 10.909 20.263 10.6355 19.9895C10.362 19.716 10.2083 19.3451 10.2083 18.9583C10.2083 18.5716 10.362 18.2006 10.6355 17.9271C10.909 17.6536 11.2799 17.5 11.6667 17.5H16.0417C16.4284 17.5 16.7994 17.6536 17.0729 17.9271C17.3464 18.2006 17.5 18.5716 17.5 18.9583C17.5 19.3451 17.3464 19.716 17.0729 19.9895C16.7994 20.263 16.4284 20.4167 16.0417 20.4167Z" fill="#4842A8"/>
</g>
<defs>
<clipPath id="clip0_937_1345">
<rect width="35" height="35" fill="white"/>
</clipPath>
</defs>
</svg>
