<svg width="30" height="30" viewBox="0 0 30 30" fill="none" xmlns="http://www.w3.org/2000/svg">
<path d="M25.5469 30H4.45312C2.67615 30 1.23047 28.5543 1.23047 26.7773V11.543C1.23047 9.766 2.67615 8.32031 4.45312 8.32031H25.5469C27.3238 8.32031 28.7695 9.766 28.7695 11.543V26.7773C28.7695 28.5543 27.3238 30 25.5469 30Z" fill="url(#paint0_linear_543_263)"/>
<path d="M15 11.8359C10.9614 11.8359 7.67578 15.1216 7.67578 19.1602C7.67578 23.1987 10.9614 26.4844 15 26.4844C19.0386 26.4844 22.3242 23.1987 22.3242 19.1602C22.3242 15.1216 19.0386 11.8359 15 11.8359ZM13.2422 20.332C13.2422 20.8174 12.8487 21.2109 12.3633 21.2109C11.8779 21.2109 11.4844 20.8174 11.4844 20.332V17.9883C11.4844 17.5029 11.8779 17.1094 12.3633 17.1094C12.8487 17.1094 13.2422 17.5029 13.2422 17.9883V20.332ZM18.5156 20.332C18.5156 20.8174 18.1221 21.2109 17.6367 21.2109C17.1513 21.2109 16.7578 20.8174 16.7578 20.332V17.9883C16.7578 17.5029 17.1513 17.1094 17.6367 17.1094C18.1221 17.1094 18.5156 17.5029 18.5156 17.9883V20.332ZM24.375 13.5938H23.2031C22.7177 13.5938 22.3242 13.2002 22.3242 12.7148C22.3242 12.2295 22.7177 11.8359 23.2031 11.8359H24.375C24.8604 11.8359 25.2539 12.2295 25.2539 12.7148C25.2539 13.2002 24.8604 13.5938 24.375 13.5938ZM6.79688 13.5938H5.625C5.13961 13.5938 4.74609 13.2002 4.74609 12.7148C4.74609 12.2295 5.13961 11.8359 5.625 11.8359H6.79688C7.28227 11.8359 7.67578 12.2295 7.67578 12.7148C7.67578 13.2002 7.28227 13.5938 6.79688 13.5938ZM24.375 26.4844H23.2031C22.7177 26.4844 22.3242 26.0909 22.3242 25.6055C22.3242 25.1201 22.7177 24.7266 23.2031 24.7266H24.375C24.8604 24.7266 25.2539 25.1201 25.2539 25.6055C25.2539 26.0909 24.8604 26.4844 24.375 26.4844ZM6.79688 26.4844H5.625C5.13961 26.4844 4.74609 26.0909 4.74609 25.6055C4.74609 25.1201 5.13961 24.7266 5.625 24.7266H6.79688C7.28227 24.7266 7.67578 25.1201 7.67578 25.6055C7.67578 26.0909 7.28227 26.4844 6.79688 26.4844ZM18.1074 4.79906C18.4506 5.1423 18.4506 5.69877 18.1074 6.04201C17.7642 6.38525 17.2077 6.38525 16.8645 6.04201C15.8364 5.01398 14.1636 5.01393 13.1355 6.04201C12.7923 6.38525 12.2358 6.38525 11.8926 6.04201C11.5494 5.69877 11.5494 5.1423 11.8926 4.79906C13.6061 3.08561 16.394 3.08566 18.1074 4.79906ZM20.5933 2.31311C20.9365 2.65635 20.9365 3.21281 20.5933 3.55605C20.2501 3.8993 19.6936 3.8993 19.3504 3.55605C16.9516 1.15729 13.0484 1.15723 10.6496 3.55605C10.3064 3.8993 9.74994 3.8993 9.4067 3.55605C9.06346 3.21281 9.06346 2.65635 9.4067 2.31311C12.4908 -0.771035 17.5092 -0.771035 20.5933 2.31311Z" fill="url(#paint1_linear_543_263)"/>
<defs>
<linearGradient id="paint0_linear_543_263" x1="15" y1="30" x2="15" y2="8.32031" gradientUnits="userSpaceOnUse">
<stop stop-color="#5558FF"/>
<stop offset="1" stop-color="#00C0FF"/>
</linearGradient>
<linearGradient id="paint1_linear_543_263" x1="15" y1="26.4844" x2="15" y2="0" gradientUnits="userSpaceOnUse">
<stop stop-color="#ADDCFF"/>
<stop offset="0.503" stop-color="#EAF6FF"/>
<stop offset="1" stop-color="#EAF6FF"/>
</linearGradient>
</defs>
</svg>
