<svg width="24" height="24" viewBox="0 0 24 24" fill="none" xmlns="http://www.w3.org/2000/svg">
<path d="M12.0004 15.8086C6.82119 15.8086 2.40039 16.6246 2.40039 19.8886C2.40039 23.1526 6.79359 23.9986 12.0004 23.9986C17.176 23.9986 21.6004 23.1838 21.6004 19.9186C21.6004 16.6534 17.2012 15.8086 12.0004 15.8086Z" fill="#191919"/>
<path opacity="0.4" d="M11.9968 12.7008C13.2528 12.7008 14.4806 12.3284 15.5249 11.6306C16.5692 10.9328 17.3832 9.94098 17.8638 8.78059C18.3445 7.62021 18.4702 6.34336 18.2252 5.1115C17.9802 3.87964 17.3754 2.74811 16.4872 1.85999C15.5991 0.971873 14.4676 0.367056 13.2357 0.122024C12.0039 -0.123008 10.727 0.00275155 9.56664 0.483398C8.40626 0.964045 7.41446 1.77799 6.71667 2.82231C6.01888 3.86663 5.64643 5.09441 5.64643 6.3504C5.64342 7.18519 5.80562 8.01233 6.12369 8.78416C6.44176 9.55598 6.90941 10.2572 7.4997 10.8475C8.08999 11.4378 8.79125 11.9055 9.56308 12.2235C10.3349 12.5416 11.162 12.7038 11.9968 12.7008Z" fill="#191919"/>
</svg>
