<svg width="35" height="35" viewBox="0 0 35 35" fill="none" xmlns="http://www.w3.org/2000/svg">
<g clip-path="url(#clip0_2817_19)">
<path d="M30.826 11.0403C30.6629 4.96303 25.6671 0 19.5508 0C15.2839 0 11.4208 2.46066 9.50332 6.22474C6.71152 6.1155 4.34424 8.28646 4.17901 11.0382C1.69162 12.2149 0 14.7232 0 17.5C0 21.4573 3.28877 24.7461 7.24609 24.7461H10.3223V30.8984H8.08268C7.65782 29.7075 6.53044 28.8477 5.19531 28.8477C3.49911 28.8477 2.11914 30.2277 2.11914 31.9238C2.11914 33.62 3.49918 35 5.19531 35C6.53044 35 7.65782 34.1402 8.08268 32.9492H12.373V24.7461H16.4746V29.0365C15.2837 29.4613 14.4238 30.5887 14.4238 31.9238C14.4238 33.62 15.8039 35 17.5 35C19.1961 35 20.5762 33.62 20.5762 31.9238C20.5762 30.5887 19.7163 29.4613 18.5254 29.0365V24.7461H22.627V32.9492H26.9173C27.3422 34.1402 28.4696 35 29.8047 35C31.5009 35 32.8809 33.62 32.8809 31.9238C32.8809 30.2277 31.6832 28.8477 29.8047 28.8477C28.4696 28.8477 27.3422 29.7075 26.9173 30.8984H24.6777V24.7461H27.7539C31.7112 24.7461 35 21.4573 35 17.5C35 14.7253 33.3105 12.2179 30.826 11.0403ZM18.3791 21.0396C17.9906 20.4049 17.0092 20.4049 16.6208 21.0396L14.8725 19.9683C16.0061 18.1157 18.9941 18.1157 20.1276 19.9683L18.3791 21.0396ZM21.8769 18.8989C20.9346 17.3587 19.2985 16.4385 17.5001 16.4385C15.7016 16.4385 14.0656 17.3586 13.1232 18.8989L11.3728 17.8294C12.6906 15.6745 14.9817 14.3877 17.5001 14.3877C20.0187 14.3877 22.3095 15.6745 23.6276 17.8294L21.8769 18.8989ZM25.3758 16.7589C23.6834 13.9901 20.7394 12.337 17.5001 12.337C14.2607 12.337 11.3168 13.9901 9.62438 16.7589L7.87397 15.6895C9.94287 12.306 13.5408 10.2862 17.5001 10.2862C21.4593 10.2862 25.0572 12.306 27.1262 15.6895L25.3758 16.7589Z" fill="#4842A8"/>
</g>
<defs>
<clipPath id="clip0_2817_19">
<rect width="35" height="35" fill="white"/>
</clipPath>
</defs>
</svg>
