<svg width="35" height="35" viewBox="0 0 35 35" fill="none" xmlns="http://www.w3.org/2000/svg">
<path d="M32.711 21.7314L29.9151 12.8926C29.6895 12.1885 29.2999 11.5391 28.7872 11.0127C27.7755 9.98047 26.2716 9.60449 24.8633 10.0283C24.043 10.2744 23.209 10.459 22.3546 10.5752H22.3409C21.5616 10.6846 20.7823 10.7393 19.9893 10.7393C18.335 10.7393 16.6944 10.5 15.1221 10.0283C13.6934 9.59766 12.1212 10.0215 11.1163 11.0947C10.6309 11.6074 10.2823 12.2158 10.0704 12.8857L7.26081 21.7314C7.00788 22.5312 7.1446 23.3857 7.64362 24.0625C8.14264 24.7461 8.90827 25.1289 9.75592 25.1289C10.4532 25.1289 11.1094 24.8555 11.6016 24.3701L14.1514 21.8271C14.1583 21.8203 14.1651 21.8135 14.1788 21.8066C14.2403 21.752 14.3018 21.7041 14.3633 21.6494C14.1856 21.3145 14.0831 20.9316 14.0831 20.5215C14.0831 19.2021 15.1563 18.1221 16.4825 18.1221C17.4942 18.1221 18.3555 18.751 18.711 19.6328C19.5655 19.4961 20.4405 19.4824 21.2882 19.5986C21.6505 18.7305 22.5049 18.1221 23.503 18.1221C24.8223 18.1221 25.9024 19.1953 25.9024 20.5215C25.9024 20.9248 25.7999 21.3008 25.629 21.6357C25.6973 21.7041 25.7657 21.7656 25.834 21.834L28.3839 24.3701C28.876 24.8623 29.5323 25.1289 30.2296 25.1289C31.0704 25.1289 31.8428 24.7393 32.3419 24.0625C32.8204 23.3857 32.9639 22.5381 32.711 21.7314ZM18.5059 13.2822H19.3741C19.668 13.2822 19.9005 13.5215 19.9005 13.8086C19.9005 14.1025 19.6612 14.335 19.3741 14.335H18.5059C18.212 14.335 17.9796 14.0957 17.9796 13.8086C17.9796 13.5215 18.2188 13.2822 18.5059 13.2822ZM16.6465 14.8818C16.6465 15.627 16.045 16.2285 15.2999 16.2285H15.0059V16.5225C15.0059 17.2676 14.4044 17.8691 13.6592 17.8691H13.6251C12.8799 17.8691 12.2784 17.2676 12.2784 16.5225V16.2285H11.9844C11.2393 16.2285 10.6378 15.627 10.6378 14.8818V14.8477C10.6378 14.1025 11.2393 13.501 11.9844 13.501H12.2784V13.207C12.2784 12.4619 12.8799 11.8604 13.6251 11.8604H13.6592C14.4044 11.8604 15.0059 12.4619 15.0059 13.207V13.501H15.2999C16.045 13.501 16.6465 14.1025 16.6465 14.8477V14.8818ZM21.4659 17.165H18.5059C18.212 17.165 17.9796 16.9258 17.9796 16.6387C17.9796 16.3447 18.2188 16.1123 18.5059 16.1123H21.459C21.753 16.1123 21.9854 16.3516 21.9854 16.6387C21.9923 16.9326 21.753 17.165 21.4659 17.165ZM21.8965 14.3418H21.0284C20.7344 14.3418 20.502 14.1025 20.502 13.8154C20.502 13.5215 20.7413 13.2891 21.0284 13.2891H21.8965C22.1905 13.2891 22.4229 13.5283 22.4229 13.8154C22.4298 14.1025 22.1905 14.3418 21.8965 14.3418ZM24.4395 15.4561C24.1182 15.4561 23.8516 15.1895 23.8516 14.8682C23.8516 14.5469 24.1182 14.2803 24.4395 14.2803C24.7608 14.2803 25.0274 14.5469 25.0274 14.8682C25.0274 15.1895 24.7676 15.4561 24.4395 15.4561ZM26.2032 17.2129C25.8819 17.2129 25.6153 16.9463 25.6153 16.625C25.6153 16.3037 25.8819 16.0371 26.2032 16.0371C26.5245 16.0371 26.7911 16.3037 26.7911 16.625C26.7911 16.9531 26.5313 17.2129 26.2032 17.2129ZM26.2032 13.6924C25.8819 13.6924 25.6153 13.4258 25.6153 13.1045C25.6153 12.7832 25.8819 12.5166 26.2032 12.5166C26.5245 12.5166 26.7911 12.7832 26.7911 13.1045C26.7911 13.4258 26.5313 13.6924 26.2032 13.6924ZM27.9669 15.4561C27.6456 15.4561 27.379 15.1895 27.379 14.8682C27.379 14.5469 27.6456 14.2803 27.9669 14.2803C28.2882 14.2803 28.5548 14.5469 28.5548 14.8682C28.5548 15.1895 28.2882 15.4561 27.9669 15.4561ZM9.61921 2.7207H14.3018C14.459 2.7207 14.5889 2.59082 14.5889 2.43359C14.5889 2.27637 14.459 2.14648 14.3018 2.14648H9.61921C9.46198 2.14648 9.3321 2.27637 9.3321 2.43359C9.3321 2.59082 9.46881 2.7207 9.61921 2.7207Z" fill="#4842A8"/>
<path d="M23.4971 19.1816C22.7588 19.1816 22.1572 19.7832 22.1572 20.5215C22.1572 21.2598 22.7588 21.8613 23.4971 21.8613C24.2354 21.8613 24.8369 21.2598 24.8369 20.5215C24.8369 19.7832 24.2354 19.1816 23.4971 19.1816ZM15.3008 14.5605H14.6924C14.2891 14.5605 13.9541 14.2324 13.9541 13.8223V13.2139C13.9541 13.0566 13.8242 12.9199 13.6602 12.9199H13.626C13.4688 12.9199 13.332 13.0498 13.332 13.2139V13.8223C13.332 14.2256 13.0039 14.5605 12.5937 14.5605H11.9854C11.8281 14.5605 11.6914 14.6904 11.6914 14.8545V14.8887C11.6914 15.0459 11.8213 15.1826 11.9854 15.1826H12.5937C12.9971 15.1826 13.332 15.5107 13.332 15.9209V16.5293C13.332 16.6865 13.4619 16.8232 13.626 16.8232H13.6602C13.8174 16.8232 13.9541 16.6934 13.9541 16.5293V15.9209C13.9541 15.5176 14.2822 15.1826 14.6924 15.1826H15.3008C15.458 15.1826 15.5947 15.0527 15.5947 14.8887V14.8545C15.5879 14.6904 15.458 14.5605 15.3008 14.5605ZM16.4766 19.1816C15.7383 19.1816 15.1367 19.7832 15.1367 20.5215C15.1367 20.8359 15.2461 21.1299 15.4307 21.3623C15.458 21.3828 15.4785 21.4102 15.499 21.4375C15.499 21.4443 15.5059 21.4443 15.5059 21.4512C15.752 21.7041 16.0937 21.8613 16.4697 21.8613C17.208 21.8613 17.8096 21.2598 17.8096 20.5215V20.5146C17.7822 20.4736 17.7686 20.4258 17.7549 20.3779C17.7344 20.2959 17.7412 20.2207 17.7549 20.1455C17.5977 19.5918 17.085 19.1816 16.4766 19.1816Z" fill="#4842A8"/>
<path d="M18.8682 20.6855C18.7861 21.9365 17.7471 22.9277 16.4756 22.9277C15.9424 22.9277 15.4502 22.75 15.0537 22.4561C14.999 22.5039 14.9443 22.5449 14.8896 22.5928L12.3535 25.1221C11.6631 25.8125 10.7402 26.1953 9.7627 26.1953C8.58008 26.1953 7.5 25.6484 6.80273 24.6914C6.10547 23.7344 5.90723 22.5449 6.2627 21.417L9.05176 12.5781C9.31152 11.751 9.74219 11.0127 10.3369 10.3838C11.6152 9.0166 13.6113 8.4834 15.4229 9.02344C16.8994 9.46777 18.4307 9.68652 19.9893 9.68652C20.584 9.68652 21.1719 9.65234 21.7598 9.59082V2.86426C21.7598 1.28516 20.4746 0 18.8955 0H5.03223C3.45312 0 2.16797 1.28516 2.16797 2.86426V32.1357C2.16797 33.7148 3.45312 35 5.03223 35H18.8955C20.4746 35 21.7598 33.7148 21.7598 32.1357V22.1758C21.377 21.7725 21.1309 21.2393 21.1035 20.6445C20.3652 20.5488 19.6064 20.5625 18.8682 20.6855ZM9.61914 1.09375H14.3018C15.04 1.09375 15.6416 1.69531 15.6416 2.43359C15.6416 3.17187 15.04 3.77344 14.3018 3.77344H9.61914C8.88086 3.77344 8.2793 3.17187 8.2793 2.43359C8.2793 1.69531 8.88086 1.09375 9.61914 1.09375ZM15.751 33.1064H8.17676C7.88281 33.1064 7.65039 32.8672 7.65039 32.5801C7.65039 32.2861 7.88965 32.0537 8.17676 32.0537H15.751C16.0449 32.0537 16.2773 32.293 16.2773 32.5801C16.2773 32.874 16.0449 33.1064 15.751 33.1064Z" fill="#4842A8"/>
</svg>
