<svg width="105" height="19" viewBox="0 0 105 19" fill="none" xmlns="http://www.w3.org/2000/svg">
<g clip-path="url(#clip0_742_1899)">
<path fill-rule="evenodd" clip-rule="evenodd" d="M9.11403 0C8.96438 0 8.81804 0.0463626 8.69337 0.132464C8.56718 0.220386 8.46939 0.343139 8.41197 0.485703L6.24498 5.80194L0.750938 6.29692C0.601727 6.31127 0.460252 6.36999 0.345305 6.46581C0.227555 6.56383 0.140472 6.69356 0.0944109 6.83958C0.0474186 6.98753 0.0426715 7.14564 0.0807047 7.29614C0.117867 7.44505 0.196864 7.58024 0.308389 7.68581L4.48982 11.4858L3.22319 17.1215C3.18852 17.2752 3.19818 17.4357 3.25105 17.5842C3.30266 17.7308 3.3962 17.859 3.52007 17.9529C3.64111 18.0447 3.78751 18.0971 3.9394 18.103C3.94738 18.1033 3.95535 18.1035 3.96331 18.1035C3.96445 18.1035 3.96558 18.1035 3.96672 18.1035C4.10899 18.1031 4.24834 18.0617 4.3678 17.9838L9.11403 14.9822L13.906 17.9838C14.0332 18.0617 14.1811 18.0991 14.33 18.0911C14.479 18.0831 14.622 18.0301 14.74 17.939C14.861 17.8459 14.9527 17.72 15.004 17.5763C15.0566 17.4306 15.0674 17.2729 15.0354 17.1215L13.784 11.4858L17.9044 7.68581C18.0228 7.58477 18.1084 7.45092 18.1504 7.30122C18.1936 7.14999 18.1918 6.98838 18.1456 6.83826C18.0994 6.68791 18.0107 6.55589 17.8916 6.45919C17.7738 6.36315 17.6288 6.30641 17.4771 6.29692L11.9678 5.80194L9.8161 0.485482C9.75729 0.341317 9.65959 0.218566 9.53469 0.132464C9.41132 0.0464038 9.26451 0.000172993 9.11403 0Z" fill="#FCC73B"/>
</g>
<g clip-path="url(#clip1_742_1899)">
<path fill-rule="evenodd" clip-rule="evenodd" d="M30.7772 0C30.6276 0 30.4812 0.0463626 30.3566 0.132464C30.2304 0.220386 30.1326 0.343139 30.0752 0.485703L27.9082 5.80194L22.4141 6.29692C22.2649 6.31127 22.1235 6.36999 22.0085 6.46581C21.8908 6.56383 21.8037 6.69356 21.7576 6.83958C21.7106 6.98753 21.7059 7.14564 21.7439 7.29614C21.7811 7.44505 21.8601 7.58024 21.9716 7.68581L26.153 11.4858L24.8864 17.1215C24.8517 17.2752 24.8614 17.4357 24.9143 17.5842C24.9659 17.7308 25.0594 17.859 25.1833 17.9529C25.3043 18.0447 25.4507 18.0971 25.6026 18.103C25.6106 18.1033 25.6186 18.1035 25.6265 18.1035C25.6277 18.1035 25.6288 18.1035 25.6299 18.1035C25.7722 18.1031 25.9115 18.0617 26.031 17.9838L30.7772 14.9822L35.5692 17.9838C35.6964 18.0617 35.8443 18.0991 35.9932 18.0911C36.1422 18.0831 36.2852 18.0301 36.4033 17.939C36.5242 17.8459 36.6159 17.72 36.6672 17.5763C36.7198 17.4306 36.7306 17.2729 36.6986 17.1215L35.4472 11.4858L39.5676 7.68581C39.686 7.58477 39.7716 7.45092 39.8137 7.30122C39.8568 7.14999 39.855 6.98838 39.8088 6.83826C39.7626 6.68791 39.674 6.55589 39.5548 6.45919C39.437 6.36315 39.292 6.30641 39.1403 6.29692L33.631 5.80194L31.4793 0.485482C31.4205 0.341317 31.3228 0.218566 31.1979 0.132464C31.0745 0.0464038 30.9277 0.000172993 30.7772 0Z" fill="#FCC73B"/>
</g>
<g clip-path="url(#clip2_742_1899)">
<path fill-rule="evenodd" clip-rule="evenodd" d="M52.4404 0C52.2908 0 52.1445 0.0463626 52.0198 0.132464C51.8936 0.220386 51.7958 0.343139 51.7384 0.485703L49.5714 5.80194L44.0774 6.29692C43.9281 6.31127 43.7867 6.36999 43.6717 6.46581C43.554 6.56383 43.4669 6.69356 43.4208 6.83958C43.3738 6.98753 43.3691 7.14564 43.4071 7.29614C43.4443 7.44505 43.5233 7.58024 43.6348 7.68581L47.8162 11.4858L46.5496 17.1215C46.5149 17.2752 46.5246 17.4357 46.5775 17.5842C46.6291 17.7308 46.7226 17.859 46.8465 17.9529C46.9675 18.0447 47.1139 18.0971 47.2658 18.103C47.2738 18.1033 47.2818 18.1035 47.2897 18.1035C47.2909 18.1035 47.292 18.1035 47.2931 18.1035C47.4354 18.1031 47.5748 18.0617 47.6942 17.9838L52.4404 14.9822L57.2324 17.9838C57.3596 18.0617 57.5075 18.0991 57.6564 18.0911C57.8054 18.0831 57.9484 18.0301 58.0665 17.939C58.1874 17.8459 58.2791 17.72 58.3304 17.5763C58.383 17.4306 58.3938 17.2729 58.3618 17.1215L57.1104 11.4858L61.2308 7.68581C61.3492 7.58477 61.4348 7.45092 61.4769 7.30122C61.52 7.14999 61.5182 6.98838 61.472 6.83826C61.4258 6.68791 61.3372 6.55589 61.218 6.45919C61.1002 6.36315 60.9552 6.30641 60.8035 6.29692L55.2942 5.80194L53.1425 0.485482C53.0837 0.341317 52.986 0.218566 52.8611 0.132464C52.7377 0.0464038 52.5909 0.000172993 52.4404 0Z" fill="#FCC73B"/>
</g>
<g clip-path="url(#clip3_742_1899)">
<path fill-rule="evenodd" clip-rule="evenodd" d="M74.1035 0C73.9539 0 73.8075 0.0463626 73.6829 0.132464C73.5567 0.220386 73.4589 0.343139 73.4015 0.485703L71.2345 5.80194L65.7404 6.29692C65.5912 6.31127 65.4498 6.36999 65.3348 6.46581C65.2171 6.56383 65.13 6.69356 65.0839 6.83958C65.0369 6.98753 65.0322 7.14564 65.0702 7.29614C65.1074 7.44505 65.1864 7.58024 65.2979 7.68581L69.4793 11.4858L68.2127 17.1215C68.178 17.2752 68.1877 17.4357 68.2405 17.5842C68.2922 17.7308 68.3857 17.859 68.5096 17.9529C68.6306 18.0447 68.777 18.0971 68.9289 18.103C68.9369 18.1033 68.9448 18.1035 68.9528 18.1035C68.9539 18.1035 68.9551 18.1035 68.9562 18.1035C69.0985 18.1031 69.2378 18.0617 69.3573 17.9838L74.1035 14.9822L78.8955 17.9838C79.0227 18.0617 79.1706 18.0991 79.3195 18.0911C79.4685 18.0831 79.6115 18.0301 79.7295 17.939C79.8505 17.8459 79.9422 17.72 79.9935 17.5763C80.0461 17.4306 80.0569 17.2729 80.0249 17.1215L78.7735 11.4858L82.8939 7.68581C83.0123 7.58477 83.0979 7.45092 83.1399 7.30122C83.1831 7.14999 83.1813 6.98838 83.1351 6.83826C83.0889 6.68791 83.0002 6.55589 82.8811 6.45919C82.7633 6.36315 82.6183 6.30641 82.4666 6.29692L76.9573 5.80194L74.8056 0.485482C74.7468 0.341317 74.6491 0.218566 74.5242 0.132464C74.4008 0.0464038 74.254 0.000172993 74.1035 0Z" fill="#FCC73B"/>
</g>
<g clip-path="url(#clip4_742_1899)">
<path fill-rule="evenodd" clip-rule="evenodd" d="M95.7667 0C95.6171 0 95.4707 0.0463626 95.3461 0.132464C95.2199 0.220386 95.1221 0.343139 95.0647 0.485703L92.8977 5.80194L87.4036 6.29692C87.2544 6.31127 87.113 6.36999 86.998 6.46581C86.8803 6.56383 86.7932 6.69356 86.7471 6.83958C86.7001 6.98753 86.6954 7.14564 86.7334 7.29614C86.7706 7.44505 86.8496 7.58024 86.9611 7.68581L91.1425 11.4858L89.8759 17.1215C89.8412 17.2752 89.8509 17.4357 89.9038 17.5842C89.9554 17.7308 90.0489 17.859 90.1728 17.9529C90.2938 18.0447 90.4402 18.0971 90.5921 18.103C90.6001 18.1033 90.6081 18.1035 90.616 18.1035C90.6172 18.1035 90.6183 18.1035 90.6194 18.1035C90.7617 18.1031 90.9011 18.0617 91.0205 17.9838L95.7667 14.9822L100.559 17.9838C100.686 18.0617 100.834 18.0991 100.983 18.0911C101.132 18.0831 101.275 18.0301 101.393 17.939C101.514 17.8459 101.605 17.72 101.657 17.5763C101.709 17.4306 101.72 17.2729 101.688 17.1215L100.437 11.4858L104.557 7.68581C104.675 7.58477 104.761 7.45092 104.803 7.30122C104.846 7.14999 104.844 6.98838 104.798 6.83826C104.752 6.68791 104.663 6.55589 104.544 6.45919C104.426 6.36315 104.281 6.30641 104.13 6.29692L98.6205 5.80194L96.4688 0.485482C96.41 0.341317 96.3123 0.218566 96.1874 0.132464C96.064 0.0464038 95.9172 0.000172993 95.7667 0Z" fill="#FCC73B"/>
</g>
<defs>
<clipPath id="clip0_742_1899">
<rect width="18.3474" height="18.1035" fill="white"/>
</clipPath>
<clipPath id="clip1_742_1899">
<rect width="18.3474" height="18.1035" fill="white" transform="translate(21.6632)"/>
</clipPath>
<clipPath id="clip2_742_1899">
<rect width="18.3474" height="18.1035" fill="white" transform="translate(43.3264)"/>
</clipPath>
<clipPath id="clip3_742_1899">
<rect width="18.3474" height="18.1035" fill="white" transform="translate(64.9895)"/>
</clipPath>
<clipPath id="clip4_742_1899">
<rect width="18.3474" height="18.1035" fill="white" transform="translate(86.6527)"/>
</clipPath>
</defs>
</svg>
