<svg width="24" height="24" viewBox="0 0 24 24" fill="none" xmlns="http://www.w3.org/2000/svg">
<g clip-path="url(#clip0_3432_10)">
<mask id="mask0_3432_10" style="mask-type:luminance" maskUnits="userSpaceOnUse" x="0" y="0" width="24" height="24">
<path d="M24 0H0V24H24V0Z" fill="white"/>
</mask>
<g mask="url(#mask0_3432_10)">
<path opacity="0.4" d="M19.1996 4.7998H3.59961V19.1998H19.1996V4.7998Z" fill="#191919"/>
<path d="M20.4916 3.51438C18.4364 1.4511 15.7007 0.206197 12.795 0.012046C9.8893 -0.182105 7.01224 0.687766 4.70086 2.45929C2.38948 4.23081 0.801742 6.7829 0.234014 9.6392C-0.333715 12.4955 0.157368 15.4608 1.6156 17.9816L0.0555955 23.1476C0.0216824 23.2603 0.0184916 23.3801 0.0463529 23.4945C0.0742142 23.6089 0.132117 23.7138 0.214078 23.7983C0.296039 23.8828 0.399084 23.9439 0.512567 23.9753C0.626049 24.0067 0.745852 24.0072 0.859596 23.9768L6.2668 22.5272C8.02482 23.485 9.99479 23.9871 11.9968 23.9876C14.4635 24.0182 16.8783 23.278 18.9041 21.8702C20.93 20.4625 22.4657 18.4574 23.2972 16.1348C24.0701 13.9811 24.2168 11.6524 23.7202 9.41868C23.2237 7.18499 22.1042 5.13778 20.4916 3.51438ZM17.8756 16.2716C17.6579 16.6383 17.3651 16.9548 17.0164 17.2003C16.6677 17.4458 16.271 17.6147 15.8524 17.696C15.3028 17.7464 14.788 17.9444 12.2524 16.9472C10.1533 15.9535 8.37876 14.3853 7.1344 12.4244C6.43357 11.5327 6.00819 10.4559 5.9104 9.32598C5.90281 8.85919 5.99258 8.39594 6.17399 7.96578C6.35539 7.53562 6.62445 7.14798 6.964 6.82758C7.06411 6.71334 7.18682 6.62109 7.32437 6.55665C7.46192 6.49221 7.61134 6.45698 7.7632 6.45318C7.9624 6.45318 8.1628 6.45318 8.3368 6.46038C8.5504 6.46878 8.7868 6.47958 9.0112 6.97758C9.2776 7.57038 9.8596 9.05238 9.934 9.20238C9.9813 9.28086 10.0084 9.36987 10.0128 9.4614C10.0172 9.55293 9.99876 9.64412 9.9592 9.72678C9.88348 9.90636 9.78289 10.0744 9.6604 10.226C9.5104 10.4012 9.346 10.616 9.2116 10.7504C9.0772 10.8848 8.9056 11.0624 9.0796 11.3612C9.52955 12.1328 10.0917 12.8332 10.7476 13.4396C11.4588 14.0711 12.2741 14.5745 13.1572 14.9276C13.4572 15.0776 13.6372 15.0476 13.8064 14.852C13.9756 14.6564 14.5552 13.9784 14.7544 13.6784C14.9536 13.3784 15.154 13.4288 15.4288 13.5284C15.7036 13.628 17.1772 14.3528 17.476 14.5028C17.7748 14.6528 17.9752 14.7272 18.0496 14.852C18.1308 15.3324 18.0704 15.8249 17.8756 16.2716Z" fill="#191919"/>
</g>
</g>
<defs>
<clipPath id="clip0_3432_10">
<rect width="24" height="24" fill="white"/>
</clipPath>
</defs>
</svg>
