<svg width="35" height="35" viewBox="0 0 35 35" fill="none" xmlns="http://www.w3.org/2000/svg">
<g clip-path="url(#clip0_937_1332)">
<path d="M0 13.1257V26.2507C0.00231563 28.1838 0.771286 30.0371 2.13824 31.4041C3.50519 32.771 5.35851 33.54 7.29167 33.5423H27.7083C29.6415 33.54 31.4948 32.771 32.8618 31.4041C34.2287 30.0371 34.9977 28.1838 35 26.2507V13.1257H0ZM20.4167 27.709H8.75C8.36323 27.709 7.99229 27.5553 7.7188 27.2818C7.44531 27.0084 7.29167 26.6374 7.29167 26.2507C7.29167 25.8639 7.44531 25.4929 7.7188 25.2195C7.99229 24.946 8.36323 24.7923 8.75 24.7923H20.4167C20.8034 24.7923 21.1744 24.946 21.4479 25.2195C21.7214 25.4929 21.875 25.8639 21.875 26.2507C21.875 26.6374 21.7214 27.0084 21.4479 27.2818C21.1744 27.5553 20.8034 27.709 20.4167 27.709ZM26.25 21.8757H8.75C8.36323 21.8757 7.99229 21.722 7.7188 21.4485C7.44531 21.175 7.29167 20.8041 7.29167 20.4173C7.29167 20.0305 7.44531 19.6596 7.7188 19.3861C7.99229 19.1126 8.36323 18.959 8.75 18.959H26.25C26.6368 18.959 27.0077 19.1126 27.2812 19.3861C27.5547 19.6596 27.7083 20.0305 27.7083 20.4173C27.7083 20.8041 27.5547 21.175 27.2812 21.4485C27.0077 21.722 26.6368 21.8757 26.25 21.8757ZM35 10.209V8.75065C34.9977 6.81749 34.2287 4.96417 32.8618 3.59722C31.4948 2.23027 29.6415 1.4613 27.7083 1.45898H7.29167C5.35851 1.4613 3.50519 2.23027 2.13824 3.59722C0.771286 4.96417 0.00231563 6.81749 0 8.75065L0 10.209H35ZM14.5833 4.37565C14.8718 4.37565 15.1537 4.46118 15.3935 4.62142C15.6334 4.78167 15.8203 5.00943 15.9307 5.2759C16.041 5.54238 16.0699 5.8356 16.0136 6.11849C15.9574 6.40138 15.8185 6.66123 15.6145 6.86518C15.4106 7.06913 15.1507 7.20803 14.8678 7.2643C14.585 7.32057 14.2917 7.29169 14.0253 7.18131C13.7588 7.07093 13.531 6.88401 13.3708 6.64419C13.2105 6.40437 13.125 6.12242 13.125 5.83398C13.125 5.44721 13.2786 5.07628 13.5521 4.80279C13.8256 4.5293 14.1966 4.37565 14.5833 4.37565ZM10.2083 4.37565C10.4968 4.37565 10.7787 4.46118 11.0185 4.62142C11.2584 4.78167 11.4453 5.00943 11.5557 5.2759C11.666 5.54238 11.6949 5.8356 11.6386 6.11849C11.5824 6.40138 11.4435 6.66123 11.2395 6.86518C11.0356 7.06913 10.7757 7.20803 10.4928 7.2643C10.21 7.32057 9.91673 7.29169 9.65025 7.18131C9.38378 7.07093 9.15602 6.88401 8.99577 6.64419C8.83553 6.40437 8.75 6.12242 8.75 5.83398C8.75 5.44721 8.90365 5.07628 9.17714 4.80279C9.45063 4.5293 9.82156 4.37565 10.2083 4.37565ZM5.83333 4.37565C6.12176 4.37565 6.40372 4.46118 6.64354 4.62142C6.88336 4.78167 7.07028 5.00943 7.18066 5.2759C7.29104 5.54238 7.31992 5.8356 7.26365 6.11849C7.20738 6.40138 7.06848 6.66123 6.86453 6.86518C6.66058 7.06913 6.40073 7.20803 6.11784 7.2643C5.83495 7.32057 5.54173 7.29169 5.27525 7.18131C5.00878 7.07093 4.78102 6.88401 4.62077 6.64419C4.46053 6.40437 4.375 6.12242 4.375 5.83398C4.375 5.44721 4.52865 5.07628 4.80214 4.80279C5.07563 4.5293 5.44656 4.37565 5.83333 4.37565Z" fill="#4842A8"/>
</g>
<defs>
<clipPath id="clip0_937_1332">
<rect width="35" height="35" fill="white"/>
</clipPath>
</defs>
</svg>
