<svg width="35" height="35" viewBox="0 0 35 35" fill="none" xmlns="http://www.w3.org/2000/svg">
<path d="M21.8737 0H13.1237C11.1905 0.00231563 9.33722 0.771286 7.97027 2.13824C6.60332 3.50519 5.83435 5.35851 5.83203 7.29167V23.3333H29.1654V7.29167C29.163 5.35851 28.3941 3.50519 27.0271 2.13824C25.6602 0.771286 23.8069 0.00231563 21.8737 0ZM5.83203 27.7083C5.83435 29.6415 6.60332 31.4948 7.97027 32.8618C9.33722 34.2287 11.1905 34.9977 13.1237 35H21.8737C23.8069 34.9977 25.6602 34.2287 27.0271 32.8618C28.3941 31.4948 29.163 29.6415 29.1654 27.7083V26.25H5.83203V27.7083ZM17.4987 29.1667C17.7871 29.1667 18.0691 29.2522 18.3089 29.4124C18.5487 29.5727 18.7356 29.8004 18.846 30.0669C18.9564 30.3334 18.9853 30.6266 18.929 30.9095C18.8727 31.1924 18.7338 31.4522 18.5299 31.6562C18.3259 31.8602 18.0661 31.999 17.7832 32.0553C17.5003 32.1116 17.2071 32.0827 16.9406 31.9723C16.6741 31.8619 16.4464 31.675 16.2861 31.4352C16.1259 31.1954 16.0404 30.9134 16.0404 30.625C16.0404 30.2382 16.194 29.8673 16.4675 29.5938C16.741 29.3203 17.1119 29.1667 17.4987 29.1667Z" fill="#4842A8"/>
</svg>
