<svg width="35" height="35" viewBox="0 0 35 35" fill="none" xmlns="http://www.w3.org/2000/svg">
<g clip-path="url(#clip0_2817_69)">
<path d="M28.8467 0.669922V6.22159H34.3984L28.8467 0.669922ZM21.7836 25.4575C23.218 23.9034 24.0957 21.8282 24.0957 19.5517C24.0957 14.7457 20.1858 10.8358 15.3799 10.8358C10.5739 10.8358 6.66406 14.7457 6.66406 19.5517C6.66406 21.8282 7.5418 23.9034 8.97618 25.4575C9.29166 23.7377 10.4326 22.3555 11.9509 21.6909C11.3175 20.9228 10.9365 19.9391 10.9365 18.8681C10.9365 16.418 12.9298 14.4247 15.3799 14.4247C17.83 14.4247 19.8232 16.418 19.8232 18.8681C19.8232 19.9391 19.4423 20.9228 18.8089 21.6909C20.3272 22.3555 21.4681 23.7377 21.7836 25.4575Z" fill="#4842A8"/>
<path d="M15.3809 21.2598C16.7022 21.2598 17.7734 20.1886 17.7734 18.8672C17.7734 17.5458 16.7022 16.4746 15.3809 16.4746C14.0595 16.4746 12.9883 17.5458 12.9883 18.8672C12.9883 20.1886 14.0595 21.2598 15.3809 21.2598Z" fill="#4842A8"/>
<path d="M10.9842 25.8768L10.8027 26.9642C12.134 27.7894 13.7027 28.2666 15.3808 28.2666C17.059 28.2666 18.6276 27.7894 19.9589 26.9642L19.7775 25.8768C19.5293 24.3898 18.2552 23.3105 16.748 23.3105H14.0136C12.5065 23.3105 11.2324 24.3898 10.9842 25.8768Z" fill="#4842A8"/>
<path d="M27.8223 8.27148C27.256 8.27148 26.7969 7.81238 26.7969 7.24609V0.0683594H10.7324C9.41315 0.0683594 8.33984 1.14167 8.33984 2.46094V11.412C10.2289 9.77553 12.6913 8.78418 15.3809 8.78418C17.4056 8.78418 19.3013 9.34637 20.9209 10.3223H29.873C30.4393 10.3223 30.8984 10.7814 30.8984 11.3477C30.8984 11.9139 30.4393 12.373 29.873 12.373H23.3984C23.959 12.9981 24.445 13.6864 24.8465 14.4238H29.873C30.4393 14.4238 30.8984 14.8829 30.8984 15.4492C30.8984 16.0155 30.4393 16.4746 29.873 16.4746H25.699C25.8987 17.1435 26.0325 17.8304 26.0984 18.5254H29.873C30.4393 18.5254 30.8984 18.9845 30.8984 19.5508C30.8984 20.1171 30.4393 20.5762 29.873 20.5762H26.0984C26.0325 21.2712 25.8987 21.958 25.699 22.627H29.873C30.4393 22.627 30.8984 23.0861 30.8984 23.6523C30.8984 24.2186 30.4393 24.6777 29.873 24.6777H24.8465C23.0212 28.0341 19.4627 30.3174 15.3809 30.3174C13.9152 30.3174 12.5171 30.0225 11.2424 29.4898L8.33984 32.3923V32.5391C8.33984 33.8583 9.41315 34.9316 10.7324 34.9316H32.6074C33.9267 34.9316 35 33.8583 35 32.5391V8.27148H27.8223ZM23.7207 8.27148H13.4668C12.9005 8.27148 12.4414 7.81238 12.4414 7.24609C12.4414 6.6798 12.9005 6.2207 13.4668 6.2207H23.7207C24.287 6.2207 24.7461 6.6798 24.7461 7.24609C24.7461 7.81238 24.287 8.27148 23.7207 8.27148ZM29.873 28.7793H24.4043C23.838 28.7793 23.3789 28.3202 23.3789 27.7539C23.3789 27.1876 23.838 26.7285 24.4043 26.7285H29.873C30.4393 26.7285 30.8984 27.1876 30.8984 27.7539C30.8984 28.3202 30.4393 28.7793 29.873 28.7793Z" fill="#4842A8"/>
<path d="M6.45948 25.5723L0.600674 31.4311C-0.200225 32.232 -0.200225 33.5305 0.600674 34.3313C1.40157 35.1321 2.70006 35.1322 3.50089 34.3313L9.3597 28.4725C8.21742 27.6989 7.2331 26.7145 6.45948 25.5723Z" fill="#4842A8"/>
</g>
<defs>
<clipPath id="clip0_2817_69">
<rect width="35" height="35" fill="white"/>
</clipPath>
</defs>
</svg>
