<svg width="30" height="30" viewBox="0 0 30 30" fill="none" xmlns="http://www.w3.org/2000/svg">
<path d="M20.9414 0H8.63672C7.18277 0 6 1.18277 6 2.63672V27.3633C6 28.8172 7.18277 30 8.63672 30H20.9414C22.3954 30 23.5781 28.8172 23.5781 27.3633V2.63672C23.5781 1.18277 22.3954 0 20.9414 0Z" fill="url(#paint0_linear_542_200)"/>
<path d="M14.7891 5.27344C15.2745 5.27344 15.668 4.87992 15.668 4.39453C15.668 3.90914 15.2745 3.51562 14.7891 3.51562C14.3037 3.51562 13.9102 3.90914 13.9102 4.39453C13.9102 4.87992 14.3037 5.27344 14.7891 5.27344ZM15.668 24.7266H13.9102C13.4244 24.7266 13.0312 25.1197 13.0312 25.6055C13.0312 26.0913 13.4244 26.4844 13.9102 26.4844H15.668C16.1538 26.4844 16.5469 26.0913 16.5469 25.6055C16.5469 25.1197 16.1538 24.7266 15.668 24.7266Z" fill="url(#paint1_linear_542_200)"/>
<g clip-path="url(#clip0_542_200)">
<path d="M12.592 10.0802L13.087 10.9637C12.1674 11.4229 11.5315 12.3029 11.5315 13.3314H17.4681C17.4681 12.3071 16.8321 11.4236 15.9133 10.9637L16.4083 10.0802C16.4083 10.0802 16.4437 10.0448 16.3729 10.0094C16.3375 9.97402 16.3021 10.0448 16.3021 10.0448L15.7717 10.9286C15.3604 10.7438 14.9149 10.6475 14.464 10.6461C14.0132 10.6475 13.5676 10.7438 13.1564 10.9286L12.627 10.0452C12.627 10.0452 12.592 10.0101 12.5562 10.0101C12.5599 10.037 12.5724 10.0618 12.5916 10.0809L12.592 10.0802ZM13.0904 11.8114C13.2279 11.8114 13.373 11.9489 13.373 12.0939C13.373 12.239 13.2355 12.3765 13.0904 12.3765C13.0531 12.377 13.0162 12.3701 12.9816 12.3561C12.9471 12.3421 12.9157 12.3213 12.8894 12.295C12.863 12.2686 12.8422 12.2372 12.8282 12.2027C12.8142 12.1682 12.8073 12.1312 12.8078 12.0939C12.8073 12.0567 12.8142 12.0197 12.8282 11.9851C12.8422 11.9506 12.863 11.9192 12.8894 11.8929C12.9157 11.8665 12.9471 11.8457 12.9816 11.8317C13.0162 11.8177 13.0531 11.8108 13.0904 11.8114ZM15.9174 11.8114C16.0549 11.8114 16.2 11.9489 16.2 12.0939C16.2 12.239 16.0625 12.3765 15.9174 12.3765C15.8801 12.377 15.8432 12.3701 15.8086 12.3561C15.7741 12.3421 15.7427 12.3213 15.7164 12.295C15.69 12.2686 15.6692 12.2372 15.6552 12.2027C15.6412 12.1682 15.6343 12.1312 15.6348 12.0939C15.6343 12.0567 15.6412 12.0197 15.6552 11.9851C15.6692 11.9506 15.69 11.9192 15.7164 11.8929C15.7427 11.8665 15.7741 11.8457 15.8086 11.8317C15.8432 11.8177 15.8801 11.8108 15.9174 11.8114ZM11.4961 13.6848V18.2085C11.4961 18.4206 11.7787 18.7386 11.9911 18.7386H12.6978V20.2934C12.6978 20.6818 12.9804 21.0001 13.3338 21.0001C13.6872 21.0001 13.9697 20.6822 13.9697 20.2934V18.7379H14.9941V20.2927C14.9941 20.6811 15.2767 20.9995 15.63 20.9995C15.9834 20.9995 16.266 20.6815 16.266 20.2927V18.7379H16.9727C17.1848 18.7379 17.4677 18.4554 17.4677 18.2079V13.6848H11.4961Z" fill="white"/>
<path d="M10.507 13.5791C10.8604 13.5791 11.143 13.8971 11.143 14.2859V16.9716C11.143 17.36 10.8604 17.6783 10.507 17.6783C10.1537 17.6783 9.87109 17.3604 9.87109 16.9716V14.2859C9.87109 13.8974 10.1537 13.5791 10.507 13.5791V13.5791Z" fill="white"/>
<path d="M18.4953 13.5791C18.8487 13.5791 19.1312 13.8971 19.1312 14.2859V16.9716C19.1312 17.36 18.8487 17.6783 18.4953 17.6783C18.1419 17.6783 17.8594 17.3604 17.8594 16.9716V14.2859C17.8594 13.8974 18.1419 13.5791 18.4953 13.5791V13.5791Z" fill="white"/>
</g>
<defs>
<linearGradient id="paint0_linear_542_200" x1="14.7891" y1="30" x2="14.7891" y2="0" gradientUnits="userSpaceOnUse">
<stop stop-color="#5558FF"/>
<stop offset="1" stop-color="#00C0FF"/>
</linearGradient>
<linearGradient id="paint1_linear_542_200" x1="14.7891" y1="26.4844" x2="14.7891" y2="3.51562" gradientUnits="userSpaceOnUse">
<stop stop-color="#ADDCFF"/>
<stop offset="0.503" stop-color="#EAF6FF"/>
<stop offset="1" stop-color="#EAF6FF"/>
</linearGradient>
<clipPath id="clip0_542_200">
<rect width="11" height="11" fill="white" transform="translate(9 10)"/>
</clipPath>
</defs>
</svg>
