<svg width="35" height="35" viewBox="0 0 35 35" fill="none" xmlns="http://www.w3.org/2000/svg">
<path fill-rule="evenodd" clip-rule="evenodd" d="M2.1875 5.46875C2.1875 4.59851 2.5332 3.76391 3.14856 3.14856C3.76391 2.5332 4.59851 2.1875 5.46875 2.1875H14.2188C15.089 2.1875 15.9236 2.5332 16.5389 3.14856C17.1543 3.76391 17.5 4.59851 17.5 5.46875V19.6875C17.5 20.5577 17.1543 21.3923 16.5389 22.0077C15.9236 22.623 15.089 22.9687 14.2188 22.9688H10.9375V29.5312C10.9375 29.8213 11.0527 30.0995 11.2579 30.3046C11.463 30.5098 11.7412 30.625 12.0312 30.625H24.0625C24.3526 30.625 24.6308 30.5098 24.8359 30.3046C25.041 30.0995 25.1562 29.8213 25.1562 29.5312V28.8903L24.8358 29.2108C24.6295 29.41 24.3532 29.5203 24.0664 29.5178C23.7797 29.5153 23.5053 29.4002 23.3025 29.1975C23.0998 28.9947 22.9847 28.7203 22.9822 28.4336C22.9797 28.1468 23.09 27.8705 23.2892 27.6642L25.4767 25.4767C25.6818 25.2717 25.96 25.1565 26.25 25.1565C26.54 25.1565 26.8182 25.2717 27.0233 25.4767L29.2108 27.6642C29.41 27.8705 29.5203 28.1468 29.5178 28.4336C29.5153 28.7203 29.4002 28.9947 29.1975 29.1975C28.9947 29.4002 28.7203 29.5153 28.4336 29.5178C28.1468 29.5203 27.8705 29.41 27.6642 29.2108L27.3438 28.8903V29.5312C27.3437 30.4015 26.998 31.2361 26.3827 31.8514C25.7673 32.4668 24.9327 32.8125 24.0625 32.8125H12.0312C11.161 32.8125 10.3264 32.4668 9.71106 31.8514C9.0957 31.2361 8.75 30.4015 8.75 29.5312V22.9688H5.46875C4.59851 22.9687 3.76391 22.623 3.14856 22.0077C2.5332 21.3923 2.1875 20.5577 2.1875 19.6875V5.46875ZM5.46875 7.65625C5.46875 7.36617 5.58398 7.08797 5.7891 6.88285C5.99422 6.67773 6.27242 6.5625 6.5625 6.5625H8.75C9.04008 6.5625 9.31828 6.67773 9.5234 6.88285C9.72852 7.08797 9.84375 7.36617 9.84375 7.65625C9.84375 7.94633 9.72852 8.22453 9.5234 8.42965C9.31828 8.63477 9.04008 8.75 8.75 8.75H6.5625C6.27242 8.75 5.99422 8.63477 5.7891 8.42965C5.58398 8.22453 5.46875 7.94633 5.46875 7.65625ZM6.5625 9.84375C6.27242 9.84375 5.99422 9.95898 5.7891 10.1641C5.58398 10.3692 5.46875 10.6474 5.46875 10.9375C5.46875 11.2276 5.58398 11.5058 5.7891 11.7109C5.99422 11.916 6.27242 12.0312 6.5625 12.0312H13.125C13.4151 12.0312 13.6933 11.916 13.8984 11.7109C14.1035 11.5058 14.2188 11.2276 14.2188 10.9375C14.2188 10.6474 14.1035 10.3692 13.8984 10.1641C13.6933 9.95898 13.4151 9.84375 13.125 9.84375H6.5625ZM5.46875 14.2188C5.46875 13.9287 5.58398 13.6505 5.7891 13.4454C5.99422 13.2402 6.27242 13.125 6.5625 13.125H13.125C13.4151 13.125 13.6933 13.2402 13.8984 13.4454C14.1035 13.6505 14.2188 13.9287 14.2188 14.2188C14.2188 14.5088 14.1035 14.787 13.8984 14.9921C13.6933 15.1973 13.4151 15.3125 13.125 15.3125H6.5625C6.27242 15.3125 5.99422 15.1973 5.7891 14.9921C5.58398 14.787 5.46875 14.5088 5.46875 14.2188ZM6.5625 16.4062C6.27242 16.4062 5.99422 16.5215 5.7891 16.7266C5.58398 16.9317 5.46875 17.2099 5.46875 17.5C5.46875 17.7901 5.58398 18.0683 5.7891 18.2734C5.99422 18.4785 6.27242 18.5938 6.5625 18.5938H13.125C13.4151 18.5938 13.6933 18.4785 13.8984 18.2734C14.1035 18.0683 14.2188 17.7901 14.2188 17.5C14.2188 17.2099 14.1035 16.9317 13.8984 16.7266C13.6933 16.5215 13.4151 16.4062 13.125 16.4062H6.5625Z" fill="#4842A8"/>
<path d="M21.875 2.1875C21.0048 2.1875 20.1702 2.5332 19.5548 3.14856C18.9395 3.76391 18.5938 4.59851 18.5938 5.46875V19.6875C18.5938 20.5577 18.9395 21.3923 19.5548 22.0077C20.1702 22.623 21.0048 22.9687 21.875 22.9688H29.5312C30.4015 22.9687 31.2361 22.623 31.8514 22.0077C32.4668 21.3923 32.8125 20.5577 32.8125 19.6875V5.46875C32.8125 4.59851 32.4668 3.76391 31.8514 3.14856C31.2361 2.5332 30.4015 2.1875 29.5312 2.1875H21.875Z" fill="#4842A8"/>
</svg>
